<?xml version="1.0" standalone="no"?>
<!DOCTYPE svg PUBLIC "-//W3C//DTD SVG 1.1//EN" "http://www.w3.org/Graphics/SVG/1.1/DTD/svg11.dtd" >
<svg>
<metadata>
Created by FontForge 20120731 at Thu Aug 11 00:59:36 2016
 By Apache
Copyright (c) 2012 by Stairsfor. All rights reserved.
</metadata>
<defs>
<font id="Arsenal-BoldItalic" horiz-adv-x="524" >
  <font-face 
    font-family="Arsenal"
    font-weight="700"
    font-style="italic"
    font-stretch="normal"
    units-per-em="1000"
    panose-1="2 1 8 4 6 2 0 2 0 4"
    ascent="750"
    descent="-250"
    x-height="500"
    cap-height="650"
    bbox="-87 -339 1849 955"
    underline-thickness="50"
    underline-position="-50"
    slope="-9"
    stemh="67"
    stemv="137"
    unicode-range="U+0020-FB06"
  />
<missing-glyph horiz-adv-x="619" 
d="M329 506l-11 -88h-78l-11 -90h-97l22 178h175zM395 28l11 88h79l11 90h97l-23 -178h-175zM443 418l11 88h175l-22 -178h-96l10 90h-78zM214 206l-11 -90h78l-11 -88h-175l23 178h96z" />
    <glyph glyph-name="uniFB01" unicode="fi" horiz-adv-x="571" 
d="M368 760c52 0 96 -27 126 -51c16 13 35 19 54 19s37 -6 49 -19c10 -13 15 -28 15 -45c0 -25 -11 -51 -31 -70c-17 -13 -36 -19 -55 -19s-37 6 -49 20c-11 12 -16 28 -16 45c0 6 1 13 2 19c-22 17 -49 32 -78 32c-56 0 -76 -25 -92 -135l-8 -56h127l-11 -77h-127l-64 -452
c-24 -171 -108 -232 -209 -232c-64 0 -88 30 -88 30l30 60s23 -19 51 -19c42 0 66 38 83 161l64 452h-47l9 60l48 14l11 74c17 113 70 189 206 189zM582 500l-70 -500h-133l70 500h133z" />
    <glyph glyph-name="uniFB02" unicode="fl" horiz-adv-x="580" 
d="M627 754l-106 -754h-133l92 658c-32 15 -80 35 -112 35c-41 0 -59 -27 -75 -137l-8 -56h125l-11 -77h-125l-64 -452c-24 -171 -108 -232 -209 -232c-64 0 -88 30 -88 30l30 60s23 -19 51 -19c42 0 66 38 83 161l64 452h-49l9 60l50 14l11 74c17 113 80 189 178 189
c56 0 111 -18 150 -34l3 20z" />
    <glyph glyph-name="uniFB00" unicode="ff" horiz-adv-x="647" 
d="M377 -29l64 452h-168l-63 -452c-24 -171 -108 -232 -209 -232c-64 0 -88 30 -88 30l30 60s23 -19 51 -19c42 0 66 38 83 161l64 452h-49l9 60l50 14l11 74c17 113 68 189 207 189c57 0 123 -28 156 -43c29 27 68 43 122 43c56 0 107 -34 107 -34l-25 -57s-39 24 -67 24
c-34 0 -52 -18 -69 -137l-8 -56h125l-11 -77h-125l-64 -452c-24 -171 -108 -232 -209 -232c-64 0 -88 30 -88 30l30 60s23 -19 51 -19c42 0 66 38 83 161zM292 556l-8 -56h167l11 71c5 35 13 67 26 94c-31 11 -73 26 -102 26c-63 0 -78 -25 -94 -135z" />
    <glyph glyph-name="ft" unicode="ft" horiz-adv-x="651" 
d="M689 500l-11 -77h-110l-35 -247c-4 -26 -5 -47 -5 -63c0 -41 12 -52 37 -52c32 0 53 9 53 9l-1 -57s-28 -24 -104 -24c-79 0 -120 29 -120 109c0 13 1 28 3 44l39 281h-161l-64 -452c-24 -171 -108 -232 -209 -232c-64 0 -88 30 -88 30l30 60s23 -19 51 -19
c42 0 66 38 83 161l64 452h-49l9 60l50 14l11 74c17 113 67 189 185 189c56 0 107 -34 107 -34l-25 -57s-39 24 -67 24c-34 0 -52 -18 -69 -137l-8 -56h164l86 166h67l-23 -166h110z" />
    <glyph glyph-name="tt" unicode="tt" horiz-adv-x="636" 
d="M674 500l-11 -77h-110l-35 -247c-4 -26 -5 -47 -5 -63c0 -41 12 -52 37 -52c32 0 53 9 53 9l-1 -57s-28 -24 -104 -24c-79 0 -120 29 -120 109c0 13 1 28 3 44l39 281h-150l-35 -247c-4 -26 -5 -47 -5 -63c0 -41 12 -52 37 -52c32 0 53 9 53 9l-1 -57s-28 -24 -104 -24
c-79 0 -120 29 -120 109c0 13 1 28 3 44l39 281h-48l9 60l51 13l88 170h67l-23 -166h153l86 166h67l-23 -166h110z" />
    <glyph glyph-name="afii10056_afii10056" unicode="&#x407;&#x407;" horiz-adv-x="618" 
d="M350 839c14 11 31 17 48 17s32 -6 44 -17c9 -12 14 -26 14 -41c0 -22 -10 -46 -28 -63c-15 -12 -32 -18 -49 -18s-33 6 -43 18c-9 11 -14 26 -14 41c0 22 10 46 28 63zM182 839c14 11 31 17 48 17c16 0 32 -6 43 -17c9 -12 14 -26 14 -41c0 -22 -10 -46 -28 -63
c-15 -12 -32 -18 -49 -18s-32 6 -43 18c-9 11 -14 25 -14 40c0 22 10 47 29 64zM694 839c14 11 31 17 48 17s33 -6 44 -17c9 -12 14 -26 14 -41c0 -22 -10 -46 -28 -63c-15 -12 -32 -18 -49 -18s-33 6 -43 18c-9 11 -14 26 -14 41c0 22 10 46 28 63zM526 839
c14 11 31 17 48 17c16 0 32 -6 43 -17c9 -12 14 -26 14 -41c0 -22 -10 -46 -28 -63c-15 -12 -32 -18 -49 -18s-32 6 -43 18c-9 11 -14 25 -14 40c0 22 10 47 29 64zM371 650l-91 -650h-138l91 650h138zM696 650l-91 -650h-138l91 650h138z" />
    <glyph glyph-name="afii10104_afii10104" unicode="&#x457;&#x457;" horiz-adv-x="488" 
d="M261 500l-70 -500h-133l70 500h133zM499 500l-70 -500h-133l70 500h133zM363 704c14 11 31 17 48 17c16 0 32 -6 43 -17c9 -12 14 -26 14 -41c0 -22 -10 -46 -28 -63c-15 -12 -32 -18 -49 -18s-32 6 -43 18c-9 11 -14 25 -14 40v4c-4 -17 -13 -32 -27 -44
c-15 -12 -33 -18 -49 -18c-17 0 -32 6 -42 18c-9 11 -14 26 -14 41c0 22 10 46 28 63c14 11 31 17 48 17s32 -6 44 -17c9 -12 14 -26 14 -41v-5c4 17 13 33 27 46zM84 704c14 11 31 17 48 17s33 -6 44 -17c9 -12 14 -26 14 -41c0 -23 -10 -46 -29 -63
c-15 -12 -33 -18 -49 -18c-17 0 -32 6 -42 18c-9 11 -14 26 -14 41c0 22 10 46 28 63zM509 704c14 11 31 17 47 17s32 -6 44 -17c9 -12 14 -26 14 -41c0 -22 -10 -46 -28 -63c-15 -12 -33 -18 -49 -18c-17 0 -32 6 -43 18c-9 11 -14 25 -14 40c0 22 10 47 29 64z" />
    <glyph glyph-name="afii10103_afii10104" unicode="&#x456;&#x457;" horiz-adv-x="488" 
d="M509 704c14 11 31 17 47 17s32 -6 44 -17c9 -12 14 -26 14 -41c0 -22 -10 -46 -28 -63c-15 -12 -32 -18 -49 -18s-33 6 -43 18c-9 11 -14 25 -14 40c0 22 10 47 29 64zM345 704c14 11 31 17 48 17s33 -6 44 -17c9 -12 14 -26 14 -41c0 -23 -10 -46 -29 -63
c-15 -12 -33 -18 -49 -18c-17 0 -32 6 -42 18c-9 11 -14 26 -14 41c0 22 10 46 28 63zM261 500l-70 -500h-133l70 500h133zM499 500l-70 -500h-133l70 500h133zM173 708c16 14 36 20 55 20s37 -6 49 -19c10 -13 15 -28 15 -45c0 -25 -11 -51 -31 -70
c-17 -13 -36 -19 -55 -19s-37 6 -49 20c-11 12 -16 28 -16 45c0 24 11 50 32 68z" />
    <glyph glyph-name="quoteright_afii10104" unicode="&#x27;&#x457;" horiz-adv-x="346" 
d="M165 739c15 12 33 18 50 18s33 -6 45 -18l4 -6c3 -4 5 -8 7 -13c3 -9 5 -19 5 -29c0 -79 -88 -202 -168 -260l-29 37c50 40 101 99 118 150c-18 0 -35 6 -46 18c-10 11 -14 26 -14 41c0 22 10 45 28 62zM372 704c14 11 32 17 49 17s32 -6 43 -17c9 -12 14 -26 14 -41
c0 -22 -10 -46 -28 -63c-15 -12 -32 -18 -49 -18s-33 6 -43 18c-9 11 -14 26 -14 41c0 22 10 46 28 63zM359 500l-70 -500h-133l70 500h133z" />
    <glyph glyph-name="arrowleft" unicode="&#x3c;&#x2d;&#x2d;" horiz-adv-x="697" 
d="M446 527l36 -40l-188 -180l394 7l-11 -78l-392 6l137 -179l-47 -40l-277 252z" />
    <glyph glyph-name="arrowright" unicode="&#x2d;&#x2d;&#x3e;" horiz-adv-x="691" 
d="M87 236l11 78l390 -7l-139 180l49 46l278 -258l-351 -259l-35 47l189 179z" />
    <glyph glyph-name="uni2767" unicode="&#x2d;&#x2a;&#x2d;" horiz-adv-x="860" 
d="M476 72l40 4c0 -25 16 -43 45 -43s46 17 46 46c0 8 -1 17 -4 27c-93 0 -183 32 -183 114c0 49 40 85 87 85c27 0 49 -10 52 -13l3 1c-17 42 -43 74 -73 96c-40 -67 -103 -118 -186 -118c-39 0 -65 11 -81 29c-3 -16 -5 -32 -5 -50c0 -151 120 -176 120 -176l-20 -52
s-199 27 -199 222c0 159 124 237 248 237c27 0 54 -4 79 -11c8 29 12 57 12 81c0 89 -48 135 -124 135c-53 0 -81 -37 -81 -71c0 -26 16 -51 49 -57l-5 -40c-80 4 -116 47 -116 94c0 59 55 123 149 123c132 0 205 -80 205 -185c0 -36 -8 -74 -21 -111c35 -22 64 -53 81 -94
l2 1c2 28 31 78 85 78c82 0 120 -64 120 -143c0 -150 -102 -283 -228 -283c-70 0 -97 34 -97 74zM428 420c-17 5 -33 7 -50 7c-45 0 -88 -17 -118 -51c-5 -7 -8 -15 -8 -22c0 -18 16 -35 56 -35c55 0 95 45 120 101z" />
    <glyph glyph-name="smileface" unicode="&#x3a;&#x2d;&#x29;" horiz-adv-x="729" 
d="M722 315c-29 -207 -157 -334 -355 -334c-175 0 -276 120 -276 292c0 235 137 394 359 394c174 0 277 -115 277 -285c0 -22 -2 -44 -5 -67zM649 314c3 19 4 37 4 54c0 142 -86 231 -214 231c-164 0 -273 -121 -273 -318c0 -141 83 -231 209 -231c145 0 249 92 274 264z
M391 212c74 0 101 57 101 57l41 -26s-34 -98 -151 -98s-124 98 -124 98l49 26s11 -57 84 -57zM493 452c11 9 24 13 37 13s25 -4 33 -13s12 -20 12 -32c0 -17 -8 -35 -23 -48c-11 -9 -24 -14 -37 -14s-26 5 -34 14c-7 9 -10 19 -10 31c0 17 8 36 22 49zM287 452
c11 9 24 13 37 13s25 -4 34 -13c7 -8 10 -20 10 -31c0 -17 -8 -36 -22 -49c-11 -9 -24 -14 -37 -14s-25 5 -33 14c-7 9 -11 20 -11 32c0 17 8 36 22 48z" />
    <glyph glyph-name="invsmileface" unicode="&#x28;&#x2d;&#x3a;" horiz-adv-x="729" 
d="M722 315c-29 -207 -154 -334 -352 -334c-175 0 -279 120 -279 292c0 235 134 394 355 394c175 0 281 -115 281 -286c0 -21 -2 -43 -5 -66zM391 208c-83 0 -96 65 -96 65l-56 -32s7 -111 141 -111c133 0 171 111 171 111l-46 32s-30 -65 -114 -65zM505 480
c-17 -15 -26 -36 -26 -56c0 -13 5 -26 13 -36c9 -11 23 -16 38 -16s30 5 43 16c17 15 26 36 26 56c0 13 -5 26 -13 36c-10 10 -24 16 -39 16s-30 -6 -42 -16zM272 480c-17 -15 -25 -35 -25 -55c0 -14 4 -27 12 -37c9 -11 23 -16 38 -16s30 5 43 16c16 15 25 36 25 56
c0 13 -4 26 -12 36c-11 10 -25 16 -39 16c-15 0 -30 -6 -42 -16z" />
    <glyph glyph-name="fleuron.01" unicode="&#x2a;&#x2d;&#x2d;" horiz-adv-x="688" 
d="M105 272l51 12c-1 -15 -2 -29 -2 -43v-15h45c26 108 110 155 180 155c60 0 106 -27 106 -77c0 -48 -22 -74 -45 -87c58 -11 92 -30 110 -54c8 29 13 60 13 92c0 110 -57 198 -180 198c-141 0 -198 -101 -198 -101l-26 40s56 119 240 119c185 0 259 -125 259 -251
c0 -144 -81 -241 -85 -246l-92 -10c-3 -1 -5 -1 -6 -1c2 2 20 29 40 68c1 6 2 12 2 18c0 36 -18 61 -73 75c4 -12 6 -25 6 -40c0 -78 -56 -135 -157 -135c-120 0 -191 76 -191 229c0 17 1 35 3 54zM301 176h-143c14 -91 61 -129 123 -129c43 0 76 23 76 67
c0 49 -56 62 -56 62z" />
    <glyph glyph-name="fleuron" unicode="&#x2d;&#x2d;&#x2a;" horiz-adv-x="688" 
d="M653 228l-51 -12c2 20 2 39 2 57h-46c-25 -108 -109 -154 -179 -154c-59 0 -105 27 -105 77c0 46 21 72 43 86c-57 11 -91 30 -109 54c-8 -29 -13 -60 -13 -91c0 -110 58 -198 181 -198c141 0 198 101 198 101l26 -40s-57 -119 -240 -119c-185 0 -259 125 -259 251
c0 144 80 241 85 246l91 9c3 1 6 2 7 2c-2 -3 -21 -29 -41 -69c-1 -6 -1 -11 -1 -17c0 -36 17 -62 73 -75c-4 12 -6 25 -6 40c0 77 55 135 156 135c120 0 191 -75 191 -228c0 -17 -1 -36 -3 -55zM401 386c0 -49 57 -62 57 -62h142c-13 91 -61 129 -123 129
c-42 0 -76 -23 -76 -67z" />
    <glyph glyph-name=".notdef" horiz-adv-x="619" 
d="M329 506l-11 -88h-78l-11 -90h-97l22 178h175zM395 28l11 88h79l11 90h97l-23 -178h-175zM443 418l11 88h175l-22 -178h-96l10 90h-78zM214 206l-11 -90h78l-11 -88h-175l23 178h96z" />
    <glyph glyph-name="space" unicode=" " horiz-adv-x="255" 
 />
    <glyph glyph-name="exclam" unicode="!" horiz-adv-x="333" 
d="M350 750l-7 -61l-108 -459h-66l22 459l7 61h152zM133 124c17 14 38 21 58 21s39 -7 53 -21c11 -13 16 -30 16 -47c0 -26 -11 -53 -33 -72c-18 -14 -39 -21 -59 -21s-39 7 -52 21c-11 13 -17 30 -17 47c0 25 12 52 34 72z" />
    <glyph glyph-name="quotedbl" unicode="&#x22;" horiz-adv-x="398" 
d="M259 746l-85 -262h-63l26 266zM450 746l-85 -262h-63l26 266z" />
    <glyph glyph-name="numbersign" unicode="#" horiz-adv-x="518" 
d="M503 563l-35 -100h70l-10 -64h-83l-52 -149h115l-10 -64h-128l-47 -136l-51 17l41 119h-117l-41 -117l-51 17l35 100h-67l9 64h80l52 149h-111l9 64h125l47 135l51 -16l-42 -119h118l41 116zM270 399l-52 -149h118l52 149h-118z" />
    <glyph glyph-name="dollar" unicode="$" horiz-adv-x="417" 
d="M46 128l45 52s35 -57 102 -57c57 0 84 35 84 77c0 87 -173 74 -173 211c0 93 63 144 141 161l29 128h65l-4 -124c58 -9 104 -39 104 -39l-21 -67s-62 44 -111 44c-47 0 -73 -27 -73 -63c0 -89 187 -84 187 -220c0 -87 -52 -154 -159 -170l-25 -111h-65l2 109
c-100 11 -128 69 -128 69z" />
    <glyph glyph-name="percent" unicode="%" horiz-adv-x="867" 
d="M681 615l-358 -627l-63 20l358 627zM453 499c0 -134 -76 -237 -206 -237c-101 0 -149 68 -149 166c0 139 80 239 206 239c94 0 149 -68 149 -168zM348 523c0 56 -18 82 -53 82c-48 0 -90 -41 -90 -198c0 -54 16 -82 50 -82c47 0 93 47 93 198zM859 218
c0 -134 -76 -237 -206 -237c-101 0 -149 68 -149 166c0 139 80 239 206 239c94 0 149 -68 149 -168zM754 242c0 56 -18 82 -53 82c-48 0 -90 -41 -90 -198c0 -54 16 -82 50 -82c47 0 93 47 93 198z" />
    <glyph glyph-name="ampersand" unicode="&#x26;" horiz-adv-x="641" 
d="M662 371l-10 -66h-111l-19 -138c-3 -23 -5 -41 -5 -56c0 -44 15 -53 46 -53c32 0 58 13 58 13l-4 -58s-29 -24 -105 -24c-51 0 -87 13 -106 46c-30 -25 -74 -46 -143 -46c-139 0 -204 68 -204 161c0 113 79 168 155 191c-37 22 -69 60 -69 124c0 121 91 195 217 195
c67 0 130 -31 130 -31l-20 -65s-50 29 -91 29c-64 0 -104 -47 -104 -146c0 -50 24 -76 50 -76h107l83 129h52l-18 -129h111zM396 159l19 146h-115c-54 -4 -101 -60 -101 -154c0 -59 35 -94 96 -94c49 0 80 22 97 41v10c0 15 2 32 4 51z" />
    <glyph glyph-name="quotesingle" unicode="'" horiz-adv-x="207" 
d="M259 746l-85 -262h-63l26 266z" />
    <glyph glyph-name="parenleft" unicode="(" horiz-adv-x="359" 
d="M369 732l52 -35c-6 -6 -135 -122 -178 -425c-8 -56 -11 -105 -11 -148c0 -201 71 -273 71 -273l-58 -34s-138 97 -138 347c0 33 2 69 8 108c47 331 254 460 254 460z" />
    <glyph glyph-name="parenright" unicode=")" horiz-adv-x="359" 
d="M62 -183l-48 34s134 119 178 426c7 52 10 99 10 141c0 202 -70 279 -70 279l59 35s137 -97 137 -347c0 -33 -2 -69 -8 -108c-47 -331 -258 -460 -258 -460z" />
    <glyph glyph-name="asterisk" unicode="*" horiz-adv-x="410" 
d="M137 631l118 -97l-11 181h124l-67 -180l149 96l20 -129l-162 -15l106 -123l-110 -80l-35 171l-84 -171l-87 80l139 121l-157 17z" />
    <glyph glyph-name="plus" unicode="+" horiz-adv-x="456" 
d="M334 496l-26 -184h161l-10 -74h-161l-26 -185h-71l26 185h-163l10 74h163l26 184h71z" />
    <glyph glyph-name="comma" unicode="," horiz-adv-x="265" 
d="M100 138c14 12 32 18 49 18s33 -6 45 -18l4 -6l3 -5c7 -13 11 -29 11 -47c0 -80 -69 -194 -146 -250l-28 37c50 40 89 100 99 151h-8c-17 0 -33 6 -44 17c-9 12 -14 26 -14 41c0 22 10 45 29 62z" />
    <glyph glyph-name="hyphen" unicode="-" horiz-adv-x="333" 
d="M346 312l-10 -74h-271l10 74h271z" />
    <glyph glyph-name="period" unicode="." horiz-adv-x="297" 
d="M110 124c17 14 38 21 58 21s39 -7 53 -21c11 -13 16 -30 16 -47c0 -26 -11 -53 -33 -72c-18 -14 -39 -21 -59 -21s-39 7 -52 21c-11 13 -17 30 -17 47c0 25 12 52 34 72z" />
    <glyph glyph-name="slash" unicode="/" horiz-adv-x="457" 
d="M481 750h90l-508 -1000h-90z" />
    <glyph glyph-name="zero" unicode="0" horiz-adv-x="579" 
d="M375 660c176 0 213 -129 213 -242c0 -267 -116 -429 -292 -429c-146 0 -214 93 -214 248c0 227 67 423 293 423zM366 591c-81 0 -144 -86 -144 -400c0 -96 32 -133 83 -133c75 0 144 113 144 383c0 88 -18 150 -83 150z" />
    <glyph glyph-name="one" unicode="1" horiz-adv-x="398" 
d="M283 650h107l-91 -650h-131l77 558l-106 -53l-18 60z" />
    <glyph glyph-name="two" unicode="2" horiz-adv-x="484" 
d="M466 125l-17 -125h-415l15 103c82 31 312 203 312 396c0 68 -35 87 -88 87c-52 0 -128 -49 -128 -49l-3 74s80 49 165 49c132 0 201 -65 201 -159c0 -159 -174 -297 -301 -376h259z" />
    <glyph glyph-name="three" unicode="3" horiz-adv-x="492" 
d="M226 280l-34 46l187 198h-240l25 126h351l-12 -84l-187 -193h7c91 0 161 -56 161 -158c0 -148 -129 -226 -252 -226c-141 0 -185 81 -185 81l44 59s48 -69 132 -69c83 0 122 66 122 177c0 48 -20 72 -61 72c-27 0 -58 -29 -58 -29z" />
    <glyph glyph-name="four" unicode="4" horiz-adv-x="533" 
d="M282 666l125 -16c-59 -158 -175 -315 -259 -422h190l82 324h100l-46 -324h64l-9 -57l-65 -11l-22 -160h-136l22 159h-269l1 59c74 106 172 303 222 448z" />
    <glyph glyph-name="five" unicode="5" horiz-adv-x="489" 
d="M507 650l-25 -130h-237l-29 -119c17 5 37 9 60 9c123 0 206 -53 206 -167c0 -175 -140 -254 -269 -254c-132 0 -182 79 -182 79l47 56s44 -64 130 -64c85 0 134 71 134 187c0 70 -34 99 -87 99c-36 0 -65 -16 -79 -31l-6 -10l-46 7l85 338h298z" />
    <glyph glyph-name="six" unicode="6" horiz-adv-x="530" 
d="M516 621l-26 -67s-58 36 -109 36c-73 0 -125 -47 -154 -211c33 23 72 42 119 42c106 0 180 -54 180 -170c0 -14 -1 -28 -3 -43c-20 -137 -114 -219 -252 -219c-121 0 -195 67 -195 217c0 65 17 137 22 155c56 217 162 299 279 299c73 0 139 -39 139 -39zM321 358
c-39 0 -69 -25 -89 -47c-4 -17 -12 -57 -15 -92c-3 -24 -4 -46 -4 -64c0 -73 22 -100 67 -100c58 0 86 44 100 147c3 24 5 45 5 64c0 61 -19 92 -64 92z" />
    <glyph glyph-name="seven" unicode="7" horiz-adv-x="451" 
d="M527 650l-15 -105c-104 -148 -217 -384 -274 -545h-144c68 166 208 366 313 517h-299l19 133h400z" />
    <glyph glyph-name="eight" unicode="8" horiz-adv-x="536" 
d="M557 510c0 -105 -78 -156 -148 -180c54 -14 118 -49 118 -133c0 -149 -102 -208 -261 -208c-120 0 -208 39 -208 152c0 109 84 162 159 188c-48 17 -102 54 -102 132c0 128 104 199 246 199c109 0 196 -50 196 -150zM379 210c0 55 -30 80 -57 90
c-25 -5 -115 -34 -115 -164c0 -60 26 -85 70 -85c64 0 102 59 102 159zM256 445c0 -53 24 -77 48 -89c30 7 112 39 112 165c0 55 -24 77 -66 77c-61 0 -94 -63 -94 -153z" />
    <glyph glyph-name="nine" unicode="9" horiz-adv-x="530" 
d="M104 41l35 61s44 -43 108 -43c65 0 118 57 145 204c-26 -22 -61 -40 -111 -40c-105 0 -187 48 -187 168c0 156 100 269 253 269c120 0 198 -66 198 -216c0 -50 -8 -106 -14 -130c-55 -232 -153 -325 -277 -325c-105 0 -150 52 -150 52zM298 286c49 0 82 32 96 72
c5 26 9 64 11 92c2 17 2 32 2 45c0 76 -23 99 -65 99c-65 0 -109 -77 -109 -216c0 -57 19 -92 65 -92z" />
    <glyph glyph-name="colon" unicode=":" horiz-adv-x="298" 
d="M159 475c17 14 38 21 58 21s39 -7 53 -21c11 -13 16 -30 16 -47c0 -26 -11 -53 -33 -72c-18 -14 -39 -21 -59 -21s-39 7 -52 21c-11 13 -17 30 -17 47c0 25 12 52 34 72zM110 124c17 14 38 21 58 21s39 -7 53 -21c11 -13 16 -30 16 -47c0 -26 -11 -53 -33 -72
c-18 -14 -39 -21 -59 -21s-39 7 -52 21c-11 13 -17 30 -17 47c0 25 12 52 34 72z" />
    <glyph glyph-name="semicolon" unicode=";" horiz-adv-x="297" 
d="M119 138c14 12 32 18 49 18s33 -6 45 -18l4 -6l3 -5c7 -13 11 -29 11 -47c0 -80 -69 -194 -146 -250l-28 37c50 40 89 100 99 151h-8c-17 0 -33 6 -44 17c-9 12 -14 26 -14 41c0 22 10 45 29 62zM159 475c17 14 38 21 58 21s39 -7 53 -21c11 -13 16 -30 16 -47
c0 -26 -11 -53 -33 -72c-18 -14 -39 -21 -59 -21s-39 7 -52 21c-11 13 -17 30 -17 47c0 25 12 52 34 72z" />
    <glyph glyph-name="less" unicode="&#x3c;" horiz-adv-x="378" 
d="M348 136l-49 -46l-207 225l270 226l33 -46l-186 -180z" />
    <glyph glyph-name="equal" unicode="=" 
d="M524 215l-10 -74h-464l10 74h464zM552 409l-10 -74h-464l10 74h464z" />
    <glyph glyph-name="greater" unicode="&#x3e;" horiz-adv-x="378" 
d="M122 495l46 46l207 -226l-271 -225l-32 46l182 179z" />
    <glyph glyph-name="question" unicode="?" horiz-adv-x="445" 
d="M159 657l-8 64s64 39 152 39c121 0 177 -77 177 -163c0 -225 -243 -162 -254 -367l-53 -4c10 234 171 156 171 375c0 62 -31 91 -81 91c-54 0 -104 -35 -104 -35zM139 124c17 14 38 21 58 21s39 -7 53 -21c11 -13 16 -30 16 -47c0 -26 -11 -53 -33 -72
c-18 -14 -39 -21 -59 -21s-39 7 -52 21c-11 13 -17 30 -17 47c0 25 12 52 34 72z" />
    <glyph glyph-name="at" unicode="@" horiz-adv-x="862" 
d="M620 -18c-50 0 -83 11 -96 44c-19 -21 -52 -45 -108 -45c-85 0 -144 50 -144 165c0 153 101 263 218 263c41 0 69 -16 87 -35l20 17h57l-39 -271c-2 -16 -3 -29 -3 -40c0 -32 9 -43 29 -43c44 0 121 64 121 322c0 152 -69 221 -214 221c-216 0 -366 -162 -366 -480
c0 -194 91 -281 244 -281c147 0 234 88 234 88l21 -55s-86 -101 -265 -101c-244 0 -352 128 -352 344c0 316 174 545 493 545c206 0 310 -103 310 -286c0 -243 -106 -372 -247 -372zM518 82l2 14l32 225c-6 14 -20 33 -56 33c-65 0 -112 -70 -112 -221c0 -67 22 -96 66 -96
c35 0 56 25 68 45z" />
    <glyph glyph-name="A" unicode="A" horiz-adv-x="608" 
d="M326 650h153l111 -650h-146l-30 182h-226l-85 -182h-84zM357 551h-1l-140 -306h188z" />
    <glyph glyph-name="B" unicode="B" horiz-adv-x="569" 
d="M77 0l91 650h198c148 0 208 -69 208 -147c0 -85 -60 -136 -119 -164c62 -20 106 -62 106 -129c0 -116 -94 -210 -281 -210h-203zM347 301h-90l-33 -236h62c81 0 137 62 137 154c0 60 -32 82 -76 82zM266 361h82c35 0 91 47 91 136c0 63 -37 88 -85 88h-56z" />
    <glyph glyph-name="C" unicode="C" horiz-adv-x="576" 
d="M593 532c0 0 -88 53 -162 53c-114 0 -206 -90 -206 -343c0 -126 59 -178 150 -178c107 0 170 89 170 89l36 -48s-69 -116 -236 -116c-174 0 -269 102 -269 267c0 234 135 404 348 404c104 0 190 -55 190 -55z" />
    <glyph glyph-name="D" unicode="D" horiz-adv-x="647" 
d="M389 650c176 0 273 -89 273 -263c0 -241 -126 -387 -363 -387h-222l91 650h221zM379 579h-83l-71 -508h85c120 0 204 89 204 342c0 116 -43 166 -135 166z" />
    <glyph glyph-name="E" unicode="E" 
d="M491 72l-10 -72h-404l91 650h390l-10 -72h-252l-30 -214h223l-11 -70h-221l-31 -222h265z" />
    <glyph glyph-name="F" unicode="F" horiz-adv-x="488" 
d="M486 338l-10 -70h-223l-38 -268h-138l91 650h395l-10 -72h-257l-33 -240h223z" />
    <glyph glyph-name="G" unicode="G" horiz-adv-x="625" 
d="M613 343l-48 -343h-60l-27 58c-33 -36 -84 -69 -165 -69c-154 0 -237 97 -237 265c0 246 136 406 353 406c104 0 193 -55 193 -55l-24 -73s-88 53 -162 53c-131 0 -211 -100 -211 -343c0 -126 48 -178 123 -178c81 0 112 63 121 88l17 123h-101l10 68h218z" />
    <glyph glyph-name="H" unicode="H" horiz-adv-x="655" 
d="M669 650l-91 -650h-138l41 296h-225l-41 -296h-138l91 650h138l-40 -284h225l40 284h138z" />
    <glyph glyph-name="I" unicode="I" horiz-adv-x="293" 
d="M306 650l-91 -650h-138l91 650h138z" />
    <glyph glyph-name="J" unicode="J" horiz-adv-x="384" 
d="M39 87c0 0 26 -27 69 -27c47 0 81 29 99 154l61 436h139l-62 -436c-24 -171 -94 -225 -208 -225c-87 0 -121 40 -121 40z" />
    <glyph glyph-name="K" unicode="K" horiz-adv-x="619" 
d="M77 0l91 650h138l-43 -302l66 44l227 258h96l-233 -254l188 -396h-175l-133 292l-48 -30l-36 -262h-138z" />
    <glyph glyph-name="L" unicode="L" horiz-adv-x="479" 
d="M477 72l-10 -72h-390l91 650h138l-81 -578h252z" />
    <glyph glyph-name="M" unicode="M" horiz-adv-x="856" 
d="M863 650l-84 -650h-135l61 492h-2l-250 -492h-103l-112 492h-3l-72 -492h-86l99 650h167l115 -479h4l246 479h155z" />
    <glyph glyph-name="N" unicode="N" horiz-adv-x="651" 
d="M665 650l-91 -650h-108l-241 488h-2v-58l-60 -430h-86l91 650h143l211 -441h3l-1 45l55 396h86z" />
    <glyph glyph-name="O" unicode="O" horiz-adv-x="663" 
d="M677 392c0 -246 -150 -403 -342 -403c-166 0 -259 103 -259 270c0 232 121 401 340 401c186 0 261 -123 261 -268zM530 421c0 96 -36 167 -121 167c-112 0 -187 -97 -187 -363c0 -100 41 -165 120 -165c103 0 188 92 188 361z" />
    <glyph glyph-name="P" unicode="P" horiz-adv-x="533" 
d="M77 0l91 650h199c129 0 207 -56 207 -179c0 -193 -151 -268 -266 -268h-64l-29 -203h-138zM346 585h-48l-45 -318h48c68 0 126 54 126 218c0 73 -31 100 -81 100z" />
    <glyph glyph-name="Q" unicode="Q" horiz-adv-x="663" 
d="M677 392c0 -211 -111 -357 -263 -393c22 -67 58 -131 115 -131c10 0 21 2 32 6l-2 -61c-21 -7 -41 -11 -61 -11c-100 0 -184 87 -213 191c-135 18 -209 116 -209 266c0 232 121 401 340 401c186 0 261 -123 261 -268zM530 421c0 96 -36 167 -121 167
c-112 0 -187 -97 -187 -363c0 -100 41 -165 120 -165c103 0 188 92 188 361z" />
    <glyph glyph-name="R" unicode="R" horiz-adv-x="578" 
d="M77 0l91 650h200c131 0 209 -60 209 -170c0 -108 -66 -179 -142 -216l114 -264h-159l-89 236h-53l-33 -236h-138zM345 585h-48l-40 -283h52c84 0 121 64 121 190c0 63 -27 93 -85 93z" />
    <glyph glyph-name="S" unicode="S" horiz-adv-x="492" 
d="M512 614l-22 -68s-60 44 -129 44c-56 0 -96 -32 -96 -91c0 -119 220 -120 220 -293c0 -141 -117 -217 -247 -217c-142 0 -194 91 -194 91l46 58s46 -75 142 -75c75 0 109 45 109 99c0 108 -219 110 -219 285c0 133 104 213 240 213c89 0 150 -46 150 -46z" />
    <glyph glyph-name="T" unicode="T" horiz-adv-x="516" 
d="M594 650l-11 -72h-174l-81 -578h-139l81 578h-175l11 72h488z" />
    <glyph glyph-name="U" unicode="U" horiz-adv-x="614" 
d="M305 -11c-141 0 -208 73 -208 194c0 17 1 34 4 53l58 414h139l-54 -383c-4 -28 -6 -53 -6 -75c0 -91 34 -127 100 -127c90 0 140 64 159 202l54 383h85l-58 -414c-21 -148 -97 -247 -273 -247z" />
    <glyph glyph-name="V" unicode="V" horiz-adv-x="576" 
d="M357 0h-153l-104 650h146l77 -549h3l244 549h87z" />
    <glyph glyph-name="W" unicode="W" horiz-adv-x="873" 
d="M866 650h88l-261 -650h-118l-69 480h-3l-201 -480h-120l-82 650h147l51 -492h2l202 492h111l69 -489h2z" />
    <glyph glyph-name="X" unicode="X" horiz-adv-x="581" 
d="M8 0l246 316l-146 334h173l87 -233h3l172 233h98l-231 -300l163 -350h-172l-105 248h-2l-182 -248h-104z" />
    <glyph glyph-name="Y" unicode="Y" horiz-adv-x="523" 
d="M341 355h1l182 295h96l-250 -383l-36 -267h-139l35 251l-146 399h155z" />
    <glyph glyph-name="Z" unicode="Z" horiz-adv-x="567" 
d="M613 650l-9 -60l-385 -518h312l-10 -72h-479l9 58l386 520h-296l10 72h462z" />
    <glyph glyph-name="bracketleft" unicode="[" horiz-adv-x="386" 
d="M375 -21l-10 -68h-293l113 800h293l-10 -69h-177l-93 -663h177z" />
    <glyph glyph-name="backslash" unicode="\" horiz-adv-x="457" 
d="M98 750h90l225 -1000h-89z" />
    <glyph glyph-name="bracketright" unicode="]" horiz-adv-x="386" 
d="M401 710l-112 -799h-294l10 68h175l93 663h-175l9 68h294z" />
    <glyph glyph-name="asciicircum" unicode="^" horiz-adv-x="357" 
d="M276 698l126 -167l-46 -44l-95 106l-124 -106l-32 44z" />
    <glyph glyph-name="underscore" unicode="_" horiz-adv-x="679" 
d="M635 -88l-10 -74h-618l10 74h618z" />
    <glyph glyph-name="grave" unicode="`" horiz-adv-x="242" 
d="M63 703l111 35l64 -147l-64 -17z" />
    <glyph glyph-name="a" unicode="a" horiz-adv-x="542" 
d="M554 500l-70 -500h-102l-16 44h-1s-29 -55 -131 -55c-105 0 -175 78 -175 206c0 179 105 316 258 316c92 0 111 -41 111 -41h4l24 30h98zM277 67c53 0 82 36 88 45l41 283c-2 4 -15 40 -71 40c-82 0 -136 -82 -136 -260c0 -75 29 -108 78 -108z" />
    <glyph glyph-name="b" unicode="b" horiz-adv-x="543" 
d="M58 0l105 746l134 8l-41 -291h5s31 47 122 47c104 0 172 -78 172 -203c0 -177 -96 -318 -252 -318c-92 0 -125 45 -125 45h-2l-27 -34h-91zM245 381l-40 -285c2 -4 18 -31 73 -31c82 0 137 77 137 266c0 69 -27 102 -79 102c-59 0 -91 -52 -91 -52z" />
    <glyph glyph-name="c" unicode="c" horiz-adv-x="446" 
d="M464 400c0 0 -66 44 -112 44c-100 0 -150 -94 -150 -272c0 -88 47 -116 97 -116c79 0 114 62 114 62l43 -30s-42 -99 -181 -99c-133 0 -215 76 -215 213c0 185 104 309 277 309c74 0 146 -47 146 -47z" />
    <glyph glyph-name="d" unicode="d" horiz-adv-x="543" 
d="M591 754l-106 -754h-111l-9 45h-1s-32 -56 -128 -56c-110 0 -177 85 -177 211c0 177 101 310 244 310c88 0 112 -38 112 -38h3l38 274zM277 67c54 0 88 42 90 45l41 289s-23 33 -74 33c-89 0 -136 -85 -136 -257c0 -81 28 -110 79 -110z" />
    <glyph glyph-name="e" unicode="e" horiz-adv-x="474" 
d="M420 111l40 -36s-53 -86 -185 -86c-123 0 -216 63 -216 206c0 202 115 315 268 315c108 0 168 -63 168 -140c0 -151 -192 -159 -298 -159c-1 -14 -1 -29 -1 -44c0 -85 44 -111 105 -111c77 0 119 55 119 55zM311 446c-55 0 -96 -58 -110 -178c84 0 175 9 175 115
c0 41 -22 63 -65 63z" />
    <glyph glyph-name="f" unicode="f" horiz-adv-x="344" 
d="M77 -29l64 452h-49l9 60l50 14l11 74c17 113 67 189 185 189c56 0 107 -34 107 -34l-25 -57s-39 24 -67 24c-34 0 -52 -18 -69 -137l-8 -56h125l-11 -77h-125l-64 -452c-24 -171 -108 -232 -209 -232c-64 0 -88 30 -88 30l30 60s23 -19 51 -19c42 0 66 38 83 161z" />
    <glyph glyph-name="g" unicode="g" horiz-adv-x="461" 
d="M303 510c27 0 51 -4 73 -11l137 -1l-5 -59l-51 -3c11 -21 18 -47 18 -77c0 -137 -94 -212 -223 -212c-25 0 -48 3 -68 9c-12 -9 -23 -21 -23 -39c0 -24 23 -36 84 -36c156 0 208 -57 208 -143c0 -115 -77 -200 -245 -200c-140 0 -209 63 -209 154c0 80 43 119 81 138
c-4 12 -7 26 -7 42c0 56 32 90 59 109c-37 26 -59 68 -59 123c0 143 109 206 230 206zM223 -36c-41 0 -75 6 -100 20c-18 -16 -33 -42 -33 -83c0 -61 47 -95 128 -95c87 0 119 32 119 90c0 48 -30 68 -114 68zM349 375c0 56 -24 71 -58 71c-46 0 -91 -32 -91 -159
c0 -55 22 -79 58 -79c49 0 91 44 91 167z" />
    <glyph glyph-name="h" unicode="h" horiz-adv-x="533" 
d="M58 0l105 746l134 8l-41 -288h4c1 0 45 44 133 44c89 0 137 -40 137 -128c0 -13 -1 -28 -3 -43l-47 -339h-133l46 328c2 16 3 30 3 41c0 46 -18 58 -57 58c-57 0 -93 -36 -93 -36l-55 -391h-133z" />
    <glyph glyph-name="i" unicode="i" horiz-adv-x="249" 
d="M261 500l-70 -500h-133l70 500h133zM172 708c16 14 36 20 55 20s37 -6 49 -19c10 -13 15 -28 15 -45c0 -25 -11 -51 -31 -70c-17 -13 -36 -19 -55 -19s-37 6 -49 20c-11 12 -16 28 -16 45c0 24 11 50 32 68z" />
    <glyph glyph-name="j" unicode="j" horiz-adv-x="276" 
d="M80 -29l74 529h133l-74 -529c-24 -171 -109 -232 -209 -232c-65 0 -88 30 -88 30l30 60s22 -19 50 -19c43 0 67 38 84 161zM199 708c16 14 36 20 55 20s37 -6 49 -19c10 -13 15 -28 15 -45c0 -25 -11 -51 -31 -70c-17 -13 -36 -19 -55 -19s-37 6 -49 20
c-11 12 -16 28 -16 45c0 24 11 50 32 68z" />
    <glyph glyph-name="k" unicode="k" horiz-adv-x="490" 
d="M58 0l105 746l134 8l-66 -466l76 47l129 165h82l-155 -185l117 -315h-152l-79 234l-28 -16l-30 -218h-133z" />
    <glyph glyph-name="l" unicode="l" horiz-adv-x="250" 
d="M297 754l-106 -754h-133l105 746z" />
    <glyph glyph-name="m" unicode="m" horiz-adv-x="756" 
d="M58 0l70 500h107l11 -45h3s52 55 135 55c56 0 92 -17 107 -57c5 5 55 57 146 57c80 0 118 -33 118 -113c0 -14 -2 -31 -4 -48l-49 -349h-133l48 339c2 15 3 27 3 38c0 42 -17 51 -44 51c-40 0 -69 -33 -77 -43l-3 -34l-49 -351h-133l47 339c2 16 3 28 3 39
c0 41 -16 50 -42 50c-40 0 -70 -30 -76 -36l-55 -392h-133z" />
    <glyph glyph-name="n" unicode="n" horiz-adv-x="534" 
d="M58 0l70 500h107l12 -40h3s42 50 144 50c90 0 137 -40 137 -129c0 -13 -1 -27 -3 -42l-47 -339h-133s41 298 46 328c2 14 3 26 3 37c0 49 -21 62 -61 62c-51 0 -87 -33 -90 -36l-55 -391h-133z" />
    <glyph glyph-name="o" unicode="o" horiz-adv-x="525" 
d="M535 305c0 -192 -109 -316 -275 -316c-123 0 -200 73 -200 206c0 190 100 316 274 316c123 0 201 -73 201 -206zM321 444c-77 0 -123 -88 -123 -285c0 -65 22 -104 76 -104c76 0 123 89 123 286c0 66 -22 103 -76 103z" />
    <glyph glyph-name="p" unicode="p" horiz-adv-x="543" 
d="M23 -254l105 754h107l12 -45h2s42 56 136 56c103 0 169 -79 169 -201c0 -182 -97 -321 -241 -321c-88 0 -115 38 -115 38h-3l-39 -277zM246 390l-1 1l-41 -295c3 -4 23 -31 70 -31c81 0 139 69 139 256c0 83 -32 112 -82 112c-55 0 -85 -43 -85 -43z" />
    <glyph glyph-name="q" unicode="q" horiz-adv-x="543" 
d="M555 500l-106 -750l-134 -4l41 290h-4s-30 -47 -121 -47c-105 0 -172 80 -172 204c0 182 109 318 251 318c84 0 120 -42 120 -42h1l34 31h90zM282 67c52 0 79 35 84 41l41 294c-1 2 -19 33 -69 33c-81 0 -138 -65 -138 -253c0 -91 32 -115 82 -115z" />
    <glyph glyph-name="r" unicode="r" horiz-adv-x="353" 
d="M419 497l-22 -93s-52 14 -87 14c-43 0 -64 -49 -68 -58l-51 -360h-133l70 500h94l11 -84h3s24 95 98 95c33 0 85 -14 85 -14z" />
    <glyph glyph-name="s" unicode="s" horiz-adv-x="417" 
d="M36 60l45 52s35 -57 102 -57c57 0 84 35 84 77c0 87 -173 74 -173 211c0 116 98 168 200 168c71 0 135 -42 135 -42l-21 -67s-62 44 -111 44c-47 0 -73 -27 -73 -63c0 -89 187 -84 187 -220c0 -100 -69 -174 -212 -174c-128 0 -163 71 -163 71z" />
    <glyph glyph-name="t" unicode="t" horiz-adv-x="353" 
d="M391 500l-11 -77h-110l-35 -247c-4 -26 -5 -47 -5 -63c0 -41 12 -52 37 -52c32 0 53 9 53 9l-1 -57s-28 -24 -104 -24c-79 0 -120 29 -120 109c0 13 1 28 3 44l39 281h-48l9 60l51 13l88 170h67l-23 -166h110z" />
    <glyph glyph-name="u" unicode="u" horiz-adv-x="534" 
d="M545 500l-70 -500h-107l-13 44h-2s-41 -55 -143 -55c-89 0 -137 40 -137 129c0 13 1 27 3 42l48 340h133l-44 -312c-3 -19 -4 -35 -4 -49c0 -52 20 -67 57 -67c53 0 92 38 92 38l54 390h133z" />
    <glyph glyph-name="v" unicode="v" horiz-adv-x="478" 
d="M182 0l-104 500h161l48 -356h4l162 356h87l-247 -500h-111z" />
    <glyph glyph-name="w" unicode="w" horiz-adv-x="709" 
d="M682 500h86l-216 -500h-107l-44 326v1h-3l-138 -327h-107l-73 500h151l27 -333h3l141 333h92l58 -333h3z" />
    <glyph glyph-name="x" unicode="x" horiz-adv-x="473" 
d="M514 500l-171 -228l121 -272h-159l-68 187l-135 -187h-93l188 241l-110 259h159l58 -177l119 177h91z" />
    <glyph glyph-name="y" unicode="y" horiz-adv-x="488" 
d="M12 -168c0 0 23 -11 49 -11c64 0 102 50 159 159l-139 520h160l73 -354l153 354h82l-246 -511c-73 -152 -139 -250 -237 -250c-52 0 -75 15 -75 15z" />
    <glyph glyph-name="z" unicode="z" horiz-adv-x="434" 
d="M477 500l-9 -60l-278 -372h218l-8 -68h-374l8 60l282 372h-210l6 68h365z" />
    <glyph glyph-name="braceleft" unicode="{" horiz-adv-x="406" 
d="M131 255l8 56l2 17c32 0 99 22 99 91c0 38 -5 94 -5 135c0 117 36 194 245 194l-10 -65c-93 0 -121 -43 -121 -127c0 -40 4 -97 4 -135c0 -66 -33 -106 -85 -128c37 -16 59 -42 59 -78c0 -67 -62 -175 -62 -244c0 -45 28 -70 95 -70l-9 -66c-152 0 -201 47 -201 127
c0 87 60 184 60 237c0 39 -51 56 -79 56z" />
    <glyph glyph-name="bar" unicode="|" horiz-adv-x="342" 
d="M316 750l-141 -1000h-77l141 1000h77z" />
    <glyph glyph-name="braceright" unicode="}" horiz-adv-x="406" 
d="M43 -99c92 0 120 42 120 127c0 40 -4 97 -4 135c0 65 33 106 86 128c-37 16 -59 42 -59 78c0 67 62 175 62 244c0 45 -28 70 -95 70l8 65c153 0 202 -46 202 -126c0 -87 -61 -184 -61 -238c0 -38 52 -56 80 -56l-3 -17h1l-8 -56c-32 0 -100 -21 -100 -89
c0 -38 6 -95 6 -138c0 -116 -36 -193 -245 -193z" />
    <glyph glyph-name="asciitilde" unicode="~" horiz-adv-x="598" 
d="M588 389l38 -26s-42 -144 -170 -144c-125 0 -160 118 -263 118c-59 0 -85 -50 -85 -50l-38 30s41 142 179 142c137 0 173 -117 268 -117c55 0 71 47 71 47z" />
    <glyph glyph-name="uni00A0" unicode="&#xa0;" horiz-adv-x="377" 
 />
    <glyph glyph-name="exclamdown" unicode="&#xa1;" horiz-adv-x="333" 
d="M52 -250l9 61l107 458h67l-22 -458l-8 -61h-153zM176 495c17 14 38 21 58 21s39 -7 53 -21c11 -13 16 -30 16 -47c0 -26 -11 -53 -33 -72c-18 -14 -39 -21 -59 -21s-39 7 -52 21c-11 13 -17 30 -17 47c0 25 12 52 34 72z" />
    <glyph glyph-name="cent" unicode="&#xa2;" horiz-adv-x="446" 
d="M474 470c0 0 -66 44 -112 44c-100 0 -150 -94 -150 -272c0 -88 47 -116 97 -116c79 0 114 62 114 62l43 -30s-39 -89 -161 -99l-24 -109h-66l3 116c-93 22 -148 93 -148 206c0 163 81 279 219 304l28 124h65l-4 -122c62 -10 115 -44 115 -44z" />
    <glyph glyph-name="sterling" unicode="&#xa3;" horiz-adv-x="531" 
d="M505 350l-10 -73h-213c-20 -65 -46 -117 -80 -155h324l-17 -122h-469l18 122h40c51 32 64 89 67 157l-85 7l9 64h78c0 34 1 69 4 104c10 137 96 206 228 206c71 0 138 -41 138 -41l-29 -65s-53 34 -90 34c-55 0 -82 -21 -98 -128c-6 -40 -12 -76 -20 -110h205z" />
    <glyph glyph-name="currency" unicode="&#xa4;" horiz-adv-x="546" 
d="M486 342c0 -53 -17 -101 -44 -138l80 -79l-58 -67l-66 101c-30 -22 -66 -35 -103 -35c-38 0 -71 14 -96 39l-99 -104l-41 67l109 81c-11 23 -17 50 -17 80c0 53 16 100 42 137l-81 80l59 67l65 -102c30 23 66 36 105 36c37 0 70 -14 95 -38l99 103l40 -66l-108 -80
c12 -24 19 -51 19 -82zM413 336c0 60 -32 95 -84 95c-58 0 -105 -52 -105 -137c0 -59 30 -95 82 -95c57 0 107 52 107 137z" />
    <glyph glyph-name="yen" unicode="&#xa5;" horiz-adv-x="590" 
d="M465 355h1l182 295h96l-205 -313h94l-9 -63h-126l-4 -7l-8 -59h129l-9 -64h-129l-19 -144h-139l20 144h-118l10 64h117l6 43l-9 23h-106l10 63h73l-114 313h155z" />
    <glyph glyph-name="brokenbar" unicode="&#xa6;" horiz-adv-x="342" 
d="M231 150l-56 -400h-77l56 400h77zM316 750l-57 -400h-77l57 400h77z" />
    <glyph glyph-name="section" unicode="&#xa7;" horiz-adv-x="505" 
d="M102 291c0 86 46 132 81 156c-6 14 -10 30 -10 49c0 99 78 164 197 164c76 0 142 -47 142 -47l-23 -60s-63 40 -110 40c-58 0 -80 -36 -80 -69c0 -95 214 -69 214 -224c0 -80 -51 -130 -88 -156c6 -13 10 -29 10 -47c0 -95 -73 -165 -205 -165c-112 0 -146 70 -146 70
l35 54s30 -57 103 -57c65 0 86 32 86 71c0 86 -206 61 -206 221zM192 337c0 -80 132 -88 201 -149c17 15 31 37 31 70c0 71 -134 83 -206 145c-15 -14 -26 -35 -26 -66z" />
    <glyph glyph-name="dieresis" unicode="&#xa8;" horiz-adv-x="422" 
d="M306 704c14 11 31 17 48 17s32 -6 44 -17c9 -12 14 -26 14 -41c0 -23 -10 -46 -29 -63c-15 -12 -33 -18 -49 -18c-17 0 -32 6 -42 18c-9 11 -14 26 -14 41c0 22 10 46 28 63zM120 704c14 11 32 17 49 17s32 -6 43 -17c9 -12 14 -26 14 -41c0 -23 -10 -46 -29 -63
c-15 -12 -32 -18 -48 -18s-32 6 -43 18c-9 11 -14 26 -14 41c0 22 10 46 28 63z" />
    <glyph glyph-name="copyright" unicode="&#xa9;" horiz-adv-x="729" 
d="M715 313c-29 -207 -156 -332 -354 -332c-174 0 -262 121 -262 291c0 236 134 395 358 395c172 0 263 -113 263 -281c0 -23 -1 -48 -5 -73zM653 312c3 23 5 44 5 65c0 143 -78 234 -210 234c-174 0 -286 -126 -286 -333c0 -145 74 -240 205 -240c151 0 261 93 286 274z
M541 457l-21 -46s-31 32 -66 32c-52 0 -98 -40 -98 -154c0 -58 35 -92 74 -92c55 0 74 47 74 47l25 -29s-20 -72 -126 -72c-77 0 -144 59 -144 154c0 127 90 199 191 199c59 0 91 -39 91 -39z" />
    <glyph glyph-name="ordfeminine" unicode="&#xaa;" horiz-adv-x="413" 
d="M315 320l-18 39c-4 -9 -27 -52 -107 -52c-69 0 -105 35 -105 90c0 117 149 147 235 153l1 5c1 9 2 18 2 25c0 37 -17 53 -55 53c-55 0 -100 -42 -100 -42l-20 35s43 57 150 57c90 0 142 -31 142 -108c0 -9 -1 -19 -2 -29l-32 -226h-91zM245 367c37 0 50 24 54 34l15 106
c-69 -9 -112 -32 -112 -97c0 -28 15 -43 43 -43z" />
    <glyph glyph-name="guillemotleft" unicode="&#xab;" horiz-adv-x="536" 
d="M347 399l-110 -151l67 -150l-39 -39l-151 191l204 186zM532 399l-110 -151l67 -150l-39 -39l-151 191l204 186z" />
    <glyph glyph-name="logicalnot" unicode="&#xac;" horiz-adv-x="495" 
d="M493 352l-10 -73l-23 -164h-67l22 164h-326l11 73h393z" />
    <glyph glyph-name="uni00AD" unicode="&#xad;" horiz-adv-x="358" 
d="M358 312l-10 -74h-271l10 74h271z" />
    <glyph glyph-name="registered" unicode="&#xae;" horiz-adv-x="669" 
d="M684 420c-27 -196 -150 -320 -337 -320c-162 0 -246 120 -246 282c0 226 138 377 339 377c157 0 249 -110 249 -272c0 -21 -2 -44 -5 -67zM623 419c3 21 4 41 4 60c0 135 -70 226 -195 226c-167 0 -269 -133 -269 -318c0 -134 67 -230 192 -230c143 0 244 96 268 262z
M311 544l6 40h99c74 0 112 -28 112 -82c0 -48 -27 -84 -69 -102l38 -127h-78l-32 114h-27l-16 -113h-70zM411 543h-29l-17 -117h30c29 0 54 17 54 79c0 26 -13 38 -38 38z" />
    <glyph glyph-name="macron" unicode="&#xaf;" horiz-adv-x="428" 
d="M417 682l-7 -58h-215l8 58h214z" />
    <glyph glyph-name="degree" unicode="&#xb0;" horiz-adv-x="421" 
d="M467 597c0 -134 -76 -237 -206 -237c-101 0 -149 68 -149 166c0 139 80 239 206 239c94 0 149 -68 149 -168zM362 621c0 56 -18 82 -53 82c-48 0 -90 -41 -90 -198c0 -54 16 -82 50 -82c47 0 93 47 93 198z" />
    <glyph glyph-name="plusminus" unicode="&#xb1;" 
d="M405 746l-26 -184h161l-10 -74h-161l-26 -185h-71l26 185h-163l10 74h163l26 184h71zM523 203l-10 -74h-464l10 74h464z" />
    <glyph glyph-name="acute" unicode="&#xb4;" horiz-adv-x="242" 
d="M233 730l104 -31l-139 -130l-56 9z" />
    <glyph glyph-name="uni00B5" unicode="&#xb5;" horiz-adv-x="539" 
d="M550 500l-70 -500h-107l-13 44h-2s-41 -55 -143 -55c-12 0 -24 1 -34 2c-5 -80 -10 -160 -21 -241h-137l75 533l31 217h133l-44 -312c-3 -19 -4 -35 -4 -49c0 -52 20 -67 57 -67c53 0 92 38 92 38l54 390h133z" />
    <glyph glyph-name="paragraph" unicode="&#xb6;" horiz-adv-x="640" 
d="M695 650l-12 -88h-63l-79 -562h-101l79 562h-80l-79 -562h-98l32 232c-124 0 -199 52 -199 174c0 149 68 244 285 244h315z" />
    <glyph glyph-name="periodcentered" unicode="&#xb7;" horiz-adv-x="297" 
d="M152 424c17 14 38 21 58 21s39 -7 53 -21c11 -13 16 -30 16 -47c0 -26 -11 -53 -33 -72c-18 -14 -39 -21 -59 -21s-39 7 -52 21c-11 13 -17 30 -17 47c0 25 12 52 34 72z" />
    <glyph glyph-name="cedilla" unicode="&#xb8;" horiz-adv-x="249" 
d="M107 -1h44l-12 -57c-2 -6 76 -14 76 -81c0 -62 -43 -112 -130 -112c-74 0 -89 46 -89 46l30 29s15 -29 50 -29c37 0 60 19 60 63c0 41 -54 40 -54 44z" />
    <glyph glyph-name="ordmasculine" unicode="&#xba;" horiz-adv-x="439" 
d="M482 527c0 -133 -82 -220 -220 -220c-112 0 -166 59 -166 155c0 132 73 221 219 221c112 0 167 -59 167 -156zM308 631c-51 0 -90 -46 -90 -195c0 -52 16 -79 51 -79c51 0 90 48 90 196c0 51 -16 78 -51 78z" />
    <glyph glyph-name="guillemotright" unicode="&#xbb;" horiz-adv-x="536" 
d="M116 397l40 39l150 -191l-203 -186l-31 36l111 151zM301 397l40 39l150 -191l-203 -186l-31 36l111 151z" />
    <glyph glyph-name="questiondown" unicode="&#xbf;" horiz-adv-x="445" 
d="M325 -154l30 -47s-37 -60 -133 -60c-126 0 -203 58 -203 170c0 230 250 158 261 352l55 4c-11 -250 -175 -119 -175 -370c0 -60 31 -88 85 -88c50 0 80 39 80 39zM281 495c17 14 38 21 58 21s39 -7 53 -21c11 -13 16 -30 16 -47c0 -26 -11 -53 -33 -72
c-18 -14 -39 -21 -59 -21s-39 7 -52 21c-11 13 -17 30 -17 47c0 25 12 52 34 72z" />
    <glyph glyph-name="Agrave" unicode="&#xc0;" horiz-adv-x="608" 
d="M326 650h153l111 -650h-146l-30 182h-226l-85 -182h-84zM357 551h-1l-140 -306h188zM275 838l111 35l64 -147l-64 -17z" />
    <glyph glyph-name="Aacute" unicode="&#xc1;" horiz-adv-x="608" 
d="M326 650h153l111 -650h-146l-30 182h-226l-85 -182h-84zM357 551h-1l-140 -306h188zM442 865l104 -31l-139 -130l-56 9z" />
    <glyph glyph-name="Acircumflex" unicode="&#xc2;" horiz-adv-x="608" 
d="M326 650h153l111 -650h-146l-30 182h-226l-85 -182h-84zM357 551h-1l-140 -306h188zM454 888l80 -122l-34 -45l-92 85l-117 -85l-22 45l115 122h70z" />
    <glyph glyph-name="Atilde" unicode="&#xc3;" horiz-adv-x="608" 
d="M326 650h153l111 -650h-146l-30 182h-226l-85 -182h-84zM357 551h-1l-140 -306h188zM564 840l31 -35s-36 -79 -123 -79c-64 0 -92 48 -149 48c-36 0 -63 -45 -63 -45l-31 36s49 90 135 90c73 0 94 -47 146 -47c36 0 54 32 54 32z" />
    <glyph glyph-name="Adieresis" unicode="&#xc4;" horiz-adv-x="608" 
d="M326 650h153l111 -650h-146l-30 182h-226l-85 -182h-84zM357 551h-1l-140 -306h188zM461 839c14 11 31 17 48 17s32 -6 44 -17c9 -12 14 -26 14 -41c0 -23 -10 -46 -29 -63c-15 -12 -33 -18 -49 -18c-17 0 -32 6 -42 18c-9 11 -14 26 -14 41c0 22 10 46 28 63zM275 839
c14 11 32 17 49 17s32 -6 43 -17c9 -12 14 -26 14 -41c0 -23 -10 -46 -29 -63c-15 -12 -32 -18 -48 -18s-32 6 -43 18c-9 11 -14 26 -14 41c0 22 10 46 28 63z" />
    <glyph glyph-name="Aring" unicode="&#xc5;" horiz-adv-x="608" 
d="M326 650h153l111 -650h-146l-30 182h-226l-85 -182h-84zM357 551h-1l-140 -306h188zM514 807c0 -76 -50 -124 -119 -124c-57 0 -93 34 -93 91c0 78 52 124 119 124c53 0 93 -33 93 -91zM469 803c0 36 -24 53 -53 53c-37 0 -68 -24 -68 -76c0 -36 23 -54 53 -54
c40 0 68 26 68 77z" />
    <glyph glyph-name="AE" unicode="&#xc6;" horiz-adv-x="822" 
d="M439 650h426l-9 -72h-252l-30 -214h222l-10 -70h-222l-31 -222h266l-11 -72h-403l26 188h-210l-128 -188h-87zM244 252h176l46 326h-7z" />
    <glyph glyph-name="Ccedilla" unicode="&#xc7;" horiz-adv-x="576" 
d="M593 532c0 0 -88 53 -162 53c-114 0 -206 -90 -206 -343c0 -126 59 -178 150 -178c107 0 170 89 170 89l36 -48s-69 -115 -235 -116l-10 -47c-2 -6 76 -14 76 -81c0 -62 -43 -112 -130 -112c-74 0 -89 46 -89 46l30 29s15 -29 50 -29c37 0 60 19 60 63
c0 41 -54 40 -54 44l23 89c-147 15 -226 114 -226 265c0 234 135 404 348 404c104 0 190 -55 190 -55z" />
    <glyph glyph-name="Egrave" unicode="&#xc8;" 
d="M491 72l-10 -72h-404l91 650h390l-10 -72h-252l-30 -214h223l-11 -70h-221l-31 -222h265zM258 838l111 35l64 -147l-64 -17z" />
    <glyph glyph-name="Eacute" unicode="&#xc9;" 
d="M491 72l-10 -72h-404l91 650h390l-10 -72h-252l-30 -214h223l-11 -70h-221l-31 -222h265zM425 865l104 -31l-139 -130l-56 9z" />
    <glyph glyph-name="Ecircumflex" unicode="&#xca;" 
d="M491 72l-10 -72h-404l91 650h390l-10 -72h-252l-30 -214h223l-11 -70h-221l-31 -222h265zM438 888l80 -122l-34 -45l-92 85l-117 -85l-22 45l115 122h70z" />
    <glyph glyph-name="Edieresis" unicode="&#xcb;" 
d="M491 72l-10 -72h-404l91 650h390l-10 -72h-252l-30 -214h223l-11 -70h-221l-31 -222h265zM429 839c14 11 31 17 48 17s32 -6 44 -17c9 -12 14 -26 14 -41c0 -23 -10 -46 -29 -63c-15 -12 -33 -18 -49 -18c-17 0 -32 6 -42 18c-9 11 -14 26 -14 41c0 22 10 46 28 63z
M243 839c14 11 32 17 49 17s32 -6 43 -17c9 -12 14 -26 14 -41c0 -23 -10 -46 -29 -63c-15 -12 -32 -18 -48 -18s-32 6 -43 18c-9 11 -14 26 -14 41c0 22 10 46 28 63z" />
    <glyph glyph-name="Igrave" unicode="&#xcc;" horiz-adv-x="293" 
d="M306 650l-91 -650h-138l91 650h138zM113 838l111 35l64 -147l-64 -17z" />
    <glyph glyph-name="Iacute" unicode="&#xcd;" horiz-adv-x="293" 
d="M306 650l-91 -650h-138l91 650h138zM280 865l104 -31l-139 -130l-56 9z" />
    <glyph glyph-name="Icircumflex" unicode="&#xce;" horiz-adv-x="293" 
d="M306 650l-91 -650h-138l91 650h138zM294 888l80 -122l-34 -45l-92 85l-117 -85l-22 45l115 122h70z" />
    <glyph glyph-name="Idieresis" unicode="&#xcf;" horiz-adv-x="293" 
d="M306 650l-91 -650h-138l91 650h138zM299 839c14 11 31 17 48 17s32 -6 44 -17c9 -12 14 -26 14 -41c0 -23 -10 -46 -29 -63c-15 -12 -33 -18 -49 -18c-17 0 -32 6 -42 18c-9 11 -14 26 -14 41c0 22 10 46 28 63zM113 839c14 11 32 17 49 17s32 -6 43 -17
c9 -12 14 -26 14 -41c0 -23 -10 -46 -29 -63c-15 -12 -32 -18 -48 -18s-32 6 -43 18c-9 11 -14 26 -14 41c0 22 10 46 28 63z" />
    <glyph glyph-name="Eth" unicode="&#xd0;" horiz-adv-x="658" 
d="M389 650c176 0 273 -89 273 -263c0 -241 -126 -387 -363 -387h-222l40 289h-55l9 66h55l42 295h221zM379 579h-83l-32 -224h143l-9 -66h-143l-30 -218h85c120 0 204 89 204 342c0 116 -43 166 -135 166z" />
    <glyph glyph-name="Ntilde" unicode="&#xd1;" horiz-adv-x="651" 
d="M665 650l-91 -650h-108l-241 488h-2v-58l-60 -430h-86l91 650h143l211 -441h3l-1 45l55 396h86zM598 840l31 -35s-36 -79 -123 -79c-64 0 -92 48 -149 48c-36 0 -63 -45 -63 -45l-31 36s49 90 135 90c73 0 94 -47 146 -47c36 0 54 32 54 32z" />
    <glyph glyph-name="Ograve" unicode="&#xd2;" horiz-adv-x="663" 
d="M677 392c0 -246 -150 -403 -342 -403c-166 0 -259 103 -259 270c0 232 121 401 340 401c186 0 261 -123 261 -268zM530 421c0 96 -36 167 -121 167c-112 0 -187 -97 -187 -363c0 -100 41 -165 120 -165c103 0 188 92 188 361zM298 838l111 35l64 -147l-64 -17z" />
    <glyph glyph-name="Oacute" unicode="&#xd3;" horiz-adv-x="663" 
d="M677 392c0 -246 -150 -403 -342 -403c-166 0 -259 103 -259 270c0 232 121 401 340 401c186 0 261 -123 261 -268zM530 421c0 96 -36 167 -121 167c-112 0 -187 -97 -187 -363c0 -100 41 -165 120 -165c103 0 188 92 188 361zM465 865l104 -31l-139 -130l-56 9z" />
    <glyph glyph-name="Ocircumflex" unicode="&#xd4;" horiz-adv-x="663" 
d="M677 392c0 -246 -150 -403 -342 -403c-166 0 -259 103 -259 270c0 232 121 401 340 401c186 0 261 -123 261 -268zM530 421c0 96 -36 167 -121 167c-112 0 -187 -97 -187 -363c0 -100 41 -165 120 -165c103 0 188 92 188 361zM479 888l80 -122l-34 -45l-92 85l-117 -85
l-22 45l115 122h70z" />
    <glyph glyph-name="Otilde" unicode="&#xd5;" horiz-adv-x="663" 
d="M677 392c0 -246 -150 -403 -342 -403c-166 0 -259 103 -259 270c0 232 121 401 340 401c186 0 261 -123 261 -268zM530 421c0 96 -36 167 -121 167c-112 0 -187 -97 -187 -363c0 -100 41 -165 120 -165c103 0 188 92 188 361zM587 840l31 -35s-36 -79 -123 -79
c-64 0 -92 48 -149 48c-36 0 -63 -45 -63 -45l-31 36s49 90 135 90c73 0 94 -47 146 -47c36 0 54 32 54 32z" />
    <glyph glyph-name="Odieresis" unicode="&#xd6;" horiz-adv-x="663" 
d="M677 392c0 -246 -150 -403 -342 -403c-166 0 -259 103 -259 270c0 232 121 401 340 401c186 0 261 -123 261 -268zM530 421c0 96 -36 167 -121 167c-112 0 -187 -97 -187 -363c0 -100 41 -165 120 -165c103 0 188 92 188 361zM484 839c14 11 31 17 48 17s32 -6 44 -17
c9 -12 14 -26 14 -41c0 -23 -10 -46 -29 -63c-15 -12 -33 -18 -49 -18c-17 0 -32 6 -42 18c-9 11 -14 26 -14 41c0 22 10 46 28 63zM298 839c14 11 32 17 49 17s32 -6 43 -17c9 -12 14 -26 14 -41c0 -23 -10 -46 -29 -63c-15 -12 -32 -18 -48 -18s-32 6 -43 18
c-9 11 -14 26 -14 41c0 22 10 46 28 63z" />
    <glyph glyph-name="multiply" unicode="&#xd7;" horiz-adv-x="423" 
d="M441 448l-134 -129l98 -128l-57 -58l-99 130l-136 -130l-40 58l134 128l-98 129l56 58l100 -132l137 132z" />
    <glyph glyph-name="Oslash" unicode="&#xd8;" horiz-adv-x="663" 
d="M677 392c0 -246 -150 -403 -342 -403c-39 0 -73 6 -104 16l-63 -112l-40 11l66 118c-77 43 -118 125 -118 237c0 232 121 401 340 401c49 0 90 -9 125 -24l51 90l40 -11l-56 -99c70 -48 101 -132 101 -224zM222 225c0 -45 8 -83 24 -111l247 437c-19 23 -47 37 -84 37
c-112 0 -187 -97 -187 -363zM530 421c0 33 -5 63 -14 89l-242 -429c18 -14 41 -21 68 -21c103 0 188 92 188 361z" />
    <glyph glyph-name="Ugrave" unicode="&#xd9;" horiz-adv-x="614" 
d="M305 -11c-141 0 -208 73 -208 194c0 17 1 34 4 53l58 414h139l-54 -383c-4 -28 -6 -53 -6 -75c0 -91 34 -127 100 -127c90 0 140 64 159 202l54 383h85l-58 -414c-21 -148 -97 -247 -273 -247zM316 838l111 35l64 -147l-64 -17z" />
    <glyph glyph-name="Uacute" unicode="&#xda;" horiz-adv-x="614" 
d="M305 -11c-141 0 -208 73 -208 194c0 17 1 34 4 53l58 414h139l-54 -383c-4 -28 -6 -53 -6 -75c0 -91 34 -127 100 -127c90 0 140 64 159 202l54 383h85l-58 -414c-21 -148 -97 -247 -273 -247zM452 865l104 -31l-139 -130l-56 9z" />
    <glyph glyph-name="Ucircumflex" unicode="&#xdb;" horiz-adv-x="614" 
d="M305 -11c-141 0 -208 73 -208 194c0 17 1 34 4 53l58 414h139l-54 -383c-4 -28 -6 -53 -6 -75c0 -91 34 -127 100 -127c90 0 140 64 159 202l54 383h85l-58 -414c-21 -148 -97 -247 -273 -247zM480 888l80 -122l-34 -45l-92 85l-117 -85l-22 45l115 122h70z" />
    <glyph glyph-name="Udieresis" unicode="&#xdc;" horiz-adv-x="614" 
d="M305 -11c-141 0 -208 73 -208 194c0 17 1 34 4 53l58 414h139l-54 -383c-4 -28 -6 -53 -6 -75c0 -91 34 -127 100 -127c90 0 140 64 159 202l54 383h85l-58 -414c-21 -148 -97 -247 -273 -247zM484 839c14 11 31 17 48 17s32 -6 44 -17c9 -12 14 -26 14 -41
c0 -23 -10 -46 -29 -63c-15 -12 -33 -18 -49 -18c-17 0 -32 6 -42 18c-9 11 -14 26 -14 41c0 22 10 46 28 63zM298 839c14 11 32 17 49 17s32 -6 43 -17c9 -12 14 -26 14 -41c0 -23 -10 -46 -29 -63c-15 -12 -32 -18 -48 -18s-32 6 -43 18c-9 11 -14 26 -14 41
c0 22 10 46 28 63z" />
    <glyph glyph-name="Yacute" unicode="&#xdd;" horiz-adv-x="523" 
d="M341 355h1l182 295h96l-250 -383l-36 -267h-139l35 251l-146 399h155zM419 865l104 -31l-139 -130l-56 9z" />
    <glyph glyph-name="Thorn" unicode="&#xde;" horiz-adv-x="562" 
d="M327 650l-13 -90h66c128 0 206 -56 206 -184c0 -202 -153 -283 -268 -283h-69l-13 -93h-138l91 650h138zM364 491h-59l-47 -331h59c70 0 129 52 129 227c0 79 -31 104 -82 104z" />
    <glyph glyph-name="germandbls" unicode="&#xdf;" horiz-adv-x="584" 
d="M81 -29l77 553c24 169 118 236 248 236c110 0 174 -48 174 -129c0 -86 -59 -131 -114 -154c82 -25 128 -83 128 -188c0 -209 -97 -300 -242 -300c-78 0 -101 22 -101 22l24 63s18 -14 56 -14c61 0 123 71 123 250c0 89 -34 118 -114 118l10 72s97 20 97 129
c0 44 -20 64 -58 64c-54 0 -80 -43 -98 -169l-77 -553c-24 -171 -109 -232 -210 -232c-64 0 -88 30 -88 30l30 60s23 -19 51 -19c42 0 66 38 84 161z" />
    <glyph glyph-name="agrave" unicode="&#xe0;" horiz-adv-x="542" 
d="M554 500l-70 -500h-102l-16 44h-1s-29 -55 -131 -55c-105 0 -175 78 -175 206c0 179 105 316 258 316c92 0 111 -41 111 -41h4l24 30h98zM277 67c53 0 82 36 88 45l41 283c-2 4 -15 40 -71 40c-82 0 -136 -82 -136 -260c0 -75 29 -108 78 -108zM245 703l111 35l64 -147
l-64 -17z" />
    <glyph glyph-name="aacute" unicode="&#xe1;" horiz-adv-x="542" 
d="M554 500l-70 -500h-102l-16 44h-1s-29 -55 -131 -55c-105 0 -175 78 -175 206c0 179 105 316 258 316c92 0 111 -41 111 -41h4l24 30h98zM277 67c53 0 82 36 88 45l41 283c-2 4 -15 40 -71 40c-82 0 -136 -82 -136 -260c0 -75 29 -108 78 -108zM413 730l104 -31
l-139 -130l-56 9z" />
    <glyph glyph-name="acircumflex" unicode="&#xe2;" horiz-adv-x="542" 
d="M554 500l-70 -500h-102l-16 44h-1s-29 -55 -131 -55c-105 0 -175 78 -175 206c0 179 105 316 258 316c92 0 111 -41 111 -41h4l24 30h98zM277 67c53 0 82 36 88 45l41 283c-2 4 -15 40 -71 40c-82 0 -136 -82 -136 -260c0 -75 29 -108 78 -108zM427 753l80 -122l-34 -45
l-92 85l-117 -85l-22 45l115 122h70z" />
    <glyph glyph-name="atilde" unicode="&#xe3;" horiz-adv-x="542" 
d="M554 500l-70 -500h-102l-16 44h-1s-29 -55 -131 -55c-105 0 -175 78 -175 206c0 179 105 316 258 316c92 0 111 -41 111 -41h4l24 30h98zM277 67c53 0 82 36 88 45l41 283c-2 4 -15 40 -71 40c-82 0 -136 -82 -136 -260c0 -75 29 -108 78 -108zM533 705l31 -35
s-36 -79 -123 -79c-64 0 -92 48 -149 48c-36 0 -63 -45 -63 -45l-31 36s49 90 135 90c73 0 94 -47 146 -47c36 0 54 32 54 32z" />
    <glyph glyph-name="adieresis" unicode="&#xe4;" horiz-adv-x="542" 
d="M554 500l-70 -500h-102l-16 44h-1s-29 -55 -131 -55c-105 0 -175 78 -175 206c0 179 105 316 258 316c92 0 111 -41 111 -41h4l24 30h98zM277 67c53 0 82 36 88 45l41 283c-2 4 -15 40 -71 40c-82 0 -136 -82 -136 -260c0 -75 29 -108 78 -108zM430 704
c14 11 31 17 48 17s32 -6 44 -17c9 -12 14 -26 14 -41c0 -23 -10 -46 -29 -63c-15 -12 -33 -18 -49 -18c-17 0 -32 6 -42 18c-9 11 -14 26 -14 41c0 22 10 46 28 63zM244 704c14 11 32 17 49 17s32 -6 43 -17c9 -12 14 -26 14 -41c0 -23 -10 -46 -29 -63
c-15 -12 -32 -18 -48 -18s-32 6 -43 18c-9 11 -14 26 -14 41c0 22 10 46 28 63z" />
    <glyph glyph-name="aring" unicode="&#xe5;" horiz-adv-x="542" 
d="M554 500l-70 -500h-102l-16 44h-1s-29 -55 -131 -55c-105 0 -175 78 -175 206c0 179 105 316 258 316c92 0 111 -41 111 -41h4l24 30h98zM277 67c53 0 82 36 88 45l41 283c-2 4 -15 40 -71 40c-82 0 -136 -82 -136 -260c0 -75 29 -108 78 -108zM485 672
c0 -76 -50 -124 -119 -124c-57 0 -93 34 -93 91c0 78 52 124 119 124c53 0 93 -33 93 -91zM440 668c0 36 -24 53 -53 53c-37 0 -68 -24 -68 -76c0 -36 23 -54 53 -54c40 0 68 26 68 77z" />
    <glyph glyph-name="ae" unicode="&#xe6;" horiz-adv-x="757" 
d="M702 111l40 -36s-53 -86 -185 -86c-72 0 -133 21 -172 67h-4s-30 -67 -134 -67c-118 0 -188 78 -188 206c0 179 105 316 276 316c93 0 119 -46 119 -46h5c42 29 93 45 150 45c108 0 168 -63 168 -140c0 -151 -192 -159 -298 -159c-1 -14 -1 -29 -1 -44
c0 -85 44 -111 105 -111c77 0 119 55 119 55zM282 67c37 0 63 19 76 34c-11 26 -17 57 -17 94c0 88 22 159 60 212c-10 12 -29 28 -66 28c-82 0 -136 -82 -136 -260c0 -75 29 -108 83 -108zM593 446c-55 0 -96 -58 -110 -178c84 0 175 9 175 115c0 41 -22 63 -65 63z" />
    <glyph glyph-name="ccedilla" unicode="&#xe7;" horiz-adv-x="446" 
d="M464 400c0 0 -66 44 -112 44c-100 0 -150 -94 -150 -272c0 -88 47 -116 97 -116c79 0 114 62 114 62l43 -30s-42 -99 -181 -99h-6l-10 -47c-2 -6 76 -14 76 -81c0 -62 -43 -112 -130 -112c-74 0 -89 46 -89 46l30 29s15 -29 50 -29c37 0 60 19 60 63c0 41 -54 40 -54 44
l23 91c-103 17 -165 90 -165 209c0 185 104 309 277 309c74 0 146 -47 146 -47z" />
    <glyph glyph-name="egrave" unicode="&#xe8;" horiz-adv-x="474" 
d="M420 111l40 -36s-53 -86 -185 -86c-123 0 -216 63 -216 206c0 202 115 315 268 315c108 0 168 -63 168 -140c0 -151 -192 -159 -298 -159c-1 -14 -1 -29 -1 -44c0 -85 44 -111 105 -111c77 0 119 55 119 55zM311 446c-55 0 -96 -58 -110 -178c84 0 175 9 175 115
c0 41 -22 63 -65 63zM209 703l111 35l64 -147l-64 -17z" />
    <glyph glyph-name="eacute" unicode="&#xe9;" horiz-adv-x="474" 
d="M420 111l40 -36s-53 -86 -185 -86c-123 0 -216 63 -216 206c0 202 115 315 268 315c108 0 168 -63 168 -140c0 -151 -192 -159 -298 -159c-1 -14 -1 -29 -1 -44c0 -85 44 -111 105 -111c77 0 119 55 119 55zM311 446c-55 0 -96 -58 -110 -178c84 0 175 9 175 115
c0 41 -22 63 -65 63zM377 730l104 -31l-139 -130l-56 9z" />
    <glyph glyph-name="ecircumflex" unicode="&#xea;" horiz-adv-x="474" 
d="M420 111l40 -36s-53 -86 -185 -86c-123 0 -216 63 -216 206c0 202 115 315 268 315c108 0 168 -63 168 -140c0 -151 -192 -159 -298 -159c-1 -14 -1 -29 -1 -44c0 -85 44 -111 105 -111c77 0 119 55 119 55zM311 446c-55 0 -96 -58 -110 -178c84 0 175 9 175 115
c0 41 -22 63 -65 63zM392 753l80 -122l-34 -45l-92 85l-117 -85l-22 45l115 122h70z" />
    <glyph glyph-name="edieresis" unicode="&#xeb;" horiz-adv-x="474" 
d="M420 111l40 -36s-53 -86 -185 -86c-123 0 -216 63 -216 206c0 202 115 315 268 315c108 0 168 -63 168 -140c0 -151 -192 -159 -298 -159c-1 -14 -1 -29 -1 -44c0 -85 44 -111 105 -111c77 0 119 55 119 55zM311 446c-55 0 -96 -58 -110 -178c84 0 175 9 175 115
c0 41 -22 63 -65 63zM394 704c14 11 31 17 48 17s32 -6 44 -17c9 -12 14 -26 14 -41c0 -23 -10 -46 -29 -63c-15 -12 -33 -18 -49 -18c-17 0 -32 6 -42 18c-9 11 -14 26 -14 41c0 22 10 46 28 63zM208 704c14 11 32 17 49 17s32 -6 43 -17c9 -12 14 -26 14 -41
c0 -23 -10 -46 -29 -63c-15 -12 -32 -18 -48 -18s-32 6 -43 18c-9 11 -14 26 -14 41c0 22 10 46 28 63z" />
    <glyph glyph-name="igrave" unicode="&#xec;" horiz-adv-x="249" 
d="M261 500l-70 -500h-133l70 500h133zM80 703l111 35l64 -147l-64 -17z" />
    <glyph glyph-name="iacute" unicode="&#xed;" horiz-adv-x="249" 
d="M261 500l-70 -500h-133l70 500h133zM248 730l104 -31l-139 -130l-56 9z" />
    <glyph glyph-name="icircumflex" unicode="&#xee;" horiz-adv-x="249" 
d="M261 500l-70 -500h-133l70 500h133zM267 753l80 -122l-34 -45l-92 85l-117 -85l-22 45l115 122h70z" />
    <glyph glyph-name="idieresis" unicode="&#xef;" horiz-adv-x="249" 
d="M261 500l-70 -500h-133l70 500h133zM269 704c14 11 31 17 48 17s32 -6 44 -17c9 -12 14 -26 14 -41c0 -23 -10 -46 -29 -63c-15 -12 -33 -18 -49 -18c-17 0 -32 6 -42 18c-9 11 -14 26 -14 41c0 22 10 46 28 63zM83 704c14 11 32 17 49 17s32 -6 43 -17
c9 -12 14 -26 14 -41c0 -23 -10 -46 -29 -63c-15 -12 -32 -18 -48 -18s-32 6 -43 18c-9 11 -14 26 -14 41c0 22 10 46 28 63z" />
    <glyph glyph-name="eth" unicode="&#xf0;" horiz-adv-x="532" 
d="M60 196c0 215 117 314 260 314c29 0 59 -7 85 -21c-11 52 -32 97 -60 137l-103 -54l-13 42l88 46c-17 18 -36 34 -56 49l64 37c24 -13 47 -28 68 -46l84 44l13 -42l-64 -34c69 -76 112 -185 112 -318c0 -20 -1 -40 -3 -61c-20 -193 -117 -300 -274 -300
c-138 0 -201 94 -201 207zM321 445c-74 0 -124 -77 -124 -280c0 -76 26 -112 77 -112c75 0 124 78 124 281c0 72 -26 111 -77 111z" />
    <glyph glyph-name="ntilde" unicode="&#xf1;" horiz-adv-x="534" 
d="M58 0l70 500h107l12 -40h3s42 50 144 50c90 0 137 -40 137 -129c0 -13 -1 -27 -3 -42l-47 -339h-133s41 298 46 328c2 14 3 26 3 37c0 49 -21 62 -61 62c-51 0 -87 -33 -90 -36l-55 -391h-133zM502 705l31 -35s-36 -79 -123 -79c-64 0 -92 48 -149 48
c-36 0 -63 -45 -63 -45l-31 36s49 90 135 90c73 0 94 -47 146 -47c36 0 54 32 54 32z" />
    <glyph glyph-name="ograve" unicode="&#xf2;" horiz-adv-x="525" 
d="M535 305c0 -192 -109 -316 -275 -316c-123 0 -200 73 -200 206c0 190 100 316 274 316c123 0 201 -73 201 -206zM321 444c-77 0 -123 -88 -123 -285c0 -65 22 -104 76 -104c76 0 123 89 123 286c0 66 -22 103 -76 103zM208 703l111 35l64 -147l-64 -17z" />
    <glyph glyph-name="oacute" unicode="&#xf3;" horiz-adv-x="525" 
d="M535 305c0 -192 -109 -316 -275 -316c-123 0 -200 73 -200 206c0 190 100 316 274 316c123 0 201 -73 201 -206zM321 444c-77 0 -123 -88 -123 -285c0 -65 22 -104 76 -104c76 0 123 89 123 286c0 66 -22 103 -76 103zM376 730l104 -31l-139 -130l-56 9z" />
    <glyph glyph-name="ocircumflex" unicode="&#xf4;" horiz-adv-x="525" 
d="M535 305c0 -192 -109 -316 -275 -316c-123 0 -200 73 -200 206c0 190 100 316 274 316c123 0 201 -73 201 -206zM321 444c-77 0 -123 -88 -123 -285c0 -65 22 -104 76 -104c76 0 123 89 123 286c0 66 -22 103 -76 103zM390 753l80 -122l-34 -45l-92 85l-117 -85l-22 45
l115 122h70z" />
    <glyph glyph-name="otilde" unicode="&#xf5;" horiz-adv-x="525" 
d="M535 305c0 -192 -109 -316 -275 -316c-123 0 -200 73 -200 206c0 190 100 316 274 316c123 0 201 -73 201 -206zM321 444c-77 0 -123 -88 -123 -285c0 -65 22 -104 76 -104c76 0 123 89 123 286c0 66 -22 103 -76 103zM495 705l31 -35s-36 -79 -123 -79
c-64 0 -92 48 -149 48c-36 0 -63 -45 -63 -45l-31 36s49 90 135 90c73 0 94 -47 146 -47c36 0 54 32 54 32z" />
    <glyph glyph-name="odieresis" unicode="&#xf6;" horiz-adv-x="525" 
d="M535 305c0 -192 -109 -316 -275 -316c-123 0 -200 73 -200 206c0 190 100 316 274 316c123 0 201 -73 201 -206zM321 444c-77 0 -123 -88 -123 -285c0 -65 22 -104 76 -104c76 0 123 89 123 286c0 66 -22 103 -76 103zM393 704c14 11 31 17 48 17s32 -6 44 -17
c9 -12 14 -26 14 -41c0 -23 -10 -46 -29 -63c-15 -12 -33 -18 -49 -18c-17 0 -32 6 -42 18c-9 11 -14 26 -14 41c0 22 10 46 28 63zM207 704c14 11 32 17 49 17s32 -6 43 -17c9 -12 14 -26 14 -41c0 -23 -10 -46 -29 -63c-15 -12 -32 -18 -48 -18s-32 6 -43 18
c-9 11 -14 26 -14 41c0 22 10 46 28 63z" />
    <glyph glyph-name="divide" unicode="&#xf7;" 
d="M226 136c17 14 38 21 58 21s39 -7 53 -21c11 -13 16 -30 16 -47c0 -26 -11 -53 -33 -72c-18 -14 -39 -21 -59 -21s-39 7 -52 21c-11 13 -17 30 -17 47c0 25 12 52 34 72zM279 514c17 14 38 21 58 21s39 -7 53 -21c11 -13 16 -30 16 -47c0 -26 -11 -53 -33 -72
c-18 -14 -39 -21 -59 -21s-39 7 -52 21c-11 13 -17 30 -17 47c0 25 12 52 34 72zM537 302l-10 -74h-464l10 74h464z" />
    <glyph glyph-name="oslash" unicode="&#xf8;" horiz-adv-x="529" 
d="M535 305c0 -192 -109 -316 -275 -316c-23 0 -44 3 -63 8l-95 -180l-55 11l99 188c-55 33 -86 94 -86 179c0 190 100 316 274 316c25 0 48 -3 69 -9l78 148l56 -11l-84 -159c52 -34 82 -93 82 -175zM321 444c-77 0 -123 -88 -123 -285c0 -15 1 -28 3 -39l164 311
c-11 8 -26 13 -44 13zM397 341c0 11 -1 21 -2 30l-162 -306c11 -7 24 -10 41 -10c76 0 123 89 123 286z" />
    <glyph glyph-name="ugrave" unicode="&#xf9;" horiz-adv-x="534" 
d="M545 500l-70 -500h-107l-13 44h-2s-41 -55 -143 -55c-89 0 -137 40 -137 129c0 13 1 27 3 42l48 340h133l-44 -312c-3 -19 -4 -35 -4 -49c0 -52 20 -67 57 -67c53 0 92 38 92 38l54 390h133zM226 703l111 35l64 -147l-64 -17z" />
    <glyph glyph-name="uacute" unicode="&#xfa;" horiz-adv-x="534" 
d="M545 500l-70 -500h-107l-13 44h-2s-41 -55 -143 -55c-89 0 -137 40 -137 129c0 13 1 27 3 42l48 340h133l-44 -312c-3 -19 -4 -35 -4 -49c0 -52 20 -67 57 -67c53 0 92 38 92 38l54 390h133zM394 730l104 -31l-139 -130l-56 9z" />
    <glyph glyph-name="ucircumflex" unicode="&#xfb;" horiz-adv-x="534" 
d="M545 500l-70 -500h-107l-13 44h-2s-41 -55 -143 -55c-89 0 -137 40 -137 129c0 13 1 27 3 42l48 340h133l-44 -312c-3 -19 -4 -35 -4 -49c0 -52 20 -67 57 -67c53 0 92 38 92 38l54 390h133zM408 753l80 -122l-34 -45l-92 85l-117 -85l-22 45l115 122h70z" />
    <glyph glyph-name="udieresis" unicode="&#xfc;" horiz-adv-x="534" 
d="M545 500l-70 -500h-107l-13 44h-2s-41 -55 -143 -55c-89 0 -137 40 -137 129c0 13 1 27 3 42l48 340h133l-44 -312c-3 -19 -4 -35 -4 -49c0 -52 20 -67 57 -67c53 0 92 38 92 38l54 390h133zM411 704c14 11 31 17 48 17s32 -6 44 -17c9 -12 14 -26 14 -41
c0 -23 -10 -46 -29 -63c-15 -12 -33 -18 -49 -18c-17 0 -32 6 -42 18c-9 11 -14 26 -14 41c0 22 10 46 28 63zM225 704c14 11 32 17 49 17s32 -6 43 -17c9 -12 14 -26 14 -41c0 -23 -10 -46 -29 -63c-15 -12 -32 -18 -48 -18s-32 6 -43 18c-9 11 -14 26 -14 41
c0 22 10 46 28 63z" />
    <glyph glyph-name="yacute" unicode="&#xfd;" horiz-adv-x="488" 
d="M12 -168c0 0 23 -11 49 -11c64 0 102 50 159 159l-139 520h160l73 -354l153 354h82l-246 -511c-73 -152 -139 -250 -237 -250c-52 0 -75 15 -75 15zM381 730l104 -31l-139 -130l-56 9z" />
    <glyph glyph-name="thorn" unicode="&#xfe;" horiz-adv-x="541" 
d="M56 0l105 746l134 8l-41 -291h5s31 47 122 47c104 0 172 -78 172 -203c0 -177 -96 -318 -252 -318c-57 0 -91 17 -109 30l-38 -269l-133 -4zM334 433c-56 0 -88 -47 -91 -52l-40 -285c2 -4 18 -31 73 -31c82 0 137 77 137 266c0 69 -27 102 -79 102z" />
    <glyph glyph-name="ydieresis" unicode="&#xff;" horiz-adv-x="488" 
d="M12 -168c0 0 23 -11 49 -11c64 0 102 50 159 159l-139 520h160l73 -354l153 354h82l-246 -511c-73 -152 -139 -250 -237 -250c-52 0 -75 15 -75 15zM398 704c14 11 31 17 48 17s32 -6 44 -17c9 -12 14 -26 14 -41c0 -23 -10 -46 -29 -63c-15 -12 -33 -18 -49 -18
c-17 0 -32 6 -42 18c-9 11 -14 26 -14 41c0 22 10 46 28 63zM212 704c14 11 32 17 49 17s32 -6 43 -17c9 -12 14 -26 14 -41c0 -23 -10 -46 -29 -63c-15 -12 -32 -18 -48 -18s-32 6 -43 18c-9 11 -14 26 -14 41c0 22 10 46 28 63z" />
    <glyph glyph-name="Amacron" unicode="&#x100;" horiz-adv-x="608" 
d="M326 650h153l111 -650h-146l-30 182h-226l-85 -182h-84zM357 551h-1l-140 -306h188zM520 817l-7 -58h-215l8 58h214z" />
    <glyph glyph-name="amacron" unicode="&#x101;" horiz-adv-x="542" 
d="M554 500l-70 -500h-102l-16 44h-1s-29 -55 -131 -55c-105 0 -175 78 -175 206c0 179 105 316 258 316c92 0 111 -41 111 -41h4l24 30h98zM277 67c53 0 82 36 88 45l41 283c-2 4 -15 40 -71 40c-82 0 -136 -82 -136 -260c0 -75 29 -108 78 -108zM491 682l-7 -58h-215l8 58
h214z" />
    <glyph glyph-name="Abreve" unicode="&#x102;" horiz-adv-x="608" 
d="M326 650h153l111 -650h-146l-30 182h-226l-85 -182h-84zM357 551h-1l-140 -306h188zM411 771c80 0 91 55 91 55l1 4l65 -9s-13 -123 -168 -123c-120 0 -133 74 -133 107c0 9 1 16 1 16l67 9v-4s-4 -55 76 -55z" />
    <glyph glyph-name="abreve" unicode="&#x103;" horiz-adv-x="542" 
d="M554 500l-70 -500h-102l-16 44h-1s-29 -55 -131 -55c-105 0 -175 78 -175 206c0 179 105 316 258 316c92 0 111 -41 111 -41h4l24 30h98zM277 67c53 0 82 36 88 45l41 283c-2 4 -15 40 -71 40c-82 0 -136 -82 -136 -260c0 -75 29 -108 78 -108zM376 636c80 0 91 55 91 55
l1 4l65 -9s-13 -123 -168 -123c-120 0 -133 74 -133 107c0 9 1 16 1 16l67 9v-4s-4 -55 76 -55z" />
    <glyph glyph-name="Aogonek" unicode="&#x104;" horiz-adv-x="608" 
d="M326 650h153l111 -650h-82c-28 -14 -89 -56 -89 -148c0 -42 27 -53 69 -53l-7 -49c-80 0 -150 16 -150 98c0 71 61 124 112 154l-29 180h-226l-85 -182h-84zM357 551h-1l-140 -306h188z" />
    <glyph glyph-name="aogonek" unicode="&#x105;" horiz-adv-x="542" 
d="M554 500l-70 -500h-35c-28 -14 -89 -56 -89 -148c0 -42 27 -53 69 -53l-7 -49c-80 0 -150 16 -150 98c0 70 59 121 110 152l-16 44h-1s-29 -55 -131 -55c-105 0 -175 78 -175 206c0 179 105 316 258 316c92 0 111 -41 111 -41h4l24 30h98zM277 67c53 0 82 36 88 45
l41 283c-2 4 -15 40 -71 40c-82 0 -136 -82 -136 -260c0 -75 29 -108 78 -108z" />
    <glyph glyph-name="Cacute" unicode="&#x106;" horiz-adv-x="576" 
d="M593 532c0 0 -88 53 -162 53c-114 0 -206 -90 -206 -343c0 -126 59 -178 150 -178c107 0 170 89 170 89l36 -48s-69 -116 -236 -116c-174 0 -269 102 -269 267c0 234 135 404 348 404c104 0 190 -55 190 -55zM458 865l104 -31l-139 -130l-56 9z" />
    <glyph glyph-name="cacute" unicode="&#x107;" horiz-adv-x="446" 
d="M464 400c0 0 -66 44 -112 44c-100 0 -150 -94 -150 -272c0 -88 47 -116 97 -116c79 0 114 62 114 62l43 -30s-42 -99 -181 -99c-133 0 -215 76 -215 213c0 185 104 309 277 309c74 0 146 -47 146 -47zM381 730l104 -31l-139 -130l-56 9z" />
    <glyph glyph-name="Ccaron" unicode="&#x10c;" horiz-adv-x="576" 
d="M593 532c0 0 -88 53 -162 53c-114 0 -206 -90 -206 -343c0 -126 59 -178 150 -178c107 0 170 89 170 89l36 -48s-69 -116 -236 -116c-174 0 -269 102 -269 267c0 234 135 404 348 404c104 0 190 -55 190 -55zM382 707l-96 138l47 35l95 -93l121 93l37 -39l-134 -134h-70z
" />
    <glyph glyph-name="ccaron" unicode="&#x10d;" horiz-adv-x="446" 
d="M464 400c0 0 -66 44 -112 44c-100 0 -150 -94 -150 -272c0 -88 47 -116 97 -116c79 0 114 62 114 62l43 -30s-42 -99 -181 -99c-133 0 -215 76 -215 213c0 185 104 309 277 309c74 0 146 -47 146 -47zM304 572l-96 138l47 35l95 -93l121 93l37 -39l-134 -134h-70z" />
    <glyph glyph-name="Dcaron" unicode="&#x10e;" horiz-adv-x="658" 
d="M389 650c176 0 273 -89 273 -263c0 -241 -126 -387 -363 -387h-222l91 650h221zM379 579h-83l-71 -508h85c120 0 204 89 204 342c0 116 -43 166 -135 166zM357 707l-96 138l47 35l95 -93l121 93l37 -39l-134 -134h-70z" />
    <glyph glyph-name="dcaron" unicode="&#x10f;" horiz-adv-x="543" 
d="M591 754l-106 -754h-111l-9 45h-1s-32 -56 -128 -56c-110 0 -177 85 -177 211c0 177 101 310 244 310c88 0 112 -38 112 -38h3l38 274zM277 67c54 0 88 42 90 45l41 289s-23 33 -74 33c-89 0 -136 -85 -136 -257c0 -81 28 -110 79 -110zM663 800l89 -14l-101 -234l-47 4z
" />
    <glyph glyph-name="Dcroat" unicode="&#x110;" horiz-adv-x="658" 
d="M389 650c176 0 273 -89 273 -263c0 -241 -126 -387 -363 -387h-222l40 289h-55l9 66h55l42 295h221zM379 579h-83l-32 -224h143l-9 -66h-143l-30 -218h85c120 0 204 89 204 342c0 116 -43 166 -135 166z" />
    <glyph glyph-name="dcroat" unicode="&#x111;" horiz-adv-x="548" 
d="M583 750l-10 -71h65l-7 -55l-63 -12h-5l-86 -612h-117l-5 42c-12 -15 -54 -61 -140 -61c-103 0 -163 86 -163 211c0 177 94 326 239 326c88 0 117 -46 117 -46h3l20 140h-94l9 67h95l10 71h132zM270 59c58 0 86 48 91 56l40 282c-2 4 -16 45 -72 45
c-88 0 -137 -82 -137 -272c0 -81 27 -111 78 -111z" />
    <glyph glyph-name="Emacron" unicode="&#x112;" 
d="M491 72l-10 -72h-404l91 650h390l-10 -72h-252l-30 -214h223l-11 -70h-221l-31 -222h265zM501 817l-7 -58h-215l8 58h214z" />
    <glyph glyph-name="emacron" unicode="&#x113;" horiz-adv-x="474" 
d="M420 111l40 -36s-53 -86 -185 -86c-123 0 -216 63 -216 206c0 202 115 315 268 315c108 0 168 -63 168 -140c0 -151 -192 -159 -298 -159c-1 -14 -1 -29 -1 -44c0 -85 44 -111 105 -111c77 0 119 55 119 55zM311 446c-55 0 -96 -58 -110 -178c84 0 175 9 175 115
c0 41 -22 63 -65 63zM455 682l-7 -58h-215l8 58h214z" />
    <glyph glyph-name="Edotaccent" unicode="&#x116;" 
d="M491 72l-10 -72h-404l91 650h390l-10 -72h-252l-30 -214h223l-11 -70h-221l-31 -222h265zM339 843c16 14 36 20 55 20s37 -6 49 -19c10 -13 15 -28 15 -45c0 -25 -11 -51 -31 -70c-17 -13 -36 -19 -55 -19s-37 6 -49 20c-11 12 -16 28 -16 45c0 24 11 50 32 68z" />
    <glyph glyph-name="edotaccent" unicode="&#x117;" horiz-adv-x="474" 
d="M420 111l40 -36s-53 -86 -185 -86c-123 0 -216 63 -216 206c0 202 115 315 268 315c108 0 168 -63 168 -140c0 -151 -192 -159 -298 -159c-1 -14 -1 -29 -1 -44c0 -85 44 -111 105 -111c77 0 119 55 119 55zM311 446c-55 0 -96 -58 -110 -178c84 0 175 9 175 115
c0 41 -22 63 -65 63zM299 708c16 14 36 20 55 20s37 -6 49 -19c10 -13 15 -28 15 -45c0 -25 -11 -51 -31 -70c-17 -13 -36 -19 -55 -19s-37 6 -49 20c-11 12 -16 28 -16 45c0 24 11 50 32 68z" />
    <glyph glyph-name="Eogonek" unicode="&#x118;" 
d="M491 72l-10 -72h-18c-28 -14 -89 -56 -89 -148c0 -42 27 -53 69 -53l-7 -49c-80 0 -150 16 -150 98c0 69 58 121 108 152h-317l91 650h390l-10 -72h-252l-30 -214h223l-11 -70h-221l-31 -222h265z" />
    <glyph glyph-name="eogonek" unicode="&#x119;" horiz-adv-x="474" 
d="M420 111l40 -36s-42 -67 -143 -83c-31 -19 -75 -61 -75 -140c0 -42 27 -53 69 -53l-7 -49c-80 0 -150 16 -150 98c0 62 47 110 93 142c-109 9 -188 73 -188 205c0 202 115 315 268 315c108 0 168 -63 168 -140c0 -151 -192 -159 -298 -159c-1 -14 -1 -29 -1 -44
c0 -85 44 -111 105 -111c77 0 119 55 119 55zM311 446c-55 0 -96 -58 -110 -178c84 0 175 9 175 115c0 41 -22 63 -65 63z" />
    <glyph glyph-name="Ecaron" unicode="&#x11a;" 
d="M491 72l-10 -72h-404l91 650h390l-10 -72h-252l-30 -214h223l-11 -70h-221l-31 -222h265zM344 707l-96 138l47 35l95 -93l121 93l37 -39l-134 -134h-70z" />
    <glyph glyph-name="ecaron" unicode="&#x11b;" horiz-adv-x="474" 
d="M420 111l40 -36s-53 -86 -185 -86c-123 0 -216 63 -216 206c0 202 115 315 268 315c108 0 168 -63 168 -140c0 -151 -192 -159 -298 -159c-1 -14 -1 -29 -1 -44c0 -85 44 -111 105 -111c77 0 119 55 119 55zM311 446c-55 0 -96 -58 -110 -178c84 0 175 9 175 115
c0 41 -22 63 -65 63zM297 572l-96 138l47 35l95 -93l121 93l37 -39l-134 -134h-70z" />
    <glyph glyph-name="Gbreve" unicode="&#x11e;" horiz-adv-x="625" 
d="M613 343l-48 -343h-60l-27 58c-33 -36 -84 -69 -165 -69c-154 0 -237 97 -237 265c0 246 136 406 353 406c104 0 193 -55 193 -55l-24 -73s-88 53 -162 53c-131 0 -211 -100 -211 -343c0 -126 48 -178 123 -178c81 0 112 63 121 88l17 123h-101l10 68h218zM440 771
c80 0 91 55 91 55l1 4l65 -9s-13 -123 -168 -123c-120 0 -133 74 -133 107c0 9 1 16 1 16l67 9v-4s-4 -55 76 -55z" />
    <glyph glyph-name="gbreve" unicode="&#x11f;" horiz-adv-x="461" 
d="M303 510c27 0 51 -4 73 -11l137 -1l-5 -59l-51 -3c11 -21 18 -47 18 -77c0 -137 -94 -212 -223 -212c-25 0 -48 3 -68 9c-12 -9 -23 -21 -23 -39c0 -24 23 -36 84 -36c156 0 208 -57 208 -143c0 -115 -77 -200 -245 -200c-140 0 -209 63 -209 154c0 80 43 119 81 138
c-4 12 -7 26 -7 42c0 56 32 90 59 109c-37 26 -59 68 -59 123c0 143 109 206 230 206zM223 -36c-41 0 -75 6 -100 20c-18 -16 -33 -42 -33 -83c0 -61 47 -95 128 -95c87 0 119 32 119 90c0 48 -30 68 -114 68zM349 375c0 56 -24 71 -58 71c-46 0 -91 -32 -91 -159
c0 -55 22 -79 58 -79c49 0 91 44 91 167zM318 636c80 0 91 55 91 55l1 4l65 -9s-13 -123 -168 -123c-120 0 -133 74 -133 107c0 9 1 16 1 16l67 9v-4s-4 -55 76 -55z" />
    <glyph glyph-name="Gcommaaccent" unicode="&#x122;" horiz-adv-x="625" 
d="M613 343l-48 -343h-60l-27 58c-33 -36 -84 -69 -165 -69c-154 0 -237 97 -237 265c0 246 136 406 353 406c104 0 193 -55 193 -55l-24 -73s-88 53 -162 53c-131 0 -211 -100 -211 -343c0 -126 48 -178 123 -178c81 0 112 63 121 88l17 123h-101l10 68h218zM289 -62
c13 11 29 16 45 16c15 0 30 -5 41 -16c14 -17 20 -37 20 -61c0 -72 -57 -166 -131 -216l-25 31c54 43 83 93 84 138h-7c-16 0 -30 6 -40 16c-8 10 -13 23 -13 36c0 20 9 41 26 56z" />
    <glyph glyph-name="gcommaaccent" unicode="&#x123;" horiz-adv-x="461" 
d="M303 510c27 0 51 -4 73 -11l137 -1l-5 -59l-51 -3c11 -21 18 -47 18 -77c0 -137 -94 -212 -223 -212c-25 0 -48 3 -68 9c-12 -9 -23 -21 -23 -39c0 -24 23 -36 84 -36c156 0 208 -57 208 -143c0 -115 -77 -200 -245 -200c-140 0 -209 63 -209 154c0 80 43 119 81 138
c-4 12 -7 26 -7 42c0 56 32 90 59 109c-37 26 -59 68 -59 123c0 143 109 206 230 206zM223 -36c-41 0 -75 6 -100 20c-18 -16 -33 -42 -33 -83c0 -61 47 -95 128 -95c87 0 119 32 119 90c0 48 -30 68 -114 68zM349 375c0 56 -24 71 -58 71c-46 0 -91 -32 -91 -159
c0 -55 22 -79 58 -79c49 0 91 44 91 167zM352 573c-13 -11 -29 -16 -45 -16c-15 0 -30 5 -41 16c-14 17 -20 37 -20 61c0 72 57 166 131 216l25 -31c-54 -43 -83 -93 -84 -138h7c16 0 30 -6 40 -16c8 -10 13 -23 13 -36c0 -20 -9 -41 -26 -56z" />
    <glyph glyph-name="Imacron" unicode="&#x12a;" horiz-adv-x="293" 
d="M306 650l-91 -650h-138l91 650h138zM360 817l-7 -58h-215l8 58h214z" />
    <glyph glyph-name="imacron" unicode="&#x12b;" horiz-adv-x="249" 
d="M261 500l-70 -500h-133l70 500h133zM327 682l-7 -58h-215l8 58h214z" />
    <glyph glyph-name="Iogonek" unicode="&#x12e;" horiz-adv-x="293" 
d="M306 650l-91 -650h-76c-28 -14 -89 -56 -89 -148c0 -42 27 -53 69 -53l-7 -49c-80 0 -150 16 -150 98c0 73 64 126 115 156l91 646h138z" />
    <glyph glyph-name="iogonek" unicode="&#x12f;" horiz-adv-x="249" 
d="M261 500l-70 -500h-77c-28 -14 -89 -56 -89 -148c0 -42 27 -53 69 -53l-7 -49c-80 0 -150 16 -150 98c0 76 69 130 122 160l69 492h133zM168 708c16 14 36 20 55 20s37 -6 49 -19c10 -13 15 -28 15 -45c0 -25 -11 -51 -31 -70c-17 -13 -36 -19 -55 -19s-37 6 -49 20
c-11 12 -16 28 -16 45c0 24 11 50 32 68z" />
    <glyph glyph-name="Idotaccent" unicode="&#x130;" horiz-adv-x="293" 
d="M306 650l-91 -650h-138l91 650h138zM204 843c16 14 36 20 55 20s37 -6 49 -19c10 -13 15 -28 15 -45c0 -25 -11 -51 -31 -70c-17 -13 -36 -19 -55 -19s-37 6 -49 20c-11 12 -16 28 -16 45c0 24 11 50 32 68z" />
    <glyph glyph-name="dotlessi" unicode="&#x131;" horiz-adv-x="249" 
d="M261 500l-70 -500h-133l70 500h133z" />
    <glyph glyph-name="Kcommaaccent" unicode="&#x136;" horiz-adv-x="626" 
d="M77 0l91 650h138l-43 -302l66 44l227 258h96l-233 -254l188 -396h-175l-133 292l-48 -30l-36 -262h-138zM269 -62c13 11 29 16 45 16c15 0 30 -5 41 -16c14 -17 20 -37 20 -61c0 -72 -57 -166 -131 -216l-25 31c54 43 83 93 84 138h-7c-16 0 -30 6 -40 16
c-8 10 -13 23 -13 36c0 20 9 41 26 56z" />
    <glyph glyph-name="kcommaaccent" unicode="&#x137;" horiz-adv-x="490" 
d="M58 0l105 746l134 8l-66 -466l76 47l129 165h82l-155 -185l117 -315h-152l-79 234l-28 -16l-30 -218h-133zM207 -62c13 11 29 16 45 16c15 0 30 -5 41 -16c14 -17 20 -37 20 -61c0 -72 -57 -166 -131 -216l-25 31c54 43 83 93 84 138h-7c-16 0 -30 6 -40 16
c-8 10 -13 23 -13 36c0 20 9 41 26 56z" />
    <glyph glyph-name="Lacute" unicode="&#x139;" horiz-adv-x="491" 
d="M477 72l-10 -72h-390l91 650h138l-81 -578h252zM296 865l104 -31l-139 -130l-56 9z" />
    <glyph glyph-name="lacute" unicode="&#x13a;" horiz-adv-x="250" 
d="M297 754l-106 -754h-133l105 746zM299 955l104 -31l-139 -130l-56 9z" />
    <glyph glyph-name="Lcommaaccent" unicode="&#x13b;" horiz-adv-x="491" 
d="M477 72l-10 -72h-390l91 650h138l-81 -578h252zM225 -62c13 11 29 16 45 16c15 0 30 -5 41 -16c14 -17 20 -37 20 -61c0 -72 -57 -166 -131 -216l-25 31c54 43 83 93 84 138h-7c-16 0 -30 6 -40 16c-8 10 -13 23 -13 36c0 20 9 41 26 56z" />
    <glyph glyph-name="lcommaaccent" unicode="&#x13c;" horiz-adv-x="250" 
d="M297 754l-106 -754h-133l105 746zM75 -62c13 11 29 16 45 16c15 0 30 -5 41 -16c14 -17 20 -37 20 -61c0 -72 -57 -166 -131 -216l-25 31c54 43 83 93 84 138h-7c-16 0 -30 6 -40 16c-8 10 -13 23 -13 36c0 20 9 41 26 56z" />
    <glyph glyph-name="Lcaron" unicode="&#x13d;" horiz-adv-x="491" 
d="M477 72l-10 -72h-390l91 650h138l-81 -578h252zM212 707l-96 138l47 35l95 -93l121 93l37 -39l-134 -134h-70z" />
    <glyph glyph-name="lcaron" unicode="&#x13e;" horiz-adv-x="250" 
d="M297 754l-106 -754h-133l105 746zM372 800l89 -14l-101 -234l-47 4z" />
    <glyph glyph-name="Lslash" unicode="&#x141;" horiz-adv-x="514" 
d="M511 72l-10 -72h-390l30 217l-52 -35l-26 42l87 58l52 368h138l-37 -266l109 73l27 -42l-146 -97l-34 -246h252z" />
    <glyph glyph-name="lslash" unicode="&#x142;" horiz-adv-x="293" 
d="M319 754l-40 -284l79 55l24 -38l-112 -77l-57 -410h-133l43 308l-57 -39l-23 39l89 61l53 377z" />
    <glyph glyph-name="Nacute" unicode="&#x143;" horiz-adv-x="651" 
d="M665 650l-91 -650h-108l-241 488h-2v-58l-60 -430h-86l91 650h143l211 -441h3l-1 45l55 396h86zM489 865l104 -31l-139 -130l-56 9z" />
    <glyph glyph-name="nacute" unicode="&#x144;" horiz-adv-x="534" 
d="M58 0l70 500h107l12 -40h3s42 50 144 50c90 0 137 -40 137 -129c0 -13 -1 -27 -3 -42l-47 -339h-133s41 298 46 328c2 14 3 26 3 37c0 49 -21 62 -61 62c-51 0 -87 -33 -90 -36l-55 -391h-133zM381 730l104 -31l-139 -130l-56 9z" />
    <glyph glyph-name="Ncommaaccent" unicode="&#x145;" horiz-adv-x="651" 
d="M665 650l-91 -650h-108l-241 488h-2v-58l-60 -430h-86l91 650h143l211 -441h3l-1 45l55 396h86zM273 -62c13 11 29 16 45 16c15 0 30 -5 41 -16c14 -17 20 -37 20 -61c0 -72 -57 -166 -131 -216l-25 31c54 43 83 93 84 138h-7c-16 0 -30 6 -40 16c-8 10 -13 23 -13 36
c0 20 9 41 26 56z" />
    <glyph glyph-name="ncommaaccent" unicode="&#x146;" horiz-adv-x="534" 
d="M58 0l70 500h107l12 -40h3s42 50 144 50c90 0 137 -40 137 -129c0 -13 -1 -27 -3 -42l-47 -339h-133s41 298 46 328c2 14 3 26 3 37c0 49 -21 62 -61 62c-51 0 -87 -33 -90 -36l-55 -391h-133zM214 -62c13 11 29 16 45 16c15 0 30 -5 41 -16c14 -17 20 -37 20 -61
c0 -72 -57 -166 -131 -216l-25 31c54 43 83 93 84 138h-7c-16 0 -30 6 -40 16c-8 10 -13 23 -13 36c0 20 9 41 26 56z" />
    <glyph glyph-name="Ncaron" unicode="&#x147;" horiz-adv-x="651" 
d="M665 650l-91 -650h-108l-241 488h-2v-58l-60 -430h-86l91 650h143l211 -441h3l-1 45l55 396h86zM423 707l-96 138l47 35l95 -93l121 93l37 -39l-134 -134h-70z" />
    <glyph glyph-name="ncaron" unicode="&#x148;" horiz-adv-x="534" 
d="M58 0l70 500h107l12 -40h3s42 50 144 50c90 0 137 -40 137 -129c0 -13 -1 -27 -3 -42l-47 -339h-133s41 298 46 328c2 14 3 26 3 37c0 49 -21 62 -61 62c-51 0 -87 -33 -90 -36l-55 -391h-133zM317 572l-96 138l47 35l95 -93l121 93l37 -39l-134 -134h-70z" />
    <glyph glyph-name="Omacron" unicode="&#x14c;" horiz-adv-x="663" 
d="M677 392c0 -246 -150 -403 -342 -403c-166 0 -259 103 -259 270c0 232 121 401 340 401c186 0 261 -123 261 -268zM530 421c0 96 -36 167 -121 167c-112 0 -187 -97 -187 -363c0 -100 41 -165 120 -165c103 0 188 92 188 361zM541 817l-7 -58h-215l8 58h214z" />
    <glyph glyph-name="omacron" unicode="&#x14d;" horiz-adv-x="525" 
d="M535 305c0 -192 -109 -316 -275 -316c-123 0 -200 73 -200 206c0 190 100 316 274 316c123 0 201 -73 201 -206zM321 444c-77 0 -123 -88 -123 -285c0 -65 22 -104 76 -104c76 0 123 89 123 286c0 66 -22 103 -76 103zM464 682l-7 -58h-215l8 58h214z" />
    <glyph glyph-name="Ohungarumlaut" unicode="&#x150;" horiz-adv-x="663" 
d="M677 392c0 -246 -150 -403 -342 -403c-166 0 -259 103 -259 270c0 232 121 401 340 401c186 0 261 -123 261 -268zM530 421c0 96 -36 167 -121 167c-112 0 -187 -97 -187 -363c0 -100 41 -165 120 -165c103 0 188 92 188 361zM461 720l75 153l89 -26l-116 -150zM306 720
l74 153l89 -26l-116 -150z" />
    <glyph glyph-name="ohungarumlaut" unicode="&#x151;" horiz-adv-x="525" 
d="M535 305c0 -192 -109 -316 -275 -316c-123 0 -200 73 -200 206c0 190 100 316 274 316c123 0 201 -73 201 -206zM321 444c-77 0 -123 -88 -123 -285c0 -65 22 -104 76 -104c76 0 123 89 123 286c0 66 -22 103 -76 103zM377 585l75 153l89 -26l-116 -150zM222 585l74 153
l89 -26l-116 -150z" />
    <glyph glyph-name="OE" unicode="&#x152;" horiz-adv-x="929" 
d="M677 392c0 -10 -1 -19 -1 -28h217l-10 -70h-215c-4 -23 -9 -44 -16 -64l-22 -158h266l-10 -72h-405l3 24c-45 -23 -95 -35 -149 -35c-166 0 -259 103 -259 270c0 232 121 401 340 401c63 0 113 -14 152 -39l4 29h391l-10 -72h-252l-24 -172v-14zM530 421
c0 96 -36 167 -121 167c-112 0 -187 -97 -187 -363c0 -100 41 -165 120 -165c81 0 151 57 177 212l5 37v5c4 32 6 68 6 107z" />
    <glyph glyph-name="oe" unicode="&#x153;" horiz-adv-x="807" 
d="M753 111l40 -36s-53 -86 -185 -86c-70 0 -131 20 -170 64c-46 -41 -107 -64 -178 -64c-123 0 -200 73 -200 206c0 190 100 316 274 316c67 0 120 -22 155 -63c45 41 105 62 171 62c108 0 168 -63 168 -140c0 -151 -192 -159 -298 -159c-1 -14 -1 -29 -1 -44
c0 -85 44 -111 105 -111c77 0 119 55 119 55zM321 444c-77 0 -123 -88 -123 -285c0 -65 22 -104 76 -104c76 0 123 89 123 286c0 66 -22 103 -76 103zM644 446c-55 0 -96 -58 -110 -178c84 0 175 9 175 115c0 41 -22 63 -65 63z" />
    <glyph glyph-name="Racute" unicode="&#x154;" horiz-adv-x="578" 
d="M77 0l91 650h200c131 0 209 -60 209 -170c0 -108 -66 -179 -142 -216l114 -264h-159l-89 236h-53l-33 -236h-138zM345 585h-48l-40 -283h52c84 0 121 64 121 190c0 63 -27 93 -85 93zM409 865l104 -31l-139 -130l-56 9z" />
    <glyph glyph-name="racute" unicode="&#x155;" horiz-adv-x="353" 
d="M419 497l-22 -93s-52 14 -87 14c-43 0 -64 -49 -68 -58l-51 -360h-133l70 500h94l11 -84h3s24 95 98 95c33 0 85 -14 85 -14zM325 730l104 -31l-139 -130l-56 9z" />
    <glyph glyph-name="Rcommaaccent" unicode="&#x156;" horiz-adv-x="578" 
d="M77 0l91 650h200c131 0 209 -60 209 -170c0 -108 -66 -179 -142 -216l114 -264h-159l-89 236h-53l-33 -236h-138zM345 585h-48l-40 -283h52c84 0 121 64 121 190c0 63 -27 93 -85 93zM244 -62c13 11 29 16 45 16c15 0 30 -5 41 -16c14 -17 20 -37 20 -61
c0 -72 -57 -166 -131 -216l-25 31c54 43 83 93 84 138h-7c-16 0 -30 6 -40 16c-8 10 -13 23 -13 36c0 20 9 41 26 56z" />
    <glyph glyph-name="rcommaaccent" unicode="&#x157;" horiz-adv-x="353" 
d="M419 497l-22 -93s-52 14 -87 14c-43 0 -64 -49 -68 -58l-51 -360h-133l70 500h94l11 -84h3s24 95 98 95c33 0 85 -14 85 -14zM70 -62c13 11 29 16 45 16c15 0 30 -5 41 -16c14 -17 20 -37 20 -61c0 -72 -57 -166 -131 -216l-25 31c54 43 83 93 84 138h-7
c-16 0 -30 6 -40 16c-8 10 -13 23 -13 36c0 20 9 41 26 56z" />
    <glyph glyph-name="Rcaron" unicode="&#x158;" horiz-adv-x="578" 
d="M77 0l91 650h200c131 0 209 -60 209 -170c0 -108 -66 -179 -142 -216l114 -264h-159l-89 236h-53l-33 -236h-138zM345 585h-48l-40 -283h52c84 0 121 64 121 190c0 63 -27 93 -85 93zM335 707l-96 138l47 35l95 -93l121 93l37 -39l-134 -134h-70z" />
    <glyph glyph-name="rcaron" unicode="&#x159;" horiz-adv-x="353" 
d="M419 497l-22 -93s-52 14 -87 14c-43 0 -64 -49 -68 -58l-51 -360h-133l70 500h94l11 -84h3s24 95 98 95c33 0 85 -14 85 -14zM249 572l-96 138l47 35l95 -93l121 93l37 -39l-134 -134h-70z" />
    <glyph glyph-name="Sacute" unicode="&#x15a;" horiz-adv-x="492" 
d="M512 614l-22 -68s-60 44 -129 44c-56 0 -96 -32 -96 -91c0 -119 220 -120 220 -293c0 -141 -117 -217 -247 -217c-142 0 -194 91 -194 91l46 58s46 -75 142 -75c75 0 109 45 109 99c0 108 -219 110 -219 285c0 133 104 213 240 213c89 0 150 -46 150 -46zM406 865
l104 -31l-139 -130l-56 9z" />
    <glyph glyph-name="sacute" unicode="&#x15b;" horiz-adv-x="417" 
d="M36 60l45 52s35 -57 102 -57c57 0 84 35 84 77c0 87 -173 74 -173 211c0 116 98 168 200 168c71 0 135 -42 135 -42l-21 -67s-62 44 -111 44c-47 0 -73 -27 -73 -63c0 -89 187 -84 187 -220c0 -100 -69 -174 -212 -174c-128 0 -163 71 -163 71zM352 730l104 -31
l-139 -130l-56 9z" />
    <glyph glyph-name="Scedilla" unicode="&#x15e;" horiz-adv-x="492" 
d="M512 614l-22 -68s-60 44 -129 44c-56 0 -96 -32 -96 -91c0 -119 220 -120 220 -293c0 -134 -105 -209 -227 -216l-10 -48c-2 -6 76 -14 76 -81c0 -62 -43 -112 -130 -112c-74 0 -89 46 -89 46l30 29s15 -29 50 -29c37 0 60 19 60 63c0 41 -54 40 -54 44l22 88
c-123 10 -169 90 -169 90l46 58s46 -75 142 -75c75 0 109 45 109 99c0 108 -219 110 -219 285c0 133 104 213 240 213c89 0 150 -46 150 -46z" />
    <glyph glyph-name="scedilla" unicode="&#x15f;" horiz-adv-x="417" 
d="M36 60l45 52s35 -57 102 -57c57 0 84 35 84 77c0 87 -173 74 -173 211c0 116 98 168 200 168c71 0 135 -42 135 -42l-21 -67s-62 44 -111 44c-47 0 -73 -27 -73 -63c0 -89 187 -84 187 -220c0 -95 -63 -167 -192 -173l-10 -48c-2 -6 76 -14 76 -81
c0 -62 -43 -112 -130 -112c-74 0 -89 46 -89 46l30 29s15 -29 50 -29c37 0 60 19 60 63c0 41 -54 40 -54 44l22 88c-108 8 -138 70 -138 70z" />
    <glyph glyph-name="Scaron" unicode="&#x160;" horiz-adv-x="492" 
d="M512 614l-22 -68s-60 44 -129 44c-56 0 -96 -32 -96 -91c0 -119 220 -120 220 -293c0 -141 -117 -217 -247 -217c-142 0 -194 91 -194 91l46 58s46 -75 142 -75c75 0 109 45 109 99c0 108 -219 110 -219 285c0 133 104 213 240 213c89 0 150 -46 150 -46zM329 707
l-96 138l47 35l95 -93l121 93l37 -39l-134 -134h-70z" />
    <glyph glyph-name="scaron" unicode="&#x161;" horiz-adv-x="417" 
d="M36 60l45 52s35 -57 102 -57c57 0 84 35 84 77c0 87 -173 74 -173 211c0 116 98 168 200 168c71 0 135 -42 135 -42l-21 -67s-62 44 -111 44c-47 0 -73 -27 -73 -63c0 -89 187 -84 187 -220c0 -100 -69 -174 -212 -174c-128 0 -163 71 -163 71zM256 572l-96 138l47 35
l95 -93l121 93l37 -39l-134 -134h-70z" />
    <glyph glyph-name="Tcommaaccent" unicode="&#x162;" horiz-adv-x="516" 
d="M594 650l-11 -72h-174l-81 -578h-139l81 578h-175l11 72h488zM213 -62c13 11 29 16 45 16c15 0 30 -5 41 -16c14 -17 20 -37 20 -61c0 -72 -57 -166 -131 -216l-25 31c54 43 83 93 84 138h-7c-16 0 -30 6 -40 16c-8 10 -13 23 -13 36c0 20 9 41 26 56z" />
    <glyph glyph-name="tcommaaccent" unicode="&#x163;" horiz-adv-x="353" 
d="M391 500l-11 -77h-110l-35 -247c-4 -26 -5 -47 -5 -63c0 -41 12 -52 37 -52c32 0 53 9 53 9l-1 -57s-28 -24 -104 -24c-79 0 -120 29 -120 109c0 13 1 28 3 44l39 281h-48l9 60l51 13l88 170h67l-23 -166h110zM131 -62c13 11 29 16 45 16c15 0 30 -5 41 -16
c14 -17 20 -37 20 -61c0 -72 -57 -166 -131 -216l-25 31c54 43 83 93 84 138h-7c-16 0 -30 6 -40 16c-8 10 -13 23 -13 36c0 20 9 41 26 56z" />
    <glyph glyph-name="Tcaron" unicode="&#x164;" horiz-adv-x="516" 
d="M594 650l-11 -72h-174l-81 -578h-139l81 578h-175l11 72h488zM321 707l-96 138l47 35l95 -93l121 93l37 -39l-134 -134h-70z" />
    <glyph glyph-name="tcaron" unicode="&#x165;" horiz-adv-x="353" 
d="M391 500l-11 -77h-110l-35 -247c-4 -26 -5 -47 -5 -63c0 -41 12 -52 37 -52c32 0 53 9 53 9l-1 -57s-28 -24 -104 -24c-79 0 -120 29 -120 109c0 13 1 28 3 44l39 281h-48l9 60l51 13l88 170h67l-23 -166h110zM424 800l89 -14l-101 -234l-47 4z" />
    <glyph glyph-name="Umacron" unicode="&#x16a;" horiz-adv-x="614" 
d="M305 -11c-141 0 -208 73 -208 194c0 17 1 34 4 53l58 414h139l-54 -383c-4 -28 -6 -53 -6 -75c0 -91 34 -127 100 -127c90 0 140 64 159 202l54 383h85l-58 -414c-21 -148 -97 -247 -273 -247zM538 817l-7 -58h-215l8 58h214z" />
    <glyph glyph-name="umacron" unicode="&#x16b;" horiz-adv-x="534" 
d="M545 500l-70 -500h-107l-13 44h-2s-41 -55 -143 -55c-89 0 -137 40 -137 129c0 13 1 27 3 42l48 340h133l-44 -312c-3 -19 -4 -35 -4 -49c0 -52 20 -67 57 -67c53 0 92 38 92 38l54 390h133zM476 682l-7 -58h-215l8 58h214z" />
    <glyph glyph-name="Uring" unicode="&#x16e;" horiz-adv-x="614" 
d="M305 -11c-141 0 -208 73 -208 194c0 17 1 34 4 53l58 414h139l-54 -383c-4 -28 -6 -53 -6 -75c0 -91 34 -127 100 -127c90 0 140 64 159 202l54 383h85l-58 -414c-21 -148 -97 -247 -273 -247zM530 807c0 -76 -50 -124 -119 -124c-57 0 -93 34 -93 91
c0 78 52 124 119 124c53 0 93 -33 93 -91zM485 803c0 36 -24 53 -53 53c-37 0 -68 -24 -68 -76c0 -36 23 -54 53 -54c40 0 68 26 68 77z" />
    <glyph glyph-name="uring" unicode="&#x16f;" horiz-adv-x="534" 
d="M545 500l-70 -500h-107l-13 44h-2s-41 -55 -143 -55c-89 0 -137 40 -137 129c0 13 1 27 3 42l48 340h133l-44 -312c-3 -19 -4 -35 -4 -49c0 -52 20 -67 57 -67c53 0 92 38 92 38l54 390h133zM465 672c0 -76 -50 -124 -119 -124c-57 0 -93 34 -93 91c0 78 52 124 119 124
c53 0 93 -33 93 -91zM420 668c0 36 -24 53 -53 53c-37 0 -68 -24 -68 -76c0 -36 23 -54 53 -54c40 0 68 26 68 77z" />
    <glyph glyph-name="Uhungarumlaut" unicode="&#x170;" horiz-adv-x="614" 
d="M305 -11c-141 0 -208 73 -208 194c0 17 1 34 4 53l58 414h139l-54 -383c-4 -28 -6 -53 -6 -75c0 -91 34 -127 100 -127c90 0 140 64 159 202l54 383h85l-58 -414c-21 -148 -97 -247 -273 -247zM446 720l75 153l89 -26l-116 -150zM291 720l74 153l89 -26l-116 -150z" />
    <glyph glyph-name="uhungarumlaut" unicode="&#x171;" horiz-adv-x="534" 
d="M545 500l-70 -500h-107l-13 44h-2s-41 -55 -143 -55c-89 0 -137 40 -137 129c0 13 1 27 3 42l48 340h133l-44 -312c-3 -19 -4 -35 -4 -49c0 -52 20 -67 57 -67c53 0 92 38 92 38l54 390h133zM392 585l75 153l89 -26l-116 -150zM237 585l74 153l89 -26l-116 -150z" />
    <glyph glyph-name="Uogonek" unicode="&#x172;" horiz-adv-x="614" 
d="M305 -11c-141 0 -208 73 -208 194c0 17 1 34 4 53l58 414h139l-54 -383c-4 -28 -6 -53 -6 -75c0 -91 34 -127 100 -127c90 0 140 64 159 202l54 383h85l-58 -414c-17 -121 -71 -210 -187 -237c-29 -16 -86 -58 -86 -147c0 -42 27 -53 69 -53l-7 -49
c-80 0 -150 16 -150 98c0 62 46 109 91 141h-3z" />
    <glyph glyph-name="uogonek" unicode="&#x173;" horiz-adv-x="534" 
d="M545 500l-70 -500h-42c-28 -14 -89 -56 -89 -148c0 -42 27 -53 69 -53l-7 -49c-80 0 -150 16 -150 98c0 71 61 122 111 153l-12 43h-2s-41 -55 -143 -55c-89 0 -137 40 -137 129c0 13 1 27 3 42l48 340h133l-44 -312c-3 -19 -4 -35 -4 -49c0 -52 20 -67 57 -67
c53 0 92 38 92 38l54 390h133z" />
    <glyph glyph-name="Ydieresis" unicode="&#x178;" horiz-adv-x="523" 
d="M341 355h1l182 295h96l-250 -383l-36 -267h-139l35 251l-146 399h155zM443 839c14 11 31 17 48 17s32 -6 44 -17c9 -12 14 -26 14 -41c0 -23 -10 -46 -29 -63c-15 -12 -33 -18 -49 -18c-17 0 -32 6 -42 18c-9 11 -14 26 -14 41c0 22 10 46 28 63zM257 839
c14 11 32 17 49 17s32 -6 43 -17c9 -12 14 -26 14 -41c0 -23 -10 -46 -29 -63c-15 -12 -32 -18 -48 -18s-32 6 -43 18c-9 11 -14 26 -14 41c0 22 10 46 28 63z" />
    <glyph glyph-name="Zacute" unicode="&#x179;" horiz-adv-x="567" 
d="M613 650l-9 -60l-385 -518h312l-10 -72h-479l9 58l386 520h-296l10 72h462zM420 865l104 -31l-139 -130l-56 9z" />
    <glyph glyph-name="zacute" unicode="&#x17a;" horiz-adv-x="434" 
d="M477 500l-9 -60l-278 -372h218l-8 -68h-374l8 60l282 372h-210l6 68h365zM354 730l104 -31l-139 -130l-56 9z" />
    <glyph glyph-name="Zdotaccent" unicode="&#x17b;" horiz-adv-x="567" 
d="M613 650l-9 -60l-385 -518h312l-10 -72h-479l9 58l386 520h-296l10 72h462zM340 843c16 14 36 20 55 20s37 -6 49 -19c10 -13 15 -28 15 -45c0 -25 -11 -51 -31 -70c-17 -13 -36 -19 -55 -19s-37 6 -49 20c-11 12 -16 28 -16 45c0 24 11 50 32 68z" />
    <glyph glyph-name="zdotaccent" unicode="&#x17c;" horiz-adv-x="434" 
d="M477 500l-9 -60l-278 -372h218l-8 -68h-374l8 60l282 372h-210l6 68h365zM275 708c16 14 36 20 55 20s37 -6 49 -19c10 -13 15 -28 15 -45c0 -25 -11 -51 -31 -70c-17 -13 -36 -19 -55 -19s-37 6 -49 20c-11 12 -16 28 -16 45c0 24 11 50 32 68z" />
    <glyph glyph-name="Zcaron" unicode="&#x17d;" horiz-adv-x="567" 
d="M613 650l-9 -60l-385 -518h312l-10 -72h-479l9 58l386 520h-296l10 72h462zM348 707l-96 138l47 35l95 -93l121 93l37 -39l-134 -134h-70z" />
    <glyph glyph-name="zcaron" unicode="&#x17e;" horiz-adv-x="434" 
d="M477 500l-9 -60l-278 -372h218l-8 -68h-374l8 60l282 372h-210l6 68h365zM274 572l-96 138l47 35l95 -93l121 93l37 -39l-134 -134h-70z" />
    <glyph glyph-name="longs" unicode="&#x17f;" horiz-adv-x="317" 
d="M80 -29l84 600c17 113 68 189 185 189c57 0 107 -34 107 -34l-25 -57s-39 24 -69 24c-32 0 -51 -23 -67 -137l-83 -585c-24 -171 -108 -232 -208 -232c-65 0 -88 30 -88 30l30 60s22 -19 50 -19c43 0 67 38 84 161z" />
    <glyph glyph-name="florin" unicode="&#x192;" horiz-adv-x="290" 
d="M82 -36l64 459h-47l9 60l48 14l1 3h1l10 71c16 113 68 189 185 189c56 0 107 -34 107 -34l-25 -57s-39 24 -70 24s-52 -23 -67 -137l-8 -56h127l-11 -77h-127l-60 -423l-5 -36c-24 -171 -114 -226 -200 -226c-65 0 -84 19 -84 19l31 72s23 -11 49 -11c32 0 55 23 72 146z
" />
    <glyph glyph-name="uni0237" unicode="&#x237;" horiz-adv-x="276" 
d="M80 -29l74 529h133l-74 -529c-24 -171 -109 -232 -209 -232c-65 0 -88 30 -88 30l30 60s22 -19 50 -19c43 0 67 38 84 161z" />
    <glyph glyph-name="uni1E9E" unicode="&#x1e9e;" horiz-adv-x="658" 
d="M629 650l-7 -47l-151 -229c7 1 14 2 22 2c90 0 158 -51 158 -151c0 -154 -113 -236 -241 -236c-99 0 -135 40 -135 40l34 66s32 -31 89 -31c73 0 115 63 115 179c0 47 -17 70 -54 70c-22 0 -39 -18 -47 -27l-2 -3l-1 -2l-62 58l151 239h-77c-82 0 -128 -46 -149 -191
l-55 -387h-138l58 414c22 152 111 236 271 236h221z" />
    <glyph glyph-name="circumflex" unicode="&#x2c6;" horiz-adv-x="357" 
d="M319 753l80 -122l-34 -45l-92 85l-117 -85l-22 45l115 122h70z" />
    <glyph glyph-name="caron" unicode="&#x2c7;" horiz-adv-x="357" 
d="M224 572l-96 138l47 35l95 -93l121 93l37 -39l-134 -134h-70z" />
    <glyph glyph-name="breve" unicode="&#x2d8;" horiz-adv-x="383" 
d="M281 636c80 0 91 55 91 55l1 4l65 -9s-13 -123 -168 -123c-120 0 -133 74 -133 107c0 9 1 16 1 16l67 9v-4s-4 -55 76 -55z" />
    <glyph glyph-name="dotaccent" unicode="&#x2d9;" horiz-adv-x="408" 
d="M272 708c16 14 36 20 55 20s37 -6 49 -19c10 -13 15 -28 15 -45c0 -25 -11 -51 -31 -70c-17 -13 -36 -19 -55 -19s-37 6 -49 20c-11 12 -16 28 -16 45c0 24 11 50 32 68z" />
    <glyph glyph-name="ring" unicode="&#x2da;" horiz-adv-x="420" 
d="M347 672c0 -76 -50 -124 -119 -124c-57 0 -93 34 -93 91c0 78 52 124 119 124c53 0 93 -33 93 -91zM302 668c0 36 -24 53 -53 53c-37 0 -68 -24 -68 -76c0 -36 23 -54 53 -54c40 0 68 26 68 77z" />
    <glyph glyph-name="ogonek" unicode="&#x2db;" horiz-adv-x="248" 
d="M196 36l13 -29s-104 -38 -104 -155c0 -42 27 -53 69 -53l-7 -49c-80 0 -150 16 -150 98c0 121 179 188 179 188z" />
    <glyph glyph-name="tilde" unicode="&#x2dc;" horiz-adv-x="428" 
d="M459 705l31 -35s-36 -79 -123 -79c-64 0 -92 48 -149 48c-36 0 -63 -45 -63 -45l-31 36s49 90 135 90c73 0 94 -47 146 -47c36 0 54 32 54 32z" />
    <glyph glyph-name="hungarumlaut" unicode="&#x2dd;" horiz-adv-x="422" 
d="M297 585l75 153l89 -26l-116 -150zM142 585l74 153l89 -26l-116 -150z" />
    <glyph glyph-name="uni0400" unicode="&#x400;" 
d="M491 72l-10 -72h-404l91 650h390l-10 -72h-252l-30 -214h223l-11 -70h-221l-31 -222h265zM258 838l111 35l64 -147l-64 -17z" />
    <glyph glyph-name="afii10023" unicode="&#x401;" 
d="M491 72l-10 -72h-404l91 650h390l-10 -72h-252l-30 -214h223l-11 -70h-221l-31 -222h265zM429 839c14 11 31 17 48 17s32 -6 44 -17c9 -12 14 -26 14 -41c0 -23 -10 -46 -29 -63c-15 -12 -33 -18 -49 -18c-17 0 -32 6 -42 18c-9 11 -14 26 -14 41c0 22 10 46 28 63z
M243 839c14 11 32 17 49 17s32 -6 43 -17c9 -12 14 -26 14 -41c0 -23 -10 -46 -29 -63c-15 -12 -32 -18 -48 -18s-32 6 -43 18c-9 11 -14 26 -14 41c0 22 10 46 28 63z" />
    <glyph glyph-name="afii10051" unicode="&#x402;" horiz-adv-x="674" 
d="M560 650l-10 -71h-154l-31 -223h2s53 52 157 52c105 0 146 -49 146 -130c0 -14 -2 -30 -4 -46l-4 -25c-24 -171 -93 -218 -199 -218c-64 0 -84 28 -84 28l26 50s16 -16 40 -16c27 0 59 15 75 126l4 28c3 21 4 39 4 54c0 56 -21 67 -69 67c-51 0 -92 -29 -104 -38
l-40 -288h-139l81 579h-154l10 71h447z" />
    <glyph glyph-name="afii10052" unicode="&#x403;" horiz-adv-x="438" 
d="M512 578h-217l-80 -578h-138l92 650h349zM380 865l104 -31l-139 -130l-56 9z" />
    <glyph glyph-name="afii10053" unicode="&#x404;" horiz-adv-x="586" 
d="M527 354l-10 -70h-290c-1 -15 -1 -31 -1 -47c0 -131 66 -173 155 -173c106 0 165 93 165 93l36 -48s-65 -120 -232 -120c-169 0 -275 97 -275 264c0 228 135 407 344 407c103 0 186 -51 186 -51l-21 -73s-85 49 -159 49c-107 0 -172 -80 -192 -231h294z" />
    <glyph glyph-name="afii10054" unicode="&#x405;" horiz-adv-x="492" 
d="M512 614l-22 -68s-60 44 -129 44c-56 0 -96 -32 -96 -91c0 -119 220 -120 220 -293c0 -141 -117 -217 -247 -217c-142 0 -194 91 -194 91l46 58s46 -75 142 -75c75 0 109 45 109 99c0 108 -219 110 -219 285c0 133 104 213 240 213c89 0 150 -46 150 -46z" />
    <glyph glyph-name="afii10055" unicode="&#x406;" horiz-adv-x="293" 
d="M306 650l-91 -650h-138l91 650h138z" />
    <glyph glyph-name="afii10056" unicode="&#x407;" horiz-adv-x="293" 
d="M306 650l-91 -650h-138l91 650h138zM302 839c14 11 31 17 48 17s32 -6 44 -17c9 -12 14 -26 14 -41c0 -23 -10 -46 -29 -63c-15 -12 -33 -18 -49 -18c-17 0 -32 6 -42 18c-9 11 -14 26 -14 41c0 22 10 46 28 63zM116 839c14 11 32 17 49 17s32 -6 43 -17
c9 -12 14 -26 14 -41c0 -23 -10 -46 -29 -63c-15 -12 -32 -18 -48 -18s-32 6 -43 18c-9 11 -14 26 -14 41c0 22 10 46 28 63z" />
    <glyph glyph-name="afii10057" unicode="&#x408;" horiz-adv-x="400" 
d="M39 87c0 0 26 -27 69 -27c47 0 81 29 99 154l61 436h139l-62 -436c-24 -171 -94 -225 -208 -225c-87 0 -121 40 -121 40z" />
    <glyph glyph-name="afii10058" unicode="&#x409;" horiz-adv-x="889" 
d="M413 0l81 578h-138c-57 -401 -157 -588 -280 -588c-38 0 -52 8 -52 8l16 88s13 -5 29 -5c91 0 160 159 218 569h355l-35 -249h47c147 0 231 -49 231 -161c0 -141 -94 -240 -283 -240h-189zM645 338h-47l-38 -273h48c84 0 136 64 136 185c0 65 -36 88 -99 88z" />
    <glyph glyph-name="afii10059" unicode="&#x40a;" horiz-adv-x="916" 
d="M439 0l41 296h-224l-41 -296h-138l91 650h138l-40 -284h224l40 284h139l-35 -249h46c147 0 231 -49 231 -161c0 -141 -94 -240 -283 -240h-189zM671 338h-46l-38 -273h47c84 0 136 64 136 185c0 65 -36 88 -99 88z" />
    <glyph glyph-name="afii10060" unicode="&#x40b;" horiz-adv-x="695" 
d="M553 650l-10 -71h-154l-32 -223h2s54 52 158 52c106 0 145 -49 145 -131c0 -14 -1 -29 -3 -45l-32 -232h-140l29 205c3 22 4 40 4 55c0 55 -21 66 -68 66c-52 0 -93 -29 -104 -38l-41 -288h-139l82 579h-155l11 71h447z" />
    <glyph glyph-name="afii10061" unicode="&#x40c;" horiz-adv-x="626" 
d="M77 0l91 650h138l-43 -302l66 44l227 258h96l-233 -254l188 -396h-175l-133 292l-48 -30l-36 -262h-138zM445 865l104 -31l-139 -130l-56 9z" />
    <glyph glyph-name="uni040D" unicode="&#x40d;" horiz-adv-x="676" 
d="M690 650l-91 -650h-138l58 420l17 72h-1l-317 -470l-11 -22h-130l91 650h138l-60 -431l-17 -65h2l319 474l12 22h128zM313 838l111 35l64 -147l-64 -17z" />
    <glyph glyph-name="afii10062" unicode="&#x40e;" horiz-adv-x="596" 
d="M402 288h2l169 362h93l-238 -450c-80 -152 -157 -211 -252 -211c-66 0 -96 25 -96 25l28 84s29 -21 77 -21c47 0 84 12 127 69l-197 504h162zM435 759c56 0 65 29 65 46c0 8 -2 13 -2 13l2 12l102 -9s-9 -123 -176 -123c-126 0 -141 71 -141 105c0 11 1 18 1 18l104 9
l-2 -12s-7 -12 -7 -25c0 -16 10 -34 54 -34z" />
    <glyph glyph-name="afii10145" unicode="&#x40f;" horiz-adv-x="640" 
d="M306 650l-80 -578h209l81 578h138l-91 -650h-182l-49 -204h-77l5 204h-183l91 650h138z" />
    <glyph glyph-name="afii10017" unicode="&#x410;" horiz-adv-x="608" 
d="M326 650h153l111 -650h-146l-30 182h-226l-85 -182h-84zM357 551h-1l-140 -306h188z" />
    <glyph glyph-name="afii10018" unicode="&#x411;" horiz-adv-x="553" 
d="M533 650l-10 -72h-226l-25 -177h42c147 0 235 -50 235 -161c0 -142 -99 -240 -287 -240h-185l91 650h365zM306 338h-43l-39 -273h45c84 0 138 55 138 183c0 69 -37 90 -101 90z" />
    <glyph glyph-name="afii10019" unicode="&#x412;" horiz-adv-x="569" 
d="M77 0l91 650h198c148 0 208 -69 208 -147c0 -85 -60 -136 -119 -164c62 -20 106 -62 106 -129c0 -116 -94 -210 -281 -210h-203zM347 301h-90l-33 -236h62c81 0 137 62 137 154c0 60 -32 82 -76 82zM266 361h82c35 0 91 47 91 136c0 63 -37 88 -85 88h-56z" />
    <glyph glyph-name="afii10020" unicode="&#x413;" horiz-adv-x="438" 
d="M512 578h-217l-80 -578h-138l92 650h349z" />
    <glyph glyph-name="afii10021" unicode="&#x414;" horiz-adv-x="646" 
d="M258 650h375l-82 -578h82l-59 -247h-77l2 175h-356l-65 -175h-69l24 247h68c71 115 113 259 157 578zM485 578h-156c-41 -267 -84 -399 -147 -506h232z" />
    <glyph glyph-name="afii10022" unicode="&#x415;" 
d="M491 72l-10 -72h-404l91 650h390l-10 -72h-252l-30 -214h223l-11 -70h-221l-31 -222h265z" />
    <glyph glyph-name="afii10024" unicode="&#x416;" horiz-adv-x="895" 
d="M600 650l-35 -246h79l190 246h99l-210 -248l151 -402h-161l-106 332h-52l-46 -332h-138l46 331h-57l-177 -331h-162l241 380l-121 270h99l99 -246h88l35 246h138z" />
    <glyph glyph-name="afii10025" unicode="&#x417;" horiz-adv-x="511" 
d="M151 547l-4 68s88 45 183 45c125 0 196 -55 196 -144c0 -96 -66 -151 -127 -180c60 -14 105 -48 105 -125c0 -129 -105 -222 -272 -222c-175 0 -207 104 -207 104l50 52s41 -82 150 -82c76 0 126 56 126 158c0 60 -29 78 -75 78l-97 -8l11 77l103 -9c35 1 87 53 87 153
c0 55 -31 78 -87 78c-62 0 -142 -43 -142 -43z" />
    <glyph glyph-name="afii10026" unicode="&#x418;" horiz-adv-x="676" 
d="M690 650l-91 -650h-138l58 420l17 72h-1l-317 -470l-11 -22h-130l91 650h138l-60 -431l-17 -65h2l319 474l12 22h128z" />
    <glyph glyph-name="afii10027" unicode="&#x419;" horiz-adv-x="676" 
d="M690 650l-91 -650h-138l58 420l17 72h-1l-317 -470l-11 -22h-130l91 650h138l-60 -431l-17 -65h2l319 474l12 22h128zM445 759c56 0 65 29 65 46c0 8 -2 13 -2 13l2 12l102 -9s-9 -123 -176 -123c-126 0 -141 71 -141 105c0 11 1 18 1 18l104 9l-2 -12s-7 -12 -7 -25
c0 -16 10 -34 54 -34z" />
    <glyph glyph-name="afii10028" unicode="&#x41a;" horiz-adv-x="626" 
d="M77 0l91 650h138l-43 -302l66 44l227 258h96l-233 -254l188 -396h-175l-133 292l-48 -30l-36 -262h-138z" />
    <glyph glyph-name="afii10029" unicode="&#x41b;" horiz-adv-x="628" 
d="M287 650h355l-91 -650h-138l81 578h-138c-57 -401 -157 -588 -280 -588c-38 0 -52 8 -52 8l16 88s13 -5 29 -5c91 0 160 159 218 569z" />
    <glyph glyph-name="afii10030" unicode="&#x41c;" horiz-adv-x="856" 
d="M863 650l-84 -650h-135l61 492h-2l-250 -492h-103l-112 492h-3l-72 -492h-86l99 650h167l115 -479h4l246 479h155z" />
    <glyph glyph-name="afii10031" unicode="&#x41d;" horiz-adv-x="655" 
d="M669 650l-91 -650h-138l41 296h-225l-41 -296h-138l91 650h138l-40 -284h225l40 284h138z" />
    <glyph glyph-name="afii10032" unicode="&#x41e;" horiz-adv-x="663" 
d="M677 392c0 -246 -150 -403 -342 -403c-166 0 -259 103 -259 270c0 232 121 401 340 401c186 0 261 -123 261 -268zM530 421c0 96 -36 167 -121 167c-112 0 -187 -97 -187 -363c0 -100 41 -165 120 -165c103 0 188 92 188 361z" />
    <glyph glyph-name="afii10033" unicode="&#x41f;" horiz-adv-x="640" 
d="M654 650l-91 -650h-138l81 578h-209l-82 -578h-138l91 650h486z" />
    <glyph glyph-name="afii10034" unicode="&#x420;" horiz-adv-x="533" 
d="M77 0l91 650h199c129 0 207 -56 207 -179c0 -193 -151 -268 -266 -268h-64l-29 -203h-138zM346 585h-48l-45 -318h48c68 0 126 54 126 218c0 73 -31 100 -81 100z" />
    <glyph glyph-name="afii10035" unicode="&#x421;" horiz-adv-x="576" 
d="M593 532c0 0 -88 53 -162 53c-114 0 -206 -90 -206 -343c0 -126 59 -178 150 -178c107 0 170 89 170 89l36 -48s-69 -116 -236 -116c-174 0 -269 102 -269 267c0 234 135 404 348 404c104 0 190 -55 190 -55z" />
    <glyph glyph-name="afii10036" unicode="&#x422;" horiz-adv-x="516" 
d="M594 650l-11 -72h-174l-81 -578h-139l81 578h-175l11 72h488z" />
    <glyph glyph-name="afii10037" unicode="&#x423;" horiz-adv-x="596" 
d="M402 288h2l169 362h93l-238 -450c-80 -152 -157 -211 -252 -211c-66 0 -96 25 -96 25l28 84s29 -21 77 -21c47 0 84 12 127 69l-197 504h162z" />
    <glyph glyph-name="afii10038" unicode="&#x424;" horiz-adv-x="768" 
d="M544 650l-9 -65c157 -4 258 -77 258 -218c0 -188 -140 -299 -331 -303l-9 -64h-138l9 64c-155 3 -257 79 -257 221c0 188 138 295 330 300l9 65h138zM650 383c0 88 -40 136 -124 139l-56 -396c120 6 180 103 180 257zM211 268c0 -88 37 -137 121 -142l56 397
c-119 -7 -177 -101 -177 -255z" />
    <glyph glyph-name="afii10039" unicode="&#x425;" horiz-adv-x="581" 
d="M8 0l246 316l-146 334h173l87 -233h3l172 233h98l-231 -300l163 -350h-172l-105 248h-2l-182 -248h-104z" />
    <glyph glyph-name="afii10040" unicode="&#x426;" horiz-adv-x="667" 
d="M306 650l-80 -578h209l81 578h138l-81 -578h81l-63 -247h-75l2 175h-441l91 650h138z" />
    <glyph glyph-name="afii10041" unicode="&#x427;" horiz-adv-x="586" 
d="M600 650l-91 -650h-139l37 266s-51 -41 -155 -41c-106 0 -145 61 -145 147c0 15 1 31 3 47l33 231h138l-30 -214c-3 -22 -5 -41 -5 -56c0 -59 23 -75 68 -75c51 0 92 20 102 25l45 320h139z" />
    <glyph glyph-name="afii10042" unicode="&#x428;" horiz-adv-x="870" 
d="M595 650l-81 -578h150l81 578h139l-91 -650h-716l91 650h138l-80 -578h150l81 578h138z" />
    <glyph glyph-name="afii10043" unicode="&#x429;" horiz-adv-x="894" 
d="M884 650l-81 -578h76l-60 -247h-75l3 175h-670l91 650h138l-80 -578h150l81 578h138l-81 -578h150l81 578h139z" />
    <glyph glyph-name="afii10044" unicode="&#x42a;" horiz-adv-x="644" 
d="M168 0l81 578h-154l11 72h291l-35 -249h47c147 0 231 -49 231 -161c0 -141 -94 -240 -283 -240h-189zM400 338h-47l-38 -273h48c84 0 136 64 136 185c0 65 -36 88 -99 88z" />
    <glyph glyph-name="afii10045" unicode="&#x42b;" horiz-adv-x="805" 
d="M77 0l91 650h138l-35 -249h47c147 0 231 -49 231 -161c0 -141 -94 -240 -283 -240h-189zM309 338h-47l-38 -273h48c84 0 136 64 136 185c0 65 -36 88 -99 88zM819 650l-91 -650h-138l91 650h138z" />
    <glyph glyph-name="afii10046" unicode="&#x42c;" horiz-adv-x="553" 
d="M77 0l91 650h138l-35 -249h47c147 0 231 -49 231 -161c0 -141 -94 -240 -283 -240h-189zM309 338h-47l-38 -273h48c84 0 136 64 136 185c0 65 -36 88 -99 88z" />
    <glyph glyph-name="afii10047" unicode="&#x42d;" horiz-adv-x="564" 
d="M28 98l48 60s51 -93 154 -93c92 0 165 56 191 225h-280l10 71h277c2 23 3 48 3 75c0 114 -54 150 -144 150c-75 0 -148 -44 -148 -44l-7 70s91 48 181 48c176 0 267 -99 267 -261c0 -240 -129 -410 -330 -410c-167 0 -222 109 -222 109z" />
    <glyph glyph-name="afii10048" unicode="&#x42e;" horiz-adv-x="923" 
d="M938 388c0 -232 -130 -399 -350 -399c-167 0 -251 102 -251 270c0 10 0 21 1 31h-83l-40 -290h-138l91 650h138l-41 -290h80c32 178 150 300 337 300c168 0 256 -105 256 -272zM790 420c0 110 -39 172 -117 172c-112 0 -193 -122 -193 -362c0 -111 38 -173 118 -173
c116 0 192 121 192 363z" />
    <glyph glyph-name="afii10049" unicode="&#x42f;" horiz-adv-x="578" 
d="M592 650l-91 -650h-139l35 251h-74l-145 -251h-142l172 268c-56 22 -98 68 -98 147c0 153 113 235 246 235h236zM248 408c0 -57 27 -88 68 -88h91l38 264h-92c-54 0 -105 -64 -105 -176z" />
    <glyph glyph-name="afii10065" unicode="&#x430;" horiz-adv-x="542" 
d="M554 500l-70 -500h-102l-16 44h-1s-29 -55 -131 -55c-105 0 -175 78 -175 206c0 179 105 316 258 316c92 0 111 -41 111 -41h4l24 30h98zM277 67c53 0 82 36 88 45l41 283c-2 4 -15 40 -71 40c-82 0 -136 -82 -136 -260c0 -75 29 -108 78 -108z" />
    <glyph glyph-name="afii10066" unicode="&#x431;" horiz-adv-x="526" 
d="M424 620c-172 -8 -261 -117 -275 -267h8c13 48 76 158 195 158c115 0 185 -64 185 -195c0 -194 -106 -327 -271 -327c-138 0 -201 111 -201 233c0 246 89 495 340 520l139 14l-13 -131zM326 445c-65 0 -125 -84 -125 -268c0 -69 24 -122 72 -122c72 0 126 79 126 279
c0 77 -23 111 -73 111z" />
    <glyph glyph-name="afii10067" unicode="&#x432;" horiz-adv-x="497" 
d="M239 -11c-116 0 -181 11 -181 11l70 500s108 11 171 11c140 0 204 -45 204 -122s-57 -114 -110 -133c46 -11 96 -40 96 -97c0 -102 -67 -170 -250 -170zM290 231h-66l-26 -182h39c78 0 117 49 117 120c0 41 -20 62 -64 62zM230 278h73s67 6 67 105c0 50 -32 69 -85 69
c-8 0 -18 0 -30 -1z" />
    <glyph glyph-name="afii10068" unicode="&#x433;" horiz-adv-x="429" 
d="M383 118l40 -35s-55 -94 -182 -94c-115 0 -186 51 -186 137c0 121 98 137 183 152c37 6 79 25 79 103c0 39 -30 61 -83 61c-66 0 -117 -46 -117 -46l-11 62s55 52 165 52c114 0 180 -55 180 -136c0 -116 -105 -130 -189 -145c-38 -7 -73 -27 -73 -107
c0 -40 33 -65 75 -65c80 0 119 61 119 61z" />
    <glyph glyph-name="afii10069" unicode="&#x434;" horiz-adv-x="543" 
d="M554 500l-74 -526c-26 -182 -157 -235 -264 -235c-132 0 -179 76 -179 76l44 57s40 -64 127 -64c80 0 119 32 141 185l1 7l4 23h-5s-32 -34 -113 -34c-111 0 -176 78 -176 208c0 181 108 314 247 314c102 0 121 -51 121 -51l28 40h98zM286 65c50 0 77 30 78 32l41 289
c-1 5 -14 51 -72 51c-78 0 -133 -78 -133 -251c0 -85 29 -121 86 -121z" />
    <glyph glyph-name="afii10070" unicode="&#x435;" horiz-adv-x="474" 
d="M420 111l40 -36s-53 -86 -185 -86c-123 0 -216 63 -216 206c0 202 115 315 268 315c108 0 168 -63 168 -140c0 -151 -192 -159 -298 -159c-1 -14 -1 -29 -1 -44c0 -85 44 -111 105 -111c77 0 119 55 119 55zM311 446c-55 0 -96 -58 -110 -178c84 0 175 9 175 115
c0 41 -22 63 -65 63z" />
    <glyph glyph-name="afii10072" unicode="&#x436;" horiz-adv-x="704" 
d="M489 500l-30 -217l59 24l136 193h91l-149 -205l109 -295h-144l-66 225l-47 -15l-29 -210h-133l36 260l-39 -13l-135 -247h-139l173 270l-75 230h90l57 -195l78 24l24 171h133z" />
    <glyph glyph-name="afii10073" unicode="&#x437;" horiz-adv-x="441" 
d="M97 402l-6 66s84 43 167 43c121 0 190 -47 190 -118c0 -76 -52 -113 -105 -132c46 -15 91 -46 91 -103c0 -110 -94 -169 -224 -169c-150 0 -189 86 -189 86l44 48s35 -66 127 -66c62 0 100 42 100 112c0 41 -31 57 -68 57l-81 -5l10 67l86 -4h3c21 3 68 31 68 100
c0 42 -37 58 -85 58c-53 0 -128 -40 -128 -40z" />
    <glyph glyph-name="afii10074" unicode="&#x438;" horiz-adv-x="548" 
d="M444 500h116l-70 -500h-133l48 347l-243 -347h-104l70 500h133l-46 -328z" />
    <glyph glyph-name="afii10075" unicode="&#x439;" horiz-adv-x="548" 
d="M444 500h116l-70 -500h-133l48 347l-243 -347h-104l70 500h133l-46 -328zM373 624c56 0 65 29 65 46c0 8 -2 13 -2 13l2 12l102 -9s-9 -123 -176 -123c-126 0 -141 71 -141 105c0 11 1 18 1 18l104 9l-2 -12s-7 -12 -7 -25c0 -16 10 -34 54 -34z" />
    <glyph glyph-name="afii10076" unicode="&#x43a;" horiz-adv-x="491" 
d="M58 0l70 500h133l-30 -210l75 34l136 176h77l-145 -188l106 -312h-151l-67 238l-40 -16l-31 -222h-133z" />
    <glyph glyph-name="afii10077" unicode="&#x43b;" horiz-adv-x="482" 
d="M493 500l-70 -500h-133l60 427h-89c-24 -180 -82 -438 -240 -438c-9 0 -19 1 -29 3l14 80c3 -1 7 -1 10 -1c100 0 157 228 179 429h298z" />
    <glyph glyph-name="afii10078" unicode="&#x43c;" horiz-adv-x="675" 
d="M678 500l-57 -500h-124l37 328l7 54h-2l-182 -382h-91l-67 382h-2l-5 -28l-65 -354h-74l97 500h160l46 -358h2l163 358h157z" />
    <glyph glyph-name="afii10079" unicode="&#x43d;" horiz-adv-x="537" 
d="M58 0l70 500h133l-30 -209h155l30 209h133l-70 -500h-133l31 223h-155l-31 -223h-133z" />
    <glyph glyph-name="afii10080" unicode="&#x43e;" horiz-adv-x="525" 
d="M535 305c0 -192 -109 -316 -275 -316c-123 0 -200 73 -200 206c0 190 100 316 274 316c123 0 201 -73 201 -206zM321 444c-77 0 -123 -88 -123 -285c0 -65 22 -104 76 -104c76 0 123 89 123 286c0 66 -22 103 -76 103z" />
    <glyph glyph-name="afii10081" unicode="&#x43f;" horiz-adv-x="531" 
d="M542 500l-70 -500h-133l60 427h-148l-60 -427h-133l70 500h414z" />
    <glyph glyph-name="afii10082" unicode="&#x440;" horiz-adv-x="543" 
d="M23 -254l105 754h107l12 -45h2s42 56 136 56c103 0 169 -79 169 -201c0 -182 -97 -321 -241 -321c-88 0 -115 38 -115 38h-3l-39 -277zM246 390l-1 1l-41 -295c3 -4 23 -31 70 -31c81 0 139 69 139 256c0 83 -32 112 -82 112c-55 0 -85 -43 -85 -43z" />
    <glyph glyph-name="afii10083" unicode="&#x441;" horiz-adv-x="446" 
d="M464 400c0 0 -66 44 -112 44c-100 0 -150 -94 -150 -272c0 -88 47 -116 97 -116c79 0 114 62 114 62l43 -30s-42 -99 -181 -99c-133 0 -215 76 -215 213c0 185 104 309 277 309c74 0 146 -47 146 -47z" />
    <glyph glyph-name="afii10084" unicode="&#x442;" horiz-adv-x="442" 
d="M490 427h-143l-60 -427h-132l60 427h-145l11 73h420z" />
    <glyph glyph-name="afii10085" unicode="&#x443;" horiz-adv-x="488" 
d="M12 -168c0 0 23 -11 49 -11c64 0 102 50 159 159l-139 520h160l73 -354l153 354h82l-246 -511c-73 -152 -139 -250 -237 -250c-52 0 -75 15 -75 15z" />
    <glyph glyph-name="afii10086" unicode="&#x444;" horiz-adv-x="696" 
d="M486 527l-3 -16h10c130 0 212 -77 212 -216c0 -193 -119 -306 -285 -306l-10 2l-2 -20c-24 -171 -107 -232 -207 -232c-65 0 -88 30 -88 30l26 56s23 -19 51 -19c46 0 72 42 89 165l2 18h-9c-130 0 -212 77 -212 215c0 192 119 307 285 307l9 -2l3 18
c24 171 106 233 207 233c64 0 88 -30 88 -30l-26 -57s-23 19 -51 19c-46 0 -72 -42 -89 -165zM193 189c0 -99 37 -133 98 -134l54 389c-109 -2 -152 -86 -152 -255zM572 312c0 98 -38 131 -98 133l-55 -389c96 2 153 74 153 256z" />
    <glyph glyph-name="afii10087" unicode="&#x445;" horiz-adv-x="473" 
d="M514 500l-171 -228l121 -272h-159l-68 187l-135 -187h-93l188 241l-110 259h159l58 -177l119 177h91z" />
    <glyph glyph-name="afii10088" unicode="&#x446;" horiz-adv-x="553" 
d="M261 500l-59 -427h147l60 427h133l-60 -427h66l-46 -221h-70l4 148h-378l70 500h133z" />
    <glyph glyph-name="afii10089" unicode="&#x447;" horiz-adv-x="488" 
d="M333 259l34 241h133l-70 -500h-133l29 206h-1s-39 -26 -126 -26c-76 0 -124 30 -124 108c0 10 1 22 3 34l25 178h133l-26 -182c-1 -9 -2 -17 -2 -24c0 -37 16 -53 49 -53c43 0 76 18 76 18z" />
    <glyph glyph-name="afii10090" unicode="&#x448;" horiz-adv-x="751" 
d="M762 500l-70 -500h-634l70 500h133l-60 -427h118l60 427h133l-60 -427h117l60 427h133z" />
    <glyph glyph-name="afii10091" unicode="&#x449;" horiz-adv-x="772" 
d="M768 73l-45 -221h-70l3 148h-598l70 500h133l-60 -427h118l60 427h133l-60 -427h117l60 427h133l-60 -427h66z" />
    <glyph glyph-name="afii10092" unicode="&#x44a;" horiz-adv-x="576" 
d="M351 500l-24 -169c12 1 27 2 47 2c111 0 201 -49 201 -144c0 -120 -79 -200 -247 -200c-86 0 -180 11 -180 11l60 427h-130l10 73h263zM360 274c-19 0 -33 -2 -41 -3l-31 -221c16 -1 30 -1 42 -1c66 0 103 73 103 148c0 60 -34 77 -73 77z" />
    <glyph glyph-name="afii10093" unicode="&#x44b;" horiz-adv-x="715" 
d="M727 500l-70 -500h-133l70 500h133zM261 500l-24 -169c12 1 27 2 47 2c111 0 201 -49 201 -144c0 -120 -79 -200 -247 -200c-86 0 -180 11 -180 11l70 500h133zM270 274c-19 0 -33 -2 -41 -3l-31 -221c16 -1 30 -1 42 -1c66 0 103 73 103 148c0 60 -34 77 -73 77z" />
    <glyph glyph-name="afii10094" unicode="&#x44c;" horiz-adv-x="487" 
d="M261 500l-24 -169c12 1 27 2 47 2c111 0 201 -49 201 -144c0 -120 -79 -200 -247 -200c-86 0 -180 11 -180 11l70 500h133zM270 274c-19 0 -33 -2 -41 -3l-31 -221c16 -1 30 -1 42 -1c66 0 103 73 103 148c0 60 -34 77 -73 77z" />
    <glyph glyph-name="afii10095" unicode="&#x44d;" horiz-adv-x="451" 
d="M20 77l42 47s44 -68 127 -68c73 0 122 43 139 162l-199 -5l11 76h194c1 10 1 21 1 32c0 99 -52 124 -114 124c-55 0 -112 -38 -112 -38l-4 65s71 39 141 39c128 0 217 -74 217 -202c0 -211 -122 -320 -262 -320c-141 0 -181 88 -181 88z" />
    <glyph glyph-name="afii10096" unicode="&#x44e;" horiz-adv-x="715" 
d="M527 511c131 0 199 -71 199 -203c0 -193 -85 -319 -265 -319c-114 0 -185 69 -185 202c0 11 0 21 1 32h-55l-31 -223h-133l70 500h133l-30 -209h54c26 135 108 220 242 220zM521 447c-75 0 -123 -83 -123 -284c0 -70 23 -110 72 -110c75 0 124 91 124 285
c0 73 -24 109 -73 109z" />
    <glyph glyph-name="afii10097" unicode="&#x44f;" horiz-adv-x="490" 
d="M501 500l-70 -500h-133l27 195h-51l-109 -195h-135l136 219c-45 21 -80 57 -80 108c0 113 88 184 233 184c102 0 182 -11 182 -11zM216 327c0 -52 35 -73 80 -73h38l27 197c-14 1 -27 1 -40 1c-66 0 -105 -55 -105 -125z" />
    <glyph glyph-name="uni0450" unicode="&#x450;" horiz-adv-x="474" 
d="M420 111l40 -36s-53 -86 -185 -86c-123 0 -216 63 -216 206c0 202 115 315 268 315c108 0 168 -63 168 -140c0 -151 -192 -159 -298 -159c-1 -14 -1 -29 -1 -44c0 -85 44 -111 105 -111c77 0 119 55 119 55zM311 446c-55 0 -96 -58 -110 -178c84 0 175 9 175 115
c0 41 -22 63 -65 63zM216 703l111 35l64 -147l-64 -17z" />
    <glyph glyph-name="afii10071" unicode="&#x451;" horiz-adv-x="474" 
d="M420 111l40 -36s-53 -86 -185 -86c-123 0 -216 63 -216 206c0 202 115 315 268 315c108 0 168 -63 168 -140c0 -151 -192 -159 -298 -159c-1 -14 -1 -29 -1 -44c0 -85 44 -111 105 -111c77 0 119 55 119 55zM311 446c-55 0 -96 -58 -110 -178c84 0 175 9 175 115
c0 41 -22 63 -65 63zM382 704c14 11 31 17 48 17s32 -6 44 -17c9 -12 14 -26 14 -41c0 -23 -10 -46 -29 -63c-15 -12 -33 -18 -49 -18c-17 0 -32 6 -42 18c-9 11 -14 26 -14 41c0 22 10 46 28 63zM196 704c14 11 32 17 49 17s32 -6 43 -17c9 -12 14 -26 14 -41
c0 -23 -10 -46 -29 -63c-15 -12 -32 -18 -48 -18s-32 6 -43 18c-9 11 -14 26 -14 41c0 22 10 46 28 63z" />
    <glyph glyph-name="afii10099" unicode="&#x452;" horiz-adv-x="536" 
d="M438 592l-10 -71h-162l-19 -141h5c1 0 42 47 130 47c90 0 139 -47 139 -138c0 -13 -1 -26 -3 -41l-39 -275c-22 -155 -117 -234 -204 -234c-29 0 -58 9 -82 27l30 67c12 -7 25 -11 37 -11c34 0 65 32 82 125c0 0 37 260 39 273c3 21 5 38 5 53c0 52 -20 71 -61 71
c-51 0 -86 -38 -89 -41l-42 -303h-133l72 521h-47l8 58l49 10l22 157l134 8l-23 -162h162z" />
    <glyph glyph-name="afii10100" unicode="&#x453;" horiz-adv-x="383" 
d="M376 118l40 -35s-55 -94 -182 -94c-115 0 -186 51 -186 137c0 121 98 137 183 152c37 6 79 25 79 103c0 39 -30 61 -83 61c-66 0 -117 -46 -117 -46l-11 62s55 52 165 52c114 0 180 -55 180 -136c0 -116 -105 -130 -189 -145c-38 -7 -73 -27 -73 -107
c0 -40 33 -65 75 -65c80 0 119 61 119 61zM339 730l104 -31l-139 -130l-56 9z" />
    <glyph glyph-name="afii10101" unicode="&#x454;" horiz-adv-x="447" 
d="M417 114l31 -39s-45 -86 -180 -86c-124 0 -208 77 -208 214c0 177 110 308 275 308c73 0 137 -47 137 -47l-19 -64s-62 44 -108 44c-69 0 -122 -34 -140 -160l193 4l-11 -77h-188v-35c0 -95 48 -120 102 -120c76 0 116 58 116 58z" />
    <glyph glyph-name="afii10102" unicode="&#x455;" horiz-adv-x="417" 
d="M36 60l45 52s35 -57 102 -57c57 0 84 35 84 77c0 87 -173 74 -173 211c0 116 98 168 200 168c71 0 135 -42 135 -42l-21 -67s-62 44 -111 44c-47 0 -73 -27 -73 -63c0 -89 187 -84 187 -220c0 -100 -69 -174 -212 -174c-128 0 -163 71 -163 71z" />
    <glyph glyph-name="afii10103" unicode="&#x456;" horiz-adv-x="249" 
d="M261 500l-70 -500h-133l70 500h133zM172 708c16 14 36 20 55 20s37 -6 49 -19c10 -13 15 -28 15 -45c0 -25 -11 -51 -31 -70c-17 -13 -36 -19 -55 -19s-37 6 -49 20c-11 12 -16 28 -16 45c0 24 11 50 32 68z" />
    <glyph glyph-name="afii10104" unicode="&#x457;" horiz-adv-x="249" 
d="M261 500l-70 -500h-133l70 500h133zM270 704c14 11 31 17 48 17s32 -6 44 -17c9 -12 14 -26 14 -41c0 -23 -10 -46 -29 -63c-15 -12 -33 -18 -49 -18c-17 0 -32 6 -42 18c-9 11 -14 26 -14 41c0 22 10 46 28 63zM84 704c14 11 32 17 49 17s32 -6 43 -17
c9 -12 14 -26 14 -41c0 -23 -10 -46 -29 -63c-15 -12 -32 -18 -48 -18s-32 6 -43 18c-9 11 -14 26 -14 41c0 22 10 46 28 63z" />
    <glyph glyph-name="afii10105" unicode="&#x458;" horiz-adv-x="276" 
d="M80 -29l74 529h133l-74 -529c-24 -171 -109 -232 -209 -232c-65 0 -88 30 -88 30l30 60s22 -19 50 -19c43 0 67 38 84 161zM200 708c16 14 36 20 55 20s37 -6 49 -19c10 -13 15 -28 15 -45c0 -25 -11 -51 -31 -70c-17 -13 -36 -19 -55 -19s-37 6 -49 20
c-11 12 -16 28 -16 45c0 24 11 50 32 68z" />
    <glyph glyph-name="afii10106" unicode="&#x459;" horiz-adv-x="735" 
d="M509 500l-24 -169c12 1 27 2 47 2c111 0 201 -49 201 -144c0 -120 -79 -200 -247 -200c-86 0 -180 11 -180 11l60 427h-89c-24 -180 -82 -438 -240 -438c-9 0 -19 1 -29 3l14 80c3 -1 7 -1 10 -1c100 0 157 228 179 429h298zM518 274c-19 0 -33 -2 -41 -3l-31 -221
c16 -1 30 -1 42 -1c66 0 103 73 103 148c0 60 -34 77 -73 77z" />
    <glyph glyph-name="afii10107" unicode="&#x45a;" horiz-adv-x="774" 
d="M549 500l-24 -169c12 1 27 2 46 2c111 0 201 -49 201 -144c0 -120 -79 -200 -247 -200c-86 0 -180 11 -180 11l31 223h-154l-31 -223h-133l70 500h133l-30 -209h154l30 209h134zM557 274c-19 0 -32 -2 -40 -3l-31 -221c15 -1 29 -1 41 -1c66 0 103 73 103 148
c0 60 -34 77 -73 77z" />
    <glyph glyph-name="afii10108" unicode="&#x45b;" horiz-adv-x="536" 
d="M438 592l-10 -71h-162l-19 -141h5c1 0 42 47 130 47c90 0 139 -47 139 -138c0 -13 -1 -26 -3 -41l-35 -248h-133s29 207 31 220c3 21 5 38 5 53c0 52 -20 71 -61 71c-51 0 -86 -38 -89 -41l-42 -303h-133l72 521h-47l8 58l49 10l22 157l134 8l-23 -162h162z" />
    <glyph glyph-name="afii10109" unicode="&#x45c;" horiz-adv-x="491" 
d="M58 0l70 500h133l-30 -210l75 34l136 176h77l-145 -188l106 -312h-151l-67 238l-40 -16l-31 -222h-133zM389 730l104 -31l-139 -130l-56 9z" />
    <glyph glyph-name="uni045D" unicode="&#x45d;" horiz-adv-x="548" 
d="M444 500h116l-70 -500h-133l48 347l-243 -347h-104l70 500h133l-46 -328zM242 703l111 35l64 -147l-64 -17z" />
    <glyph glyph-name="afii10110" unicode="&#x45e;" horiz-adv-x="488" 
d="M12 -168c0 0 23 -11 49 -11c64 0 102 50 159 159l-139 520h160l73 -354l153 354h82l-246 -511c-73 -152 -139 -250 -237 -250c-52 0 -75 15 -75 15zM353 624c56 0 65 29 65 46c0 8 -2 13 -2 13l2 12l102 -9s-9 -123 -176 -123c-126 0 -141 71 -141 105c0 11 1 18 1 18
l104 9l-2 -12s-7 -12 -7 -25c0 -16 10 -34 54 -34z" />
    <glyph glyph-name="afii10193" unicode="&#x45f;" horiz-adv-x="556" 
d="M568 500l-70 -500h-170l-33 -148h-74l3 148h-166l70 500h133l-59 -427h173l60 427h133z" />
    <glyph glyph-name="afii10146" unicode="&#x462;" horiz-adv-x="618" 
d="M540 617l-11 -77h-173l-19 -140h52c146 0 226 -48 226 -158c0 -142 -87 -242 -278 -242h-195l75 540h-127l11 77h127l10 69h139l-10 -69h173zM381 336h-53l-38 -271h54c87 0 130 61 130 187c0 63 -31 84 -93 84z" />
    <glyph glyph-name="afii10194" unicode="&#x463;" horiz-adv-x="557" 
d="M347 604l-15 -104h136l-9 -65h-136l-15 -107h46c124 0 202 -35 202 -131c0 -128 -79 -197 -248 -197h-178l59 427h-115l7 73h118l14 96zM341 269h-41l-29 -209h40c66 0 103 49 103 137c0 60 -34 72 -73 72z" />
    <glyph glyph-name="afii10050" unicode="&#x490;" horiz-adv-x="420" 
d="M450 750h67l-17 -176h-204l-81 -574h-138l91 650h240z" />
    <glyph glyph-name="afii10098" unicode="&#x491;" horiz-adv-x="349" 
d="M315 500l45 136h67l-22 -209h-128l-64 -456c-24 -171 -109 -232 -209 -232c-65 0 -88 30 -88 30l30 60s22 -19 50 -19c43 0 67 38 84 161l74 529h161z" />
    <glyph glyph-name="endash" unicode="&#x2013;" 
d="M538 312l-10 -74h-464l10 74h464z" />
    <glyph glyph-name="emdash" unicode="&#x2014;" horiz-adv-x="678" 
d="M692 312l-10 -74h-618l10 74h618z" />
    <glyph glyph-name="quoteleft" unicode="&#x2018;" horiz-adv-x="181" 
d="M203 450c-15 -12 -33 -18 -50 -18s-34 6 -45 18c-13 15 -18 34 -18 57c0 80 70 195 146 251l29 -37c-51 -40 -91 -100 -100 -151h5c18 0 35 -5 47 -17c10 -12 14 -26 14 -41c0 -22 -10 -45 -28 -62z" />
    <glyph glyph-name="quoteright" unicode="&#x2019;" horiz-adv-x="180" 
d="M141 739c15 12 33 18 50 18s34 -6 46 -18c12 -15 18 -34 18 -57c0 -80 -69 -195 -147 -251l-29 37c50 40 90 99 100 150h-7c-17 0 -34 6 -45 18c-10 11 -14 26 -14 41c0 22 10 45 28 62z" />
    <glyph glyph-name="quotesinglbase" unicode="&#x201a;" horiz-adv-x="180" 
d="M57 138c14 12 33 18 50 18s33 -6 45 -18c13 -15 18 -34 18 -57c0 -80 -69 -195 -146 -251l-29 37c51 40 90 100 100 151h-8c-17 0 -34 6 -45 17c-9 12 -14 26 -14 41c0 22 10 45 29 62z" />
    <glyph glyph-name="quotedblleft" unicode="&#x201c;" horiz-adv-x="368" 
d="M203 450c-15 -12 -33 -18 -50 -18s-34 6 -45 18c-13 15 -18 34 -18 57c0 80 70 195 146 251l29 -37c-51 -40 -91 -100 -100 -151h5c18 0 35 -5 47 -17c10 -12 14 -26 14 -41c0 -22 -10 -45 -28 -62zM390 450c-15 -12 -33 -18 -50 -18s-34 6 -45 18c-13 15 -18 34 -18 57
c0 80 70 195 146 251l29 -37c-51 -40 -91 -100 -100 -151h5c18 0 35 -5 47 -17c10 -12 14 -26 14 -41c0 -22 -10 -45 -28 -62z" />
    <glyph glyph-name="quotedblright" unicode="&#x201d;" horiz-adv-x="368" 
d="M141 739c15 12 33 18 50 18s34 -6 46 -18c12 -15 18 -34 18 -57c0 -80 -69 -195 -147 -251l-29 37c50 40 90 99 100 150h-7c-17 0 -34 6 -45 18c-10 11 -14 26 -14 41c0 22 10 45 28 62zM328 739c15 12 33 18 50 18s34 -6 46 -18c12 -15 18 -34 18 -57
c0 -80 -69 -195 -147 -251l-29 37c50 40 90 99 100 150h-7c-17 0 -34 6 -45 18c-10 11 -14 26 -14 41c0 22 10 45 28 62z" />
    <glyph glyph-name="quotedblbase" unicode="&#x201e;" horiz-adv-x="368" 
d="M57 138c14 12 33 18 50 18s33 -6 45 -18c13 -15 18 -34 18 -57c0 -80 -69 -195 -146 -251l-29 37c51 40 90 100 100 151h-8c-17 0 -34 6 -45 17c-9 12 -14 26 -14 41c0 22 10 45 29 62zM244 138c14 12 33 18 50 18s33 -6 45 -18c13 -15 18 -34 18 -57
c0 -80 -69 -195 -146 -251l-29 37c51 40 90 100 100 151h-8c-17 0 -34 6 -45 17c-9 12 -14 26 -14 41c0 22 10 45 29 62z" />
    <glyph glyph-name="dagger" unicode="&#x2020;" horiz-adv-x="495" 
d="M506 441l-10 -73h-155l-71 -618h-114l103 618h-157l10 73h162l12 209h108l-48 -209h160z" />
    <glyph glyph-name="daggerdbl" unicode="&#x2021;" horiz-adv-x="495" 
d="M446 13l-11 -73h-156l-12 -190h-111l41 190h-155l10 73h161l7 187l46 188h-161l10 73h155l13 189h111l-41 -189h155l-10 -73h-161l-6 -188l-47 -187h162z" />
    <glyph glyph-name="bullet" unicode="&#x2022;" horiz-adv-x="380" 
d="M156 423c26 21 59 31 90 31s60 -10 81 -31c17 -21 25 -47 25 -74c0 -40 -18 -82 -52 -112c-26 -21 -58 -32 -89 -32s-61 11 -81 32c-17 20 -25 46 -25 73c0 40 18 82 51 113z" />
    <glyph glyph-name="ellipsis" unicode="&#x2026;" horiz-adv-x="809" 
d="M110 124c17 14 38 21 58 21s39 -7 53 -21c11 -13 16 -30 16 -47c0 -26 -11 -53 -33 -72c-18 -14 -39 -21 -59 -21s-39 7 -52 21c-11 13 -17 30 -17 47c0 25 12 52 34 72zM366 124c17 14 38 21 58 21s39 -7 53 -21c11 -13 16 -30 16 -47c0 -26 -11 -53 -33 -72
c-18 -14 -39 -21 -59 -21s-39 7 -52 21c-11 13 -17 30 -17 47c0 25 12 52 34 72zM621 124c17 14 38 21 58 21s39 -7 53 -21c11 -13 16 -30 16 -47c0 -26 -11 -53 -33 -72c-18 -14 -39 -21 -59 -21s-39 7 -52 21c-11 13 -17 30 -17 47c0 25 12 52 34 72z" />
    <glyph glyph-name="perthousand" unicode="&#x2030;" horiz-adv-x="1261" 
d="M681 615l-358 -627l-63 20l358 627zM453 499c0 -134 -76 -237 -206 -237c-101 0 -149 68 -149 166c0 139 80 239 206 239c94 0 149 -68 149 -168zM348 523c0 56 -18 82 -53 82c-48 0 -90 -41 -90 -198c0 -54 16 -82 50 -82c47 0 93 47 93 198zM859 218
c0 -134 -76 -237 -206 -237c-101 0 -149 68 -149 166c0 139 80 239 206 239c94 0 149 -68 149 -168zM754 242c0 56 -18 82 -53 82c-48 0 -90 -41 -90 -198c0 -54 16 -82 50 -82c47 0 93 47 93 198zM1254 218c0 -134 -76 -237 -206 -237c-101 0 -149 68 -149 166
c0 139 80 239 206 239c94 0 149 -68 149 -168zM1149 242c0 56 -18 82 -53 82c-48 0 -90 -41 -90 -198c0 -54 16 -82 50 -82c47 0 93 47 93 198z" />
    <glyph glyph-name="guilsinglleft" unicode="&#x2039;" horiz-adv-x="352" 
d="M347 399l-110 -151l67 -150l-39 -39l-151 191l204 186z" />
    <glyph glyph-name="guilsinglright" unicode="&#x203a;" horiz-adv-x="352" 
d="M116 397l40 39l150 -191l-203 -186l-31 36l111 151z" />
    <glyph glyph-name="fraction" unicode="&#x2044;" horiz-adv-x="453" 
d="M538 566l-422 -606l-50 31l423 605z" />
    <glyph glyph-name="uni2070" unicode="&#x2070;" horiz-adv-x="414" 
d="M315 760c111 0 154 -84 154 -174c0 -168 -35 -367 -217 -367c-108 0 -156 75 -156 194c0 154 27 347 219 347zM302 703c-50 0 -88 -73 -88 -335c0 -66 20 -92 50 -92c52 0 90 91 90 350c0 41 -15 77 -52 77z" />
    <glyph glyph-name="uni00B9" unicode="&#xb9;" horiz-adv-x="413" 
d="M292 750h97l-73 -520h-120l60 423l-83 -52l-18 68z" />
    <glyph glyph-name="uni00B2" unicode="&#xb2;" horiz-adv-x="414" 
d="M415 344l-16 -114h-331l13 95c76 28 238 142 238 300c0 56 -21 70 -62 70c-36 0 -99 -40 -99 -40l-10 57s74 48 145 48c109 0 157 -64 157 -140c0 -117 -120 -215 -218 -276h183z" />
    <glyph glyph-name="uni00B3" unicode="&#xb3;" horiz-adv-x="413" 
d="M461 750l-11 -77l-142 -144c65 -1 120 -47 120 -129c0 -120 -108 -181 -207 -181c-108 0 -144 50 -144 50l33 54s37 -39 98 -39c59 0 99 39 99 138c0 32 -11 50 -36 50c-14 0 -27 -9 -35 -16l-6 -6l-31 42l139 143h-177l19 115h281z" />
    <glyph glyph-name="uni2074" unicode="&#x2074;" horiz-adv-x="413" 
d="M228 764l115 -14c-41 -123 -116 -247 -177 -329h114l6 39l63 211h91l-35 -250h42l-8 -52l-43 -12l-18 -127h-125l18 126h-185l2 56c54 84 108 242 140 352z" />
    <glyph glyph-name="uni2075" unicode="&#x2075;" horiz-adv-x="414" 
d="M452 750l-24 -119h-180l-18 -75c11 3 22 5 35 5c96 0 163 -46 163 -140c0 -144 -104 -202 -215 -202c-105 0 -137 50 -137 50l36 53c1 -2 32 -38 94 -38c54 0 100 42 100 146c0 52 -23 73 -57 73c-23 0 -42 -10 -53 -22l-9 -13l-41 6l70 276h236z" />
    <glyph glyph-name="uni2076" unicode="&#x2076;" horiz-adv-x="413" 
d="M449 728l-20 -60s-56 31 -92 31c-43 0 -73 -40 -93 -154c20 13 43 21 70 21c76 0 135 -40 135 -133c0 -11 -1 -24 -3 -37c-16 -114 -91 -177 -193 -177c-88 0 -148 51 -148 175c0 56 15 119 20 134c47 170 126 232 213 232c56 0 111 -32 111 -32zM291 515
c-21 0 -37 -12 -47 -37c-5 -13 -12 -47 -15 -71c-4 -31 -6 -55 -6 -73c0 -50 15 -61 38 -61c31 0 47 27 61 126c3 22 4 41 4 56c0 45 -13 60 -35 60z" />
    <glyph glyph-name="uni2077" unicode="&#x2077;" horiz-adv-x="414" 
d="M485 750l-13 -96c-83 -117 -162 -301 -207 -424h-135c56 127 161 280 243 399h-234l13 121h333z" />
    <glyph glyph-name="uni2078" unicode="&#x2078;" horiz-adv-x="414" 
d="M464 635c0 -81 -56 -121 -108 -141c39 -12 83 -40 83 -106c0 -122 -78 -169 -202 -169c-99 0 -159 36 -159 127c0 84 60 126 116 147c-35 15 -71 45 -71 107c0 106 83 160 191 160c88 0 150 -43 150 -125zM309 399c0 46 -28 60 -47 65c-25 -8 -56 -37 -56 -133
c0 -42 15 -58 41 -58c39 0 62 45 62 126zM245 582c0 -41 20 -60 38 -69h2c25 10 58 40 58 137c0 41 -15 57 -38 57c-40 0 -60 -43 -60 -125z" />
    <glyph glyph-name="uni2079" unicode="&#x2079;" horiz-adv-x="413" 
d="M89 251l31 54s32 -25 77 -25c50 0 91 39 112 157c-19 -15 -42 -26 -72 -26c-75 0 -135 33 -135 132c0 131 81 217 196 217c88 0 149 -50 149 -173c0 -42 -10 -96 -15 -115c-41 -186 -143 -253 -237 -253c-70 0 -106 32 -106 32zM262 462c27 0 46 23 55 61c4 20 8 44 9 66
c2 20 3 36 3 50c0 54 -15 67 -36 67c-43 0 -69 -61 -69 -181c0 -42 12 -63 38 -63z" />
    <glyph glyph-name="uni2080" unicode="&#x2080;" horiz-adv-x="414" 
d="M240 280c112 0 154 -84 154 -174c0 -168 -35 -367 -217 -367c-107 0 -155 75 -155 194c0 154 26 347 218 347zM227 223c-50 0 -88 -73 -88 -335c0 -66 20 -92 50 -92c52 0 90 91 90 350c0 41 -15 77 -52 77z" />
    <glyph glyph-name="uni2081" unicode="&#x2081;" horiz-adv-x="413" 
d="M225 270h97l-73 -520h-120l60 423l-83 -52l-18 68z" />
    <glyph glyph-name="uni2082" unicode="&#x2082;" horiz-adv-x="414" 
d="M354 -136l-16 -114h-332l14 95c75 28 237 142 237 300c0 56 -20 70 -61 70c-37 0 -100 -40 -100 -40l-9 57s74 48 145 48c108 0 156 -64 156 -140c0 -117 -119 -215 -218 -276h184z" />
    <glyph glyph-name="uni2083" unicode="&#x2083;" horiz-adv-x="413" 
d="M393 270l-11 -77l-142 -144c65 -1 120 -47 120 -129c0 -120 -108 -181 -206 -181c-109 0 -145 50 -145 50l33 54s38 -39 98 -39s99 39 99 138c0 32 -11 50 -36 50c-14 0 -28 -10 -36 -16l-5 -6l-31 42l140 143h-178l19 115h281z" />
    <glyph glyph-name="uni2084" unicode="&#x2084;" horiz-adv-x="413" 
d="M161 284l114 -14c-40 -123 -115 -247 -176 -329h113l6 39l64 211h90l-35 -250h42l-7 -52l-44 -12l-18 -127h-124l17 126h-184l1 56c54 84 108 242 141 352z" />
    <glyph glyph-name="uni2085" unicode="&#x2085;" horiz-adv-x="414" 
d="M384 270l-24 -119h-180l-18 -75c11 3 23 5 36 5c95 0 162 -46 162 -140c0 -144 -104 -202 -215 -202c-104 0 -137 50 -137 50l36 54s32 -39 95 -39c53 0 100 42 100 146c0 52 -24 73 -58 73c-24 0 -44 -11 -55 -23l-7 -12l-41 6l71 276h235z" />
    <glyph glyph-name="uni2086" unicode="&#x2086;" horiz-adv-x="413" 
d="M374 248l-21 -59s-56 31 -92 31c-42 0 -73 -40 -93 -155c20 12 43 21 70 21c76 0 135 -39 135 -132c0 -11 -1 -24 -3 -37c-16 -115 -91 -178 -193 -178c-88 0 -148 51 -148 175c0 57 15 119 20 134c47 170 126 232 213 232c56 0 112 -32 112 -32zM215 35
c-20 0 -35 -11 -46 -33l1 -1c-5 -9 -13 -48 -17 -74c-4 -30 -6 -54 -6 -72c0 -50 15 -62 38 -62c31 0 47 28 61 126c3 23 5 41 5 56c0 45 -14 60 -36 60z" />
    <glyph glyph-name="uni2087" unicode="&#x2087;" horiz-adv-x="414" 
d="M418 270l-14 -96c-83 -117 -161 -301 -207 -424h-134c55 127 160 280 242 399h-233l12 121h334z" />
    <glyph glyph-name="uni2088" unicode="&#x2088;" horiz-adv-x="414" 
d="M397 155c0 -81 -56 -121 -109 -141c39 -12 83 -40 83 -106c0 -122 -78 -169 -202 -169c-99 0 -159 36 -159 127c0 85 60 127 117 147c-36 15 -72 45 -72 107c0 106 84 160 192 160c88 0 150 -43 150 -125zM241 -81c0 46 -28 61 -47 65c-25 -8 -56 -36 -56 -133
c0 -42 16 -58 41 -58c39 0 62 45 62 126zM177 102c0 -41 20 -60 38 -69h2c25 10 58 40 58 137c0 41 -14 57 -38 57c-40 0 -60 -43 -60 -125z" />
    <glyph glyph-name="uni2089" unicode="&#x2089;" horiz-adv-x="413" 
d="M256 36c4 21 9 49 11 73c2 19 3 35 3 48c0 56 -15 69 -36 69c-43 0 -69 -61 -69 -181c0 -42 11 -63 38 -63c26 0 43 20 53 54zM30 -229l31 54s31 -25 77 -25c49 0 91 40 112 158c-19 -15 -42 -27 -73 -27c-75 0 -135 33 -135 132c0 131 82 217 196 217
c88 0 150 -50 150 -173c0 -42 -11 -96 -15 -115c-41 -186 -144 -253 -238 -253c-70 0 -105 32 -105 32z" />
    <glyph glyph-name="Euro" unicode="&#x20ac;" horiz-adv-x="568" 
d="M496 282l-10 -70h-216c2 -117 50 -155 126 -155c84 0 141 72 141 72l19 -50s-59 -90 -196 -90c-146 0 -221 87 -231 228l-58 6l9 59h48c1 23 3 45 6 67l-44 5l8 59h47c33 140 119 246 300 246c96 0 159 -44 159 -44l-24 -69s-61 42 -129 42c-84 0 -142 -40 -167 -175h230
l-10 -69h-229c-2 -20 -3 -40 -4 -62h225z" />
    <glyph glyph-name="afii61352" unicode="&#x2116;" horiz-adv-x="1095" 
d="M710 650l-91 -650h-108l-241 488h-2v-58l-60 -430h-86l91 650h143l211 -441h3l-1 45l55 396h86zM1132 527c0 -133 -82 -220 -220 -220c-112 0 -166 59 -166 155c0 132 73 221 219 221c112 0 167 -59 167 -156zM958 631c-51 0 -90 -46 -90 -195c0 -52 16 -79 51 -79
c51 0 90 48 90 196c0 51 -16 78 -51 78zM1028 177l-10 -74h-271l10 74h271z" />
    <glyph glyph-name="trademark" unicode="&#x2122;" horiz-adv-x="796" 
d="M845 750l-41 -350h-78l25 223l-109 -223h-72l-45 234l-38 -234h-54l71 350h83l44 -279l134 279h80zM466 750l-8 -55l-118 -1l-41 -294h-82l41 294h-109l8 56h309z" />
    <glyph glyph-name="onequarter" unicode="&#xbc;" horiz-adv-x="805" 
d="M292 750h97l-73 -520h-120l60 423l-83 -52l-18 68zM691 566l-422 -606l-50 31l423 605zM538 284l114 -14c-40 -123 -115 -247 -176 -329h113l6 39l64 211h90l-35 -250h42l-7 -52l-44 -12l-18 -127h-124l17 126h-184l1 56c54 84 108 242 141 352z" />
    <glyph glyph-name="onehalf" unicode="&#xbd;" horiz-adv-x="843" 
d="M292 750h97l-73 -520h-120l60 423l-83 -52l-18 68zM691 566l-422 -606l-50 31l423 605zM785 -136l-16 -114h-332l14 95c75 28 237 142 237 300c0 56 -20 70 -61 70c-37 0 -100 -40 -100 -40l-9 57s74 48 145 48c108 0 156 -64 156 -140c0 -117 -119 -215 -218 -276h184z
" />
    <glyph glyph-name="threequarters" unicode="&#xbe;" horiz-adv-x="847" 
d="M464 750l-11 -77l-142 -144c65 -1 120 -47 120 -129c0 -120 -108 -181 -207 -181c-108 0 -144 50 -144 50l33 54s37 -39 98 -39c59 0 99 39 99 138c0 32 -11 50 -36 50c-14 0 -27 -9 -35 -16l-6 -6l-31 42l139 143h-177l19 115h281zM733 566l-422 -606l-50 31l423 605z
M580 284l114 -14c-40 -123 -115 -247 -176 -329h113l6 39l64 211h90l-35 -250h42l-7 -52l-44 -12l-18 -127h-124l17 126h-184l1 56c54 84 108 242 141 352z" />
    <glyph glyph-name="onethird" unicode="&#x2153;" horiz-adv-x="841" 
d="M292 750h97l-73 -520h-120l60 423l-83 -52l-18 68zM691 566l-422 -606l-50 31l423 605zM824 270l-11 -77l-142 -144c65 -1 120 -47 120 -129c0 -120 -108 -181 -206 -181c-109 0 -145 50 -145 50l33 54s38 -39 98 -39s99 39 99 138c0 32 -11 50 -36 50
c-14 0 -28 -10 -36 -16l-5 -6l-31 42l140 143h-178l19 115h281z" />
    <glyph glyph-name="twothirds" unicode="&#x2154;" horiz-adv-x="904" 
d="M415 344l-16 -114h-331l13 95c76 28 238 142 238 300c0 56 -21 70 -62 70c-36 0 -99 -40 -99 -40l-10 57s74 48 145 48c109 0 157 -64 157 -140c0 -117 -120 -215 -218 -276h183zM754 566l-422 -606l-50 31l423 605zM886 270l-11 -77l-142 -144c65 -1 120 -47 120 -129
c0 -120 -108 -181 -206 -181c-109 0 -145 50 -145 50l33 54s38 -39 98 -39s99 39 99 138c0 32 -11 50 -36 50c-14 0 -28 -10 -36 -16l-5 -6l-31 42l140 143h-178l19 115h281z" />
    <glyph glyph-name="oneeighth" unicode="&#x215b;" horiz-adv-x="888" 
d="M292 750h97l-73 -520h-120l60 423l-83 -52l-18 68zM691 566l-422 -606l-50 31l423 605zM819 155c0 -81 -56 -121 -109 -141c39 -12 83 -40 83 -106c0 -122 -78 -169 -202 -169c-99 0 -159 36 -159 127c0 85 60 127 117 147c-36 15 -72 45 -72 107c0 106 84 160 192 160
c88 0 150 -43 150 -125zM663 -81c0 46 -28 61 -47 65c-25 -8 -56 -36 -56 -133c0 -42 16 -58 41 -58c39 0 62 45 62 126zM599 102c0 -41 20 -60 38 -69h2c25 10 58 40 58 137c0 41 -14 57 -38 57c-40 0 -60 -43 -60 -125z" />
    <glyph glyph-name="threeeighths" unicode="&#x215c;" horiz-adv-x="951" 
d="M464 750l-11 -77l-142 -144c65 -1 120 -47 120 -129c0 -120 -108 -181 -207 -181c-108 0 -144 50 -144 50l33 54s37 -39 98 -39c59 0 99 39 99 138c0 32 -11 50 -36 50c-14 0 -27 -9 -35 -16l-6 -6l-31 42l139 143h-177l19 115h281zM754 566l-422 -606l-50 31l423 605z
M881 155c0 -81 -56 -121 -109 -141c39 -12 83 -40 83 -106c0 -122 -78 -169 -202 -169c-99 0 -159 36 -159 127c0 85 60 127 117 147c-36 15 -72 45 -72 107c0 106 84 160 192 160c88 0 150 -43 150 -125zM725 -81c0 46 -28 61 -47 65c-25 -8 -56 -36 -56 -133
c0 -42 16 -58 41 -58c39 0 62 45 62 126zM661 102c0 -41 20 -60 38 -69h2c25 10 58 40 58 137c0 41 -14 57 -38 57c-40 0 -60 -43 -60 -125z" />
    <glyph glyph-name="fiveeighths" unicode="&#x215d;" horiz-adv-x="939" 
d="M870 155c0 -81 -56 -121 -109 -141c39 -12 83 -40 83 -106c0 -122 -78 -169 -202 -169c-99 0 -159 36 -159 127c0 85 60 127 117 147c-36 15 -72 45 -72 107c0 106 84 160 192 160c88 0 150 -43 150 -125zM452 750l-24 -119h-180l-18 -75c11 3 22 5 35 5
c96 0 163 -46 163 -140c0 -144 -104 -202 -215 -202c-105 0 -137 50 -137 50l36 53c1 -2 32 -38 94 -38c54 0 100 42 100 146c0 52 -23 73 -57 73c-23 0 -42 -10 -53 -22l-9 -13l-41 6l70 276h236zM743 566l-422 -606l-50 31l423 605zM714 -81c0 46 -28 61 -47 65
c-25 -8 -56 -36 -56 -133c0 -42 16 -58 41 -58c39 0 62 45 62 126zM650 102c0 -41 20 -60 38 -69h2c25 10 58 40 58 137c0 41 -14 57 -38 57c-40 0 -60 -43 -60 -125z" />
    <glyph glyph-name="seveneighths" unicode="&#x215e;" horiz-adv-x="874" 
d="M485 750l-13 -96c-83 -117 -162 -301 -207 -424h-135c56 127 161 280 243 399h-234l13 121h333zM677 566l-422 -606l-50 31l423 605zM804 155c0 -81 -56 -121 -109 -141c39 -12 83 -40 83 -106c0 -122 -78 -169 -202 -169c-99 0 -159 36 -159 127c0 85 60 127 117 147
c-36 15 -72 45 -72 107c0 106 84 160 192 160c88 0 150 -43 150 -125zM648 -81c0 46 -28 61 -47 65c-25 -8 -56 -36 -56 -133c0 -42 16 -58 41 -58c39 0 62 45 62 126zM584 102c0 -41 20 -60 38 -69h2c25 10 58 40 58 137c0 41 -14 57 -38 57c-40 0 -60 -43 -60 -125z" />
    <glyph glyph-name="onefifth" horiz-adv-x="839" 
d="M815 270l-24 -119h-180l-18 -75c11 3 23 5 36 5c95 0 162 -46 162 -140c0 -144 -104 -202 -215 -202c-104 0 -137 50 -137 50l36 54c1 -2 33 -39 95 -39c53 0 100 42 100 146c0 52 -24 73 -58 73c-24 0 -44 -11 -55 -23l-7 -12l-41 6l71 276h235zM292 750h97l-73 -520
h-120l60 423l-83 -52l-18 68zM691 566l-422 -606l-50 31l423 605z" />
    <glyph glyph-name="twofifths" horiz-adv-x="902" 
d="M415 344l-16 -114h-331l13 95c76 28 238 142 238 300c0 56 -21 70 -62 70c-36 0 -99 -40 -99 -40l-10 57s74 48 145 48c109 0 157 -64 157 -140c0 -117 -120 -215 -218 -276h183zM877 270l-24 -119h-180l-18 -75c11 3 23 5 36 5c95 0 162 -46 162 -140
c0 -144 -104 -202 -215 -202c-104 0 -137 50 -137 50l36 54c1 -2 33 -39 95 -39c53 0 100 42 100 146c0 52 -24 73 -58 73c-24 0 -44 -11 -55 -23l-7 -12l-41 6l71 276h235zM754 566l-422 -606l-50 31l423 605z" />
    <glyph glyph-name="threefifths" horiz-adv-x="902" 
d="M877 270l-24 -119h-180l-18 -75c11 3 23 5 36 5c95 0 162 -46 162 -140c0 -144 -104 -202 -215 -202c-104 0 -137 50 -137 50l36 54c1 -2 33 -39 95 -39c53 0 100 42 100 146c0 52 -24 73 -58 73c-24 0 -44 -11 -55 -23l-7 -12l-41 6l71 276h235zM464 750l-11 -77
l-142 -144c65 -1 120 -47 120 -129c0 -120 -108 -181 -207 -181c-108 0 -144 50 -144 50l33 54s37 -39 98 -39c59 0 99 39 99 138c0 32 -11 50 -36 50c-14 0 -27 -9 -35 -16l-6 -6l-31 42l139 143h-177l19 115h281zM754 566l-422 -606l-50 31l423 605z" />
    <glyph glyph-name="fourfifths" horiz-adv-x="902" 
d="M228 764l115 -14c-41 -123 -116 -247 -177 -329h114l6 39l63 211h91l-35 -250h42l-8 -52l-43 -12l-18 -127h-125l18 126h-185l2 56c54 84 108 242 140 352zM877 270l-24 -119h-180l-18 -75c11 3 23 5 36 5c95 0 162 -46 162 -140c0 -144 -104 -202 -215 -202
c-104 0 -137 50 -137 50l36 54c1 -2 33 -39 95 -39c53 0 100 42 100 146c0 52 -24 73 -58 73c-24 0 -44 -11 -55 -23l-7 -12l-41 6l71 276h235zM754 566l-422 -606l-50 31l423 605z" />
    <glyph glyph-name="uniFB06" unicode="&#xfb06;" horiz-adv-x="749" 
d="M36 60l45 52s35 -57 102 -57c57 0 84 35 84 77c0 87 -173 74 -173 211c0 116 98 168 200 168c6 0 12 -1 18 -1c-6 17 -9 38 -9 62c0 89 63 178 183 178h226l-35 -250h111l-11 -73h-110l-35 -251c-4 -27 -6 -49 -6 -65c0 -40 12 -50 37 -50c32 0 57 10 57 10l-4 -58
s-28 -24 -104 -24c-79 0 -121 29 -121 108c0 14 2 28 4 45l59 420l77 127h-149c-88 0 -124 -49 -124 -122c0 -34 9 -57 20 -73c31 -12 51 -25 51 -25l-21 -67s-62 44 -111 44c-47 0 -73 -27 -73 -63c0 -89 187 -84 187 -220c0 -100 -69 -174 -212 -174
c-128 0 -163 71 -163 71z" />
    <glyph glyph-name="ct" horiz-adv-x="765" 
d="M421 494c36 -13 62 -30 62 -30l-19 -64s-14 6 -33 19c-23 12 -54 25 -79 25c-100 0 -150 -94 -150 -272c0 -88 47 -116 97 -116c79 0 114 62 114 62l43 -30s-42 -99 -181 -99c-133 0 -215 76 -215 213c0 185 104 309 277 309c6 0 13 -1 19 -2c-8 20 -12 41 -12 67
c0 86 67 174 188 174h196l-35 -250h111l-10 -73h-112l-35 -251c-4 -26 -5 -47 -5 -63c0 -41 12 -52 37 -52c32 0 57 10 57 10l-4 -58s-29 -24 -105 -24c-78 0 -120 29 -120 110c0 13 1 27 3 43l59 421l77 126h-120c-88 0 -127 -49 -127 -120c0 -32 9 -57 22 -75z" />
    <glyph glyph-name="afii10104_afii10104.sc.001" horiz-adv-x="585" 
d="M583 704c14 11 31 17 48 17c16 0 32 -6 43 -17c9 -12 14 -26 14 -41c0 -22 -10 -46 -28 -63c-15 -12 -32 -18 -49 -18s-32 6 -43 18c-9 11 -14 25 -14 40c0 22 10 47 29 64zM424 704c14 11 31 17 48 17s32 -6 44 -17c9 -12 14 -26 14 -41c0 -23 -10 -46 -29 -63
c-15 -12 -32 -18 -49 -18s-32 6 -43 18c-9 11 -14 25 -14 40c0 22 10 47 29 64zM263 704c14 11 32 17 49 17s32 -6 43 -17c9 -12 14 -26 14 -41c0 -22 -10 -46 -28 -63c-15 -12 -32 -18 -49 -18s-33 6 -43 18c-9 11 -14 26 -14 41c0 22 10 46 28 63zM104 704
c14 11 32 17 49 17s32 -6 43 -17c9 -12 14 -26 14 -41c0 -22 -10 -46 -28 -63c-15 -12 -32 -18 -49 -18s-32 6 -43 18c-9 11 -14 26 -14 41c0 22 10 46 28 63zM277 500l-70 -500h-122l70 500h122zM569 500l-70 -500h-122l70 500h122z" />
    <glyph glyph-name="halfcaron" horiz-adv-x="357" 
d="M301 800l89 -14l-101 -234l-47 4z" />
    <glyph glyph-name="uniF6C3" unicode="&#xf6c3;" horiz-adv-x="242" 
d="M39 -62c13 11 29 16 45 16c15 0 30 -5 41 -16c14 -17 20 -37 20 -61c0 -72 -57 -166 -131 -216l-25 31c54 43 83 93 84 138h-7c-16 0 -30 6 -40 16c-8 10 -13 23 -13 36c0 20 9 41 26 56z" />
    <glyph glyph-name="y.alt" horiz-adv-x="532" 
d="M339 -7l1 8v3l5 32c-7 -8 -41 -47 -131 -47c-91 0 -143 41 -143 132c0 12 1 25 3 39l48 340h133l-44 -312c-3 -21 -4 -38 -4 -53c0 -52 19 -67 61 -67c51 0 82 31 86 36l57 396h133l-75 -526c-24 -182 -157 -235 -264 -235c-131 0 -168 79 -168 79l40 54s34 -64 121 -64
c79 0 120 32 141 185z" />
    <glyph glyph-name="yacute.alt" horiz-adv-x="532" 
d="M339 -7l1 8v3l5 32c-7 -8 -41 -47 -131 -47c-91 0 -143 41 -143 132c0 12 1 25 3 39l48 340h133l-44 -312c-3 -21 -4 -38 -4 -53c0 -52 19 -67 61 -67c51 0 82 31 86 36l57 396h133l-75 -526c-24 -182 -157 -235 -264 -235c-131 0 -168 79 -168 79l40 54s34 -64 121 -64
c79 0 120 32 141 185zM397 730l104 -31l-139 -130l-56 9z" />
    <glyph glyph-name="ydieresis.alt" horiz-adv-x="532" 
d="M339 -7l1 8v3l5 32c-7 -8 -41 -47 -131 -47c-91 0 -143 41 -143 132c0 12 1 25 3 39l48 340h133l-44 -312c-3 -21 -4 -38 -4 -53c0 -52 19 -67 61 -67c51 0 82 31 86 36l57 396h133l-75 -526c-24 -182 -157 -235 -264 -235c-131 0 -168 79 -168 79l40 54s34 -64 121 -64
c79 0 120 32 141 185zM413 704c14 11 31 17 48 17s32 -6 44 -17c9 -12 14 -26 14 -41c0 -23 -10 -46 -29 -63c-15 -12 -33 -18 -49 -18c-17 0 -32 6 -42 18c-9 11 -14 26 -14 41c0 22 10 46 28 63zM227 704c14 11 32 17 49 17s32 -6 43 -17c9 -12 14 -26 14 -41
c0 -23 -10 -46 -29 -63c-15 -12 -32 -18 -48 -18s-32 6 -43 18c-9 11 -14 26 -14 41c0 22 10 46 28 63z" />
    <glyph glyph-name="afii10066.alt" horiz-adv-x="525" 
d="M535 305c0 -192 -109 -316 -275 -316c-123 0 -200 73 -200 206c0 137 52 241 147 288c-31 20 -53 51 -53 100c0 82 55 177 192 177c60 0 91 -11 137 -11c43 0 57 23 57 23l47 -15s-27 -128 -139 -128c-36 0 -85 15 -128 15c-50 0 -93 -27 -93 -75c0 -36 36 -55 84 -59
c7 0 15 1 23 1c123 0 201 -73 201 -206zM321 444c-77 0 -123 -88 -123 -285c0 -65 22 -104 76 -104c76 0 123 89 123 286c0 66 -22 103 -76 103z" />
    <glyph glyph-name="afii10069.alt" horiz-adv-x="529" 
d="M530 71l-46 -219h-63l-3 148h-307l-51 -148h-64l20 219h67c60 115 85 244 111 429h325l-61 -429h72zM261 429c-11 -133 -41 -251 -94 -358h159l50 358h-115z" />
    <glyph glyph-name="afii10085.alt" horiz-adv-x="532" 
d="M339 -7l1 8v3l5 32c-7 -8 -41 -47 -131 -47c-91 0 -143 41 -143 132c0 12 1 25 3 39l48 340h133l-44 -312c-3 -21 -4 -38 -4 -53c0 -52 19 -67 61 -67c51 0 82 31 86 36l57 396h133l-75 -526c-24 -182 -157 -235 -264 -235c-131 0 -168 79 -168 79l40 54s34 -64 121 -64
c79 0 120 32 141 185z" />
    <glyph glyph-name="afii10110.alt" horiz-adv-x="532" 
d="M339 -7l1 8v3l5 32c-7 -8 -41 -47 -131 -47c-91 0 -143 41 -143 132c0 12 1 25 3 39l48 340h133l-44 -312c-3 -21 -4 -38 -4 -53c0 -52 19 -67 61 -67c51 0 82 31 86 36l57 396h133l-75 -526c-24 -182 -157 -235 -264 -235c-131 0 -168 79 -168 79l40 54s34 -64 121 -64
c79 0 120 32 141 185zM360 636c80 0 91 55 91 55l1 4l65 -9s-13 -123 -168 -123c-120 0 -133 74 -133 107c0 9 1 16 1 16l67 9v-4s-4 -55 76 -55z" />
    <glyph glyph-name="g.alt" horiz-adv-x="543" 
d="M554 500l-74 -526c-26 -182 -157 -235 -264 -235c-132 0 -179 76 -179 76l44 57s40 -64 127 -64c80 0 119 32 141 185l1 7l4 23h-5s-32 -34 -113 -34c-111 0 -176 78 -176 208c0 181 108 314 247 314c102 0 121 -51 121 -51l28 40h98zM286 65c50 0 77 30 78 32l41 289
c-1 5 -14 51 -72 51c-78 0 -133 -78 -133 -251c0 -85 29 -121 86 -121z" />
    <glyph glyph-name="gbreve.alt" horiz-adv-x="543" 
d="M554 500l-74 -526c-26 -182 -157 -235 -264 -235c-132 0 -179 76 -179 76l44 57s40 -64 127 -64c80 0 119 32 141 185l1 7l4 23h-5s-32 -34 -113 -34c-111 0 -176 78 -176 208c0 181 108 314 247 314c102 0 121 -51 121 -51l28 40h98zM286 65c50 0 77 30 78 32l41 289
c-1 5 -14 51 -72 51c-78 0 -133 -78 -133 -251c0 -85 29 -121 86 -121zM380 636c80 0 91 55 91 55l1 4l65 -9s-13 -123 -168 -123c-120 0 -133 74 -133 107c0 9 1 16 1 16l67 9v-4s-4 -55 76 -55z" />
    <glyph glyph-name="gcommaaccent.alt" horiz-adv-x="543" 
d="M554 500l-74 -526c-26 -182 -157 -235 -264 -235c-132 0 -179 76 -179 76l44 57s40 -64 127 -64c80 0 119 32 141 185l1 7l4 23h-5s-32 -34 -113 -34c-111 0 -176 78 -176 208c0 181 108 314 247 314c102 0 121 -51 121 -51l28 40h98zM286 65c50 0 77 30 78 32l41 289
c-1 5 -14 51 -72 51c-78 0 -133 -78 -133 -251c0 -85 29 -121 86 -121zM373 577c-13 -11 -29 -16 -45 -16c-15 0 -30 5 -41 16c-14 17 -20 37 -20 61c0 72 57 166 131 216l25 -31c-54 -43 -83 -93 -84 -138h7c16 0 30 -6 40 -16c8 -10 13 -23 13 -36c0 -20 -9 -41 -26 -56z
" />
    <glyph glyph-name="zero.onum" horiz-adv-x="587" 
d="M365 511c173 0 216 -106 216 -207c0 -204 -116 -315 -289 -315c-151 0 -217 84 -217 212c0 175 90 310 290 310zM356 444c-93 0 -144 -87 -144 -273c0 -76 27 -115 89 -115c85 0 143 82 143 269c0 72 -15 119 -88 119z" />
    <glyph glyph-name="one.onum" horiz-adv-x="398" 
d="M265 500h104l-70 -500h-131l58 414c-49 -17 -114 -38 -122 -38l3 71c14 0 158 53 158 53z" />
    <glyph glyph-name="two.onum" horiz-adv-x="484" 
d="M465 116l-16 -116h-422l13 89l53 15c43 25 227 138 227 267c0 50 -24 68 -68 68c-57 0 -137 -54 -137 -54l-7 60s91 65 191 65c115 0 172 -52 172 -127c0 -131 -158 -223 -257 -267h251z" />
    <glyph glyph-name="three.onum" horiz-adv-x="483" 
d="M195 130l-34 46l187 198h-240l25 126h351l-12 -84l-187 -193h7c91 0 161 -56 161 -158c0 -148 -129 -226 -252 -226c-141 0 -185 81 -185 81l44 59s48 -69 132 -69c83 0 122 66 122 177c0 48 -20 72 -61 72c-27 0 -58 -29 -58 -29z" />
    <glyph glyph-name="four.onum" horiz-adv-x="523" 
d="M270 510l126 -10c-60 -155 -195 -330 -273 -429h193l14 98l69 233h100l-47 -331h64l-9 -56l-65 -14l-21 -151h-136l21 150h-269l2 64c65 98 176 301 231 446z" />
    <glyph glyph-name="five.onum" horiz-adv-x="479" 
d="M475 500l-25 -130h-237l-29 -119c17 5 37 9 60 9c123 0 206 -53 206 -167c0 -175 -140 -254 -269 -254c-132 0 -182 79 -182 79l47 56s44 -64 130 -64c85 0 134 71 134 187c0 70 -34 99 -87 99c-36 0 -65 -16 -79 -31l-6 -10l-46 7l85 338h298z" />
    <glyph glyph-name="six.onum" horiz-adv-x="530" 
d="M516 621l-26 -67s-58 36 -109 36c-73 0 -125 -47 -154 -211c33 23 72 42 119 42c106 0 180 -54 180 -170c0 -14 -1 -28 -3 -43c-20 -137 -114 -219 -252 -219c-121 0 -195 67 -195 217c0 65 17 137 22 155c56 217 162 299 279 299c73 0 139 -39 139 -39zM321 358
c-39 0 -69 -25 -89 -47c-4 -17 -12 -57 -15 -92c-3 -24 -4 -46 -4 -64c0 -73 22 -100 67 -100c58 0 86 44 100 147c3 24 5 45 5 64c0 61 -19 92 -64 92z" />
    <glyph glyph-name="seven.onum" horiz-adv-x="451" 
d="M506 500l-15 -105c-104 -148 -217 -384 -274 -545h-144c68 166 208 366 313 517h-299l19 133h400z" />
    <glyph glyph-name="eight.onum" horiz-adv-x="536" 
d="M557 510c0 -105 -78 -156 -148 -180c54 -14 118 -49 118 -133c0 -149 -102 -208 -261 -208c-120 0 -208 39 -208 152c0 109 84 162 159 188c-48 17 -102 54 -102 132c0 128 104 199 246 199c109 0 196 -50 196 -150zM379 210c0 55 -30 80 -57 90
c-25 -5 -115 -34 -115 -164c0 -60 26 -85 70 -85c64 0 102 59 102 159zM256 445c0 -53 24 -77 48 -89c30 7 112 39 112 165c0 55 -24 77 -66 77c-61 0 -94 -63 -94 -153z" />
    <glyph glyph-name="nine.onum" horiz-adv-x="530" 
d="M83 -109l35 61s44 -43 108 -43c65 0 118 57 145 204c-26 -22 -61 -40 -111 -40c-105 0 -187 48 -187 168c0 156 100 269 253 269c120 0 198 -66 198 -216c0 -50 -8 -106 -14 -130c-55 -232 -153 -325 -277 -325c-105 0 -150 52 -150 52zM277 136c49 0 82 32 96 72
c5 26 9 64 11 92c2 17 2 32 2 45c0 76 -23 99 -65 99c-65 0 -109 -77 -109 -216c0 -57 19 -92 65 -92z" />
    <glyph glyph-name="dollar.onum" horiz-adv-x="417" 
d="M36 60l45 52s35 -57 102 -57c57 0 84 35 84 77c0 87 -173 74 -173 211c0 96 67 148 148 163l29 125h65v-125c52 -11 93 -37 93 -37l-21 -67s-62 44 -111 44c-47 0 -73 -27 -73 -63c0 -89 187 -84 187 -220c0 -87 -52 -154 -160 -170l-26 -112h-65v111
c-97 12 -124 68 -124 68z" />
    <glyph glyph-name="cent.onum" horiz-adv-x="446" 
d="M464 400c0 0 -66 44 -112 44c-100 0 -150 -94 -150 -272c0 -88 47 -116 97 -116c79 0 114 62 114 62l43 -30s-38 -87 -156 -98l-26 -116h-66v123c-93 21 -148 93 -148 205c0 163 81 279 219 304l27 118h66v-117c60 -10 111 -43 111 -43z" />
    <glyph glyph-name="sterling.onum" horiz-adv-x="501" 
d="M469 280l-10 -68h-184c-16 -46 -38 -77 -69 -103h288l-15 -109h-439l15 109h70c29 26 33 58 36 107l-89 9l8 55h85c0 7 1 15 2 23c10 122 74 208 209 208c67 0 129 -38 129 -38l-23 -65s-56 30 -92 30c-51 0 -78 -34 -90 -117c-2 -15 -5 -28 -7 -41h176z" />
    <glyph glyph-name="yen.onum" horiz-adv-x="493" 
d="M467 190l-9 -68h-130l-17 -122h-133l17 123l-124 12l7 55h127l2 16l-114 344h148l72 -244h2l138 244h92l-203 -328l-5 -32h130z" />
    <glyph glyph-name="Euro.onum" horiz-adv-x="509" 
d="M461 120l28 -43s-52 -88 -182 -88c-134 0 -205 68 -205 202c0 8 0 17 1 25l-54 11l8 54h54c28 138 125 230 264 230c90 0 144 -50 144 -50l-26 -57s-51 40 -107 40c-84 0 -125 -56 -139 -163h249l-10 -67h-245v-37c0 -88 37 -121 94 -121c76 0 126 64 126 64z" />
    <glyph glyph-name="uni20B4.onum" horiz-adv-x="447" 
d="M437 275l-8 -61h-178c-14 -14 -43 -47 -43 -98c0 -46 28 -60 66 -60c59 0 108 54 108 54l20 -47s-50 -74 -163 -74c-96 0 -162 37 -162 104c0 60 39 98 79 122l-82 4l9 61h186c16 17 45 55 45 107c0 43 -20 57 -61 57c-40 0 -103 -35 -103 -35l-12 54s78 48 154 48
c90 0 152 -39 152 -105c0 -60 -41 -101 -83 -128z" />
    <glyph glyph-name="afii61352.onum" horiz-adv-x="1035" 
d="M575 550l-77 -552l-100 -7l-191 391h-3v-33l-50 -349h-76l77 550h129l167 -352h2l1 30l45 322h76zM1056 424c0 -133 -82 -220 -220 -220c-112 0 -166 59 -166 155c0 132 73 221 219 221c112 0 167 -59 167 -156zM882 528c-51 0 -90 -46 -90 -195c0 -52 16 -79 51 -79
c51 0 90 48 90 196c0 51 -16 78 -51 78zM954 92l-10 -74h-271l10 74h271z" />
    <glyph glyph-name="afii00208" unicode="&#x2015;" horiz-adv-x="678" 
d="M692 312l-10 -74h-618l10 74h618z" />
    <glyph glyph-name="minus" unicode="&#x2212;" 
d="M538 312l-10 -74h-464l10 74h464z" />
    <glyph glyph-name="uni20B4" unicode="&#x20b4;" horiz-adv-x="495" 
d="M108 357l8 57h220c19 31 31 67 31 111c0 45 -24 62 -68 62c-39 0 -97 -28 -97 -28l-9 67s76 34 144 34c101 0 158 -58 158 -128c0 -51 -23 -88 -56 -121l61 -3l-7 -51h-119c-24 -18 -48 -37 -70 -57h181l-8 -57h-220c-19 -31 -31 -67 -31 -111c0 -48 28 -70 77 -70
c65 0 102 40 102 40l21 -53s-43 -60 -160 -60c-90 0 -169 38 -169 130c0 52 26 91 61 126l-65 5l7 50h123c22 18 45 36 66 57h-181z" />
    <glyph glyph-name="afii10086.hist" horiz-adv-x="380" 
d="M83 -29l32 229h-47l8 60l49 8l22 155h-48l9 60l48 8l12 80c17 113 67 189 184 189c57 0 107 -34 107 -34l-24 -57s-38 24 -71 24c-29 0 -49 -23 -65 -137l-8 -56h126l-11 -77h-126l-21 -146h126l-10 -77h-127l-32 -229c-24 -171 -108 -232 -209 -232c-64 0 -88 30 -88 30
l30 60s23 -19 51 -19c42 0 66 38 83 161z" />
    <glyph glyph-name="afii10097.hist" horiz-adv-x="564" 
d="M562 500l-70 -500h-105l-14 45c-4 -6 -46 -56 -143 -56c-103 0 -178 77 -178 203c0 180 108 319 265 319c85 0 113 -47 113 -47l26 36h106zM335 437c-73 0 -121 -47 -139 -153l202 -3l18 123l-1 -1s-15 34 -80 34zM277 64c63 0 94 42 97 46l15 104h-200
c-1 -13 -1 -26 -1 -40c0 -81 34 -110 89 -110z" />
    <glyph glyph-name="a.sc" horiz-adv-x="521" 
d="M265 500h146l87 -500h-140l-23 132h-168l-63 -132h-80zM295 408h-2l-98 -217h131z" />
    <glyph glyph-name="b.sc" horiz-adv-x="485" 
d="M66 0l70 500h170c128 0 175 -61 175 -119c0 -62 -45 -99 -91 -121c48 -17 82 -51 82 -101c0 -88 -79 -159 -230 -159h-176zM290 226h-61l-23 -166h42c57 0 92 28 92 111c0 39 -19 55 -50 55zM237 282h54c21 0 63 32 63 107c0 38 -24 51 -59 51h-36z" />
    <glyph glyph-name="c.sc" horiz-adv-x="483" 
d="M505 460l-26 -64s-67 45 -121 45c-89 0 -150 -73 -150 -257c0 -89 42 -125 107 -125c76 0 129 65 129 65l35 -44s-54 -91 -194 -91c-145 0 -220 89 -220 216c0 179 105 306 283 306c89 0 157 -51 157 -51z" />
    <glyph glyph-name="d.sc" horiz-adv-x="542" 
d="M321 500c146 0 226 -72 226 -207c0 -185 -99 -293 -295 -293h-186l70 500h185zM312 434h-54l-51 -368h55c87 0 144 64 144 258c0 79 -30 110 -94 110z" />
    <glyph glyph-name="e.sc" horiz-adv-x="444" 
d="M409 67l-10 -67h-333l70 500h325l-9 -68h-193l-21 -147h167l-9 -65h-167l-22 -153h202z" />
    <glyph glyph-name="f.sc" horiz-adv-x="418" 
d="M407 260l-9 -65h-173l-27 -195h-132l70 500h329l-10 -68h-196l-25 -172h173z" />
    <glyph glyph-name="g.sc" horiz-adv-x="521" 
d="M507 267l-37 -267h-57l-26 39c-26 -28 -65 -50 -127 -50c-127 0 -195 81 -195 212c0 190 111 310 285 310c89 0 158 -51 158 -51l-27 -64s-68 45 -125 45c-94 0 -148 -75 -148 -258c0 -90 34 -124 86 -124c57 0 76 47 80 64l11 81h-69l9 63h182z" />
    <glyph glyph-name="h.sc" horiz-adv-x="550" 
d="M554 500l-70 -500h-132l31 221h-154l-31 -221h-132l70 500h132l-30 -213h154l30 213h132z" />
    <glyph glyph-name="i.sc" horiz-adv-x="264" 
d="M268 500l-70 -500h-132l70 500h132z" />
    <glyph glyph-name="j.sc" horiz-adv-x="334" 
d="M44 78c0 0 23 -22 55 -22c36 0 55 25 69 117l46 327h132l-46 -327c-19 -135 -75 -184 -181 -184c-76 0 -103 37 -103 37z" />
    <glyph glyph-name="k.sc" horiz-adv-x="528" 
d="M66 0l70 500h131l-30 -214l45 25l168 189h91l-175 -186l146 -314h-168l-94 221l-24 -13l-29 -208h-131z" />
    <glyph glyph-name="l.sc" horiz-adv-x="406" 
d="M395 67l-9 -67h-320l70 500h132l-60 -433h187z" />
    <glyph glyph-name="m.sc" horiz-adv-x="713" 
d="M710 500l-63 -500h-129l42 352h-3l-177 -352h-98l-78 352h-4l-53 -352h-81l77 500h160l81 -339h4l174 339h148z" />
    <glyph glyph-name="n.sc" horiz-adv-x="542" 
d="M546 500l-70 -500h-103l-181 349h-3l-1 -55l-41 -294h-81l70 500h136l154 -304h3l-1 41l37 263h81z" />
    <glyph glyph-name="o.sc" horiz-adv-x="553" 
d="M558 307c0 -203 -125 -318 -285 -318c-138 0 -207 87 -207 216c0 176 99 306 280 306c159 0 212 -104 212 -204zM417 333c0 59 -17 112 -80 112c-80 0 -134 -88 -134 -278c0 -72 26 -111 80 -111c74 0 134 80 134 277z" />
    <glyph glyph-name="p.sc" horiz-adv-x="459" 
d="M66 0l70 500h174c107 0 173 -47 173 -145c0 -151 -125 -207 -219 -207h-46l-20 -148h-132zM285 439h-26l-32 -232h30c49 0 90 45 90 168c0 49 -29 64 -62 64z" />
    <glyph glyph-name="q.sc" horiz-adv-x="553" 
d="M471 -172c-15 -5 -31 -8 -46 -8c-89 0 -169 86 -192 172c-112 15 -167 97 -167 213c0 176 99 306 280 306c140 0 213 -82 213 -211c0 -150 -76 -270 -211 -302c20 -57 57 -118 105 -118c6 0 13 1 20 3zM417 329c0 73 -26 116 -80 116c-80 0 -134 -91 -134 -277
c0 -71 26 -112 80 -112c84 0 134 91 134 273z" />
    <glyph glyph-name="r.sc" horiz-adv-x="495" 
d="M66 0l70 500h175c110 0 174 -51 174 -137c0 -73 -47 -125 -102 -155l88 -208h-151l-64 178h-33l-25 -178h-132zM289 440h-30l-28 -200h30c58 0 89 45 89 140c0 41 -21 60 -61 60z" />
    <glyph glyph-name="s.sc" horiz-adv-x="414" 
d="M422 464l-26 -60s-48 42 -98 42c-35 0 -61 -22 -61 -62c0 -81 166 -90 166 -221c0 -115 -92 -174 -191 -174c-135 0 -174 85 -174 85l43 55s43 -72 115 -72c40 0 67 28 67 63c0 73 -163 90 -163 217c0 108 87 174 190 174c81 0 132 -47 132 -47z" />
    <glyph glyph-name="t.sc" horiz-adv-x="450" 
d="M498 500l-9 -68h-136l-61 -432h-133l61 432h-136l9 68h405z" />
    <glyph glyph-name="u.sc" horiz-adv-x="509" 
d="M254 -11c-118 0 -172 60 -172 158c0 14 1 28 3 43l43 310h133l-39 -281c-4 -27 -6 -49 -6 -68c0 -66 23 -91 69 -91c65 0 99 48 115 159l40 281h81l-44 -310c-17 -120 -73 -201 -223 -201z" />
    <glyph glyph-name="v.sc" horiz-adv-x="491" 
d="M311 0h-146l-81 500h140l54 -405h3l181 405h83z" />
    <glyph glyph-name="w.sc" horiz-adv-x="727" 
d="M698 500h83l-203 -500h-113l-51 341h-3l-145 -341h-114l-68 500h141l37 -351h2l145 351h107l50 -349h3z" />
    <glyph glyph-name="x.sc" horiz-adv-x="499" 
d="M12 0l195 241l-117 259h166l60 -164h3l122 164h94l-180 -227l132 -273h-165l-75 178h-3l-133 -178h-99z" />
    <glyph glyph-name="y.sc" horiz-adv-x="445" 
d="M291 284h1l129 216h92l-194 -299l-28 -201h-132l26 187l-114 313h148z" />
    <glyph glyph-name="z.sc" horiz-adv-x="487" 
d="M509 500l-7 -56l-289 -377h235l-10 -67h-394l8 54l289 379h-219l9 67h378z" />
    <glyph glyph-name="agrave.sc" horiz-adv-x="521" 
d="M265 500h146l87 -500h-140l-23 132h-168l-63 -132h-80zM295 408h-2l-98 -217h131zM228 703l111 35l64 -147l-64 -17z" />
    <glyph glyph-name="aacute.sc" horiz-adv-x="521" 
d="M265 500h146l87 -500h-140l-23 132h-168l-63 -132h-80zM295 408h-2l-98 -217h131zM382 730l104 -31l-139 -130l-56 9z" />
    <glyph glyph-name="acircumflex.sc" horiz-adv-x="521" 
d="M265 500h146l87 -500h-140l-23 132h-168l-63 -132h-80zM295 408h-2l-98 -217h131zM402 753l80 -122l-34 -45l-92 85l-117 -85l-22 45l115 122h70z" />
    <glyph glyph-name="atilde.sc" horiz-adv-x="521" 
d="M265 500h146l87 -500h-140l-23 132h-168l-63 -132h-80zM295 408h-2l-98 -217h131zM503 705l31 -35s-36 -79 -123 -79c-64 0 -92 48 -149 48c-36 0 -63 -45 -63 -45l-31 36s49 90 135 90c73 0 94 -47 146 -47c36 0 54 32 54 32z" />
    <glyph glyph-name="adieresis.sc" horiz-adv-x="521" 
d="M265 500h146l87 -500h-140l-23 132h-168l-63 -132h-80zM295 408h-2l-98 -217h131zM405 704c14 11 31 17 48 17s32 -6 44 -17c9 -12 14 -26 14 -41c0 -23 -10 -46 -29 -63c-15 -12 -33 -18 -49 -18c-17 0 -32 6 -42 18c-9 11 -14 26 -14 41c0 22 10 46 28 63zM219 704
c14 11 32 17 49 17s32 -6 43 -17c9 -12 14 -26 14 -41c0 -23 -10 -46 -29 -63c-15 -12 -32 -18 -48 -18s-32 6 -43 18c-9 11 -14 26 -14 41c0 22 10 46 28 63z" />
    <glyph glyph-name="aring.sc" horiz-adv-x="521" 
d="M265 500h146l87 -500h-140l-23 132h-168l-63 -132h-80zM295 408h-2l-98 -217h131zM459 672c0 -76 -50 -124 -119 -124c-57 0 -93 34 -93 91c0 78 52 124 119 124c53 0 93 -33 93 -91zM414 668c0 36 -24 53 -53 53c-37 0 -68 -24 -68 -76c0 -36 23 -54 53 -54
c40 0 68 26 68 77z" />
    <glyph glyph-name="ae.sc" horiz-adv-x="689" 
d="M354 500h360l-9 -67h-193l-21 -148h167l-9 -65h-168l-21 -153h202l-10 -67h-333l19 138h-160l-97 -138h-83zM217 197h129l33 236h-6z" />
    <glyph glyph-name="ccedilla.sc" horiz-adv-x="483" 
d="M505 460l-26 -64s-67 45 -121 45c-89 0 -150 -73 -150 -257c0 -89 42 -125 107 -125c76 0 129 65 129 65l35 -44s-54 -91 -194 -91h-6l-10 -47c-2 -6 76 -14 76 -81c0 -62 -43 -112 -130 -112c-74 0 -89 46 -89 46l30 29s15 -29 50 -29c37 0 60 19 60 63
c0 41 -54 40 -54 44l23 91c-112 18 -170 100 -170 212c0 179 105 306 283 306c89 0 157 -51 157 -51z" />
    <glyph glyph-name="egrave.sc" horiz-adv-x="444" 
d="M409 67l-10 -67h-333l70 500h325l-9 -68h-193l-21 -147h167l-9 -65h-167l-22 -153h202zM211 703l111 35l64 -147l-64 -17z" />
    <glyph glyph-name="eacute.sc" horiz-adv-x="444" 
d="M409 67l-10 -67h-333l70 500h325l-9 -68h-193l-21 -147h167l-9 -65h-167l-22 -153h202zM364 730l104 -31l-139 -130l-56 9z" />
    <glyph glyph-name="ecircumflex.sc" horiz-adv-x="444" 
d="M409 67l-10 -67h-333l70 500h325l-9 -68h-193l-21 -147h167l-9 -65h-167l-22 -153h202zM379 753l80 -122l-34 -45l-92 85l-117 -85l-22 45l115 122h70z" />
    <glyph glyph-name="edieresis.sc" horiz-adv-x="444" 
d="M409 67l-10 -67h-333l70 500h325l-9 -68h-193l-21 -147h167l-9 -65h-167l-22 -153h202zM370 704c14 11 31 17 48 17s32 -6 44 -17c9 -12 14 -26 14 -41c0 -23 -10 -46 -29 -63c-15 -12 -33 -18 -49 -18c-17 0 -32 6 -42 18c-9 11 -14 26 -14 41c0 22 10 46 28 63z
M184 704c14 11 32 17 49 17s32 -6 43 -17c9 -12 14 -26 14 -41c0 -23 -10 -46 -29 -63c-15 -12 -32 -18 -48 -18s-32 6 -43 18c-9 11 -14 26 -14 41c0 22 10 46 28 63z" />
    <glyph glyph-name="igrave.sc" horiz-adv-x="264" 
d="M268 500l-70 -500h-132l70 500h132zM91 703l111 35l64 -147l-64 -17z" />
    <glyph glyph-name="iacute.sc" horiz-adv-x="264" 
d="M268 500l-70 -500h-132l70 500h132zM245 730l104 -31l-139 -130l-56 9z" />
    <glyph glyph-name="icircumflex.sc" horiz-adv-x="264" 
d="M268 500l-70 -500h-132l70 500h132zM266 753l80 -122l-34 -45l-92 85l-117 -85l-22 45l115 122h70z" />
    <glyph glyph-name="idieresis.sc" horiz-adv-x="264" 
d="M268 500l-70 -500h-132l70 500h132zM269 704c14 11 31 17 48 17s32 -6 44 -17c9 -12 14 -26 14 -41c0 -23 -10 -46 -29 -63c-15 -12 -33 -18 -49 -18c-17 0 -32 6 -42 18c-9 11 -14 26 -14 41c0 22 10 46 28 63zM83 704c14 11 32 17 49 17s32 -6 43 -17
c9 -12 14 -26 14 -41c0 -23 -10 -46 -29 -63c-15 -12 -32 -18 -48 -18s-32 6 -43 18c-9 11 -14 26 -14 41c0 22 10 46 28 63z" />
    <glyph glyph-name="eth.sc" horiz-adv-x="552" 
d="M321 500c146 0 226 -72 226 -207c0 -185 -99 -293 -295 -293h-186l30 217h-40l8 62h41l31 221h185zM312 434h-54l-22 -155h99l-9 -62h-98l-21 -151h55c87 0 144 64 144 258c0 79 -30 110 -94 110z" />
    <glyph glyph-name="ntilde.sc" horiz-adv-x="542" 
d="M546 500l-70 -500h-103l-181 349h-3l-1 -55l-41 -294h-81l70 500h136l154 -304h3l-1 41l37 263h81zM526 696l31 -35s-36 -79 -123 -79c-64 0 -92 48 -149 48c-36 0 -63 -45 -63 -45l-31 36s49 90 135 90c73 0 94 -47 146 -47c36 0 54 32 54 32z" />
    <glyph glyph-name="ograve.sc" horiz-adv-x="553" 
d="M558 307c0 -203 -125 -318 -285 -318c-138 0 -207 87 -207 216c0 176 99 306 280 306c159 0 212 -104 212 -204zM417 333c0 59 -17 112 -80 112c-80 0 -134 -88 -134 -278c0 -72 26 -111 80 -111c74 0 134 80 134 277zM236 703l111 35l64 -147l-64 -17z" />
    <glyph glyph-name="oacute.sc" horiz-adv-x="553" 
d="M558 307c0 -203 -125 -318 -285 -318c-138 0 -207 87 -207 216c0 176 99 306 280 306c159 0 212 -104 212 -204zM417 333c0 59 -17 112 -80 112c-80 0 -134 -88 -134 -278c0 -72 26 -111 80 -111c74 0 134 80 134 277zM390 730l104 -31l-139 -130l-56 9z" />
    <glyph glyph-name="ocircumflex.sc" horiz-adv-x="553" 
d="M558 307c0 -203 -125 -318 -285 -318c-138 0 -207 87 -207 216c0 176 99 306 280 306c159 0 212 -104 212 -204zM417 333c0 59 -17 112 -80 112c-80 0 -134 -88 -134 -278c0 -72 26 -111 80 -111c74 0 134 80 134 277zM410 753l80 -122l-34 -45l-92 85l-117 -85l-22 45
l115 122h70z" />
    <glyph glyph-name="otilde.sc" horiz-adv-x="553" 
d="M558 307c0 -203 -125 -318 -285 -318c-138 0 -207 87 -207 216c0 176 99 306 280 306c159 0 212 -104 212 -204zM417 333c0 59 -17 112 -80 112c-80 0 -134 -88 -134 -278c0 -72 26 -111 80 -111c74 0 134 80 134 277zM516 705l31 -35s-36 -79 -123 -79
c-64 0 -92 48 -149 48c-36 0 -63 -45 -63 -45l-31 36s49 90 135 90c73 0 94 -47 146 -47c36 0 54 32 54 32z" />
    <glyph glyph-name="odieresis.sc" horiz-adv-x="553" 
d="M558 307c0 -203 -125 -318 -285 -318c-138 0 -207 87 -207 216c0 176 99 306 280 306c159 0 212 -104 212 -204zM417 333c0 59 -17 112 -80 112c-80 0 -134 -88 -134 -278c0 -72 26 -111 80 -111c74 0 134 80 134 277zM413 704c14 11 31 17 48 17s32 -6 44 -17
c9 -12 14 -26 14 -41c0 -23 -10 -46 -29 -63c-15 -12 -33 -18 -49 -18c-17 0 -32 6 -42 18c-9 11 -14 26 -14 41c0 22 10 46 28 63zM227 704c14 11 32 17 49 17s32 -6 43 -17c9 -12 14 -26 14 -41c0 -23 -10 -46 -29 -63c-15 -12 -32 -18 -48 -18s-32 6 -43 18
c-9 11 -14 26 -14 41c0 22 10 46 28 63z" />
    <glyph glyph-name="oslash.sc" horiz-adv-x="553" 
d="M558 307c0 -203 -125 -318 -285 -318c-29 0 -55 4 -78 11l-50 -85l-38 11l53 89c-63 35 -94 103 -94 190c0 176 99 306 280 306c38 0 70 -6 96 -17l38 64l39 -10l-42 -71c59 -39 81 -105 81 -170zM203 167c0 -25 3 -46 9 -63l184 312c-12 18 -31 29 -59 29
c-80 0 -134 -88 -134 -278zM417 333c0 13 -1 26 -3 38l-178 -301c12 -10 28 -14 47 -14c74 0 134 80 134 277z" />
    <glyph glyph-name="ugrave.sc" horiz-adv-x="509" 
d="M254 -11c-118 0 -172 60 -172 158c0 14 1 28 3 43l43 310h133l-39 -281c-4 -27 -6 -49 -6 -68c0 -66 23 -91 69 -91c65 0 99 48 115 159l40 281h81l-44 -310c-17 -120 -73 -201 -223 -201zM257 703l111 35l64 -147l-64 -17z" />
    <glyph glyph-name="uacute.sc" horiz-adv-x="509" 
d="M254 -11c-118 0 -172 60 -172 158c0 14 1 28 3 43l43 310h133l-39 -281c-4 -27 -6 -49 -6 -68c0 -66 23 -91 69 -91c65 0 99 48 115 159l40 281h81l-44 -310c-17 -120 -73 -201 -223 -201zM381 730l104 -31l-139 -130l-56 9z" />
    <glyph glyph-name="ucircumflex.sc" horiz-adv-x="509" 
d="M254 -11c-118 0 -172 60 -172 158c0 14 1 28 3 43l43 310h133l-39 -281c-4 -27 -6 -49 -6 -68c0 -66 23 -91 69 -91c65 0 99 48 115 159l40 281h81l-44 -310c-17 -120 -73 -201 -223 -201zM413 753l80 -122l-34 -45l-92 85l-117 -85l-22 45l115 122h70z" />
    <glyph glyph-name="udieresis.sc" horiz-adv-x="509" 
d="M254 -11c-118 0 -172 60 -172 158c0 14 1 28 3 43l43 310h133l-39 -281c-4 -27 -6 -49 -6 -68c0 -66 23 -91 69 -91c65 0 99 48 115 159l40 281h81l-44 -310c-17 -120 -73 -201 -223 -201zM415 704c14 11 31 17 48 17s32 -6 44 -17c9 -12 14 -26 14 -41
c0 -23 -10 -46 -29 -63c-15 -12 -33 -18 -49 -18c-17 0 -32 6 -42 18c-9 11 -14 26 -14 41c0 22 10 46 28 63zM229 704c14 11 32 17 49 17s32 -6 43 -17c9 -12 14 -26 14 -41c0 -23 -10 -46 -29 -63c-15 -12 -32 -18 -48 -18s-32 6 -43 18c-9 11 -14 26 -14 41
c0 22 10 46 28 63z" />
    <glyph glyph-name="yacute.sc" horiz-adv-x="445" 
d="M291 284h1l129 216h92l-194 -299l-28 -201h-132l26 187l-114 313h148zM357 730l104 -31l-139 -130l-56 9z" />
    <glyph glyph-name="thorn.sc" horiz-adv-x="486" 
d="M288 500l-10 -72h42c107 0 172 -47 172 -150c0 -160 -127 -220 -221 -220h-45l-8 -58h-133l60 428l10 72h133zM305 364h-36l-35 -244h36c47 0 91 38 91 176c0 54 -23 68 -56 68z" />
    <glyph glyph-name="amacron.sc" horiz-adv-x="521" 
d="M265 500h146l87 -500h-140l-23 132h-168l-63 -132h-80zM295 408h-2l-98 -217h131zM460 682l-7 -58h-215l8 58h214z" />
    <glyph glyph-name="abreve.sc" horiz-adv-x="521" 
d="M265 500h146l87 -500h-140l-23 132h-168l-63 -132h-80zM295 408h-2l-98 -217h131zM349 636c80 0 91 55 91 55l1 4l65 -9s-13 -123 -168 -123c-120 0 -133 74 -133 107c0 9 1 16 1 16l67 9v-4s-4 -55 76 -55z" />
    <glyph glyph-name="aogonek.sc" horiz-adv-x="521" 
d="M265 500h146l87 -500h-76c-28 -14 -89 -56 -89 -148c0 -42 27 -53 69 -53l-7 -49c-80 0 -150 16 -150 98c0 71 61 124 112 154l-22 130h-168l-63 -132h-80zM295 408h-2l-98 -217h131z" />
    <glyph glyph-name="cacute.sc" horiz-adv-x="483" 
d="M505 460l-26 -64s-67 45 -121 45c-89 0 -150 -73 -150 -257c0 -89 42 -125 107 -125c76 0 129 65 129 65l35 -44s-54 -91 -194 -91c-145 0 -220 89 -220 216c0 179 105 306 283 306c89 0 157 -51 157 -51zM382 730l104 -31l-139 -130l-56 9z" />
    <glyph glyph-name="ccaron.sc" horiz-adv-x="483" 
d="M505 460l-26 -64s-67 45 -121 45c-89 0 -150 -73 -150 -257c0 -89 42 -125 107 -125c76 0 129 65 129 65l35 -44s-54 -91 -194 -91c-145 0 -220 89 -220 216c0 179 105 306 283 306c89 0 157 -51 157 -51zM303 572l-96 138l47 35l95 -93l121 93l37 -39l-134 -134h-70z
" />
    <glyph glyph-name="dcaron.sc" horiz-adv-x="552" 
d="M321 500c146 0 226 -72 226 -207c0 -185 -99 -293 -295 -293h-186l70 500h185zM312 434h-54l-51 -368h55c87 0 144 64 144 258c0 79 -30 110 -94 110zM289 572l-96 138l47 35l95 -93l121 93l37 -39l-134 -134h-70z" />
    <glyph glyph-name="dcroat.sc" horiz-adv-x="552" 
d="M321 500c146 0 226 -72 226 -207c0 -185 -99 -293 -295 -293h-186l30 217h-40l8 62h41l31 221h185zM312 434h-54l-22 -155h99l-9 -62h-98l-21 -151h55c87 0 144 64 144 258c0 79 -30 110 -94 110z" />
    <glyph glyph-name="emacron.sc" horiz-adv-x="444" 
d="M409 67l-10 -67h-333l70 500h325l-9 -68h-193l-21 -147h167l-9 -65h-167l-22 -153h202zM439 682l-7 -58h-215l8 58h214z" />
    <glyph glyph-name="edotaccent.sc" horiz-adv-x="444" 
d="M409 67l-10 -67h-333l70 500h325l-9 -68h-193l-21 -147h167l-9 -65h-167l-22 -153h202zM278 708c16 14 36 20 55 20s37 -6 49 -19c10 -13 15 -28 15 -45c0 -25 -11 -51 -31 -70c-17 -13 -36 -19 -55 -19s-37 6 -49 20c-11 12 -16 28 -16 45c0 24 11 50 32 68z" />
    <glyph glyph-name="eogonek.sc" horiz-adv-x="444" 
d="M409 67l-10 -67h-15c-28 -14 -89 -56 -89 -148c0 -42 27 -53 69 -53l-7 -49c-80 0 -150 16 -150 98c0 69 58 121 108 152h-249l70 500h325l-9 -68h-193l-21 -147h167l-9 -65h-167l-22 -153h202z" />
    <glyph glyph-name="ecaron.sc" horiz-adv-x="444" 
d="M409 67l-10 -67h-333l70 500h325l-9 -68h-193l-21 -147h167l-9 -65h-167l-22 -153h202zM277 572l-96 138l47 35l95 -93l121 93l37 -39l-134 -134h-70z" />
    <glyph glyph-name="gbreve.sc" horiz-adv-x="521" 
d="M507 267l-37 -267h-57l-26 39c-26 -28 -65 -50 -127 -50c-127 0 -195 81 -195 212c0 190 111 310 285 310c89 0 158 -51 158 -51l-27 -64s-68 45 -125 45c-94 0 -148 -75 -148 -258c0 -90 34 -124 86 -124c57 0 76 47 80 64l11 81h-69l9 63h182zM365 636
c80 0 91 55 91 55l1 4l65 -9s-13 -123 -168 -123c-120 0 -133 74 -133 107c0 9 1 16 1 16l67 9v-4s-4 -55 76 -55z" />
    <glyph glyph-name="gcommaaccent.sc" horiz-adv-x="521" 
d="M507 267l-37 -267h-57l-26 39c-26 -28 -65 -50 -127 -50c-127 0 -195 81 -195 212c0 190 111 310 285 310c89 0 158 -51 158 -51l-27 -64s-68 45 -125 45c-94 0 -148 -75 -148 -258c0 -90 34 -124 86 -124c57 0 76 47 80 64l11 81h-69l9 63h182zM223 -62
c13 11 29 16 45 16c15 0 30 -5 41 -16c14 -17 20 -37 20 -61c0 -72 -57 -166 -131 -216l-25 31c54 43 83 93 84 138h-7c-16 0 -30 6 -40 16c-8 10 -13 23 -13 36c0 20 9 41 26 56z" />
    <glyph glyph-name="imacron.sc" horiz-adv-x="264" 
d="M268 500l-70 -500h-132l70 500h132zM329 682l-7 -58h-215l8 58h214z" />
    <glyph glyph-name="iogonek.sc" horiz-adv-x="264" 
d="M268 500l-70 -500h-67c-28 -14 -89 -56 -89 -148c0 -42 27 -53 69 -53l-7 -49c-80 0 -150 16 -150 98c0 71 61 123 112 154l70 498h132z" />
    <glyph glyph-name="dotlessi.sc" horiz-adv-x="264" 
d="M268 500l-70 -500h-132l70 500h132zM174 708c16 14 36 20 55 20s37 -6 49 -19c10 -13 15 -28 15 -45c0 -25 -11 -51 -31 -70c-17 -13 -36 -19 -55 -19s-37 6 -49 20c-11 12 -16 28 -16 45c0 24 11 50 32 68z" />
    <glyph glyph-name="kcommaaccent.sc" horiz-adv-x="529" 
d="M66 0l70 500h131l-30 -214l45 25l168 189h91l-175 -186l146 -314h-168l-94 221l-24 -13l-29 -208h-131zM218 -62c13 11 29 16 45 16c15 0 30 -5 41 -16c14 -17 20 -37 20 -61c0 -72 -57 -166 -131 -216l-25 31c54 43 83 93 84 138h-7c-16 0 -30 6 -40 16
c-8 10 -13 23 -13 36c0 20 9 41 26 56z" />
    <glyph glyph-name="lacute.sc" horiz-adv-x="417" 
d="M395 67l-9 -67h-320l70 500h132l-60 -433h187zM261 730l104 -31l-139 -130l-56 9z" />
    <glyph glyph-name="lcommaaccent.sc" horiz-adv-x="417" 
d="M395 67l-9 -67h-320l70 500h132l-60 -433h187zM179 -62c13 11 29 16 45 16c15 0 30 -5 41 -16c14 -17 20 -37 20 -61c0 -72 -57 -166 -131 -216l-25 31c54 43 83 93 84 138h-7c-16 0 -30 6 -40 16c-8 10 -13 23 -13 36c0 20 9 41 26 56z" />
    <glyph glyph-name="lcaron.sc" horiz-adv-x="417" 
d="M395 67l-9 -67h-320l70 500h132l-60 -433h187zM175 572l-96 138l47 35l95 -93l121 93l37 -39l-134 -134h-70z" />
    <glyph glyph-name="lslash.sc" horiz-adv-x="436" 
d="M425 67l-9 -67h-320l21 152l-34 -22l-26 39l69 44l40 287h132l-27 -193l78 50l25 -39l-111 -72l-25 -179h187z" />
    <glyph glyph-name="nacute.sc" horiz-adv-x="542" 
d="M546 500l-70 -500h-103l-181 349h-3l-1 -55l-41 -294h-81l70 500h136l154 -304h3l-1 41l37 263h81zM411 730l104 -31l-139 -130l-56 9z" />
    <glyph glyph-name="ncommaaccent.sc" horiz-adv-x="542" 
d="M546 500l-70 -500h-103l-181 349h-3l-1 -55l-41 -294h-81l70 500h136l154 -304h3l-1 41l37 263h81zM215 -62c13 11 29 16 45 16c15 0 30 -5 41 -16c14 -17 20 -37 20 -61c0 -72 -57 -166 -131 -216l-25 31c54 43 83 93 84 138h-7c-16 0 -30 6 -40 16c-8 10 -13 23 -13 36
c0 20 9 41 26 56z" />
    <glyph glyph-name="ncaron.sc" horiz-adv-x="542" 
d="M546 500l-70 -500h-103l-181 349h-3l-1 -55l-41 -294h-81l70 500h136l154 -304h3l-1 41l37 263h81zM340 572l-96 138l47 35l95 -93l121 93l37 -39l-134 -134h-70z" />
    <glyph glyph-name="omacron.sc" horiz-adv-x="553" 
d="M558 307c0 -203 -125 -318 -285 -318c-138 0 -207 87 -207 216c0 176 99 306 280 306c159 0 212 -104 212 -204zM417 333c0 59 -17 112 -80 112c-80 0 -134 -88 -134 -278c0 -72 26 -111 80 -111c74 0 134 80 134 277zM470 682l-7 -58h-215l8 58h214z" />
    <glyph glyph-name="ohungarumlaut.sc" horiz-adv-x="553" 
d="M558 307c0 -203 -125 -318 -285 -318c-138 0 -207 87 -207 216c0 176 99 306 280 306c159 0 212 -104 212 -204zM417 333c0 59 -17 112 -80 112c-80 0 -134 -88 -134 -278c0 -72 26 -111 80 -111c74 0 134 80 134 277zM389 585l75 153l89 -26l-116 -150zM234 585l74 153
l89 -26l-116 -150z" />
    <glyph glyph-name="oe.sc" horiz-adv-x="759" 
d="M558 307c0 -8 0 -15 -1 -22h162l-9 -65h-161c-3 -18 -8 -35 -14 -51l-14 -102h202l-10 -67h-334l1 8c-33 -12 -69 -19 -107 -19c-138 0 -207 87 -207 216c0 176 99 306 280 306c41 0 74 -7 102 -19l1 8h326l-9 -67h-194l-15 -105c0 -7 1 -14 1 -21zM417 333
c0 59 -17 112 -80 112c-80 0 -134 -88 -134 -278c0 -72 26 -111 80 -111c74 0 134 80 134 277z" />
    <glyph glyph-name="racute.sc" horiz-adv-x="495" 
d="M66 0l70 500h175c110 0 174 -51 174 -137c0 -73 -47 -125 -102 -155l88 -208h-151l-64 178h-33l-25 -178h-132zM289 440h-30l-28 -200h30c58 0 89 45 89 140c0 41 -21 60 -61 60zM351 730l104 -31l-139 -130l-56 9z" />
    <glyph glyph-name="rcommaaccent.sc" horiz-adv-x="495" 
d="M66 0l70 500h175c110 0 174 -51 174 -137c0 -73 -47 -125 -102 -155l88 -208h-151l-64 178h-33l-25 -178h-132zM289 440h-30l-28 -200h30c58 0 89 45 89 140c0 41 -21 60 -61 60zM198 -62c13 11 29 16 45 16c15 0 30 -5 41 -16c14 -17 20 -37 20 -61
c0 -72 -57 -166 -131 -216l-25 31c54 43 83 93 84 138h-7c-16 0 -30 6 -40 16c-8 10 -13 23 -13 36c0 20 9 41 26 56z" />
    <glyph glyph-name="rcaron.sc" horiz-adv-x="495" 
d="M66 0l70 500h175c110 0 174 -51 174 -137c0 -73 -47 -125 -102 -155l88 -208h-151l-64 178h-33l-25 -178h-132zM289 440h-30l-28 -200h30c58 0 89 45 89 140c0 41 -21 60 -61 60zM273 572l-96 138l47 35l95 -93l121 93l37 -39l-134 -134h-70z" />
    <glyph glyph-name="sacute.sc" horiz-adv-x="414" 
d="M422 464l-26 -60s-48 42 -98 42c-35 0 -61 -22 -61 -62c0 -81 166 -90 166 -221c0 -115 -92 -174 -191 -174c-135 0 -174 85 -174 85l43 55s43 -72 115 -72c40 0 67 28 67 63c0 73 -163 90 -163 217c0 108 87 174 190 174c81 0 132 -47 132 -47zM343 730l104 -31
l-139 -130l-56 9z" />
    <glyph glyph-name="scedilla.sc" horiz-adv-x="414" 
d="M422 464l-26 -60s-48 42 -98 42c-35 0 -61 -22 -61 -62c0 -81 166 -90 166 -221c0 -115 -91 -173 -190 -174l-9 -46c-2 -6 76 -14 76 -81c0 -62 -43 -112 -130 -112c-74 0 -89 46 -89 46l30 29s15 -29 50 -29c37 0 60 19 60 63c0 41 -54 40 -54 44l23 89
c-101 15 -132 82 -132 82l43 55s43 -72 115 -72c40 0 67 28 67 63c0 73 -163 90 -163 217c0 108 87 174 190 174c81 0 132 -47 132 -47z" />
    <glyph glyph-name="scaron.sc" horiz-adv-x="414" 
d="M422 464l-26 -60s-48 42 -98 42c-35 0 -61 -22 -61 -62c0 -81 166 -90 166 -221c0 -115 -92 -174 -191 -174c-135 0 -174 85 -174 85l43 55s43 -72 115 -72c40 0 67 28 67 63c0 73 -163 90 -163 217c0 108 87 174 190 174c81 0 132 -47 132 -47zM264 572l-96 138l47 35
l95 -93l121 93l37 -39l-134 -134h-70z" />
    <glyph glyph-name="tcommaaccent.sc" horiz-adv-x="450" 
d="M498 500l-9 -68h-136l-61 -432h-133l61 432h-136l9 68h405zM178 -62c13 11 29 16 45 16c15 0 30 -5 41 -16c14 -17 20 -37 20 -61c0 -72 -57 -166 -131 -216l-25 31c54 43 83 93 84 138h-7c-16 0 -30 6 -40 16c-8 10 -13 23 -13 36c0 20 9 41 26 56z" />
    <glyph glyph-name="tcaron.sc" horiz-adv-x="450" 
d="M498 500l-9 -68h-136l-61 -432h-133l61 432h-136l9 68h405zM264 572l-96 138l47 35l95 -93l121 93l37 -39l-134 -134h-70z" />
    <glyph glyph-name="umacron.sc" horiz-adv-x="509" 
d="M254 -11c-118 0 -172 60 -172 158c0 14 1 28 3 43l43 310h133l-39 -281c-4 -27 -6 -49 -6 -68c0 -66 23 -91 69 -91c65 0 99 48 115 159l40 281h81l-44 -310c-17 -120 -73 -201 -223 -201zM469 682l-7 -58h-215l8 58h214z" />
    <glyph glyph-name="uring.sc" horiz-adv-x="509" 
d="M254 -11c-118 0 -172 60 -172 158c0 14 1 28 3 43l43 310h133l-39 -281c-4 -27 -6 -49 -6 -68c0 -66 23 -91 69 -91c65 0 99 48 115 159l40 281h81l-44 -310c-17 -120 -73 -201 -223 -201zM463 672c0 -76 -50 -124 -119 -124c-57 0 -93 34 -93 91c0 78 52 124 119 124
c53 0 93 -33 93 -91zM418 668c0 36 -24 53 -53 53c-37 0 -68 -24 -68 -76c0 -36 23 -54 53 -54c40 0 68 26 68 77z" />
    <glyph glyph-name="uhungarumlaut.sc" horiz-adv-x="509" 
d="M254 -11c-118 0 -172 60 -172 158c0 14 1 28 3 43l43 310h133l-39 -281c-4 -27 -6 -49 -6 -68c0 -66 23 -91 69 -91c65 0 99 48 115 159l40 281h81l-44 -310c-17 -120 -73 -201 -223 -201zM377 585l75 153l89 -26l-116 -150zM222 585l74 153l89 -26l-116 -150z" />
    <glyph glyph-name="uogonek.sc" horiz-adv-x="509" 
d="M477 190c-15 -103 -58 -177 -164 -196c-30 -18 -78 -60 -78 -142c0 -42 27 -53 69 -53l-7 -49c-80 0 -150 16 -150 98c0 62 46 110 92 142c-108 5 -157 63 -157 157c0 14 1 28 3 43l43 310h133l-39 -281c-4 -27 -6 -49 -6 -68c0 -66 23 -91 69 -91c65 0 99 48 115 159
l40 281h81z" />
    <glyph glyph-name="ydieresis.sc" horiz-adv-x="445" 
d="M291 284h1l129 216h92l-194 -299l-28 -201h-132l26 187l-114 313h148zM387 704c14 11 31 17 48 17s32 -6 44 -17c9 -12 14 -26 14 -41c0 -23 -10 -46 -29 -63c-15 -12 -33 -18 -49 -18c-17 0 -32 6 -42 18c-9 11 -14 26 -14 41c0 22 10 46 28 63zM201 704
c14 11 32 17 49 17s32 -6 43 -17c9 -12 14 -26 14 -41c0 -23 -10 -46 -29 -63c-15 -12 -32 -18 -48 -18s-32 6 -43 18c-9 11 -14 26 -14 41c0 22 10 46 28 63z" />
    <glyph glyph-name="zacute.sc" horiz-adv-x="487" 
d="M509 500l-7 -56l-289 -377h235l-10 -67h-394l8 54l289 379h-219l9 67h378zM356 730l104 -31l-139 -130l-56 9z" />
    <glyph glyph-name="zdotaccent.sc" horiz-adv-x="487" 
d="M509 500l-7 -56l-289 -377h235l-10 -67h-394l8 54l289 379h-219l9 67h378zM279 708c16 14 36 20 55 20s37 -6 49 -19c10 -13 15 -28 15 -45c0 -25 -11 -51 -31 -70c-17 -13 -36 -19 -55 -19s-37 6 -49 20c-11 12 -16 28 -16 45c0 24 11 50 32 68z" />
    <glyph glyph-name="zcaron.sc" horiz-adv-x="487" 
d="M509 500l-7 -56l-289 -377h235l-10 -67h-394l8 54l289 379h-219l9 67h378zM282 572l-96 138l47 35l95 -93l121 93l37 -39l-134 -134h-70z" />
    <glyph glyph-name="germandbls.sc" horiz-adv-x="554" 
d="M350 212l-2 2l-58 52l107 167h-49c-59 0 -90 -30 -107 -148l-40 -285h-132l43 311c18 123 90 189 223 189h188l-6 -44l-113 -164h8c71 0 130 -42 130 -122c0 -122 -99 -181 -195 -181c-80 0 -107 30 -107 30l26 61s24 -21 64 -21c53 0 81 52 81 132c0 26 -10 41 -34 41
c-16 0 -27 -20 -27 -20z" />
    <glyph glyph-name="ff.sc" horiz-adv-x="837" 
d="M407 260l-9 -65h-173l-27 -195h-132l70 500h329l-10 -68h-196l-25 -172h173zM825 260l-9 -65h-173l-27 -195h-132l70 500h329l-10 -68h-196l-25 -172h173z" />
    <glyph glyph-name="fi.sc" horiz-adv-x="682" 
d="M407 260l-9 -65h-173l-27 -195h-132l70 500h329l-10 -68h-196l-25 -172h173zM686 500l-70 -500h-132l70 500h132z" />
    <glyph glyph-name="fl.sc" horiz-adv-x="825" 
d="M407 260l-9 -65h-173l-27 -195h-132l70 500h329l-10 -68h-196l-25 -172h173zM813 67l-9 -67h-320l70 500h132l-60 -433h187z" />
    <glyph glyph-name="afii10104_afii10104.sc" horiz-adv-x="527" 
d="M235 704c14 11 32 17 49 17s32 -6 43 -17c9 -12 14 -26 14 -41c0 -22 -10 -46 -28 -63c-15 -12 -32 -18 -49 -18s-33 6 -43 18c-9 11 -14 26 -14 41c0 22 10 46 28 63zM85 704c14 11 32 17 49 17s32 -6 43 -17c9 -12 14 -26 14 -41c0 -22 -10 -46 -28 -63
c-15 -12 -32 -18 -49 -18s-32 6 -43 18c-9 11 -14 26 -14 41c0 22 10 46 28 63zM535 704c14 11 31 17 48 17s32 -6 44 -17c9 -12 14 -26 14 -41c0 -23 -10 -46 -29 -63c-15 -12 -33 -18 -49 -18c-17 0 -32 6 -42 18c-9 11 -14 26 -14 41c0 22 10 46 28 63zM385 704
c14 11 31 17 48 17c16 0 32 -6 44 -17c9 -12 14 -26 14 -41c0 -23 -10 -46 -29 -63c-15 -12 -32 -18 -49 -18s-32 6 -43 18c-9 11 -14 25 -14 40c0 22 10 47 29 64zM268 500l-70 -500h-132l70 500h132zM532 500l-70 -500h-132l70 500h132z" />
    <glyph glyph-name="uni0450.sc" horiz-adv-x="444" 
d="M409 67l-10 -67h-333l70 500h325l-9 -68h-193l-21 -147h167l-9 -65h-167l-22 -153h202zM206 703l111 35l64 -147l-64 -17z" />
    <glyph glyph-name="afii10071.sc" horiz-adv-x="444" 
d="M409 67l-10 -67h-333l70 500h325l-9 -68h-193l-21 -147h167l-9 -65h-167l-22 -153h202zM370 704c14 11 31 17 48 17s32 -6 44 -17c9 -12 14 -26 14 -41c0 -23 -10 -46 -29 -63c-15 -12 -33 -18 -49 -18c-17 0 -32 6 -42 18c-9 11 -14 26 -14 41c0 22 10 46 28 63z
M184 704c14 11 32 17 49 17s32 -6 43 -17c9 -12 14 -26 14 -41c0 -23 -10 -46 -29 -63c-15 -12 -32 -18 -48 -18s-32 6 -43 18c-9 11 -14 26 -14 41c0 22 10 46 28 63z" />
    <glyph glyph-name="afii10099.sc" horiz-adv-x="570" 
d="M466 500l-10 -65h-116l-20 -150h2s36 31 117 31c88 0 121 -40 121 -105c0 -11 -1 -22 -3 -34l-2 -11c-19 -135 -73 -177 -162 -177c-53 0 -74 22 -74 22l13 52s16 -16 39 -16c19 1 37 12 48 91l2 14c2 18 4 32 4 43c0 39 -15 46 -46 46c-34 0 -60 -17 -69 -24l-30 -217
h-133l60 435h-116l10 65h365z" />
    <glyph glyph-name="afii10100.sc" horiz-adv-x="380" 
d="M433 433h-175l-60 -433h-132l70 500h306zM325 730l104 -31l-139 -130l-56 9z" />
    <glyph glyph-name="afii10101.sc" horiz-adv-x="492" 
d="M437 274l-9 -64h-220v-35c0 -83 36 -116 100 -116c77 0 143 67 143 67l28 -51s-67 -86 -202 -86c-141 0 -212 81 -212 209c0 177 118 313 288 313c87 0 158 -53 158 -53l-27 -65s-72 48 -127 48c-65 0 -123 -45 -142 -167h222z" />
    <glyph glyph-name="afii10102.sc" horiz-adv-x="414" 
d="M422 464l-26 -60s-48 42 -98 42c-35 0 -61 -22 -61 -62c0 -81 166 -90 166 -221c0 -115 -92 -174 -191 -174c-135 0 -174 85 -174 85l43 55s43 -72 115 -72c40 0 67 28 67 63c0 73 -163 90 -163 217c0 108 87 174 190 174c81 0 132 -47 132 -47z" />
    <glyph glyph-name="afii10103.sc" horiz-adv-x="264" 
d="M268 501l-70 -501h-132l70 501h132z" />
    <glyph glyph-name="afii10104.sc" horiz-adv-x="264" 
d="M268 500l-70 -500h-132l70 500h132zM271 704c14 11 31 17 48 17s32 -6 44 -17c9 -12 14 -26 14 -41c0 -23 -10 -46 -29 -63c-15 -12 -33 -18 -49 -18c-17 0 -32 6 -42 18c-9 11 -14 26 -14 41c0 22 10 46 28 63zM85 704c14 11 32 17 49 17s32 -6 43 -17
c9 -12 14 -26 14 -41c0 -23 -10 -46 -29 -63c-15 -12 -32 -18 -48 -18s-32 6 -43 18c-9 11 -14 26 -14 41c0 22 10 46 28 63z" />
    <glyph glyph-name="afii10105.sc" horiz-adv-x="348" 
d="M44 78c0 0 23 -22 55 -22c36 0 55 25 69 117l46 327h132l-46 -327c-19 -135 -75 -184 -181 -184c-76 0 -103 37 -103 37z" />
    <glyph glyph-name="afii10106.sc" horiz-adv-x="745" 
d="M245 500h299l-26 -187h26c122 0 191 -42 191 -129c0 -110 -77 -184 -231 -184h-162l60 433h-91c-43 -299 -136 -442 -234 -442c-37 0 -50 8 -50 8l19 79s10 -4 28 -4c64 0 126 108 171 426zM536 255h-26l-12 -84l-16 -111h28c56 0 94 51 94 140c0 41 -26 55 -68 55z" />
    <glyph glyph-name="afii10107.sc" horiz-adv-x="755" 
d="M351 0l31 221h-153l-31 -221h-132l70 500h132l-30 -213h153l30 213h133l-26 -187h25c122 0 191 -42 191 -129c0 -110 -77 -184 -231 -184h-162zM545 255h-25l-28 -195h27c56 0 94 51 94 140c0 41 -26 55 -68 55z" />
    <glyph glyph-name="afii10108.sc" horiz-adv-x="584" 
d="M459 500l-10 -65h-115l-21 -150h2s36 31 117 31c88 0 121 -40 121 -105c0 -11 -1 -22 -3 -34l-24 -177h-133l21 152c2 18 4 32 4 43c0 39 -15 46 -46 46c-34 0 -60 -16 -69 -22l-30 -219h-133l61 435h-117l10 65h365z" />
    <glyph glyph-name="afii10109.sc" horiz-adv-x="529" 
d="M66 0l70 500h131l-30 -214l45 25l168 189h91l-175 -186l146 -314h-168l-94 221l-24 -13l-29 -208h-131zM382 730l104 -31l-139 -130l-56 9z" />
    <glyph glyph-name="uni045D.sc" horiz-adv-x="569" 
d="M573 500l-70 -500h-132l40 285l15 68h-1l-225 -332l-10 -21h-124l70 500h132l-41 -294l-15 -61h2l225 334l11 21h123zM252 703l111 35l64 -147l-64 -17z" />
    <glyph glyph-name="afii10110.sc" horiz-adv-x="506" 
d="M339 244h2l122 256h88l-186 -338c-66 -121 -127 -173 -207 -173c-59 0 -86 24 -86 24l28 74s27 -19 69 -19c30 0 55 9 84 44l-157 388h155zM367 624c56 0 65 29 65 46c0 8 -2 13 -2 13l2 12l102 -9s-9 -123 -176 -123c-126 0 -141 71 -141 105c0 11 1 18 1 18l104 9
l-2 -12s-7 -12 -7 -25c0 -16 10 -34 54 -34z" />
    <glyph glyph-name="afii10193.sc" horiz-adv-x="538" 
d="M268 500l-61 -433h142l61 433h132l-70 -500h-145l-41 -155h-73v155h-147l70 500h132z" />
    <glyph glyph-name="afii10065.sc" horiz-adv-x="521" 
d="M265 500h146l87 -500h-140l-23 132h-168l-63 -132h-80zM295 408h-2l-98 -217h131z" />
    <glyph glyph-name="afii10066.sc" horiz-adv-x="469" 
d="M440 500l-9 -67h-172l-17 -119h23c122 0 194 -43 194 -131c0 -110 -81 -183 -235 -183h-158l70 500h304zM258 255h-24l-28 -195h25c56 0 96 46 96 139c0 44 -27 56 -69 56z" />
    <glyph glyph-name="afii10067.sc" horiz-adv-x="485" 
d="M66 0l70 500h170c128 0 175 -61 175 -119c0 -62 -45 -99 -91 -121c48 -17 82 -51 82 -101c0 -88 -79 -159 -230 -159h-176zM290 226h-61l-23 -166h42c57 0 92 28 92 111c0 39 -19 55 -50 55zM237 282h54c21 0 63 32 63 107c0 38 -24 51 -59 51h-36z" />
    <glyph glyph-name="afii10068.sc" horiz-adv-x="380" 
d="M433 433h-175l-60 -433h-132l70 500h306z" />
    <glyph glyph-name="afii10069.sc" horiz-adv-x="549" 
d="M212 500h316l-62 -433h68l-52 -202h-74l-2 135h-267l-57 -135h-66l18 202h58c57 91 86 196 120 433zM386 433h-107c-29 -189 -61 -285 -109 -366h164z" />
    <glyph glyph-name="afii10070.sc" horiz-adv-x="444" 
d="M409 67l-10 -67h-333l70 500h325l-9 -68h-193l-21 -147h167l-9 -65h-167l-22 -153h202z" />
    <glyph glyph-name="afii10072.sc" horiz-adv-x="747" 
d="M505 500l-25 -178h57l140 178h95l-160 -180l115 -320h-154l-73 255h-30l-35 -255h-132l35 254h-36l-128 -254h-155l189 300l-92 200h94l71 -179h67l25 179h132z" />
    <glyph glyph-name="afii10073.sc" horiz-adv-x="438" 
d="M132 401l-15 60s77 50 155 50c107 0 176 -50 176 -120c0 -71 -52 -112 -102 -133c46 -13 80 -41 80 -98c0 -100 -85 -171 -214 -171c-149 0 -171 87 -171 87l40 52s29 -70 112 -70c50 0 87 39 87 116c0 38 -19 51 -49 51l-76 -8l7 71l85 -8c24 1 61 44 61 111
c0 40 -31 55 -71 55c-47 0 -105 -45 -105 -45z" />
    <glyph glyph-name="afii10074.sc" horiz-adv-x="569" 
d="M573 500l-70 -500h-132l40 285l15 68h-1l-225 -332l-10 -21h-124l70 500h132l-41 -294l-15 -61h2l225 334l11 21h123z" />
    <glyph glyph-name="afii10075.sc" horiz-adv-x="569" 
d="M573 500l-70 -500h-132l40 285l15 68h-1l-225 -332l-10 -21h-124l70 500h132l-41 -294l-15 -61h2l225 334l11 21h123zM373 624c56 0 65 29 65 46c0 8 -2 13 -2 13l2 12l102 -9s-9 -123 -176 -123c-126 0 -141 71 -141 105c0 11 1 18 1 18l104 9l-2 -12s-7 -12 -7 -25
c0 -16 10 -34 54 -34z" />
    <glyph glyph-name="afii10076.sc" horiz-adv-x="529" 
d="M66 0l70 500h131l-30 -214l45 25l168 189h91l-175 -186l146 -314h-168l-94 221l-24 -13l-29 -208h-131z" />
    <glyph glyph-name="afii10077.sc" horiz-adv-x="540" 
d="M245 500h299l-70 -500h-132l60 433h-91c-43 -299 -136 -442 -234 -442c-37 0 -50 8 -50 8l19 79s10 -4 28 -4c64 0 126 108 171 426z" />
    <glyph glyph-name="afii10078.sc" horiz-adv-x="713" 
d="M710 500l-63 -500h-129l42 352h-3l-177 -352h-98l-78 352h-4l-53 -352h-81l77 500h160l81 -339h4l174 339h148z" />
    <glyph glyph-name="afii10079.sc" horiz-adv-x="550" 
d="M554 500l-70 -500h-132l31 221h-154l-31 -221h-132l70 500h132l-30 -213h154l30 213h132z" />
    <glyph glyph-name="afii10080.sc" horiz-adv-x="553" 
d="M558 307c0 -203 -125 -318 -285 -318c-138 0 -207 87 -207 216c0 176 99 306 280 306c159 0 212 -104 212 -204zM417 333c0 59 -17 112 -80 112c-80 0 -134 -88 -134 -278c0 -72 26 -111 80 -111c74 0 134 80 134 277z" />
    <glyph glyph-name="afii10081.sc" horiz-adv-x="538" 
d="M542 500l-70 -500h-132l61 433h-142l-61 -433h-132l70 500h406z" />
    <glyph glyph-name="afii10082.sc" horiz-adv-x="459" 
d="M66 0l70 500h174c107 0 173 -47 173 -145c0 -151 -125 -207 -219 -207h-46l-20 -148h-132zM285 439h-26l-32 -232h30c49 0 90 45 90 168c0 49 -29 64 -62 64z" />
    <glyph glyph-name="afii10083.sc" horiz-adv-x="483" 
d="M505 460l-26 -64s-67 45 -121 45c-89 0 -150 -73 -150 -257c0 -89 42 -125 107 -125c76 0 129 65 129 65l35 -44s-54 -91 -194 -91c-145 0 -220 89 -220 216c0 179 105 306 283 306c89 0 157 -51 157 -51z" />
    <glyph glyph-name="afii10084.sc" horiz-adv-x="450" 
d="M498 500l-9 -68h-136l-61 -432h-133l61 432h-136l9 68h405z" />
    <glyph glyph-name="afii10085.sc" horiz-adv-x="506" 
d="M339 244h2l122 256h88l-186 -338c-66 -121 -127 -173 -207 -173c-59 0 -86 24 -86 24l28 74s27 -19 69 -19c30 0 55 9 84 44l-157 388h155z" />
    <glyph glyph-name="afii10086.sc" horiz-adv-x="652" 
d="M462 500l-7 -50c126 -3 209 -60 209 -169c0 -144 -113 -224 -265 -227l-7 -54h-132l7 54c-126 3 -208 64 -208 174c0 143 111 218 264 222l7 50h132zM531 301c0 58 -27 89 -84 93l-40 -283c82 6 124 69 124 190zM192 206c0 -58 26 -91 83 -95l40 282
c-81 -5 -123 -65 -123 -187z" />
    <glyph glyph-name="afii10087.sc" horiz-adv-x="499" 
d="M12 0l195 241l-117 259h166l60 -164h3l122 164h94l-180 -227l132 -273h-165l-75 178h-3l-133 -178h-99z" />
    <glyph glyph-name="afii10088.sc" horiz-adv-x="564" 
d="M268 500l-61 -433h142l61 433h132l-61 -433h68l-56 -202h-72l-3 135h-352l70 500h132z" />
    <glyph glyph-name="afii10089.sc" horiz-adv-x="496" 
d="M500 500l-70 -500h-132l28 200h-1s-37 -30 -118 -30c-88 0 -119 52 -119 119c0 12 1 24 3 37l25 174h132l-23 -159c-2 -18 -4 -32 -4 -44c0 -42 15 -52 45 -52c34 0 62 13 68 16l34 239h132z" />
    <glyph glyph-name="afii10090.sc" horiz-adv-x="722" 
d="M497 500l-61 -433h97l61 433h132l-70 -500h-590l70 500h132l-61 -433h97l61 433h132z" />
    <glyph glyph-name="afii10091.sc" horiz-adv-x="745" 
d="M726 500l-61 -433h64l-52 -202h-72l-2 135h-537l70 500h132l-61 -433h97l61 433h132l-61 -433h97l61 433h132z" />
    <glyph glyph-name="afii10092.sc" horiz-adv-x="543" 
d="M140 0l60 433h-116l9 67h249l-26 -187h26c122 0 191 -42 191 -129c0 -110 -77 -184 -231 -184h-162zM334 255h-26l-28 -195h28c56 0 94 51 94 140c0 41 -26 55 -68 55z" />
    <glyph glyph-name="afii10093.sc" horiz-adv-x="680" 
d="M66 0l70 500h132l-26 -187h26c122 0 191 -42 191 -129c0 -110 -77 -184 -231 -184h-162zM260 255h-26l-28 -195h28c56 0 94 51 94 140c0 41 -26 55 -68 55zM685 500l-70 -500h-132l70 500h132z" />
    <glyph glyph-name="afii10094.sc" horiz-adv-x="469" 
d="M66 0l70 500h132l-26 -187h26c122 0 191 -42 191 -129c0 -110 -77 -184 -231 -184h-162zM260 255h-26l-28 -195h28c56 0 94 51 94 140c0 41 -26 55 -68 55z" />
    <glyph glyph-name="afii10095.sc" horiz-adv-x="472" 
d="M131 407l-8 62s75 42 146 42c143 0 209 -82 209 -206c0 -185 -104 -316 -268 -316c-140 0 -173 71 -173 71l39 55s34 -56 111 -56c62 0 119 38 140 159h-207l6 65h209c1 17 2 35 2 55c0 73 -35 105 -97 105c-52 0 -109 -36 -109 -36z" />
    <glyph glyph-name="afii10096.sc" horiz-adv-x="767" 
d="M771 294c0 -177 -99 -305 -278 -305c-139 0 -213 87 -213 216v14h-52l-30 -219h-132l70 500h132l-31 -216h50c24 134 114 227 267 227c140 0 217 -88 217 -217zM631 330c0 73 -28 118 -82 118c-79 0 -134 -94 -134 -278c0 -74 28 -117 83 -117c84 0 133 93 133 277z" />
    <glyph glyph-name="afii10097.sc" horiz-adv-x="494" 
d="M498 500l-70 -500h-133l26 188h-43l-111 -188h-137l138 206c-42 19 -73 55 -73 113c0 121 87 181 204 181h199zM224 307c0 -36 19 -55 47 -55h59l27 187h-61c-38 0 -72 -39 -72 -132z" />
    <glyph glyph-name="afii10194.sc" horiz-adv-x="525" 
d="M447 452l-10 -71h-130l-9 -69h30c121 0 187 -41 187 -127c0 -110 -72 -185 -227 -185h-166l53 381h-99l11 71h98l7 48h132l-7 -48h130zM321 254h-31l-28 -194h32c58 0 89 49 89 140c0 40 -21 54 -62 54z" />
    <glyph glyph-name="afii10098.sc" horiz-adv-x="367" 
d="M368 578h63l-13 -149h-160l-60 -429h-132l70 500h194z" />
    <glyph glyph-name="A.swsh" horiz-adv-x="752" 
d="M632 665l3 -57l98 -608h-146l-22 182h-223c-104 -218 -187 -279 -275 -302l-30 66c63 19 139 65 237 264l184 374c-200 -12 -299 -112 -299 -224c0 -17 3 -34 7 -51l-77 -20c-6 23 -9 46 -9 68c0 157 149 290 410 293h30c47 1 86 4 112 15zM521 551h-2l-147 -306h185z
" />
    <glyph glyph-name="B.swsh" horiz-adv-x="825" 
d="M622 650c148 0 208 -73 208 -151c0 -84 -59 -134 -117 -161c61 -21 104 -66 104 -132c0 -116 -94 -206 -281 -206h-214c25 98 41 211 88 542c2 15 4 30 7 44h-1c-157 0 -246 -94 -246 -205c0 -23 4 -47 12 -71l-67 -31c-13 33 -19 66 -19 98c0 148 129 273 329 273h7
c12 36 27 61 47 73l104 -14c-8 -22 -13 -40 -18 -59h57zM511 301c-17 -99 -31 -178 -44 -236h75c81 0 137 49 137 154c0 60 -31 82 -76 82h-92zM548 541l-27 -180h84c34 0 90 34 90 136c0 63 -37 88 -85 88h-56z" />
    <glyph glyph-name="C.swsh" horiz-adv-x="591" 
d="M558 323l-50 33c45 27 78 84 78 135c0 50 -33 94 -118 94c-121 0 -233 -89 -233 -420c0 -155 52 -206 141 -206c106 0 167 82 167 82l37 -48s-67 -109 -241 -109c-165 0 -253 105 -253 300c0 305 163 476 379 476c145 0 202 -72 202 -152c0 -69 -43 -145 -109 -185z" />
    <glyph glyph-name="D.swsh" horiz-adv-x="903" 
d="M479 723l104 -14c-8 -22 -13 -40 -18 -59h81c176 0 273 -93 273 -267c0 -241 -126 -383 -364 -383h-233c25 98 41 211 88 542c2 15 4 30 7 43c-1 0 -1 1 -1 1c-157 0 -246 -94 -246 -205c0 -23 4 -47 12 -71l-67 -31c-13 33 -19 66 -19 98c0 148 129 273 329 273h7
c12 36 27 61 47 73zM636 579h-83l-5 -38c-31 -211 -58 -370 -80 -470h98c120 0 204 72 204 342c0 116 -43 166 -134 166z" />
    <glyph glyph-name="E.swsh" horiz-adv-x="562" 
d="M448 298l-10 -74l-123 3c-36 -4 -86 -36 -86 -170c0 -71 37 -96 103 -96c100 0 161 74 161 74l31 -50s-64 -96 -229 -96c-123 0 -202 54 -202 168c0 115 68 174 131 202c-56 21 -108 67 -108 155c0 138 98 246 288 246c160 0 227 -74 227 -152c0 -45 -22 -91 -61 -126
l-56 28c24 22 37 52 37 81c0 51 -41 99 -135 99c-111 0 -160 -54 -160 -193c0 -67 27 -99 62 -103z" />
    <glyph glyph-name="F.swsh" horiz-adv-x="727" 
d="M455 0h-139l71 500c4 35 15 63 30 86h-1c-153 0 -242 -103 -242 -219c0 -19 2 -39 7 -58l-77 -20c-6 25 -10 49 -10 73c0 156 134 288 332 288h376l-10 -72h-256l-34 -240h223l-10 -70h-223z" />
    <glyph glyph-name="G.swsh" horiz-adv-x="645" 
d="M558 323l-50 33c45 27 78 84 78 135c0 50 -33 94 -118 94c-121 0 -233 -89 -233 -420c0 -155 52 -206 141 -206c34 0 64 9 89 21l29 203h-102l10 68h218l-67 -477h-60l-42 105l3 24c-32 -12 -69 -19 -115 -19c-165 0 -253 105 -253 300c0 305 163 476 379 476
c145 0 202 -72 202 -152c0 -69 -43 -145 -109 -185z" />
    <glyph glyph-name="H.swsh" horiz-adv-x="894" 
d="M546 650l-40 -284h224l25 176c14 98 34 160 69 181l105 -14c-20 -53 -24 -85 -36 -168l-76 -541h-138l41 296h-224l-11 -82c-24 -171 -95 -225 -227 -225c-55 0 -86 16 -86 16l28 65s18 -10 50 -10c47 0 78 29 96 154l41 286c4 35 15 63 30 86h-1
c-153 0 -242 -103 -242 -219c0 -19 2 -39 7 -58l-77 -20c-6 25 -10 49 -10 73c0 156 134 288 332 288h120z" />
    <glyph glyph-name="I.swsh" horiz-adv-x="532" 
d="M546 650l-61 -436c-24 -171 -95 -225 -227 -225c-55 0 -86 16 -86 16l28 65s18 -10 50 -10c47 0 78 29 96 154l41 286c4 35 15 63 30 86h-1c-153 0 -242 -103 -242 -219c0 -19 2 -39 7 -58l-77 -20c-6 25 -10 49 -10 73c0 156 134 288 332 288h120z" />
    <glyph glyph-name="J.swsh" horiz-adv-x="555" 
d="M578 650l-71 -508c-27 -191 -157 -274 -280 -274c-130 0 -181 66 -181 140c0 55 28 114 73 155l57 -24c-31 -29 -52 -74 -52 -114c0 -45 28 -84 101 -84c65 0 123 59 139 173l55 386c5 35 15 63 30 86c-153 0 -243 -104 -243 -220c0 -19 2 -38 7 -57l-77 -20
c-6 25 -10 49 -10 73c0 156 134 288 332 288h120z" />
    <glyph glyph-name="K.swsh" horiz-adv-x="905" 
d="M546 650l-42 -301l65 44l227 257h96l-246 -267l154 -295c46 -95 94 -133 142 -133c28 0 49 13 49 13l6 -49s-36 -30 -104 -30c-94 0 -173 39 -224 146l-132 257l-45 -29l-37 -263h-138l70 500c5 35 15 63 30 86h-1c-153 0 -242 -103 -242 -219c0 -19 2 -39 7 -58l-77 -20
c-6 25 -10 49 -10 73c0 156 134 288 332 288h120z" />
    <glyph glyph-name="L.swsh" horiz-adv-x="719" 
d="M726 140l64 -8c-12 -108 -64 -175 -154 -175c-93 0 -242 43 -294 43h-5c-26 -7 -56 -11 -89 -11l1 35c0 12 0 24 1 36l21 2c35 9 60 46 75 152l41 286c4 35 15 63 30 86h-1c-153 0 -242 -103 -242 -219c0 -19 2 -39 7 -58l-77 -20c-6 25 -10 49 -10 73
c0 156 134 288 332 288h120l-61 -436c-10 -68 -28 -118 -56 -153c71 -11 161 -28 208 -28c48 0 80 36 89 107z" />
    <glyph glyph-name="M.swsh" horiz-adv-x="1156" 
d="M1163 650l-84 -650h-135l61 492h-2l-259 -492h-103l-103 492h-5l-53 -362c-27 -183 -110 -236 -178 -252l-3 72c37 12 73 55 93 180l71 454c-194 -15 -291 -113 -291 -224c0 -17 3 -34 7 -51l-76 -20c-6 23 -9 46 -9 69c0 157 148 291 403 291v1h51c42 2 75 7 98 15
l2 -37l100 -457h5l255 479h155z" />
    <glyph glyph-name="N.swsh" horiz-adv-x="950" 
d="M965 650l-92 -650h-108l-234 475l-51 -345c-27 -183 -110 -236 -178 -252l-3 72c37 12 74 55 92 180l72 454c-194 -15 -291 -113 -291 -224c0 -17 3 -34 7 -51l-76 -20c-6 23 -9 46 -9 69c0 157 148 289 403 292h18c42 1 78 6 105 15l7 -49l195 -407h2v45l55 396h86z" />
    <glyph glyph-name="O.swsh" horiz-adv-x="683" 
d="M79 226c0 119 74 184 109 203c-1 7 -1 14 -1 21c0 111 98 210 253 210c161 0 255 -115 255 -281c0 -211 -131 -390 -362 -390c-172 0 -254 110 -254 237zM335 352l-59 -33c-10 5 -20 11 -30 18c-16 -24 -31 -59 -31 -114c0 -99 52 -159 130 -159c133 0 202 147 202 343
c0 124 -48 178 -126 178c-94 0 -155 -67 -155 -135c0 -55 36 -81 69 -98z" />
    <glyph glyph-name="P.swsh" horiz-adv-x="754" 
d="M443 723l104 -14c-8 -22 -13 -40 -18 -59h59c129 0 207 -60 207 -183c0 -193 -151 -264 -266 -264h-68c-15 -91 -29 -160 -40 -203h-135c26 98 41 211 88 542c2 15 4 30 7 44h-1c-111 0 -196 -64 -196 -145c0 -23 7 -47 22 -72l-67 -31c-24 36 -35 72 -35 105
c0 117 133 207 285 207h8c12 36 26 61 46 73zM567 585h-49l-6 -44c-15 -104 -28 -195 -41 -274h50c69 0 127 38 127 218c0 73 -31 100 -81 100z" />
    <glyph glyph-name="Q.swsh" horiz-adv-x="640" 
d="M559 -56l65 -8c-12 -107 -78 -139 -144 -139c-144 0 -183 125 -232 196c-65 9 -128 33 -135 35l18 69c10 4 37 13 64 13c47 0 82 -19 111 -46c133 7 198 151 198 343c0 124 -48 178 -126 178c-95 0 -200 -84 -200 -214c0 -86 49 -123 82 -139l-55 -36
c-42 16 -106 61 -106 173c0 181 148 291 298 291c160 0 255 -115 255 -281c0 -189 -106 -353 -291 -384c40 -63 70 -127 125 -127c26 0 66 16 73 76z" />
    <glyph glyph-name="R.swsh" horiz-adv-x="846" 
d="M443 723l104 -14c-8 -22 -13 -40 -18 -59h60c133 0 212 -54 212 -154c0 -94 -67 -166 -143 -204l122 -204c49 -84 102 -133 144 -133c28 0 49 13 49 13l6 -49s-36 -30 -104 -30c-94 0 -166 49 -224 146l-136 227h-44c-19 -120 -36 -210 -50 -262h-135
c26 98 41 211 88 542c2 15 4 30 7 44h-1c-111 0 -196 -64 -196 -145c0 -23 7 -47 22 -72l-67 -31c-24 36 -35 72 -35 105c0 117 133 207 285 207h8c12 36 26 61 46 73zM566 585h-48l-6 -44c-11 -77 -21 -148 -31 -212h52c70 0 119 54 119 173c0 59 -31 83 -86 83z" />
    <glyph glyph-name="S.swsh" horiz-adv-x="512" 
d="M492 401l-56 28c25 24 37 53 37 80c0 44 -33 81 -97 81s-104 -42 -104 -115c0 -125 230 -155 230 -339c0 -164 -124 -246 -261 -246c-135 0 -191 67 -191 141c0 49 25 102 67 141l57 -25c-31 -26 -47 -62 -47 -95c0 -47 33 -89 105 -89c85 0 125 59 125 122
c0 114 -228 153 -228 332c0 157 103 243 248 243c114 0 173 -65 173 -138c0 -42 -19 -86 -58 -121z" />
    <glyph glyph-name="T.swsh" horiz-adv-x="585" 
d="M396 0h-138l68 482c7 51 27 89 55 113c-40 11 -78 19 -110 19c-48 0 -83 -19 -90 -82l-65 3c13 112 68 143 139 143c92 0 211 -53 292 -53c50 0 86 20 94 84l64 -10c-12 -110 -67 -141 -137 -141c-29 0 -59 5 -91 12z" />
    <glyph glyph-name="U.swsh" horiz-adv-x="862" 
d="M553 -11c-141 0 -208 69 -208 192c0 17 1 36 4 55l38 264c4 35 15 63 30 86h-1c-153 0 -242 -103 -242 -219c0 -19 2 -39 7 -58l-77 -20c-6 25 -10 49 -10 73c0 156 134 288 332 288h120l-53 -383c-4 -29 -6 -55 -6 -77c0 -89 33 -125 99 -125c90 0 141 64 160 202
l54 383h85l-58 -414c-21 -148 -98 -247 -274 -247z" />
    <glyph glyph-name="V.swsh" horiz-adv-x="873" 
d="M545 665l2 -45l74 -519h2l245 549h87l-301 -650h-153l-94 583c-148 -17 -235 -112 -235 -221c0 -17 2 -35 7 -53l-77 -20c-6 22 -9 44 -9 66c0 158 149 292 342 295c33 0 83 5 110 15z" />
    <glyph glyph-name="W.swsh" horiz-adv-x="1169" 
d="M1164 650h87l-261 -650h-118l-69 480h-3l-201 -480h-120l-74 583c-146 -18 -233 -113 -233 -221c0 -17 2 -35 7 -53l-77 -20c-6 22 -9 44 -9 66c0 158 149 292 342 295c33 0 83 5 111 15v-35l49 -472h2l202 492h111l69 -489h2z" />
    <glyph glyph-name="X.swsh" horiz-adv-x="872" 
d="M539 665l6 -44l85 -194h2l162 223h98l-226 -293l119 -242c47 -102 85 -158 133 -158c23 0 43 13 43 13l7 -49s-36 -30 -104 -30c-94 0 -170 36 -217 150l-95 213h-1l-188 -254h-104l255 325l-123 256c-137 -22 -219 -114 -219 -219c0 -17 2 -35 7 -53l-77 -20
c-6 22 -9 44 -9 66c0 158 149 292 342 295c33 0 76 5 104 15z" />
    <glyph glyph-name="Y.swsh" horiz-adv-x="819" 
d="M539 665l7 -47l91 -263h1l183 295h96l-251 -385l-37 -265h-138l35 251l-123 332c-145 -19 -231 -113 -231 -221c0 -17 2 -35 7 -53l-77 -20c-6 22 -9 44 -9 66c0 158 149 292 342 295c33 0 76 5 104 15z" />
    <glyph glyph-name="Z.swsh" horiz-adv-x="587" 
d="M535 140l64 -8c-12 -108 -66 -175 -172 -175c-89 0 -271 43 -304 43c-23 0 -57 -6 -72 -11v71c149 166 279 344 406 518h-296l10 72h462l-9 -60c-125 -170 -268 -391 -433 -527c72 -11 185 -30 241 -30c54 0 93 36 103 107z" />
    <glyph glyph-name="uni0400.swsh" horiz-adv-x="562" 
d="M448 298l-10 -74l-123 3c-36 -4 -86 -36 -86 -170c0 -71 37 -96 103 -96c100 0 161 74 161 74l31 -50s-64 -96 -229 -96c-123 0 -202 54 -202 168c0 115 68 174 131 202c-56 21 -108 67 -108 155c0 138 98 246 288 246c160 0 227 -74 227 -152c0 -45 -22 -91 -61 -126
l-56 28c24 22 37 52 37 81c0 51 -41 99 -135 99c-111 0 -160 -54 -160 -193c0 -67 27 -99 62 -103zM308 838l111 35l64 -147l-64 -17z" />
    <glyph glyph-name="afii10023.swsh" horiz-adv-x="562" 
d="M448 298l-10 -74l-123 3c-36 -4 -86 -36 -86 -170c0 -71 37 -96 103 -96c100 0 161 74 161 74l31 -50s-64 -96 -229 -96c-123 0 -202 54 -202 168c0 115 68 174 131 202c-56 21 -108 67 -108 155c0 138 98 246 288 246c160 0 227 -74 227 -152c0 -45 -22 -91 -61 -126
l-56 28c24 22 37 52 37 81c0 51 -41 99 -135 99c-111 0 -160 -54 -160 -193c0 -67 27 -99 62 -103zM479 839c14 11 31 17 48 17s32 -6 44 -17c9 -12 14 -26 14 -41c0 -23 -10 -46 -29 -63c-15 -12 -33 -18 -49 -18c-17 0 -32 6 -42 18c-9 11 -14 26 -14 41c0 22 10 46 28 63
zM293 839c14 11 32 17 49 17s32 -6 43 -17c9 -12 14 -26 14 -41c0 -23 -10 -46 -29 -63c-15 -12 -32 -18 -48 -18s-32 6 -43 18c-9 11 -14 26 -14 41c0 22 10 46 28 63z" />
    <glyph glyph-name="afii10051.swsh" horiz-adv-x="756" 
d="M641 709l64 -10c-12 -110 -67 -141 -137 -141c-29 0 -59 5 -91 12l-31 -214h2s54 52 158 52c106 0 145 -49 145 -131c0 -14 -1 -29 -3 -45l-4 -25c-24 -171 -94 -218 -199 -218c-65 0 -84 28 -84 28l26 50s15 -16 39 -16c27 0 57 14 73 115l6 39c3 22 5 40 5 55
c0 54 -22 66 -69 66c-52 0 -93 -30 -104 -39l-41 -287h-138l68 482c7 51 27 89 55 113c-40 11 -78 19 -110 19c-48 0 -83 -19 -90 -82l-65 3c13 112 68 143 139 143c92 0 211 -53 292 -53c50 0 86 20 94 84z" />
    <glyph glyph-name="afii10052.swsh" horiz-adv-x="677" 
d="M769 650l-10 -72h-223l-51 -364c-24 -171 -95 -225 -227 -225c-55 0 -86 16 -86 16l28 65s18 -10 50 -10c47 0 78 29 96 154l41 286c4 35 15 63 30 86h-1c-153 0 -242 -103 -242 -219c0 -19 2 -39 7 -58l-77 -20c-6 25 -10 49 -10 73c0 156 134 288 332 288h343zM519 865
l104 -31l-139 -130l-56 9z" />
    <glyph glyph-name="afii10053.swsh" horiz-adv-x="606" 
d="M558 323l-50 33c45 27 78 84 78 135c0 50 -33 94 -118 94c-110 0 -212 -73 -230 -333h294l-10 -70h-287v-17c0 -155 52 -206 141 -206c106 0 167 82 167 82l37 -48s-67 -109 -241 -109c-165 0 -253 105 -253 300c0 305 163 476 379 476c145 0 202 -72 202 -152
c0 -69 -43 -145 -109 -185z" />
    <glyph glyph-name="afii10054.swsh" horiz-adv-x="512" 
d="M492 401l-56 28c25 24 37 53 37 80c0 44 -33 81 -97 81s-104 -42 -104 -115c0 -125 230 -155 230 -339c0 -164 -124 -246 -261 -246c-135 0 -191 67 -191 141c0 49 25 102 67 141l57 -25c-31 -26 -47 -62 -47 -95c0 -47 33 -89 105 -89c85 0 125 59 125 122
c0 114 -228 153 -228 332c0 157 103 243 248 243c114 0 173 -65 173 -138c0 -42 -19 -86 -58 -121z" />
    <glyph glyph-name="afii10055.swsh" horiz-adv-x="532" 
d="M546 650l-61 -436c-24 -171 -95 -225 -227 -225c-55 0 -86 16 -86 16l28 65s18 -10 50 -10c47 0 78 29 96 154l41 286c4 35 15 63 30 86h-1c-153 0 -242 -103 -242 -219c0 -19 2 -39 7 -58l-77 -20c-6 25 -10 49 -10 73c0 156 134 288 332 288h120z" />
    <glyph glyph-name="afii10056.swsh" horiz-adv-x="532" 
d="M546 650l-61 -436c-24 -171 -95 -225 -227 -225c-55 0 -86 16 -86 16l28 65s18 -10 50 -10c47 0 78 29 96 154l41 286c4 35 15 63 30 86h-1c-153 0 -242 -103 -242 -219c0 -19 2 -39 7 -58l-77 -20c-6 25 -10 49 -10 73c0 156 134 288 332 288h120zM541 839
c14 11 31 17 48 17s32 -6 44 -17c9 -12 14 -26 14 -41c0 -23 -10 -46 -29 -63c-15 -12 -33 -18 -49 -18c-17 0 -32 6 -42 18c-9 11 -14 26 -14 41c0 22 10 46 28 63zM355 839c14 11 32 17 49 17s32 -6 43 -17c9 -12 14 -26 14 -41c0 -23 -10 -46 -29 -63
c-15 -12 -32 -18 -48 -18s-32 6 -43 18c-9 11 -14 26 -14 41c0 22 10 46 28 63z" />
    <glyph glyph-name="afii10057.swsh" horiz-adv-x="572" 
d="M578 650l-71 -508c-27 -191 -157 -274 -280 -274c-130 0 -181 66 -181 140c0 55 28 114 73 155l57 -24c-31 -29 -52 -74 -52 -114c0 -45 28 -84 101 -84c65 0 123 59 139 173l55 386c5 35 15 63 30 86c-153 0 -243 -104 -243 -220c0 -19 2 -38 7 -57l-77 -20
c-6 25 -10 49 -10 73c0 156 134 288 332 288h120z" />
    <glyph glyph-name="afii10058.swsh" horiz-adv-x="990" 
d="M744 650l-36 -249h46c147 0 232 -53 232 -165c0 -142 -94 -236 -283 -236h-189l81 578h-112c-79 -546 -246 -697 -368 -697c-38 0 -52 7 -52 7l17 84s13 -5 29 -5c87 0 215 117 295 619c-145 0 -231 -102 -231 -217c0 -20 3 -40 8 -60l-77 -20c-7 25 -10 50 -10 74
c0 155 130 287 319 287h331zM746 338h-47l-38 -273h47c85 0 136 43 136 185c0 65 -35 88 -98 88z" />
    <glyph glyph-name="afii10059.swsh" horiz-adv-x="1156" 
d="M546 650l-40 -284h224l25 176c14 98 34 160 69 181l105 -14c-20 -53 -24 -85 -36 -168l-20 -140h47c147 0 232 -53 232 -165c0 -142 -94 -236 -284 -236h-189l41 296h-224l-11 -82c-24 -171 -95 -225 -227 -225c-55 0 -86 16 -86 16l28 65s18 -10 50 -10
c47 0 78 29 96 154l41 286c4 35 15 63 30 86h-1c-153 0 -242 -103 -242 -219c0 -19 2 -39 7 -58l-77 -20c-6 25 -10 49 -10 73c0 156 134 288 332 288h120zM912 338h-48l-38 -273h48c84 0 136 43 136 185c0 65 -35 88 -98 88z" />
    </font>
</defs>
</svg>
