<?xml version="1.0" standalone="no"?>
<!DOCTYPE svg PUBLIC "-//W3C//DTD SVG 1.1//EN" "http://www.w3.org/Graphics/SVG/1.1/DTD/svg11.dtd" >
<svg>
<metadata>
Created by FontForge 20120731 at Thu Aug 11 00:58:50 2016
 By Apache
Copyright (c) 2012 by Stairsfor. All rights reserved.
</metadata>
<defs>
<font id="Arsenal-Bold" horiz-adv-x="524" >
  <font-face 
    font-family="Arsenal"
    font-weight="700"
    font-stretch="normal"
    units-per-em="1000"
    panose-1="2 1 8 4 6 2 0 2 0 4"
    ascent="750"
    descent="-250"
    x-height="500"
    cap-height="650"
    bbox="-65 -339 1804 955"
    underline-thickness="50"
    underline-position="-50"
    stemh="67"
    stemv="133"
    unicode-range="U+0020-FB06"
  />
<missing-glyph horiz-adv-x="660" 
d="M392 28v88h79v90h96v-178h-175zM392 418v88h175v-178h-96v90h-79zM189 206v-90h78v-88h-175v178h97zM267 506v-88h-78v-90h-97v178h175z" />
    <glyph glyph-name="arrowleft" unicode="&#x3c;&#x2d;&#x2d;" horiz-adv-x="697" 
d="M372 527l42 -40l-163 -180l394 7v-78l-394 6l163 -179l-42 -40l-312 252z" />
    <glyph glyph-name="arrowright" unicode="&#x2d;&#x2d;&#x3e;" horiz-adv-x="691" 
d="M54 236v78l391 -7l-164 180l42 46l314 -258l-314 -259l-42 47l164 179z" />
    <glyph glyph-name="uni263A" unicode="&#x3a;&#x2d;&#x29;" horiz-adv-x="729" 
d="M223 452c10 9 22 13 35 13s26 -4 36 -13c10 -11 16 -25 16 -40s-6 -29 -16 -40c-10 -9 -23 -14 -36 -14s-25 5 -35 14c-10 11 -15 25 -15 40s5 29 15 40zM429 452c9 9 22 13 35 13s26 -4 36 -13c10 -11 16 -25 16 -40s-6 -29 -16 -40c-10 -9 -23 -14 -36 -14
s-26 5 -35 14c-11 11 -16 25 -16 40s5 29 16 40zM362 145c-117 0 -137 98 -137 98l44 26s19 -57 92 -57h1c73 0 92 57 92 57l45 -26s-20 -98 -137 -98zM604 322c0 172 -98 277 -242 277s-237 -105 -237 -277c0 -173 93 -272 237 -272s242 99 242 272zM677 323
c0 -207 -116 -342 -314 -342c-199 0 -312 135 -312 342s116 344 312 344s314 -137 314 -344z" />
    <glyph glyph-name="uni263B" unicode="&#x28;&#x2d;&#x3a;" horiz-adv-x="729" 
d="M205 480c-12 -13 -18 -29 -18 -46s6 -34 18 -46c11 -11 25 -16 40 -16s29 5 41 16c12 12 18 29 18 46s-6 33 -18 46c-12 10 -26 16 -41 16s-29 -6 -40 -16zM437 480c-12 -13 -17 -29 -17 -46s5 -34 17 -46c11 -11 26 -16 41 -16s30 5 41 16c12 12 18 29 18 46
s-6 33 -18 46c-11 10 -26 16 -41 16s-30 -6 -41 -16zM362 208c-84 0 -105 65 -105 65l-51 -32s22 -111 156 -111c133 0 156 111 156 111l-52 32s-21 -65 -104 -65zM677 323c0 -207 -116 -342 -314 -342c-199 0 -312 135 -312 342s116 344 312 344s314 -137 314 -344z" />
    <glyph glyph-name="uni2767" unicode="&#x2d;&#x2a;&#x2d;" horiz-adv-x="833" 
d="M392 420c-17 5 -33 7 -50 7c-45 0 -88 -17 -118 -51c-5 -7 -8 -15 -8 -22c0 -18 16 -35 56 -35c55 0 95 45 120 101zM440 72l40 4c0 -25 16 -43 45 -43s47 17 47 47c0 8 -2 17 -4 26c-94 0 -184 32 -184 114c0 49 40 85 87 85c28 0 49 -10 52 -13l3 1
c-17 42 -43 74 -73 96c-40 -67 -103 -118 -186 -118c-39 0 -65 11 -81 29c-3 -16 -5 -32 -5 -50c0 -151 120 -176 120 -176l-20 -52s-199 27 -199 222c0 159 124 237 248 237c27 0 54 -4 79 -11c8 29 12 57 12 81c0 89 -47 135 -124 135c-53 0 -80 -37 -80 -71
c0 -26 16 -51 49 -57l-6 -40c-80 4 -116 47 -116 94c0 59 56 123 150 123c131 0 204 -80 204 -185c0 -36 -8 -74 -21 -111c35 -22 64 -53 81 -94l2 1c2 28 31 78 85 78c82 0 120 -64 120 -143c0 -150 -102 -283 -228 -283c-70 0 -97 34 -97 74z" />
    <glyph glyph-name="uniFB00" unicode="ff" horiz-adv-x="650" 
d="M216 556v-56h168v71c0 35 4 67 13 94c-32 11 -77 26 -106 26c-63 0 -75 -25 -75 -135zM642 500v-77h-125v-423h-133v423h-168v-423h-132v423h-49v60l49 14v74c0 113 41 189 180 189c57 0 127 -28 162 -44c25 28 62 44 116 44c57 0 112 -34 112 -34l-17 -57s-43 24 -71 24
c-34 0 -49 -18 -49 -137v-56h125z" />
    <glyph glyph-name="uniFB01" unicode="fi" horiz-adv-x="575" 
d="M514 500v-500h-133v500h133zM264 760c51 0 100 -26 133 -50c14 12 33 18 51 18c19 0 37 -6 51 -19c15 -16 22 -36 22 -57s-7 -42 -22 -58c-14 -12 -32 -19 -51 -19s-38 7 -53 20c-15 15 -23 36 -23 57v8c-25 17 -53 31 -82 31c-56 0 -73 -25 -73 -135v-56h127v-77h-127
v-423h-133v423h-47v60l47 14v74c0 113 43 189 180 189z" />
    <glyph glyph-name="uniFB02" unicode="fl" horiz-adv-x="584" 
d="M523 754v-754h-133v658c-35 15 -85 35 -118 35c-41 0 -55 -27 -55 -137v-56h125v-77h-125v-423h-133v423h-49v60l49 14v74c0 113 53 189 151 189c56 0 114 -18 155 -34v20z" />
    <glyph glyph-name="afii10056_afii10056" unicode="&#x407;&#x407;" horiz-adv-x="618" 
d="M560 650v-650h-138v650h138zM235 650v-650h-138v650h138zM371 839c12 11 29 17 46 17s33 -6 46 -17c13 -15 20 -33 20 -52s-7 -38 -20 -52c-13 -12 -29 -18 -46 -18s-34 6 -46 18c-14 14 -20 33 -20 52s6 37 20 52zM540 839c12 11 28 17 45 17c16 0 33 -6 46 -17
c13 -15 20 -33 20 -52s-7 -38 -20 -52c-13 -12 -30 -18 -46 -18c-17 0 -33 6 -45 18c-14 14 -20 33 -20 52s6 37 20 52zM27 839c12 11 29 17 46 17s33 -6 46 -17c13 -15 20 -33 20 -52s-7 -38 -20 -52c-13 -12 -29 -18 -46 -18s-34 6 -46 18c-14 14 -20 33 -20 52
s6 37 20 52zM196 839c12 11 29 17 46 17s33 -6 46 -17c13 -15 19 -33 19 -52s-6 -38 -19 -52c-13 -12 -29 -18 -46 -18s-34 6 -46 18c-14 14 -20 33 -20 52s6 37 20 52z" />
    <glyph glyph-name="afii10104_afii10104" unicode="&#x457;&#x457;" horiz-adv-x="492" 
d="M431 500v-500h-133v500h133zM193 500v-500h-133v500h133zM266 704c12 11 28 17 45 17c16 0 33 -6 46 -17c13 -15 20 -33 20 -52s-7 -38 -20 -52c-13 -12 -30 -18 -46 -18c-17 0 -33 6 -45 18c-14 14 -20 33 -20 52s6 37 20 52zM412 704c12 11 29 17 45 17s33 -6 46 -17
c13 -15 20 -33 20 -52s-7 -38 -20 -52c-13 -12 -30 -18 -46 -18s-33 6 -45 18c-14 14 -20 33 -20 52s6 37 20 52zM-13 704c12 11 29 17 46 17s33 -6 46 -17c13 -15 20 -33 20 -52s-7 -38 -20 -52c-13 -12 -29 -18 -46 -18s-34 6 -46 18c-14 14 -20 33 -20 52s6 37 20 52z
M133 704c12 11 29 17 46 17s33 -6 46 -17c13 -15 20 -33 20 -52s-7 -38 -20 -52c-13 -12 -29 -18 -46 -18s-34 6 -46 18c-14 14 -20 33 -20 52s6 37 20 52z" />
    <glyph glyph-name="afii10103_afii10104" unicode="&#x456;&#x457;" horiz-adv-x="492" 
d="M75 708c15 14 34 20 53 20s37 -6 51 -19c15 -16 22 -36 22 -57s-7 -42 -22 -58c-14 -12 -32 -19 -51 -19s-38 7 -53 20c-15 15 -23 36 -23 57s8 41 23 56zM431 500v-500h-133v500h133zM193 500v-500h-133v500h133zM248 704c13 11 29 17 46 17s33 -6 46 -17
c13 -15 20 -33 20 -52s-7 -38 -20 -52c-13 -12 -29 -18 -46 -18s-33 6 -46 18c-13 14 -20 33 -20 52s7 37 20 52zM412 704c12 11 29 17 45 17s33 -6 46 -17c13 -15 20 -33 20 -52s-7 -38 -20 -52c-13 -12 -30 -18 -46 -18s-33 6 -45 18c-14 14 -20 33 -20 52s6 37 20 52z
" />
    <glyph glyph-name="ft" unicode="ft" horiz-adv-x="654" 
d="M621 500v-77h-110v-247c0 -94 12 -115 47 -115c32 0 52 9 52 9l8 -57s-25 -24 -101 -24c-92 0 -139 39 -139 153v281h-161v-423h-133v423h-49v60l49 14v74c0 113 41 189 158 189c57 0 112 -34 112 -34l-17 -57s-43 24 -71 24c-34 0 -49 -18 -49 -137v-56h163l63 166h68
v-166h110z" />
    <glyph glyph-name="tt" unicode="tt" horiz-adv-x="636" 
d="M604 500v-77h-110v-247c0 -94 12 -115 47 -115c32 0 52 9 52 9l8 -57s-25 -24 -101 -24c-92 0 -139 39 -139 153v281h-150v-247c0 -94 12 -115 47 -115c32 0 52 9 52 9l8 -57s-25 -24 -101 -24c-92 0 -139 39 -139 153v281h-48v60l49 14l64 169h68v-166h152l63 166h68
v-166h110z" />
    <glyph glyph-name="quoteright_afii10104" unicode="&#x27;&#x457;" horiz-adv-x="346" 
d="M289 500v-500h-133v500h133zM273 704c13 11 29 17 46 17s33 -6 46 -17c13 -15 20 -33 20 -52s-7 -38 -20 -52c-13 -12 -29 -18 -46 -18s-33 6 -46 18c-13 14 -20 33 -20 52s7 37 20 52zM61 739c13 12 31 18 48 18s34 -6 47 -18l8 -10c3 -4 5 -8 7 -13c1 -1 1 -2 1 -3
c5 -12 7 -25 7 -40c0 -79 -65 -188 -131 -242l-34 37c44 40 87 99 96 150h-4c-16 0 -32 6 -45 18c-14 14 -20 32 -20 51s6 38 20 52z" />
    <glyph glyph-name="fleuron" unicode="&#x2d;&#x2d;&#x2a;" horiz-adv-x="688" 
d="M346 394c0 -56 66 -70 66 -70h143c-27 90 -80 129 -141 129c-39 0 -68 -20 -68 -59zM621 228l-49 -12c-1 20 -4 39 -6 57h-47c-10 -108 -87 -154 -157 -154c-63 0 -116 30 -116 87c0 40 16 62 34 75c-60 10 -96 29 -118 52c-2 -15 -3 -31 -3 -47c0 -130 68 -239 210 -239
c141 0 184 101 184 101l32 -40s-40 -119 -223 -119c-210 0 -297 150 -297 291c0 127 49 202 52 206l91 9c2 1 5 2 6 2c-2 -3 -17 -31 -31 -74c1 -44 18 -73 84 -88c-8 16 -12 35 -12 58c0 69 47 118 138 118c134 0 220 -93 228 -283z" />
    <glyph glyph-name="doubleline" unicode="&#x2d;&#x2d;&#x2d;" horiz-adv-x="1145" 
d="M411 457c-35 0 -60 -27 -69 -54c155 -104 313 -303 392 -303c36 0 61 30 69 59c-156 103 -314 298 -392 298zM68 281h-42c0 103 47 184 157 184c38 0 79 -14 120 -37c13 65 63 138 146 138c144 0 406 -376 550 -376c55 0 79 37 79 91h41c0 -104 -43 -184 -152 -184
c-40 0 -82 15 -124 38c-12 -66 -59 -139 -144 -139c-143 0 -409 372 -552 372c-56 0 -79 -37 -79 -87z" />
    <glyph glyph-name="fleuron.01" unicode="&#x2a;&#x2d;&#x2d;" horiz-adv-x="688" 
d="M276 176h-143c26 -91 79 -129 141 -129c39 0 68 20 68 59c0 56 -66 70 -66 70zM67 272l50 12c1 -21 3 -40 5 -58h46c10 108 87 155 158 155c63 0 117 -30 117 -87c0 -41 -17 -64 -36 -76c61 -10 98 -29 120 -53c2 16 3 32 3 49c0 130 -69 239 -211 239
c-141 0 -184 -101 -184 -101l-31 40s39 119 223 119c209 0 296 -150 296 -291c0 -127 -49 -202 -52 -206l-91 -10c-3 -1 -5 -1 -6 -1c0 0 1 0 1 1c3 5 17 32 30 71c-1 45 -18 75 -85 90c7 -17 13 -35 13 -58c0 -69 -47 -118 -138 -118c-134 0 -219 93 -228 283z" />
    <glyph glyph-name=".notdef" horiz-adv-x="660" 
d="M392 28v88h79v90h96v-178h-175zM392 418v88h175v-178h-96v90h-79zM189 206v-90h78v-88h-175v178h97zM267 506v-88h-78v-90h-97v178h175z" />
    <glyph glyph-name="space" unicode=" " horiz-adv-x="255" 
 />
    <glyph glyph-name="exclam" unicode="!" horiz-adv-x="333" 
d="M115 124c15 14 36 21 56 21s40 -7 55 -21c16 -17 24 -38 24 -60s-8 -43 -24 -59c-15 -14 -35 -21 -55 -21s-41 7 -56 21c-16 16 -24 37 -24 59s8 43 24 60zM246 750v-61l-43 -459h-67l-42 459v61h152z" />
    <glyph glyph-name="quotedbl" unicode="&#x22;" horiz-adv-x="398" 
d="M344 746l-47 -262h-63l-12 266zM153 746l-47 -262h-63l-12 266z" />
    <glyph glyph-name="numbersign" unicode="#" horiz-adv-x="518" 
d="M214 399l-31 -149h117l31 149h-117zM423 563l-21 -100h70v-64h-83l-31 -149h114v-64h-128l-28 -136l-54 17l25 119h-118l-24 -117l-54 17l21 100h-67v64h80l32 149h-112v64h125l29 135l54 -16l-25 -119h117l24 116z" />
    <glyph glyph-name="dollar" unicode="$" horiz-adv-x="417" 
d="M24 132l37 52s44 -61 111 -61c51 0 77 30 77 69c0 102 -204 68 -204 232c0 81 51 130 118 148l13 128h65l13 -123c59 -8 112 -33 112 -33l-18 -67s-65 37 -113 37c-42 0 -65 -22 -65 -55c0 -102 218 -78 218 -239c0 -79 -45 -141 -134 -158l-10 -112h-65l-14 108
c-104 12 -141 74 -141 74z" />
    <glyph glyph-name="percent" unicode="%" horiz-adv-x="867" 
d="M722 187c0 100 -21 137 -66 137s-64 -37 -64 -137s19 -143 63 -143c45 0 67 43 67 143zM831 185c0 -120 -62 -204 -175 -204c-116 0 -174 84 -174 204c0 119 64 201 174 201c107 0 175 -82 175 -201zM276 468c0 100 -21 137 -66 137s-64 -37 -64 -137s19 -143 63 -143
c45 0 67 43 67 143zM385 466c0 -120 -62 -204 -175 -204c-116 0 -174 84 -174 204c0 119 64 201 174 201c107 0 175 -82 175 -201zM595 615l-271 -627l-66 20l270 627z" />
    <glyph glyph-name="ampersand" unicode="&#x26;" horiz-adv-x="641" 
d="M377 101c-3 17 -4 36 -4 58v146h-112c-43 -1 -83 -34 -83 -124c0 -91 28 -124 101 -124c52 0 83 25 98 44zM610 371v-66h-111v-138c0 -93 14 -109 56 -109c32 0 56 13 56 13l4 -58s-25 -24 -101 -24c-52 0 -91 14 -114 49c-28 -26 -72 -49 -144 -49
c-156 0 -220 80 -220 190c0 92 65 140 130 162c-45 24 -87 68 -87 147c0 109 78 172 191 172c67 0 134 -31 134 -31l-11 -65s-54 29 -96 29c-52 0 -82 -29 -82 -112c0 -82 24 -108 55 -110h112l65 129h52v-129h111z" />
    <glyph glyph-name="quotesingle" unicode="'" horiz-adv-x="207" 
d="M153 746l-47 -262h-63l-12 266z" />
    <glyph glyph-name="parenleft" unicode="(" horiz-adv-x="359" 
d="M267 732l57 -35s-119 -114 -119 -425c0 -315 119 -421 119 -421l-53 -34s-194 124 -194 455s190 460 190 460z" />
    <glyph glyph-name="parenright" unicode=")" horiz-adv-x="359" 
d="M88 -183l-53 34s118 119 118 426s-118 420 -118 420l53 35s193 -124 193 -455s-193 -460 -193 -460z" />
    <glyph glyph-name="asterisk" unicode="*" horiz-adv-x="410" 
d="M48 631l133 -97l-37 181h123l-41 -180l136 96l37 -129l-159 -15l123 -123l-99 -80l-59 171l-60 -171l-98 80l122 121l-159 17z" />
    <glyph glyph-name="plus" unicode="+" horiz-adv-x="456" 
d="M265 496v-184h160v-74h-160v-185h-71v185h-163v74h163v184h71z" />
    <glyph glyph-name="comma" unicode="," horiz-adv-x="265" 
d="M78 141c13 12 31 19 49 19s36 -7 50 -19c6 -7 11 -14 15 -22c8 -17 12 -36 12 -58c0 -77 -49 -177 -111 -228l-34 37c43 39 74 95 78 145c-3 0 -7 -1 -11 -1c-18 0 -35 7 -48 19c-15 14 -22 34 -22 54s7 39 22 54z" />
    <glyph glyph-name="hyphen" unicode="-" horiz-adv-x="333" 
d="M303 312v-74h-272v74h272z" />
    <glyph glyph-name="period" unicode="." horiz-adv-x="297" 
d="M92 124c15 14 36 21 56 21s40 -7 55 -21c16 -17 24 -38 24 -60s-8 -43 -24 -59c-15 -14 -35 -21 -55 -21s-41 7 -56 21c-16 16 -24 37 -24 59s8 43 24 60z" />
    <glyph glyph-name="slash" unicode="/" horiz-adv-x="457" 
d="M375 750h90l-367 -1000h-90z" />
    <glyph glyph-name="zero" unicode="0" horiz-adv-x="579" 
d="M290 591c-75 0 -96 -58 -96 -268c0 -209 21 -265 96 -265c74 0 96 56 96 265c0 210 -22 268 -96 268zM290 660c176 0 245 -130 245 -337s-69 -334 -245 -334s-246 127 -246 334s70 337 246 337z" />
    <glyph glyph-name="one" unicode="1" horiz-adv-x="398" 
d="M192 650h107v-650h-131v558l-99 -53l-27 60z" />
    <glyph glyph-name="two" unicode="2" horiz-adv-x="484" 
d="M449 125v-125h-415v103c79 31 259 171 259 357c0 101 -31 126 -95 126c-52 0 -128 -49 -128 -49l-14 70s81 53 166 53c148 0 218 -82 218 -191c0 -145 -142 -270 -251 -344h260z" />
    <glyph glyph-name="three" unicode="3" horiz-adv-x="492" 
d="M424 650v-84l-160 -193h6c101 0 185 -66 185 -185c0 -132 -112 -199 -229 -199c-132 0 -191 73 -191 73l36 59s61 -61 138 -61c71 0 104 36 104 129c0 87 -22 120 -72 120c-23 0 -45 -20 -52 -27l-2 -2l-41 46l160 198h-240l7 126h351z" />
    <glyph glyph-name="four" unicode="4" horiz-adv-x="533" 
d="M189 666l127 -16c-37 -158 -132 -315 -199 -422h189l36 324h100v-324h64v-57l-64 -12v-159h-136v159h-269l-7 59c59 106 129 303 159 448z" />
    <glyph glyph-name="five" unicode="5" horiz-adv-x="489" 
d="M416 650l-7 -130h-237l-12 -119c16 5 36 9 58 9c136 0 232 -66 232 -199c0 -156 -132 -222 -252 -222c-122 0 -176 72 -176 72l40 56s47 -57 125 -57c73 0 121 36 121 148c0 104 -41 138 -102 138c-36 0 -63 -16 -74 -31l-5 -10l-47 7l38 338h298z" />
    <glyph glyph-name="six" unicode="6" horiz-adv-x="530" 
d="M271 358c-39 0 -65 -25 -81 -47c-2 -18 -3 -61 -3 -89c0 -128 24 -167 86 -167c58 0 78 44 78 155c0 105 -22 148 -80 148zM427 621l-17 -67s-63 36 -115 36c-73 0 -114 -46 -119 -210c29 23 65 41 111 41c118 0 207 -67 207 -213c0 -137 -83 -219 -221 -219
c-140 0 -229 82 -229 277c0 28 3 81 5 95c26 217 116 299 233 299c72 0 145 -39 145 -39z" />
    <glyph glyph-name="seven" unicode="7" horiz-adv-x="451" 
d="M436 650v-105c-83 -148 -163 -384 -198 -545h-144c45 166 157 366 241 517h-299v133h400z" />
    <glyph glyph-name="eight" unicode="8" horiz-adv-x="536" 
d="M192 479c0 -92 44 -118 76 -125c30 6 76 29 76 125c0 91 -25 119 -76 119s-76 -28 -76 -119zM351 178c0 95 -53 118 -87 122c-30 -5 -78 -27 -78 -122s29 -127 82 -127s83 33 83 127zM487 482c0 -86 -61 -129 -120 -151c60 -15 134 -54 134 -157
c0 -135 -91 -185 -233 -185s-232 50 -232 187c0 86 66 131 130 153c-55 19 -117 61 -117 154c0 116 90 177 219 177s219 -62 219 -178z" />
    <glyph glyph-name="nine" unicode="9" horiz-adv-x="530" 
d="M258 286c47 0 74 30 83 69c1 21 2 52 2 72c0 127 -24 167 -81 167c-58 0 -84 -51 -84 -158c0 -105 23 -150 80 -150zM91 33l29 65s43 -39 107 -39c65 0 120 43 126 208c-24 -24 -59 -44 -111 -44c-117 0 -206 62 -206 208c0 137 88 229 226 229c139 0 223 -83 223 -277
c0 -28 -1 -56 -2 -70c-17 -232 -131 -324 -247 -324c-105 0 -145 44 -145 44z" />
    <glyph glyph-name="colon" unicode=":" horiz-adv-x="298" 
d="M92 124c15 14 36 21 56 21s40 -7 55 -21c16 -17 24 -38 24 -60s-8 -43 -24 -59c-15 -14 -35 -21 -55 -21s-41 7 -56 21c-16 16 -24 37 -24 59s8 43 24 60zM92 475c15 14 36 21 56 21s40 -7 55 -21c16 -17 24 -38 24 -60s-8 -43 -24 -59c-15 -14 -35 -21 -55 -21
s-41 7 -56 21c-16 16 -24 37 -24 59s8 43 24 60z" />
    <glyph glyph-name="semicolon" unicode=";" horiz-adv-x="297" 
d="M92 475c15 14 36 21 56 21s40 -7 55 -21c16 -17 24 -38 24 -60s-8 -43 -24 -59c-15 -14 -35 -21 -55 -21s-41 7 -56 21c-16 16 -24 37 -24 59s8 43 24 60zM97 141c13 12 31 19 49 19s36 -7 50 -19c6 -7 11 -14 15 -22c8 -17 12 -36 12 -58c0 -77 -49 -177 -111 -228
l-34 37c43 39 74 95 78 145c-3 0 -7 -1 -11 -1c-18 0 -35 7 -48 19c-15 14 -22 34 -22 54s7 39 22 54z" />
    <glyph glyph-name="less" unicode="&#x3c;" horiz-adv-x="378" 
d="M329 136l-43 -46l-239 225l239 226l39 -46l-161 -179z" />
    <glyph glyph-name="equal" unicode="=" 
d="M494 409v-74h-463v74h463zM494 215v-74h-463v74h463z" />
    <glyph glyph-name="greater" unicode="&#x3e;" horiz-adv-x="378" 
d="M53 495l39 46l239 -226l-239 -225l-39 46l157 179z" />
    <glyph glyph-name="question" unicode="?" horiz-adv-x="445" 
d="M121 124c15 14 36 21 56 21s40 -7 55 -21c16 -17 24 -38 24 -60s-8 -43 -24 -59c-15 -14 -35 -21 -55 -21s-41 7 -56 21c-16 16 -24 37 -24 59s8 43 24 60zM67 653l-10 64s65 43 161 43c136 0 194 -90 194 -178c0 -200 -220 -177 -220 -326c0 -8 1 -17 2 -26l-47 -4
c-10 31 -14 55 -14 76c0 114 127 98 127 261c0 90 -23 129 -79 129c-57 0 -114 -39 -114 -39z" />
    <glyph glyph-name="at" unicode="@" horiz-adv-x="862" 
d="M506 82v241c-8 13 -26 31 -60 31c-60 0 -83 -47 -83 -162c0 -113 25 -155 82 -155c34 0 52 24 61 45zM622 -18c-49 0 -84 11 -102 44c-16 -21 -46 -45 -101 -45c-97 0 -170 66 -170 211c0 128 79 217 184 217c41 0 70 -16 91 -35l18 17h57v-271c0 -63 9 -83 36 -83
c42 0 80 41 80 249c0 207 -78 294 -248 294c-181 0 -303 -109 -303 -396c0 -256 109 -365 288 -365c147 0 221 88 221 88l28 -55s-70 -101 -249 -101c-284 0 -406 163 -406 433c0 274 143 456 421 456c234 0 353 -129 353 -351c0 -215 -82 -307 -198 -307z" />
    <glyph glyph-name="A" unicode="A" horiz-adv-x="608" 
d="M280 551h-2l-96 -306h187zM235 650h153l202 -650h-146l-56 182h-226l-59 -182h-84z" />
    <glyph glyph-name="B" unicode="B" horiz-adv-x="569" 
d="M215 361h82c29 0 73 24 73 112c0 82 -44 112 -99 112h-56v-224zM304 301h-89v-236h62c70 0 116 39 116 127c0 82 -38 109 -89 109zM77 0v650h198c161 0 230 -83 230 -169c0 -73 -48 -117 -97 -142c72 -23 125 -74 125 -152c0 -110 -83 -187 -253 -187h-203z" />
    <glyph glyph-name="C" unicode="C" horiz-adv-x="576" 
d="M518 536c0 0 -95 49 -169 49c-109 0 -161 -66 -161 -260s57 -261 168 -261c107 0 166 93 166 93l44 -48s-62 -120 -229 -120c-200 0 -301 130 -301 331c0 205 109 340 296 340c103 0 200 -51 200 -51z" />
    <glyph glyph-name="D" unicode="D" horiz-adv-x="647" 
d="M298 579h-83v-508h85c113 0 159 65 159 252c0 188 -46 256 -161 256zM298 650c200 0 314 -112 314 -327c0 -210 -108 -323 -313 -323h-222v650h221z" />
    <glyph glyph-name="E" unicode="E" 
d="M481 72v-72h-404v650h390v-72h-252v-214h222v-70h-222v-222h266z" />
    <glyph glyph-name="F" unicode="F" horiz-adv-x="488" 
d="M439 338v-70h-224v-268h-138v650h395v-72h-257v-240h224z" />
    <glyph glyph-name="G" unicode="G" horiz-adv-x="625" 
d="M565 343v-343h-60l-35 57c-27 -35 -75 -68 -155 -68c-178 0 -279 124 -279 334c0 211 111 337 300 337c104 0 201 -51 201 -51l-15 -73s-94 49 -168 49c-123 0 -166 -75 -166 -263c0 -189 59 -258 151 -258c84 0 104 66 109 90v121h-101v68h218z" />
    <glyph glyph-name="H" unicode="H" horiz-adv-x="655" 
d="M578 650v-650h-138v296h-225v-296h-138v650h138v-284h225v284h138z" />
    <glyph glyph-name="I" unicode="I" horiz-adv-x="293" 
d="M215 650v-650h-138v650h138z" />
    <glyph glyph-name="J" unicode="J" horiz-adv-x="384" 
d="M34 88c0 0 23 -28 69 -28c47 0 74 29 74 154v436h138v-436c0 -171 -63 -225 -182 -225c-101 0 -129 41 -129 41z" />
    <glyph glyph-name="K" unicode="K" horiz-adv-x="619" 
d="M77 0v650h138v-301l59 43l191 258h96l-197 -254l243 -396h-175l-174 292l-43 -30v-262h-138z" />
    <glyph glyph-name="L" unicode="L" horiz-adv-x="479" 
d="M467 72v-72h-390v650h138v-578h252z" />
    <glyph glyph-name="M" unicode="M" horiz-adv-x="856" 
d="M772 650l7 -650h-135l-7 492h-3l-181 -492h-103l-181 492h-3l-3 -492h-86l8 650h167l182 -479h4l179 479h155z" />
    <glyph glyph-name="N" unicode="N" horiz-adv-x="651" 
d="M574 650v-650h-108l-309 488h-2l8 -58v-430h-86v650h143l273 -441h2l-7 45v396h86z" />
    <glyph glyph-name="O" unicode="O" horiz-adv-x="663" 
d="M474 324c0 183 -43 264 -144 264c-100 0 -142 -81 -142 -264c0 -184 39 -264 142 -264s144 80 144 264zM627 324c0 -204 -105 -335 -297 -335c-191 0 -294 131 -294 335s103 336 294 336c192 0 297 -132 297 -336z" />
    <glyph glyph-name="P" unicode="P" horiz-adv-x="533" 
d="M263 585h-48v-318h48c62 0 98 33 98 157c0 123 -35 161 -98 161zM77 0v650h199c144 0 234 -71 234 -220c0 -166 -126 -227 -231 -227h-64v-203h-138z" />
    <glyph glyph-name="Q" unicode="Q" horiz-adv-x="663" 
d="M474 324c0 179 -43 264 -144 264c-100 0 -142 -85 -142 -264s39 -264 142 -264s144 85 144 264zM581 -187c-19 -7 -39 -10 -59 -10c-101 0 -198 88 -240 189c-160 20 -246 145 -246 332c0 204 103 336 294 336c192 0 297 -125 297 -329c0 -173 -76 -298 -215 -332
c33 -67 80 -134 135 -134c9 0 18 2 28 6z" />
    <glyph glyph-name="R" unicode="R" horiz-adv-x="578" 
d="M263 585h-48v-283h51c72 0 96 33 96 138c0 103 -27 145 -99 145zM277 650c145 0 234 -74 234 -204c0 -89 -51 -150 -112 -182l150 -264h-159l-122 236h-53v-236h-138v650h200z" />
    <glyph glyph-name="S" unicode="S" horiz-adv-x="492" 
d="M429 614l-16 -68s-65 44 -135 44c-50 0 -84 -29 -84 -81c0 -140 263 -108 263 -324c0 -125 -103 -196 -229 -196c-149 0 -197 79 -197 79l38 58s51 -63 150 -63c65 0 99 38 99 91c0 126 -260 105 -260 312c0 120 88 194 211 194c90 0 160 -46 160 -46z" />
    <glyph glyph-name="T" unicode="T" horiz-adv-x="516" 
d="M502 650v-72h-174v-578h-139v578h-175v72h488z" />
    <glyph glyph-name="U" unicode="U" horiz-adv-x="614" 
d="M307 -11c-161 0 -239 95 -239 247v414h139v-383c0 -146 40 -202 122 -202c90 0 131 64 131 202v383h85v-414c0 -148 -62 -247 -238 -247z" />
    <glyph glyph-name="V" unicode="V" horiz-adv-x="576" 
d="M357 0h-153l-195 650h146l154 -549h3l167 549h87z" />
    <glyph glyph-name="W" unicode="W" horiz-adv-x="873" 
d="M775 650h88l-170 -650h-118l-136 480h-2l-135 -480h-120l-173 650h147l120 -492h2l133 492h111l137 -489h3z" />
    <glyph glyph-name="X" unicode="X" horiz-adv-x="581" 
d="M8 0l202 316l-193 334h173l120 -233h3l139 233h98l-190 -300l213 -350h-172l-139 248h-3l-147 -248h-104z" />
    <glyph glyph-name="Y" unicode="Y" horiz-adv-x="523" 
d="M291 355h2l140 295h96l-195 -384v-266h-139v251l-202 399h155z" />
    <glyph glyph-name="Z" unicode="Z" horiz-adv-x="567" 
d="M522 650v-60l-313 -518h312v-72h-479v58l313 520h-295v72h462z" />
    <glyph glyph-name="bracketleft" unicode="[" horiz-adv-x="386" 
d="M378 -21v-68h-293v800h293v-69h-177v-663h177z" />
    <glyph glyph-name="backslash" unicode="\" horiz-adv-x="457" 
d="M-7 750h90l366 -1000h-89z" />
    <glyph glyph-name="bracketright" unicode="]" horiz-adv-x="386" 
d="M301 710v-799h-294v68h177v663h-177v68h294z" />
    <glyph glyph-name="asciicircum" unicode="^" horiz-adv-x="357" 
d="M178 698l149 -167l-39 -44l-110 106l-109 -106l-39 44z" />
    <glyph glyph-name="underscore" unicode="_" horiz-adv-x="679" 
d="M648 -88v-74h-617v74h617z" />
    <glyph glyph-name="grave" unicode="`" horiz-adv-x="242" 
d="M-36 703l106 35l85 -147l-62 -17z" />
    <glyph glyph-name="a" unicode="a" horiz-adv-x="513" 
d="M302 111v132c-83 -9 -136 -36 -136 -106c0 -55 24 -81 59 -81c55 0 77 55 77 55zM100 407l-13 64s77 40 155 40c117 0 193 -40 193 -175v-227c0 -42 11 -53 21 -53c12 0 34 7 34 7l4 -52s-69 -22 -111 -22c-39 0 -59 18 -66 62h-5s-28 -62 -131 -62
c-92 0 -154 49 -154 131c0 133 168 167 275 176v29c0 93 -25 119 -83 119c-47 0 -119 -37 -119 -37z" />
    <glyph glyph-name="b" unicode="b" horiz-adv-x="545" 
d="M277 437c-59 0 -84 -52 -84 -52v-287s20 -37 79 -37c74 0 101 54 101 196c0 137 -27 180 -96 180zM60 0v746l133 8v-287h4s29 48 120 48c119 0 199 -103 199 -255c0 -163 -76 -275 -209 -275c-91 0 -132 49 -132 49h-2l-22 -34h-91z" />
    <glyph glyph-name="c" unicode="c" horiz-adv-x="446" 
d="M403 408c0 0 -71 36 -118 36c-71 0 -112 -34 -112 -195c0 -160 47 -193 108 -193c79 0 114 69 114 69l47 -30s-37 -106 -175 -106c-153 0 -238 89 -238 258c0 162 90 264 241 264c69 0 146 -39 146 -39z" />
    <glyph glyph-name="d" unicode="d" horiz-adv-x="545" 
d="M268 67c56 0 84 46 84 46v288s-28 33 -79 33c-70 0 -101 -49 -101 -191s31 -176 96 -176zM485 754v-754h-111l-15 45h-1s-24 -56 -120 -56c-125 0 -209 98 -209 250c0 163 80 271 203 271c87 0 117 -38 117 -38h3v274z" />
    <glyph glyph-name="e" unicode="e" horiz-adv-x="474" 
d="M251 446c-53 0 -76 -34 -81 -160h153v23c0 102 -19 137 -72 137zM395 122l45 -35s-48 -98 -177 -98c-141 0 -234 73 -234 252c0 177 89 269 222 269c124 0 196 -80 196 -226c0 -40 -8 -63 -8 -63h-269c2 -121 33 -165 109 -165c77 0 116 66 116 66z" />
    <glyph glyph-name="f" unicode="f" horiz-adv-x="346" 
d="M342 500v-77h-125v-423h-133v423h-49v60l49 14v74c0 113 41 189 158 189c57 0 112 -34 112 -34l-17 -57s-43 24 -71 24c-34 0 -49 -18 -49 -137v-56h125z" />
    <glyph glyph-name="g" unicode="g" horiz-adv-x="461" 
d="M297 332c0 94 -27 114 -69 114s-71 -20 -71 -116c0 -90 27 -122 72 -122c44 0 68 33 68 124zM225 -36c-38 0 -71 5 -97 16c-14 -15 -25 -38 -25 -72c0 -63 40 -102 131 -102c80 0 117 30 117 82c0 55 -45 76 -126 76zM235 510c27 0 53 -4 76 -11l135 -1v-59l-48 -3
c18 -27 28 -62 28 -106c0 -121 -79 -183 -194 -183c-24 0 -47 3 -69 8c-10 -8 -19 -21 -19 -37c0 -24 23 -41 102 -41c149 0 216 -55 216 -158c0 -117 -77 -181 -228 -181c-157 0 -224 69 -224 167c0 68 32 104 63 123c-7 15 -11 32 -11 54c0 49 23 80 44 98
c-47 30 -77 80 -77 150c0 126 95 180 206 180z" />
    <glyph glyph-name="h" unicode="h" horiz-adv-x="537" 
d="M60 0v746l133 8v-288h4s42 44 130 44c103 0 154 -53 154 -171v-339h-132v328c0 79 -19 99 -68 99c-57 0 -88 -36 -88 -36v-391h-133z" />
    <glyph glyph-name="i" unicode="i" horiz-adv-x="253" 
d="M74 708c15 14 34 20 53 20s37 -6 51 -19c15 -16 22 -36 22 -57s-7 -42 -22 -58c-14 -12 -32 -19 -51 -19s-38 7 -53 20c-15 15 -23 36 -23 57s8 41 23 56zM193 500v-500h-133v500h133z" />
    <glyph glyph-name="j" unicode="j" horiz-adv-x="280" 
d="M101 708c15 14 34 20 53 20s37 -6 51 -19c15 -16 22 -36 22 -57s-7 -42 -22 -58c-14 -12 -32 -19 -51 -19s-38 7 -53 20c-15 15 -23 36 -23 57s8 41 23 56zM86 -29v529h133v-529c0 -171 -76 -232 -176 -232c-65 0 -93 30 -93 30l22 60s25 -19 53 -19c42 0 61 38 61 161z
" />
    <glyph glyph-name="k" unicode="k" horiz-adv-x="491" 
d="M59 0v746l133 8v-466l69 47l106 165h82l-130 -186l162 -314h-152l-112 234l-25 -16v-218h-133z" />
    <glyph glyph-name="l" unicode="l" horiz-adv-x="254" 
d="M193 754v-754h-133v746z" />
    <glyph glyph-name="m" unicode="m" horiz-adv-x="760" 
d="M60 0v500h107l17 -45h3s48 55 132 55c54 0 90 -16 110 -53c5 4 55 53 142 53c95 0 133 -47 133 -161v-349h-133v339c0 76 -19 89 -53 89c-38 0 -63 -27 -71 -38c1 -12 2 -25 2 -39v-351h-133v339c0 76 -20 89 -52 89c-40 0 -67 -30 -71 -36v-392h-133z" />
    <glyph glyph-name="n" unicode="n" horiz-adv-x="538" 
d="M60 0v500h107l17 -41h4s38 51 141 51c102 0 154 -53 154 -171v-339h-133v312c0 91 -18 115 -67 115c-58 0 -90 -36 -90 -36v-391h-133z" />
    <glyph glyph-name="o" unicode="o" horiz-adv-x="525" 
d="M262 444c-66 0 -90 -50 -90 -193c0 -145 24 -196 90 -196s90 51 90 195s-24 194 -90 194zM496 250c0 -166 -90 -261 -234 -261c-150 0 -233 95 -233 261s83 261 233 261c151 0 234 -95 234 -261z" />
    <glyph glyph-name="p" unicode="p" horiz-adv-x="545" 
d="M277 433c-53 0 -82 -39 -84 -43v-292s23 -33 74 -33c73 0 105 46 105 192c0 141 -33 176 -95 176zM60 -254v754h107l18 -45h3s42 56 136 56c119 0 191 -99 191 -251c0 -163 -75 -271 -198 -271c-88 0 -121 38 -121 38h-3v-277z" />
    <glyph glyph-name="q" unicode="q" horiz-adv-x="545" 
d="M273 67c55 0 76 38 78 42v294c-3 4 -26 32 -74 32c-66 0 -105 -39 -105 -192c0 -150 39 -176 101 -176zM484 500v-750l-133 -4v290h-4s-28 -47 -119 -47c-119 0 -198 98 -198 250c0 163 85 272 209 272c84 0 125 -42 125 -42h1l30 31h89z" />
    <glyph glyph-name="r" unicode="r" horiz-adv-x="355" 
d="M354 497l-12 -93s-51 14 -83 14c-51 0 -66 -60 -66 -60v-358h-133v500h94l22 -84h4s13 95 95 95c32 0 79 -14 79 -14z" />
    <glyph glyph-name="s" unicode="s" horiz-adv-x="417" 
d="M24 64l37 52s44 -61 111 -61c51 0 77 30 77 69c0 102 -204 68 -204 232c0 104 84 155 177 155c71 0 144 -35 144 -35l-18 -67s-65 37 -113 37c-42 0 -65 -22 -65 -55c0 -102 218 -78 218 -239c0 -94 -63 -163 -188 -163c-131 0 -176 75 -176 75z" />
    <glyph glyph-name="t" unicode="t" horiz-adv-x="353" 
d="M321 500v-77h-110v-247c0 -94 12 -115 47 -115c32 0 52 9 52 9l8 -57s-25 -24 -101 -24c-92 0 -139 39 -139 153v281h-48v60l49 14l64 169h68v-166h110z" />
    <glyph glyph-name="u" unicode="u" horiz-adv-x="538" 
d="M477 500v-500h-107l-19 44h-2s-37 -55 -139 -55s-154 53 -154 171v340h133v-312c0 -92 22 -116 68 -116c53 0 87 38 87 38v390h133z" />
    <glyph glyph-name="v" unicode="v" horiz-adv-x="472" 
d="M180 0l-175 500h161l98 -356h4l112 356h87l-177 -500h-110z" />
    <glyph glyph-name="w" unicode="w" horiz-adv-x="700" 
d="M608 500h86l-147 -500h-106l-90 326v1h-3l-93 -327h-106l-143 500h151l73 -333h3l95 333h91l105 -333h3z" />
    <glyph glyph-name="x" unicode="x" horiz-adv-x="473" 
d="M444 500l-139 -227l159 -273h-159l-94 187l-109 -187h-93l154 242l-146 258h159l83 -177l94 177h91z" />
    <glyph glyph-name="y" unicode="y" horiz-adv-x="481" 
d="M33 -168c0 0 26 -11 52 -11c64 0 93 50 135 159l-213 520h161l122 -356l103 356h83l-173 -511c-55 -152 -105 -250 -203 -250c-52 0 -78 15 -78 15z" />
    <glyph glyph-name="z" unicode="z" horiz-adv-x="434" 
d="M407 500v-60l-227 -372h218l2 -68h-374v60l229 372h-210l-3 68h365z" />
    <glyph glyph-name="braceleft" unicode="{" horiz-adv-x="406" 
d="M95 255v73c30 0 88 20 88 62c0 54 -29 136 -29 204c0 98 47 154 220 154v-65c-76 0 -106 -30 -106 -86c0 -62 29 -154 29 -217c0 -42 -26 -71 -69 -88c43 -18 69 -47 69 -89c0 -62 -29 -155 -29 -216c0 -56 30 -86 106 -86v-66c-173 0 -220 57 -220 155
c0 68 29 149 29 204c0 42 -58 61 -88 61z" />
    <glyph glyph-name="bar" unicode="|" horiz-adv-x="342" 
d="M210 750v-1000h-77v1000h77z" />
    <glyph glyph-name="braceright" unicode="}" horiz-adv-x="406" 
d="M56 -99c77 0 106 30 106 86c0 61 -29 154 -29 216c0 42 26 71 69 89c-43 17 -69 46 -69 88c0 63 29 155 29 217c0 56 -29 86 -106 86v65c173 0 221 -56 221 -154c0 -68 -30 -150 -30 -204c0 -42 59 -62 89 -62v-73c-30 0 -89 -19 -89 -61c0 -55 30 -136 30 -204
c0 -98 -48 -155 -221 -155v66z" />
    <glyph glyph-name="asciitilde" unicode="~" horiz-adv-x="598" 
d="M534 389l41 -26s-22 -144 -149 -144c-126 0 -177 118 -280 118c-60 0 -78 -50 -78 -50l-43 30s22 142 159 142c138 0 190 -117 285 -117c55 0 65 47 65 47z" />
    <glyph glyph-name="uni00A0" unicode="&#xa0;" horiz-adv-x="377" 
 />
    <glyph glyph-name="exclamdown" unicode="&#xa1;" horiz-adv-x="333" 
d="M106 495c15 14 36 21 56 21s40 -7 55 -21c16 -17 24 -38 24 -60s-8 -43 -24 -59c-15 -14 -35 -21 -55 -21s-41 7 -56 21c-16 16 -24 37 -24 59s8 43 24 60zM87 -250v61l43 458h67l43 -458v-61h-153z" />
    <glyph glyph-name="cent" unicode="&#xa2;" horiz-adv-x="446" 
d="M403 478c0 0 -71 36 -118 36c-71 0 -112 -34 -112 -195c0 -160 47 -193 108 -193c79 0 114 69 114 69l47 -30s-32 -91 -145 -105l-9 -110h-66l-13 113c-116 21 -180 107 -180 254c0 138 66 233 179 258l11 125h65l13 -121c61 -8 119 -37 119 -37z" />
    <glyph glyph-name="sterling" unicode="&#xa3;" horiz-adv-x="531" 
d="M456 350v-73h-213c-11 -65 -29 -117 -58 -155h324v-122h-469v122h41c36 24 47 64 47 111c0 15 -1 30 -3 46l-85 7v64h76c-5 38 -10 78 -10 118c0 128 75 192 200 192c71 0 144 -41 144 -41l-20 -65s-58 34 -95 34c-55 0 -80 -21 -80 -128c0 -40 -1 -76 -4 -110h205z" />
    <glyph glyph-name="currency" unicode="&#xa4;" horiz-adv-x="546" 
d="M367 315c0 74 -39 116 -94 116c-54 0 -91 -42 -91 -115s37 -117 91 -117c55 0 94 43 94 116zM440 315c0 -42 -11 -79 -29 -109l93 -81l-48 -67l-82 104c-28 -24 -63 -38 -100 -38c-38 0 -72 13 -100 36l-83 -101l-49 67l95 79c-18 31 -28 68 -28 110c0 40 10 77 27 107
l-95 82l50 67l81 -105c28 25 63 39 102 39c36 0 71 -13 98 -36l83 101l49 -66l-94 -78c19 -31 30 -69 30 -111z" />
    <glyph glyph-name="yen" unicode="&#xa5;" horiz-adv-x="590" 
d="M324 355h2l140 295h96l-159 -313h82v-63h-114l-4 -8v-58h118v-64h-118v-144h-139v144h-127v64h127v43l-12 23h-115v63h83l-158 313h155z" />
    <glyph glyph-name="brokenbar" unicode="&#xa6;" horiz-adv-x="342" 
d="M210 750v-400h-77v400h77zM210 150v-400h-77v400h77z" />
    <glyph glyph-name="section" unicode="&#xa7;" horiz-adv-x="505" 
d="M144 346c0 -88 141 -95 222 -156c12 14 22 33 22 62c0 76 -143 87 -227 149c-10 -13 -17 -30 -17 -55zM60 315c0 68 32 108 60 130c-12 18 -18 40 -18 67c0 93 68 148 175 148c77 0 149 -47 149 -47l-14 -60s-69 40 -116 40c-52 0 -70 -30 -70 -61
c0 -109 246 -69 246 -253c0 -66 -38 -109 -67 -133c11 -19 17 -41 17 -67c0 -86 -69 -147 -189 -147c-111 0 -157 58 -157 58l26 58s41 -49 114 -49c58 0 82 27 82 64c0 99 -238 60 -238 252z" />
    <glyph glyph-name="dieresis" unicode="&#xa8;" horiz-adv-x="422" 
d="M21 704c13 11 29 17 46 17s33 -6 46 -17c13 -15 20 -33 20 -52s-7 -38 -20 -52c-13 -12 -29 -18 -46 -18s-33 6 -46 18c-14 14 -20 33 -20 52s6 37 20 52zM207 704c12 11 29 17 46 17s33 -6 46 -17c13 -15 20 -33 20 -52s-7 -38 -20 -52c-13 -12 -29 -18 -46 -18
s-34 6 -46 18c-14 14 -20 33 -20 52s6 37 20 52z" />
    <glyph glyph-name="copyright" unicode="&#xa9;" horiz-adv-x="729" 
d="M479 462l-18 -47s-34 28 -69 28c-47 0 -77 -28 -77 -124c0 -92 30 -122 78 -122c54 0 76 51 76 51l29 -29s-19 -76 -125 -76c-86 0 -156 63 -156 176c0 112 73 177 163 177c59 0 99 -34 99 -34zM608 322c0 180 -95 289 -246 289s-241 -109 -241 -289
c0 -181 90 -284 241 -284s246 103 246 284zM670 323c0 -207 -109 -342 -307 -342c-199 0 -304 135 -304 342s108 344 304 344s307 -137 307 -344z" />
    <glyph glyph-name="ordfeminine" unicode="&#xaa;" horiz-adv-x="413" 
d="M193 367c42 0 49 29 50 36v104c-66 -8 -99 -30 -99 -83c0 -37 17 -57 49 -57zM270 320l-24 40c-2 -8 -18 -53 -99 -53c-78 0 -119 41 -119 106c0 103 133 131 215 137v5c0 55 -18 78 -63 78c-56 0 -95 -42 -95 -42l-25 35s35 57 143 57c100 0 158 -39 158 -137v-226h-91z
" />
    <glyph glyph-name="guillemotleft" unicode="&#xab;" horiz-adv-x="536" 
d="M476 399l-89 -150l89 -151l-35 -39l-177 191l178 186zM291 399l-89 -150l89 -151l-35 -39l-177 191l178 186z" />
    <glyph glyph-name="logicalnot" unicode="&#xac;" horiz-adv-x="495" 
d="M444 352v-237h-68v164h-326v73h394z" />
    <glyph glyph-name="uni00AD" unicode="&#xad;" horiz-adv-x="358" 
d="M315 312v-74h-272v74h272z" />
    <glyph glyph-name="registered" unicode="&#xae;" horiz-adv-x="669" 
d="M334 543h-29v-117h30c26 0 44 14 44 61c0 40 -14 56 -45 56zM235 274v310h98c83 0 125 -33 125 -96c0 -41 -21 -71 -56 -88l56 -127h-78l-48 114h-27v-113h-70zM562 429c0 167 -86 276 -230 276s-225 -114 -225 -276c0 -166 81 -272 225 -272s230 106 230 272zM624 430
c0 -196 -104 -330 -291 -330c-186 0 -287 134 -287 330c0 197 110 329 287 329c179 0 291 -132 291 -329z" />
    <glyph glyph-name="macron" unicode="&#xaf;" horiz-adv-x="428" 
d="M322 682v-58h-214v58h214z" />
    <glyph glyph-name="degree" unicode="&#xb0;" horiz-adv-x="421" 
d="M276 566c0 100 -21 137 -66 137s-64 -37 -64 -137s19 -143 63 -143c45 0 67 43 67 143zM385 564c0 -120 -62 -204 -175 -204c-116 0 -174 84 -174 204c0 119 64 201 174 201c107 0 175 -82 175 -201z" />
    <glyph glyph-name="plusminus" unicode="&#xb1;" 
d="M494 203v-74h-463v74h463zM301 746v-184h160v-74h-160v-185h-71v185h-163v74h163v184h71z" />
    <glyph glyph-name="uni00B2" unicode="&#xb2;" horiz-adv-x="414" 
d="M373 344v-114h-332v95c72 28 196 140 196 267c0 80 -23 103 -72 103c-37 0 -97 -40 -97 -40l-14 58s66 47 144 47c115 0 171 -71 171 -159c0 -108 -100 -199 -184 -257h188z" />
    <glyph glyph-name="uni00B3" unicode="&#xb3;" horiz-adv-x="413" 
d="M355 750v-77l-120 -144c72 -2 138 -56 138 -151c0 -112 -91 -159 -182 -159c-108 0 -155 59 -155 59l29 54s44 -48 107 -48c48 0 77 26 77 97c0 69 -15 91 -43 91c-12 0 -23 -8 -30 -15l-9 -11l-37 43l120 146h-178l7 115h276z" />
    <glyph glyph-name="acute" unicode="&#xb4;" horiz-adv-x="242" 
d="M131 730l108 -31l-121 -130l-57 9z" />
    <glyph glyph-name="uni00B5" unicode="&#xb5;" horiz-adv-x="542" 
d="M482 500v-500h-107l-19 44h-2s-37 -55 -139 -55c-11 0 -21 1 -30 2c6 -80 12 -161 13 -241h-137v750h133v-312c0 -92 22 -116 68 -116c53 0 87 38 87 38v390h133z" />
    <glyph glyph-name="paragraph" unicode="&#xb6;" horiz-adv-x="640" 
d="M604 650v-88h-63v-562h-101v562h-80v-562h-98v232c-140 0 -226 62 -226 212c0 133 68 206 252 206h316z" />
    <glyph glyph-name="periodcentered" unicode="&#xb7;" horiz-adv-x="297" 
d="M92 424c15 14 36 21 56 21s40 -7 55 -21c16 -17 24 -38 24 -60s-8 -43 -24 -59c-15 -14 -35 -21 -55 -21s-41 7 -56 21c-16 16 -24 37 -24 59s8 43 24 60z" />
    <glyph glyph-name="cedilla" unicode="&#xb8;" horiz-adv-x="249" 
d="M108 -1h44l-6 -57c0 -6 89 -15 89 -92c0 -59 -38 -101 -114 -101c-75 0 -96 46 -96 46l26 29s20 -29 55 -29c31 0 50 15 50 57c0 47 -60 46 -60 50z" />
    <glyph glyph-name="uni00B9" unicode="&#xb9;" horiz-adv-x="413" 
d="M187 750h97v-520h-120v423l-75 -52l-28 68z" />
    <glyph glyph-name="ordmasculine" unicode="&#xba;" horiz-adv-x="439" 
d="M219 631c-46 0 -64 -41 -64 -135c0 -96 18 -139 64 -139c47 0 64 42 64 138c0 95 -17 136 -64 136zM409 495c0 -117 -68 -188 -190 -188c-127 0 -190 71 -190 188c0 116 63 188 190 188c128 0 190 -72 190 -188z" />
    <glyph glyph-name="guillemotright" unicode="&#xbb;" horiz-adv-x="536" 
d="M245 397l36 39l175 -191l-176 -186l-36 36l90 150zM60 397l36 39l175 -191l-176 -186l-36 36l90 150z" />
    <glyph glyph-name="onequarter" unicode="&#xbc;" horiz-adv-x="805" 
d="M501 284l117 -14c-24 -123 -83 -247 -133 -329h113v39l34 211h91v-250h42v-52l-42 -12v-127h-125v126h-185l-6 56c42 84 78 242 94 352zM612 566l-337 -606l-55 31l338 605zM187 750h97v-520h-120v423l-75 -52l-28 68z" />
    <glyph glyph-name="onehalf" unicode="&#xbd;" horiz-adv-x="843" 
d="M807 -136v-114h-331v94c72 28 196 141 196 268c0 80 -23 103 -73 103c-36 0 -97 -40 -97 -40l-14 57s67 47 145 47c115 0 170 -71 170 -159c0 -107 -99 -198 -183 -256h187zM612 566l-337 -606l-55 31l338 605zM187 750h97v-520h-120v423l-75 -52l-28 68z" />
    <glyph glyph-name="threequarters" unicode="&#xbe;" horiz-adv-x="847" 
d="M543 284l117 -14c-24 -123 -83 -247 -133 -329h113v39l34 211h91v-250h42v-52l-42 -12v-127h-125v126h-185l-6 56c42 84 78 242 94 352zM654 566l-337 -606l-55 31l338 605zM358 750v-77l-120 -144c72 -2 138 -56 138 -151c0 -112 -91 -159 -182 -159
c-108 0 -155 59 -155 59l29 54s44 -48 107 -48c48 0 77 26 77 97c0 69 -15 91 -43 91c-12 0 -23 -8 -30 -15l-9 -11l-37 43l120 146h-178l7 115h276z" />
    <glyph glyph-name="questiondown" unicode="&#xbf;" horiz-adv-x="445" 
d="M211 495c15 14 36 21 56 21s40 -7 55 -21c16 -17 24 -38 24 -60s-8 -43 -24 -59c-15 -14 -35 -21 -55 -21s-41 7 -56 21c-16 16 -24 37 -24 59s8 43 24 60zM355 -166l28 -61s-42 -34 -135 -34c-166 0 -225 92 -225 177c0 202 222 169 222 320c0 8 -1 16 -2 25l55 4
c7 -27 10 -48 10 -67c0 -122 -134 -95 -134 -263c0 -90 21 -128 88 -128c51 0 93 27 93 27z" />
    <glyph glyph-name="Agrave" unicode="&#xc0;" horiz-adv-x="608" 
d="M167 838l106 35l85 -147l-62 -17zM280 551h-2l-96 -306h187zM235 650h153l202 -650h-146l-56 182h-226l-59 -182h-84z" />
    <glyph glyph-name="Aacute" unicode="&#xc1;" horiz-adv-x="608" 
d="M332 865l108 -31l-121 -130l-57 9zM280 551h-2l-96 -306h187zM235 650h153l202 -650h-146l-56 182h-226l-59 -182h-84z" />
    <glyph glyph-name="Acircumflex" unicode="&#xc2;" horiz-adv-x="608" 
d="M340 888l97 -122l-28 -45l-104 85l-104 -85l-29 45l98 122h70zM280 551h-2l-96 -306h187zM235 650h153l202 -650h-146l-56 182h-226l-59 -182h-84z" />
    <glyph glyph-name="Atilde" unicode="&#xc3;" horiz-adv-x="608" 
d="M454 840l36 -35s-26 -79 -112 -79c-65 0 -99 48 -155 48c-36 0 -58 -45 -58 -45l-36 36s37 90 123 90c73 0 101 -47 152 -47c36 0 50 32 50 32zM280 551h-2l-96 -306h187zM235 650h153l202 -650h-146l-56 182h-226l-59 -182h-84z" />
    <glyph glyph-name="Adieresis" unicode="&#xc4;" horiz-adv-x="608" 
d="M166 839c13 11 29 17 46 17s33 -6 46 -17c13 -15 20 -33 20 -52s-7 -38 -20 -52c-13 -12 -29 -18 -46 -18s-33 6 -46 18c-14 14 -20 33 -20 52s6 37 20 52zM352 839c12 11 29 17 46 17s33 -6 46 -17c13 -15 20 -33 20 -52s-7 -38 -20 -52c-13 -12 -29 -18 -46 -18
s-34 6 -46 18c-14 14 -20 33 -20 52s6 37 20 52zM280 551h-2l-96 -306h187zM235 650h153l202 -650h-146l-56 182h-226l-59 -182h-84z" />
    <glyph glyph-name="Aring" unicode="&#xc5;" horiz-adv-x="608" 
d="M364 792c0 44 -27 64 -59 64s-59 -20 -59 -64c0 -45 24 -66 59 -66s59 21 59 66zM410 791c0 -68 -44 -108 -105 -108c-64 0 -105 40 -105 108s45 107 105 107c58 0 105 -39 105 -107zM280 551h-2l-96 -306h187zM235 650h153l202 -650h-146l-56 182h-226l-59 -182h-84z
" />
    <glyph glyph-name="AE" unicode="&#xc6;" horiz-adv-x="822" 
d="M378 578l-169 -326h176v326h-7zM348 650h426v-72h-251v-214h222v-70h-222v-222h265v-72h-403v188h-210l-102 -188h-87z" />
    <glyph glyph-name="Ccedilla" unicode="&#xc7;" horiz-adv-x="576" 
d="M518 536c0 0 -95 49 -169 49c-109 0 -161 -66 -161 -260s57 -261 168 -261c107 0 166 93 166 93l44 -48s-62 -119 -228 -120l-5 -47c0 -6 89 -15 89 -92c0 -59 -38 -101 -114 -101c-75 0 -96 46 -96 46l26 29s20 -29 55 -29c31 0 50 15 50 57c0 47 -60 46 -60 50l11 89
c-172 17 -258 143 -258 329c0 205 109 340 296 340c103 0 200 -51 200 -51z" />
    <glyph glyph-name="Egrave" unicode="&#xc8;" 
d="M150 838l106 35l85 -147l-62 -17zM481 72v-72h-404v650h390v-72h-252v-214h222v-70h-222v-222h266z" />
    <glyph glyph-name="Eacute" unicode="&#xc9;" 
d="M314 865l108 -31l-121 -130l-57 9zM481 72v-72h-404v650h390v-72h-252v-214h222v-70h-222v-222h266z" />
    <glyph glyph-name="Ecircumflex" unicode="&#xca;" 
d="M324 888l97 -122l-28 -45l-104 85l-104 -85l-29 45l98 122h70zM481 72v-72h-404v650h390v-72h-252v-214h222v-70h-222v-222h266z" />
    <glyph glyph-name="Edieresis" unicode="&#xcb;" 
d="M134 839c13 11 29 17 46 17s33 -6 46 -17c13 -15 20 -33 20 -52s-7 -38 -20 -52c-13 -12 -29 -18 -46 -18s-33 6 -46 18c-14 14 -20 33 -20 52s6 37 20 52zM320 839c12 11 29 17 46 17s33 -6 46 -17c13 -15 20 -33 20 -52s-7 -38 -20 -52c-13 -12 -29 -18 -46 -18
s-34 6 -46 18c-14 14 -20 33 -20 52s6 37 20 52zM481 72v-72h-404v650h390v-72h-252v-214h222v-70h-222v-222h266z" />
    <glyph glyph-name="Igrave" unicode="&#xcc;" horiz-adv-x="293" 
d="M4 838l106 35l85 -147l-62 -17zM215 650v-650h-138v650h138z" />
    <glyph glyph-name="Iacute" unicode="&#xcd;" horiz-adv-x="293" 
d="M170 865l108 -31l-121 -130l-57 9zM215 650v-650h-138v650h138z" />
    <glyph glyph-name="Icircumflex" unicode="&#xce;" horiz-adv-x="293" 
d="M180 888l97 -122l-28 -45l-104 85l-104 -85l-29 45l98 122h70zM215 650v-650h-138v650h138z" />
    <glyph glyph-name="Idieresis" unicode="&#xcf;" horiz-adv-x="293" 
d="M4 839c13 11 29 17 46 17s33 -6 46 -17c13 -15 20 -33 20 -52s-7 -38 -20 -52c-13 -12 -29 -18 -46 -18s-33 6 -46 18c-14 14 -20 33 -20 52s6 37 20 52zM190 839c12 11 29 17 46 17s33 -6 46 -17c13 -15 20 -33 20 -52s-7 -38 -20 -52c-13 -12 -29 -18 -46 -18
s-34 6 -46 18c-14 14 -20 33 -20 52s6 37 20 52zM215 650v-650h-138v650h138z" />
    <glyph glyph-name="Eth" unicode="&#xd0;" horiz-adv-x="658" 
d="M298 579h-83v-224h142v-66h-142v-218h85c113 0 159 65 159 252c0 188 -46 256 -161 256zM298 650c200 0 314 -112 314 -327c0 -210 -108 -323 -313 -323h-222v289h-56v66h56v295h221z" />
    <glyph glyph-name="Ntilde" unicode="&#xd1;" horiz-adv-x="651" 
d="M488 840l36 -35s-26 -79 -112 -79c-65 0 -99 48 -155 48c-36 0 -58 -45 -58 -45l-36 36s37 90 123 90c73 0 101 -47 152 -47c36 0 50 32 50 32zM574 650v-650h-108l-309 488h-2l8 -58v-430h-86v650h143l273 -441h2l-7 45v396h86z" />
    <glyph glyph-name="Ograve" unicode="&#xd2;" horiz-adv-x="663" 
d="M189 838l106 35l85 -147l-62 -17zM474 324c0 183 -43 264 -144 264c-100 0 -142 -81 -142 -264c0 -184 39 -264 142 -264s144 80 144 264zM627 324c0 -204 -105 -335 -297 -335c-191 0 -294 131 -294 335s103 336 294 336c192 0 297 -132 297 -336z" />
    <glyph glyph-name="Oacute" unicode="&#xd3;" horiz-adv-x="663" 
d="M354 865l108 -31l-121 -130l-57 9zM474 324c0 183 -43 264 -144 264c-100 0 -142 -81 -142 -264c0 -184 39 -264 142 -264s144 80 144 264zM627 324c0 -204 -105 -335 -297 -335c-191 0 -294 131 -294 335s103 336 294 336c192 0 297 -132 297 -336z" />
    <glyph glyph-name="Ocircumflex" unicode="&#xd4;" horiz-adv-x="663" 
d="M365 888l97 -122l-28 -45l-104 85l-104 -85l-29 45l98 122h70zM474 324c0 183 -43 264 -144 264c-100 0 -142 -81 -142 -264c0 -184 39 -264 142 -264s144 80 144 264zM627 324c0 -204 -105 -335 -297 -335c-191 0 -294 131 -294 335s103 336 294 336
c192 0 297 -132 297 -336z" />
    <glyph glyph-name="Otilde" unicode="&#xd5;" horiz-adv-x="663" 
d="M477 840l36 -35s-26 -79 -112 -79c-65 0 -99 48 -155 48c-36 0 -58 -45 -58 -45l-36 36s37 90 123 90c73 0 101 -47 152 -47c36 0 50 32 50 32zM474 324c0 183 -43 264 -144 264c-100 0 -142 -81 -142 -264c0 -184 39 -264 142 -264s144 80 144 264zM627 324
c0 -204 -105 -335 -297 -335c-191 0 -294 131 -294 335s103 336 294 336c192 0 297 -132 297 -336z" />
    <glyph glyph-name="Odieresis" unicode="&#xd6;" horiz-adv-x="663" 
d="M188 839c13 11 29 17 46 17s33 -6 46 -17c13 -15 20 -33 20 -52s-7 -38 -20 -52c-13 -12 -29 -18 -46 -18s-33 6 -46 18c-14 14 -20 33 -20 52s6 37 20 52zM374 839c12 11 29 17 46 17s33 -6 46 -17c13 -15 20 -33 20 -52s-7 -38 -20 -52c-13 -12 -29 -18 -46 -18
s-34 6 -46 18c-14 14 -20 33 -20 52s6 37 20 52zM474 324c0 183 -43 264 -144 264c-100 0 -142 -81 -142 -264c0 -184 39 -264 142 -264s144 80 144 264zM627 324c0 -204 -105 -335 -297 -335c-191 0 -294 131 -294 335s103 336 294 336c192 0 297 -132 297 -336z" />
    <glyph glyph-name="multiply" unicode="&#xd7;" horiz-adv-x="423" 
d="M378 448l-116 -129l116 -128l-48 -58l-118 130l-117 -130l-49 58l116 128l-116 129l47 58l119 -132l119 132z" />
    <glyph glyph-name="Oslash" unicode="&#xd8;" horiz-adv-x="663" 
d="M474 324c0 84 -9 146 -29 189l-185 -436c19 -12 42 -17 70 -17c103 0 144 80 144 264zM188 324c0 -102 12 -172 40 -214l189 446c-22 21 -51 32 -87 32c-100 0 -142 -81 -142 -264zM627 324c0 -204 -105 -335 -297 -335c-37 0 -71 5 -101 14l-47 -110l-41 11l48 115
c-100 50 -153 158 -153 305c0 204 103 336 294 336c45 0 86 -8 122 -22l37 88l42 -11l-41 -96c89 -54 137 -158 137 -295z" />
    <glyph glyph-name="Ugrave" unicode="&#xd9;" horiz-adv-x="614" 
d="M207 838l106 35l85 -147l-62 -17zM307 -11c-161 0 -239 95 -239 247v414h139v-383c0 -146 40 -202 122 -202c90 0 131 64 131 202v383h85v-414c0 -148 -62 -247 -238 -247z" />
    <glyph glyph-name="Uacute" unicode="&#xda;" horiz-adv-x="614" 
d="M342 865l108 -31l-121 -130l-57 9zM307 -11c-161 0 -239 95 -239 247v414h139v-383c0 -146 40 -202 122 -202c90 0 131 64 131 202v383h85v-414c0 -148 -62 -247 -238 -247z" />
    <glyph glyph-name="Ucircumflex" unicode="&#xdb;" horiz-adv-x="614" 
d="M366 888l97 -122l-28 -45l-104 85l-104 -85l-29 45l98 122h70zM307 -11c-161 0 -239 95 -239 247v414h139v-383c0 -146 40 -202 122 -202c90 0 131 64 131 202v383h85v-414c0 -148 -62 -247 -238 -247z" />
    <glyph glyph-name="Udieresis" unicode="&#xdc;" horiz-adv-x="614" 
d="M189 839c13 11 29 17 46 17s33 -6 46 -17c13 -15 20 -33 20 -52s-7 -38 -20 -52c-13 -12 -29 -18 -46 -18s-33 6 -46 18c-14 14 -20 33 -20 52s6 37 20 52zM375 839c12 11 29 17 46 17s33 -6 46 -17c13 -15 20 -33 20 -52s-7 -38 -20 -52c-13 -12 -29 -18 -46 -18
s-34 6 -46 18c-14 14 -20 33 -20 52s6 37 20 52zM307 -11c-161 0 -239 95 -239 247v414h139v-383c0 -146 40 -202 122 -202c90 0 131 64 131 202v383h85v-414c0 -148 -62 -247 -238 -247z" />
    <glyph glyph-name="Yacute" unicode="&#xdd;" horiz-adv-x="523" 
d="M308 865l108 -31l-121 -130l-57 9zM291 355h2l140 295h96l-195 -384v-266h-139v251l-202 399h155z" />
    <glyph glyph-name="Thorn" unicode="&#xde;" horiz-adv-x="562" 
d="M290 491h-54v-331h54c62 0 99 30 99 167c0 130 -37 164 -99 164zM236 650v-90h61c143 0 234 -71 234 -227c0 -175 -127 -240 -231 -240h-64v-93h-138v650h138z" />
    <glyph glyph-name="germandbls" unicode="&#xdf;" horiz-adv-x="561" 
d="M193 524v-524h-133v524c0 169 86 236 216 236c119 0 193 -55 193 -148c0 -73 -48 -113 -94 -135c101 -28 157 -103 157 -240c0 -182 -80 -248 -202 -248c-78 0 -104 22 -104 22l15 63s20 -14 58 -14c53 0 90 37 90 176c0 154 -32 192 -133 192v72s79 9 79 100
c0 66 -20 93 -67 93c-54 0 -75 -43 -75 -169z" />
    <glyph glyph-name="agrave" unicode="&#xe0;" horiz-adv-x="513" 
d="M115 703l106 35l85 -147l-62 -17zM302 111v132c-83 -9 -136 -36 -136 -106c0 -55 24 -81 59 -81c55 0 77 55 77 55zM100 407l-13 64s77 40 155 40c117 0 193 -40 193 -175v-227c0 -42 11 -53 21 -53c12 0 34 7 34 7l4 -52s-69 -22 -111 -22c-39 0 -59 18 -66 62h-5
s-28 -62 -131 -62c-92 0 -154 49 -154 131c0 133 168 167 275 176v29c0 93 -25 119 -83 119c-47 0 -119 -37 -119 -37z" />
    <glyph glyph-name="aacute" unicode="&#xe1;" horiz-adv-x="513" 
d="M280 730l108 -31l-121 -130l-57 9zM302 111v132c-83 -9 -136 -36 -136 -106c0 -55 24 -81 59 -81c55 0 77 55 77 55zM100 407l-13 64s77 40 155 40c117 0 193 -40 193 -175v-227c0 -42 11 -53 21 -53c12 0 34 7 34 7l4 -52s-69 -22 -111 -22c-39 0 -59 18 -66 62h-5
s-28 -62 -131 -62c-92 0 -154 49 -154 131c0 133 168 167 275 176v29c0 93 -25 119 -83 119c-47 0 -119 -37 -119 -37z" />
    <glyph glyph-name="acircumflex" unicode="&#xe2;" horiz-adv-x="513" 
d="M290 753l97 -122l-28 -45l-104 85l-104 -85l-29 45l98 122h70zM302 111v132c-83 -9 -136 -36 -136 -106c0 -55 24 -81 59 -81c55 0 77 55 77 55zM100 407l-13 64s77 40 155 40c117 0 193 -40 193 -175v-227c0 -42 11 -53 21 -53c12 0 34 7 34 7l4 -52s-69 -22 -111 -22
c-39 0 -59 18 -66 62h-5s-28 -62 -131 -62c-92 0 -154 49 -154 131c0 133 168 167 275 176v29c0 93 -25 119 -83 119c-47 0 -119 -37 -119 -37z" />
    <glyph glyph-name="atilde" unicode="&#xe3;" horiz-adv-x="513" 
d="M403 705l36 -35s-26 -79 -112 -79c-65 0 -99 48 -155 48c-36 0 -58 -45 -58 -45l-36 36s37 90 123 90c73 0 101 -47 152 -47c36 0 50 32 50 32zM302 111v132c-83 -9 -136 -36 -136 -106c0 -55 24 -81 59 -81c55 0 77 55 77 55zM100 407l-13 64s77 40 155 40
c117 0 193 -40 193 -175v-227c0 -42 11 -53 21 -53c12 0 34 7 34 7l4 -52s-69 -22 -111 -22c-39 0 -59 18 -66 62h-5s-28 -62 -131 -62c-92 0 -154 49 -154 131c0 133 168 167 275 176v29c0 93 -25 119 -83 119c-47 0 -119 -37 -119 -37z" />
    <glyph glyph-name="adieresis" unicode="&#xe4;" horiz-adv-x="513" 
d="M113 704c13 11 29 17 46 17s33 -6 46 -17c13 -15 20 -33 20 -52s-7 -38 -20 -52c-13 -12 -29 -18 -46 -18s-33 6 -46 18c-14 14 -20 33 -20 52s6 37 20 52zM299 704c12 11 29 17 46 17s33 -6 46 -17c13 -15 20 -33 20 -52s-7 -38 -20 -52c-13 -12 -29 -18 -46 -18
s-34 6 -46 18c-14 14 -20 33 -20 52s6 37 20 52zM302 111v132c-83 -9 -136 -36 -136 -106c0 -55 24 -81 59 -81c55 0 77 55 77 55zM100 407l-13 64s77 40 155 40c117 0 193 -40 193 -175v-227c0 -42 11 -53 21 -53c12 0 34 7 34 7l4 -52s-69 -22 -111 -22
c-39 0 -59 18 -66 62h-5s-28 -62 -131 -62c-92 0 -154 49 -154 131c0 133 168 167 275 176v29c0 93 -25 119 -83 119c-47 0 -119 -37 -119 -37z" />
    <glyph glyph-name="aring" unicode="&#xe5;" horiz-adv-x="513" 
d="M314 657c0 44 -27 64 -59 64s-59 -20 -59 -64c0 -45 24 -66 59 -66s59 21 59 66zM360 656c0 -68 -44 -108 -105 -108c-64 0 -105 40 -105 108s45 107 105 107c58 0 105 -39 105 -107zM302 111v132c-83 -9 -136 -36 -136 -106c0 -55 24 -81 59 -81c55 0 77 55 77 55z
M100 407l-13 64s77 40 155 40c117 0 193 -40 193 -175v-227c0 -42 11 -53 21 -53c12 0 34 7 34 7l4 -52s-69 -22 -111 -22c-39 0 -59 18 -66 62h-5s-28 -62 -131 -62c-92 0 -154 49 -154 131c0 133 168 167 275 176v29c0 93 -25 119 -83 119c-47 0 -119 -37 -119 -37z" />
    <glyph glyph-name="ae" unicode="&#xe6;" horiz-adv-x="748" 
d="M225 56c59 0 75 72 79 127c-2 18 -3 37 -3 58v7c-83 -9 -135 -37 -135 -107c0 -55 24 -85 59 -85zM523 446c-53 0 -76 -34 -81 -160h153v23c0 102 -19 137 -72 137zM667 122l45 -35s-48 -98 -177 -98c-90 0 -160 29 -199 96c-19 -46 -62 -96 -155 -96
c-92 0 -153 53 -153 135c0 134 166 168 274 177v19c0 103 -22 124 -78 124c-47 0 -119 -37 -119 -37l-13 64s76 40 155 40c64 0 106 -16 130 -54c38 35 88 53 146 53c124 0 196 -80 196 -226c0 -40 -8 -63 -8 -63h-269c2 -121 33 -165 109 -165c77 0 116 66 116 66z" />
    <glyph glyph-name="ccedilla" unicode="&#xe7;" horiz-adv-x="446" 
d="M403 408c0 0 -71 36 -118 36c-71 0 -112 -34 -112 -195c0 -160 47 -193 108 -193c79 0 114 69 114 69l47 -30s-37 -104 -171 -106l-5 -47c0 -6 89 -15 89 -92c0 -59 -38 -101 -114 -101c-75 0 -96 46 -96 46l26 29s20 -29 55 -29c31 0 50 15 50 57c0 47 -60 46 -60 50
l11 89c-128 14 -198 102 -198 256c0 162 90 264 241 264c69 0 146 -39 146 -39z" />
    <glyph glyph-name="egrave" unicode="&#xe8;" horiz-adv-x="474" 
d="M110 703l106 35l85 -147l-62 -17zM251 446c-53 0 -76 -34 -81 -160h153v23c0 102 -19 137 -72 137zM395 122l45 -35s-48 -98 -177 -98c-141 0 -234 73 -234 252c0 177 89 269 222 269c124 0 196 -80 196 -226c0 -40 -8 -63 -8 -63h-269c2 -121 33 -165 109 -165
c77 0 116 66 116 66z" />
    <glyph glyph-name="eacute" unicode="&#xe9;" horiz-adv-x="474" 
d="M275 730l108 -31l-121 -130l-57 9zM251 446c-53 0 -76 -34 -81 -160h153v23c0 102 -19 137 -72 137zM395 122l45 -35s-48 -98 -177 -98c-141 0 -234 73 -234 252c0 177 89 269 222 269c124 0 196 -80 196 -226c0 -40 -8 -63 -8 -63h-269c2 -121 33 -165 109 -165
c77 0 116 66 116 66z" />
    <glyph glyph-name="ecircumflex" unicode="&#xea;" horiz-adv-x="474" 
d="M286 753l97 -122l-28 -45l-104 85l-104 -85l-29 45l98 122h70zM251 446c-53 0 -76 -34 -81 -160h153v23c0 102 -19 137 -72 137zM395 122l45 -35s-48 -98 -177 -98c-141 0 -234 73 -234 252c0 177 89 269 222 269c124 0 196 -80 196 -226c0 -40 -8 -63 -8 -63h-269
c2 -121 33 -165 109 -165c77 0 116 66 116 66z" />
    <glyph glyph-name="edieresis" unicode="&#xeb;" horiz-adv-x="474" 
d="M109 704c13 11 29 17 46 17s33 -6 46 -17c13 -15 20 -33 20 -52s-7 -38 -20 -52c-13 -12 -29 -18 -46 -18s-33 6 -46 18c-14 14 -20 33 -20 52s6 37 20 52zM295 704c12 11 29 17 46 17s33 -6 46 -17c13 -15 20 -33 20 -52s-7 -38 -20 -52c-13 -12 -29 -18 -46 -18
s-34 6 -46 18c-14 14 -20 33 -20 52s6 37 20 52zM251 446c-53 0 -76 -34 -81 -160h153v23c0 102 -19 137 -72 137zM395 122l45 -35s-48 -98 -177 -98c-141 0 -234 73 -234 252c0 177 89 269 222 269c124 0 196 -80 196 -226c0 -40 -8 -63 -8 -63h-269
c2 -121 33 -165 109 -165c77 0 116 66 116 66z" />
    <glyph glyph-name="igrave" unicode="&#xec;" horiz-adv-x="253" 
d="M-17 703l106 35l85 -147l-62 -17zM193 500v-500h-133v500h133z" />
    <glyph glyph-name="iacute" unicode="&#xed;" horiz-adv-x="253" 
d="M148 730l108 -31l-121 -130l-57 9zM193 500v-500h-133v500h133z" />
    <glyph glyph-name="icircumflex" unicode="&#xee;" horiz-adv-x="253" 
d="M163 753l97 -122l-28 -45l-104 85l-104 -85l-29 45l98 122h70zM193 500v-500h-133v500h133z" />
    <glyph glyph-name="idieresis" unicode="&#xef;" horiz-adv-x="253" 
d="M-14 704c13 11 29 17 46 17s33 -6 46 -17c13 -15 20 -33 20 -52s-7 -38 -20 -52c-13 -12 -29 -18 -46 -18s-33 6 -46 18c-14 14 -20 33 -20 52s6 37 20 52zM172 704c12 11 29 17 46 17s33 -6 46 -17c13 -15 20 -33 20 -52s-7 -38 -20 -52c-13 -12 -29 -18 -46 -18
s-34 6 -46 18c-14 14 -20 33 -20 52s6 37 20 52zM193 500v-500h-133v500h133z" />
    <glyph glyph-name="eth" unicode="&#xf0;" horiz-adv-x="532" 
d="M263 445c-68 0 -91 -51 -91 -195c0 -145 23 -197 91 -197s89 53 89 198c0 138 -21 194 -89 194zM30 250c0 166 82 260 218 260c37 0 75 -11 108 -33c-13 56 -34 105 -65 146l-91 -51l-18 42l79 45c-18 18 -38 35 -61 50l60 37c26 -13 50 -28 72 -47l79 45l19 -42l-64 -36
c82 -92 130 -232 130 -394c0 -188 -82 -283 -233 -283c-144 0 -233 95 -233 261z" />
    <glyph glyph-name="ntilde" unicode="&#xf1;" horiz-adv-x="538" 
d="M405 705l36 -35s-26 -79 -112 -79c-65 0 -99 48 -155 48c-36 0 -58 -45 -58 -45l-36 36s37 90 123 90c73 0 101 -47 152 -47c36 0 50 32 50 32zM60 0v500h107l17 -41h4s38 51 141 51c102 0 154 -53 154 -171v-339h-133v312c0 91 -18 115 -67 115c-58 0 -90 -36 -90 -36
v-391h-133z" />
    <glyph glyph-name="ograve" unicode="&#xf2;" horiz-adv-x="525" 
d="M109 703l106 35l85 -147l-62 -17zM262 444c-66 0 -90 -50 -90 -193c0 -145 24 -196 90 -196s90 51 90 195s-24 194 -90 194zM496 250c0 -166 -90 -261 -234 -261c-150 0 -233 95 -233 261s83 261 233 261c151 0 234 -95 234 -261z" />
    <glyph glyph-name="oacute" unicode="&#xf3;" horiz-adv-x="525" 
d="M274 730l108 -31l-121 -130l-57 9zM262 444c-66 0 -90 -50 -90 -193c0 -145 24 -196 90 -196s90 51 90 195s-24 194 -90 194zM496 250c0 -166 -90 -261 -234 -261c-150 0 -233 95 -233 261s83 261 233 261c151 0 234 -95 234 -261z" />
    <glyph glyph-name="ocircumflex" unicode="&#xf4;" horiz-adv-x="525" 
d="M284 753l97 -122l-28 -45l-104 85l-104 -85l-29 45l98 122h70zM262 444c-66 0 -90 -50 -90 -193c0 -145 24 -196 90 -196s90 51 90 195s-24 194 -90 194zM496 250c0 -166 -90 -261 -234 -261c-150 0 -233 95 -233 261s83 261 233 261c151 0 234 -95 234 -261z" />
    <glyph glyph-name="otilde" unicode="&#xf5;" horiz-adv-x="525" 
d="M396 705l36 -35s-26 -79 -112 -79c-65 0 -99 48 -155 48c-36 0 -58 -45 -58 -45l-36 36s37 90 123 90c73 0 101 -47 152 -47c36 0 50 32 50 32zM262 444c-66 0 -90 -50 -90 -193c0 -145 24 -196 90 -196s90 51 90 195s-24 194 -90 194zM496 250
c0 -166 -90 -261 -234 -261c-150 0 -233 95 -233 261s83 261 233 261c151 0 234 -95 234 -261z" />
    <glyph glyph-name="odieresis" unicode="&#xf6;" horiz-adv-x="525" 
d="M108 704c13 11 29 17 46 17s33 -6 46 -17c13 -15 20 -33 20 -52s-7 -38 -20 -52c-13 -12 -29 -18 -46 -18s-33 6 -46 18c-14 14 -20 33 -20 52s6 37 20 52zM294 704c12 11 29 17 46 17s33 -6 46 -17c13 -15 20 -33 20 -52s-7 -38 -20 -52c-13 -12 -29 -18 -46 -18
s-34 6 -46 18c-14 14 -20 33 -20 52s6 37 20 52zM262 444c-66 0 -90 -50 -90 -193c0 -145 24 -196 90 -196s90 51 90 195s-24 194 -90 194zM496 250c0 -166 -90 -261 -234 -261c-150 0 -233 95 -233 261s83 261 233 261c151 0 234 -95 234 -261z" />
    <glyph glyph-name="divide" unicode="&#xf7;" 
d="M494 302v-74h-463v74h463zM207 514c15 14 36 21 56 21s40 -7 55 -21c16 -17 24 -38 24 -60s-8 -43 -24 -59c-15 -14 -35 -21 -55 -21s-41 7 -56 21c-16 16 -24 37 -24 59s8 43 24 60zM206 136c15 14 36 21 56 21s40 -7 55 -21c16 -17 24 -38 24 -60s-8 -43 -24 -59
c-15 -14 -35 -21 -55 -21s-41 7 -56 21c-16 16 -24 37 -24 59s8 43 24 60z" />
    <glyph glyph-name="oslash" unicode="&#xf8;" horiz-adv-x="529" 
d="M352 250c0 50 -3 89 -10 118l-119 -305c11 -6 24 -8 39 -8c66 0 90 51 90 195zM262 444c-66 0 -90 -50 -90 -193c0 -58 4 -101 12 -131l122 313c-12 8 -27 11 -44 11zM496 250c0 -166 -90 -261 -234 -261c-23 0 -45 3 -65 7l-69 -179l-57 11l72 187
c-74 39 -114 120 -114 235c0 166 83 261 233 261c25 0 49 -3 71 -8l57 147l58 -11l-62 -158c72 -40 110 -119 110 -231z" />
    <glyph glyph-name="ugrave" unicode="&#xf9;" horiz-adv-x="538" 
d="M129 703l106 35l85 -147l-62 -17zM477 500v-500h-107l-19 44h-2s-37 -55 -139 -55s-154 53 -154 171v340h133v-312c0 -92 22 -116 68 -116c53 0 87 38 87 38v390h133z" />
    <glyph glyph-name="uacute" unicode="&#xfa;" horiz-adv-x="538" 
d="M294 730l108 -31l-121 -130l-57 9zM477 500v-500h-107l-19 44h-2s-37 -55 -139 -55s-154 53 -154 171v340h133v-312c0 -92 22 -116 68 -116c53 0 87 38 87 38v390h133z" />
    <glyph glyph-name="ucircumflex" unicode="&#xfb;" horiz-adv-x="538" 
d="M304 753l97 -122l-28 -45l-104 85l-104 -85l-29 45l98 122h70zM477 500v-500h-107l-19 44h-2s-37 -55 -139 -55s-154 53 -154 171v340h133v-312c0 -92 22 -116 68 -116c53 0 87 38 87 38v390h133z" />
    <glyph glyph-name="udieresis" unicode="&#xfc;" horiz-adv-x="538" 
d="M128 704c13 11 29 17 46 17s33 -6 46 -17c13 -15 20 -33 20 -52s-7 -38 -20 -52c-13 -12 -29 -18 -46 -18s-33 6 -46 18c-14 14 -20 33 -20 52s6 37 20 52zM314 704c12 11 29 17 46 17s33 -6 46 -17c13 -15 20 -33 20 -52s-7 -38 -20 -52c-13 -12 -29 -18 -46 -18
s-34 6 -46 18c-14 14 -20 33 -20 52s6 37 20 52zM477 500v-500h-107l-19 44h-2s-37 -55 -139 -55s-154 53 -154 171v340h133v-312c0 -92 22 -116 68 -116c53 0 87 38 87 38v390h133z" />
    <glyph glyph-name="yacute" unicode="&#xfd;" horiz-adv-x="481" 
d="M276 730l108 -31l-121 -130l-57 9zM33 -168c0 0 26 -11 52 -11c64 0 93 50 135 159l-213 520h161l122 -356l103 356h83l-173 -511c-55 -152 -105 -250 -203 -250c-52 0 -78 15 -78 15z" />
    <glyph glyph-name="thorn" unicode="&#xfe;" horiz-adv-x="543" 
d="M275 437c-56 0 -82 -47 -84 -52v-287s20 -37 79 -37c74 0 101 54 101 196c0 137 -27 180 -96 180zM58 -254v1000l133 8v-287h4s29 48 120 48c119 0 199 -103 199 -255c0 -163 -76 -275 -209 -275c-57 0 -94 18 -114 33v-268z" />
    <glyph glyph-name="ydieresis" unicode="&#xff;" horiz-adv-x="481" 
d="M110 704c13 11 29 17 46 17s33 -6 46 -17c13 -15 20 -33 20 -52s-7 -38 -20 -52c-13 -12 -29 -18 -46 -18s-33 6 -46 18c-14 14 -20 33 -20 52s6 37 20 52zM296 704c12 11 29 17 46 17s33 -6 46 -17c13 -15 20 -33 20 -52s-7 -38 -20 -52c-13 -12 -29 -18 -46 -18
s-34 6 -46 18c-14 14 -20 33 -20 52s6 37 20 52zM33 -168c0 0 26 -11 52 -11c64 0 93 50 135 159l-213 520h161l122 -356l103 356h83l-173 -511c-55 -152 -105 -250 -203 -250c-52 0 -78 15 -78 15z" />
    <glyph glyph-name="Amacron" unicode="&#x100;" horiz-adv-x="608" 
d="M415 817v-58h-214v58h214zM280 551h-2l-96 -306h187zM235 650h153l202 -650h-146l-56 182h-226l-59 -182h-84z" />
    <glyph glyph-name="amacron" unicode="&#x101;" horiz-adv-x="513" 
d="M369 682v-58h-214v58h214zM302 111v132c-83 -9 -136 -36 -136 -106c0 -55 24 -81 59 -81c55 0 77 55 77 55zM100 407l-13 64s77 40 155 40c117 0 193 -40 193 -175v-227c0 -42 11 -53 21 -53c12 0 34 7 34 7l4 -52s-69 -22 -111 -22c-39 0 -59 18 -66 62h-5
s-28 -62 -131 -62c-92 0 -154 49 -154 131c0 133 168 167 275 176v29c0 93 -25 119 -83 119c-47 0 -119 -37 -119 -37z" />
    <glyph glyph-name="Abreve" unicode="&#x102;" horiz-adv-x="608" 
d="M308 771c81 0 84 55 84 55v4l67 -9s4 -123 -151 -123c-154 0 -149 123 -149 123l66 9v-4s4 -55 83 -55zM280 551h-2l-96 -306h187zM235 650h153l202 -650h-146l-56 182h-226l-59 -182h-84z" />
    <glyph glyph-name="abreve" unicode="&#x103;" horiz-adv-x="513" 
d="M255 636c81 0 84 55 84 55v4l67 -9s4 -123 -151 -123c-154 0 -149 123 -149 123l66 9v-4s4 -55 83 -55zM302 111v132c-83 -9 -136 -36 -136 -106c0 -55 24 -81 59 -81c55 0 77 55 77 55zM100 407l-13 64s77 40 155 40c117 0 193 -40 193 -175v-227c0 -42 11 -53 21 -53
c12 0 34 7 34 7l4 -52s-69 -22 -111 -22c-39 0 -59 18 -66 62h-5s-28 -62 -131 -62c-92 0 -154 49 -154 131c0 133 168 167 275 176v29c0 93 -25 119 -83 119c-47 0 -119 -37 -119 -37z" />
    <glyph glyph-name="Aogonek" unicode="&#x104;" horiz-adv-x="608" 
d="M280 551h-2l-96 -306h187zM235 650h153l202 -650h-88c-23 -13 -69 -49 -69 -123c0 -63 24 -78 76 -78v-49c-87 0 -164 18 -164 117c0 63 53 111 97 139l-54 176h-226l-59 -182h-84z" />
    <glyph glyph-name="aogonek" unicode="&#x105;" horiz-adv-x="513" 
d="M302 111v132c-83 -9 -136 -36 -136 -106c0 -55 24 -81 59 -81c55 0 77 55 77 55zM100 407l-13 64s77 40 155 40c117 0 193 -40 193 -175v-227c0 -42 11 -53 21 -53c12 0 34 7 34 7l4 -52s-17 -6 -37 -11c-22 -12 -70 -48 -70 -123c0 -63 24 -78 76 -78v-49
c-87 0 -164 18 -164 117c0 52 36 94 73 123c-32 3 -49 21 -55 61h-5s-28 -62 -131 -62c-92 0 -154 49 -154 131c0 133 168 167 275 176v29c0 93 -25 119 -83 119c-47 0 -119 -37 -119 -37z" />
    <glyph glyph-name="Cacute" unicode="&#x106;" horiz-adv-x="576" 
d="M347 865l108 -31l-121 -130l-57 9zM518 536c0 0 -95 49 -169 49c-109 0 -161 -66 -161 -260s57 -261 168 -261c107 0 166 93 166 93l44 -48s-62 -120 -229 -120c-200 0 -301 130 -301 331c0 205 109 340 296 340c103 0 200 -51 200 -51z" />
    <glyph glyph-name="cacute" unicode="&#x107;" horiz-adv-x="446" 
d="M279 730l108 -31l-121 -130l-57 9zM403 408c0 0 -71 36 -118 36c-71 0 -112 -34 -112 -195c0 -160 47 -193 108 -193c79 0 114 69 114 69l47 -30s-37 -106 -175 -106c-153 0 -238 89 -238 258c0 162 90 264 241 264c69 0 146 -39 146 -39z" />
    <glyph glyph-name="Ccaron" unicode="&#x10c;" horiz-adv-x="576" 
d="M282 707l-115 138l42 35l108 -93l108 93l42 -39l-115 -134h-70zM518 536c0 0 -95 49 -169 49c-109 0 -161 -66 -161 -260s57 -261 168 -261c107 0 166 93 166 93l44 -48s-62 -120 -229 -120c-200 0 -301 130 -301 331c0 205 109 340 296 340c103 0 200 -51 200 -51z" />
    <glyph glyph-name="ccaron" unicode="&#x10d;" horiz-adv-x="446" 
d="M223 572l-115 138l42 35l108 -93l108 93l42 -39l-115 -134h-70zM403 408c0 0 -71 36 -118 36c-71 0 -112 -34 -112 -195c0 -160 47 -193 108 -193c79 0 114 69 114 69l47 -30s-37 -106 -175 -106c-153 0 -238 89 -238 258c0 162 90 264 241 264c69 0 146 -39 146 -39z
" />
    <glyph glyph-name="Dcaron" unicode="&#x10e;" horiz-adv-x="658" 
d="M257 707l-115 138l42 35l108 -93l108 93l42 -39l-115 -134h-70zM298 579h-83v-508h85c113 0 159 65 159 252c0 188 -46 256 -161 256zM298 650c200 0 314 -112 314 -327c0 -210 -108 -323 -313 -323h-222v650h221z" />
    <glyph glyph-name="dcaron" unicode="&#x10f;" horiz-adv-x="545" 
d="M551 800l90 -14l-67 -234l-48 4zM268 67c56 0 84 46 84 46v288s-28 33 -79 33c-70 0 -101 -49 -101 -191s31 -176 96 -176zM485 754v-754h-111l-15 45h-1s-24 -56 -120 -56c-125 0 -209 98 -209 250c0 163 80 271 203 271c87 0 117 -38 117 -38h3v274z" />
    <glyph glyph-name="Dcroat" unicode="&#x110;" horiz-adv-x="658" 
d="M298 579h-83v-224h142v-66h-142v-218h85c113 0 159 65 159 252c0 188 -46 256 -161 256zM298 650c200 0 314 -112 314 -327c0 -210 -108 -323 -313 -323h-222v289h-56v66h56v295h221z" />
    <glyph glyph-name="dcroat" unicode="&#x111;" horiz-adv-x="548" 
d="M261 59c61 0 82 52 84 57v281s-19 45 -78 45c-71 0 -101 -57 -101 -199s30 -184 95 -184zM477 750v-71h66v-55l-61 -12h-5v-612h-117l-11 42c-9 -15 -45 -61 -131 -61c-119 0 -195 106 -195 258c0 163 71 279 195 279c88 0 124 -46 124 -46h3v140h-94v67h94v71h132z" />
    <glyph glyph-name="Emacron" unicode="&#x112;" 
d="M396 817v-58h-214v58h214zM481 72v-72h-404v650h390v-72h-252v-214h222v-70h-222v-222h266z" />
    <glyph glyph-name="emacron" unicode="&#x113;" horiz-adv-x="474" 
d="M360 682v-58h-214v58h214zM251 446c-53 0 -76 -34 -81 -160h153v23c0 102 -19 137 -72 137zM395 122l45 -35s-48 -98 -177 -98c-141 0 -234 73 -234 252c0 177 89 269 222 269c124 0 196 -80 196 -226c0 -40 -8 -63 -8 -63h-269c2 -121 33 -165 109 -165
c77 0 116 66 116 66z" />
    <glyph glyph-name="Edotaccent" unicode="&#x116;" 
d="M229 843c15 14 34 20 53 20s37 -6 51 -19c15 -16 22 -36 22 -57s-7 -42 -22 -58c-14 -12 -32 -19 -51 -19s-38 7 -53 20c-15 15 -23 36 -23 57s8 41 23 56zM481 72v-72h-404v650h390v-72h-252v-214h222v-70h-222v-222h266z" />
    <glyph glyph-name="edotaccent" unicode="&#x117;" horiz-adv-x="474" 
d="M199 708c15 14 34 20 53 20s37 -6 51 -19c15 -16 22 -36 22 -57s-7 -42 -22 -58c-14 -12 -32 -19 -51 -19s-38 7 -53 20c-15 15 -23 36 -23 57s8 41 23 56zM251 446c-53 0 -76 -34 -81 -160h153v23c0 102 -19 137 -72 137zM395 122l45 -35s-48 -98 -177 -98
c-141 0 -234 73 -234 252c0 177 89 269 222 269c124 0 196 -80 196 -226c0 -40 -8 -63 -8 -63h-269c2 -121 33 -165 109 -165c77 0 116 66 116 66z" />
    <glyph glyph-name="Eogonek" unicode="&#x118;" 
d="M481 72v-72h-18c-23 -13 -69 -49 -69 -123c0 -63 24 -78 76 -78v-49c-87 0 -164 18 -164 117c0 59 46 104 88 133h-317v650h390v-72h-252v-214h222v-70h-222v-222h266z" />
    <glyph glyph-name="eogonek" unicode="&#x119;" horiz-adv-x="474" 
d="M251 446c-53 0 -76 -34 -81 -160h153v23c0 102 -19 137 -72 137zM395 122l45 -35s-32 -64 -110 -88c-23 -14 -67 -50 -67 -122c0 -63 24 -78 76 -78v-49c-87 0 -164 18 -164 117c0 52 36 93 73 122c-133 5 -219 79 -219 252c0 177 89 269 222 269c124 0 196 -80 196 -226
c0 -40 -8 -63 -8 -63h-269c2 -121 33 -165 109 -165c77 0 116 66 116 66z" />
    <glyph glyph-name="Ecaron" unicode="&#x11a;" 
d="M244 707l-115 138l42 35l108 -93l108 93l42 -39l-115 -134h-70zM481 72v-72h-404v650h390v-72h-252v-214h222v-70h-222v-222h266z" />
    <glyph glyph-name="ecaron" unicode="&#x11b;" horiz-adv-x="474" 
d="M216 572l-115 138l42 35l108 -93l108 93l42 -39l-115 -134h-70zM251 446c-53 0 -76 -34 -81 -160h153v23c0 102 -19 137 -72 137zM395 122l45 -35s-48 -98 -177 -98c-141 0 -234 73 -234 252c0 177 89 269 222 269c124 0 196 -80 196 -226c0 -40 -8 -63 -8 -63h-269
c2 -121 33 -165 109 -165c77 0 116 66 116 66z" />
    <glyph glyph-name="Gbreve" unicode="&#x11e;" horiz-adv-x="625" 
d="M337 771c81 0 84 55 84 55v4l67 -9s4 -123 -151 -123c-154 0 -149 123 -149 123l66 9v-4s4 -55 83 -55zM565 343v-343h-60l-35 57c-27 -35 -75 -68 -155 -68c-178 0 -279 124 -279 334c0 211 111 337 300 337c104 0 201 -51 201 -51l-15 -73s-94 49 -168 49
c-123 0 -166 -75 -166 -263c0 -189 59 -258 151 -258c84 0 104 66 109 90v121h-101v68h218z" />
    <glyph glyph-name="gbreve" unicode="&#x11f;" horiz-adv-x="461" 
d="M228 635c81 0 84 55 84 55v4l67 -9s4 -123 -151 -123c-154 0 -149 123 -149 123l66 9v-4s4 -55 83 -55zM297 332c0 94 -27 114 -69 114s-71 -20 -71 -116c0 -90 27 -122 72 -122c44 0 68 33 68 124zM225 -36c-38 0 -71 5 -97 16c-14 -15 -25 -38 -25 -72
c0 -63 40 -102 131 -102c80 0 117 30 117 82c0 55 -45 76 -126 76zM235 510c27 0 53 -4 76 -11l135 -1v-59l-48 -3c18 -27 28 -62 28 -106c0 -121 -79 -183 -194 -183c-24 0 -47 3 -69 8c-10 -8 -19 -21 -19 -37c0 -24 23 -41 102 -41c149 0 216 -55 216 -158
c0 -117 -77 -181 -228 -181c-157 0 -224 69 -224 167c0 68 32 104 63 123c-7 15 -11 32 -11 54c0 49 23 80 44 98c-47 30 -77 80 -77 150c0 126 95 180 206 180z" />
    <glyph glyph-name="Gcommaaccent" unicode="&#x122;" horiz-adv-x="625" 
d="M283 -62c11 11 26 16 42 16c15 0 31 -5 43 -16l4 -5c18 -21 26 -48 26 -78c0 -68 -41 -148 -101 -194l-29 31c42 39 65 84 65 126c0 4 -1 8 -1 12h-7c-16 0 -31 6 -42 16c-13 12 -19 29 -19 46s6 33 19 46zM565 343v-343h-60l-35 57c-27 -35 -75 -68 -155 -68
c-178 0 -279 124 -279 334c0 211 111 337 300 337c104 0 201 -51 201 -51l-15 -73s-94 49 -168 49c-123 0 -166 -75 -166 -263c0 -189 59 -258 151 -258c84 0 104 66 109 90v121h-101v68h218z" />
    <glyph glyph-name="gcommaaccent" unicode="&#x123;" horiz-adv-x="461" 
d="M271 573c-11 -11 -26 -16 -42 -16c-15 0 -31 5 -43 16l-4 5c-18 21 -26 48 -26 78c0 68 41 148 101 194l29 -31c-42 -39 -65 -84 -65 -126c0 -4 1 -8 1 -12h7c16 0 31 -6 42 -16c13 -12 19 -29 19 -46s-6 -33 -19 -46zM297 332c0 94 -27 114 -69 114s-71 -20 -71 -116
c0 -90 27 -122 72 -122c44 0 68 33 68 124zM225 -36c-38 0 -71 5 -97 16c-14 -15 -25 -38 -25 -72c0 -63 40 -102 131 -102c80 0 117 30 117 82c0 55 -45 76 -126 76zM235 510c27 0 53 -4 76 -11l135 -1v-59l-48 -3c18 -27 28 -62 28 -106c0 -121 -79 -183 -194 -183
c-24 0 -47 3 -69 8c-10 -8 -19 -21 -19 -37c0 -24 23 -41 102 -41c149 0 216 -55 216 -158c0 -117 -77 -181 -228 -181c-157 0 -224 69 -224 167c0 68 32 104 63 123c-7 15 -11 32 -11 54c0 49 23 80 44 98c-47 30 -77 80 -77 150c0 126 95 180 206 180z" />
    <glyph glyph-name="Imacron" unicode="&#x12a;" horiz-adv-x="293" 
d="M255 817v-58h-214v58h214zM215 650v-650h-138v650h138z" />
    <glyph glyph-name="imacron" unicode="&#x12b;" horiz-adv-x="253" 
d="M234 682v-58h-214v58h214zM193 500v-500h-133v500h133z" />
    <glyph glyph-name="Iogonek" unicode="&#x12e;" horiz-adv-x="293" 
d="M215 650v-650h-91c-23 -13 -69 -49 -69 -123c0 -63 24 -78 76 -78v-49c-87 0 -164 18 -164 117c0 70 65 120 110 147v636h138z" />
    <glyph glyph-name="iogonek" unicode="&#x12f;" horiz-adv-x="253" 
d="M71 708c15 14 34 20 53 20s37 -6 51 -19c15 -16 22 -36 22 -57s-7 -42 -22 -58c-14 -12 -32 -19 -51 -19s-38 7 -53 20c-15 15 -23 36 -23 57s8 41 23 56zM193 500v-500h-76c-23 -13 -69 -49 -69 -123c0 -63 24 -78 76 -78v-49c-87 0 -164 18 -164 117
c0 65 56 113 100 141v492h133z" />
    <glyph glyph-name="Idotaccent" unicode="&#x130;" horiz-adv-x="293" 
d="M94 843c15 14 34 20 53 20s37 -6 51 -19c15 -16 22 -36 22 -57s-7 -42 -22 -58c-14 -12 -32 -19 -51 -19s-38 7 -53 20c-15 15 -23 36 -23 57s8 41 23 56zM215 650v-650h-138v650h138z" />
    <glyph glyph-name="dotlessi" unicode="&#x131;" horiz-adv-x="253" 
d="M193 500v-500h-133v500h133z" />
    <glyph glyph-name="Kcommaaccent" unicode="&#x136;" horiz-adv-x="626" 
d="M271 -62c11 11 26 16 42 16c15 0 31 -5 43 -16l4 -5c18 -21 26 -48 26 -78c0 -68 -41 -148 -101 -194l-29 31c42 39 65 84 65 126c0 4 -1 8 -1 12h-7c-16 0 -31 6 -42 16c-13 12 -19 29 -19 46s6 33 19 46zM77 0v650h138v-301l59 43l191 258h96l-197 -254l243 -396h-175
l-174 292l-43 -30v-262h-138z" />
    <glyph glyph-name="kcommaaccent" unicode="&#x137;" horiz-adv-x="492" 
d="M218 -62c11 11 26 16 42 16c15 0 31 -5 43 -16l4 -5c18 -21 26 -48 26 -78c0 -68 -41 -148 -101 -194l-29 31c42 39 65 84 65 126c0 4 -1 8 -1 12h-7c-16 0 -31 6 -42 16c-13 12 -19 29 -19 46s6 33 19 46zM60 0v746l133 8v-466l69 47l106 165h82l-130 -186l162 -314
h-152l-112 234l-25 -16v-218h-133z" />
    <glyph glyph-name="Lacute" unicode="&#x139;" horiz-adv-x="491" 
d="M186 865l108 -31l-121 -130l-57 9zM467 72v-72h-390v650h138v-578h252z" />
    <glyph glyph-name="lacute" unicode="&#x13a;" horiz-adv-x="254" 
d="M168 955l108 -31l-121 -130l-57 9zM193 754v-754h-133v746z" />
    <glyph glyph-name="Lcommaaccent" unicode="&#x13b;" horiz-adv-x="491" 
d="M226 -62c11 11 26 16 42 16c15 0 31 -5 43 -16l4 -5c18 -21 26 -48 26 -78c0 -68 -41 -148 -101 -194l-29 31c42 39 65 84 65 126c0 4 -1 8 -1 12h-7c-16 0 -31 6 -42 16c-13 12 -19 29 -19 46s6 33 19 46zM467 72v-72h-390v650h138v-578h252z" />
    <glyph glyph-name="lcommaaccent" unicode="&#x13c;" horiz-adv-x="254" 
d="M86 -62c11 11 26 16 42 16c15 0 31 -5 43 -16l4 -5c18 -21 26 -48 26 -78c0 -68 -41 -148 -101 -194l-29 31c42 39 65 84 65 126c0 4 -1 8 -1 12h-7c-16 0 -31 6 -42 16c-13 12 -19 29 -19 46s6 33 19 46zM193 754v-754h-133v746z" />
    <glyph glyph-name="Lcaron" unicode="&#x13d;" horiz-adv-x="491" 
d="M113 707l-115 138l42 35l108 -93l108 93l42 -39l-115 -134h-70zM467 72v-72h-390v650h138v-578h252z" />
    <glyph glyph-name="lcaron" unicode="&#x13e;" horiz-adv-x="254" 
d="M262 800l90 -14l-67 -234l-48 4zM193 754v-754h-133v746z" />
    <glyph glyph-name="Lslash" unicode="&#x141;" horiz-adv-x="514" 
d="M501 72v-72h-390v216l-47 -34l-33 42l80 59v367h138v-266l99 73l33 -42l-132 -97v-246h252z" />
    <glyph glyph-name="lslash" unicode="&#x142;" horiz-adv-x="293" 
d="M213 754v-284l72 55l29 -38l-101 -77v-410h-133v308l-52 -39l-28 39l80 61v377z" />
    <glyph glyph-name="Nacute" unicode="&#x143;" horiz-adv-x="651" 
d="M379 865l108 -31l-121 -130l-57 9zM574 650v-650h-108l-309 488h-2l8 -58v-430h-86v650h143l273 -441h2l-7 45v396h86z" />
    <glyph glyph-name="nacute" unicode="&#x144;" horiz-adv-x="538" 
d="M281 730l108 -31l-121 -130l-57 9zM60 0v500h107l17 -41h4s38 51 141 51c102 0 154 -53 154 -171v-339h-133v312c0 91 -18 115 -67 115c-58 0 -90 -36 -90 -36v-391h-133z" />
    <glyph glyph-name="Ncommaaccent" unicode="&#x145;" horiz-adv-x="651" 
d="M274 -62c11 11 26 16 42 16c15 0 31 -5 43 -16l4 -5c18 -21 26 -48 26 -78c0 -68 -41 -148 -101 -194l-29 31c42 39 65 84 65 126c0 4 -1 8 -1 12h-7c-16 0 -31 6 -42 16c-13 12 -19 29 -19 46s6 33 19 46zM574 650v-650h-108l-309 488h-2l8 -58v-430h-86v650h143
l273 -441h2l-7 45v396h86z" />
    <glyph glyph-name="ncommaaccent" unicode="&#x146;" horiz-adv-x="538" 
d="M225 -62c11 11 26 16 42 16c15 0 31 -5 43 -16l4 -5c18 -21 26 -48 26 -78c0 -68 -41 -148 -101 -194l-29 31c42 39 65 84 65 126c0 4 -1 8 -1 12h-7c-16 0 -31 6 -42 16c-13 12 -19 29 -19 46s6 33 19 46zM60 0v500h107l17 -41h4s38 51 141 51c102 0 154 -53 154 -171
v-339h-133v312c0 91 -18 115 -67 115c-58 0 -90 -36 -90 -36v-391h-133z" />
    <glyph glyph-name="Ncaron" unicode="&#x147;" horiz-adv-x="651" 
d="M324 707l-115 138l42 35l108 -93l108 93l42 -39l-115 -134h-70zM574 650v-650h-108l-309 488h-2l8 -58v-430h-86v650h143l273 -441h2l-7 45v396h86z" />
    <glyph glyph-name="ncaron" unicode="&#x148;" horiz-adv-x="538" 
d="M238 572l-115 138l42 35l108 -93l108 93l42 -39l-115 -134h-70zM60 0v500h107l17 -41h4s38 51 141 51c102 0 154 -53 154 -171v-339h-133v312c0 91 -18 115 -67 115c-58 0 -90 -36 -90 -36v-391h-133z" />
    <glyph glyph-name="Omacron" unicode="&#x14c;" horiz-adv-x="663" 
d="M436 817v-58h-214v58h214zM474 324c0 183 -43 264 -144 264c-100 0 -142 -81 -142 -264c0 -184 39 -264 142 -264s144 80 144 264zM627 324c0 -204 -105 -335 -297 -335c-191 0 -294 131 -294 335s103 336 294 336c192 0 297 -132 297 -336z" />
    <glyph glyph-name="omacron" unicode="&#x14d;" horiz-adv-x="525" 
d="M369 682v-58h-214v58h214zM262 444c-66 0 -90 -50 -90 -193c0 -145 24 -196 90 -196s90 51 90 195s-24 194 -90 194zM496 250c0 -166 -90 -261 -234 -261c-150 0 -233 95 -233 261s83 261 233 261c151 0 234 -95 234 -261z" />
    <glyph glyph-name="Ohungarumlaut" unicode="&#x150;" horiz-adv-x="663" 
d="M214 720l53 153l92 -26l-94 -150zM369 720l54 153l92 -26l-95 -150zM474 324c0 183 -43 264 -144 264c-100 0 -142 -81 -142 -264c0 -184 39 -264 142 -264s144 80 144 264zM627 324c0 -204 -105 -335 -297 -335c-191 0 -294 131 -294 335s103 336 294 336
c192 0 297 -132 297 -336z" />
    <glyph glyph-name="ohungarumlaut" unicode="&#x151;" horiz-adv-x="525" 
d="M140 585l53 153l92 -26l-94 -150zM295 585l54 153l92 -26l-95 -150zM262 444c-66 0 -90 -50 -90 -193c0 -145 24 -196 90 -196s90 51 90 195s-24 194 -90 194zM496 250c0 -166 -90 -261 -234 -261c-150 0 -233 95 -233 261s83 261 233 261c151 0 234 -95 234 -261z" />
    <glyph glyph-name="OE" unicode="&#x152;" horiz-adv-x="929" 
d="M474 324c0 183 -43 264 -144 264c-100 0 -142 -81 -142 -264c0 -184 39 -264 142 -264s144 80 144 264zM886 72v-72h-405v24c-42 -23 -93 -35 -151 -35c-191 0 -294 131 -294 335s103 336 294 336c58 0 109 -12 151 -35v25h391v-72h-252v-168c2 -15 4 -30 5 -46h217v-70
h-216c-1 -20 -3 -39 -6 -57v-165h266z" />
    <glyph glyph-name="oe" unicode="&#x153;" horiz-adv-x="800" 
d="M577 446c-53 0 -76 -34 -81 -160h153v23c0 102 -19 137 -72 137zM262 444c-66 0 -90 -50 -90 -193c0 -145 24 -196 90 -196s90 51 90 195s-24 194 -90 194zM721 122l45 -35s-48 -98 -177 -98c-69 0 -127 17 -168 56c-39 -37 -94 -56 -159 -56c-150 0 -233 95 -233 261
s83 261 233 261c70 0 124 -21 164 -59c38 38 90 58 151 58c124 0 196 -80 196 -226c0 -40 -8 -63 -8 -63h-269c2 -121 33 -165 109 -165c77 0 116 66 116 66z" />
    <glyph glyph-name="Racute" unicode="&#x154;" horiz-adv-x="578" 
d="M299 865l108 -31l-121 -130l-57 9zM263 585h-48v-283h51c72 0 96 33 96 138c0 103 -27 145 -99 145zM277 650c145 0 234 -74 234 -204c0 -89 -51 -150 -112 -182l150 -264h-159l-122 236h-53v-236h-138v650h200z" />
    <glyph glyph-name="racute" unicode="&#x155;" horiz-adv-x="355" 
d="M225 730l108 -31l-121 -130l-57 9zM354 497l-12 -93s-51 14 -83 14c-51 0 -66 -60 -66 -60v-358h-133v500h94l22 -84h4s13 95 95 95c32 0 79 -14 79 -14z" />
    <glyph glyph-name="Rcommaaccent" unicode="&#x156;" horiz-adv-x="578" 
d="M246 -62c11 11 26 16 42 16c15 0 31 -5 43 -16l4 -5c18 -21 26 -48 26 -78c0 -68 -41 -148 -101 -194l-29 31c42 39 65 84 65 126c0 4 -1 8 -1 12h-7c-16 0 -31 6 -42 16c-13 12 -19 29 -19 46s6 33 19 46zM263 585h-48v-283h51c72 0 96 33 96 138c0 103 -27 145 -99 145
zM277 650c145 0 234 -74 234 -204c0 -89 -51 -150 -112 -182l150 -264h-159l-122 236h-53v-236h-138v650h200z" />
    <glyph glyph-name="rcommaaccent" unicode="&#x157;" horiz-adv-x="355" 
d="M81 -62c11 11 26 16 42 16c15 0 31 -5 43 -16l4 -5c18 -21 26 -48 26 -78c0 -68 -41 -148 -101 -194l-29 31c42 39 65 84 65 126c0 4 -1 8 -1 12h-7c-16 0 -31 6 -42 16c-13 12 -19 29 -19 46s6 33 19 46zM354 497l-12 -93s-51 14 -83 14c-51 0 -66 -60 -66 -60v-358
h-133v500h94l22 -84h4s13 95 95 95c32 0 79 -14 79 -14z" />
    <glyph glyph-name="Rcaron" unicode="&#x158;" horiz-adv-x="578" 
d="M235 707l-115 138l42 35l108 -93l108 93l42 -39l-115 -134h-70zM263 585h-48v-283h51c72 0 96 33 96 138c0 103 -27 145 -99 145zM277 650c145 0 234 -74 234 -204c0 -89 -51 -150 -112 -182l150 -264h-159l-122 236h-53v-236h-138v650h200z" />
    <glyph glyph-name="rcaron" unicode="&#x159;" horiz-adv-x="355" 
d="M170 572l-115 138l42 35l108 -93l108 93l42 -39l-115 -134h-70zM354 497l-12 -93s-51 14 -83 14c-51 0 -66 -60 -66 -60v-358h-133v500h94l22 -84h4s13 95 95 95c32 0 79 -14 79 -14z" />
    <glyph glyph-name="Sacute" unicode="&#x15a;" horiz-adv-x="492" 
d="M295 865l108 -31l-121 -130l-57 9zM429 614l-16 -68s-65 44 -135 44c-50 0 -84 -29 -84 -81c0 -140 263 -108 263 -324c0 -125 -103 -196 -229 -196c-149 0 -197 79 -197 79l38 58s51 -63 150 -63c65 0 99 38 99 91c0 126 -260 105 -260 312c0 120 88 194 211 194
c90 0 160 -46 160 -46z" />
    <glyph glyph-name="sacute" unicode="&#x15b;" horiz-adv-x="417" 
d="M250 730l108 -31l-121 -130l-57 9zM24 64l37 52s44 -61 111 -61c51 0 77 30 77 69c0 102 -204 68 -204 232c0 104 84 155 177 155c71 0 144 -35 144 -35l-18 -67s-65 37 -113 37c-42 0 -65 -22 -65 -55c0 -102 218 -78 218 -239c0 -94 -63 -163 -188 -163
c-131 0 -176 75 -176 75z" />
    <glyph glyph-name="Scedilla" unicode="&#x15e;" horiz-adv-x="492" 
d="M429 614l-16 -68s-65 44 -135 44c-50 0 -84 -29 -84 -81c0 -140 263 -108 263 -324c0 -116 -89 -185 -202 -195l-5 -48c0 -6 89 -15 89 -92c0 -59 -38 -101 -114 -101c-75 0 -96 46 -96 46l26 29s20 -29 55 -29c31 0 50 15 50 57c0 47 -60 46 -60 50l11 88
c-136 5 -180 78 -180 78l38 58s51 -63 150 -63c65 0 99 38 99 91c0 126 -260 105 -260 312c0 120 88 194 211 194c90 0 160 -46 160 -46z" />
    <glyph glyph-name="scedilla" unicode="&#x15f;" horiz-adv-x="417" 
d="M24 64l37 52s44 -61 111 -61c51 0 77 30 77 69c0 102 -204 68 -204 232c0 104 84 155 177 155c71 0 144 -35 144 -35l-18 -67s-65 37 -113 37c-42 0 -65 -22 -65 -55c0 -102 218 -78 218 -239c0 -89 -56 -155 -167 -162l-5 -48c0 -6 89 -15 89 -92
c0 -59 -38 -101 -114 -101c-75 0 -96 46 -96 46l26 29s20 -29 55 -29c31 0 50 15 50 57c0 47 -60 46 -60 50l11 88c-114 8 -153 74 -153 74z" />
    <glyph glyph-name="Scaron" unicode="&#x160;" horiz-adv-x="492" 
d="M230 707l-115 138l42 35l108 -93l108 93l42 -39l-115 -134h-70zM429 614l-16 -68s-65 44 -135 44c-50 0 -84 -29 -84 -81c0 -140 263 -108 263 -324c0 -125 -103 -196 -229 -196c-149 0 -197 79 -197 79l38 58s51 -63 150 -63c65 0 99 38 99 91c0 126 -260 105 -260 312
c0 120 88 194 211 194c90 0 160 -46 160 -46z" />
    <glyph glyph-name="scaron" unicode="&#x161;" horiz-adv-x="417" 
d="M175 572l-115 138l42 35l108 -93l108 93l42 -39l-115 -134h-70zM24 64l37 52s44 -61 111 -61c51 0 77 30 77 69c0 102 -204 68 -204 232c0 104 84 155 177 155c71 0 144 -35 144 -35l-18 -67s-65 37 -113 37c-42 0 -65 -22 -65 -55c0 -102 218 -78 218 -239
c0 -94 -63 -163 -188 -163c-131 0 -176 75 -176 75z" />
    <glyph glyph-name="Tcommaaccent" unicode="&#x162;" horiz-adv-x="516" 
d="M215 -62c11 11 26 16 42 16c15 0 31 -5 43 -16l4 -5c18 -21 26 -48 26 -78c0 -68 -41 -148 -101 -194l-29 31c42 39 65 84 65 126c0 4 -1 8 -1 12h-7c-16 0 -31 6 -42 16c-13 12 -19 29 -19 46s6 33 19 46zM502 650v-72h-174v-578h-139v578h-175v72h488z" />
    <glyph glyph-name="tcommaaccent" unicode="&#x163;" horiz-adv-x="353" 
d="M140 -62c11 11 26 16 42 16c15 0 31 -5 43 -16l4 -5c18 -21 26 -48 26 -78c0 -68 -41 -148 -101 -194l-29 31c42 39 65 84 65 126c0 4 -1 8 -1 12h-7c-16 0 -31 6 -42 16c-13 12 -19 29 -19 46s6 33 19 46zM321 500v-77h-110v-247c0 -94 12 -115 47 -115c32 0 52 9 52 9
l8 -57s-25 -24 -101 -24c-92 0 -139 39 -139 153v281h-48v60l49 14l64 169h68v-166h110z" />
    <glyph glyph-name="Tcaron" unicode="&#x164;" horiz-adv-x="516" 
d="M221 707l-115 138l42 35l108 -93l108 93l42 -39l-115 -134h-70zM502 650v-72h-174v-578h-139v578h-175v72h488z" />
    <glyph glyph-name="tcaron" unicode="&#x165;" horiz-adv-x="353" 
d="M312 800l90 -14l-67 -234l-48 4zM321 500v-77h-110v-247c0 -94 12 -115 47 -115c32 0 52 9 52 9l8 -57s-25 -24 -101 -24c-92 0 -139 39 -139 153v281h-48v60l49 14l64 169h68v-166h110z" />
    <glyph glyph-name="Umacron" unicode="&#x16a;" horiz-adv-x="614" 
d="M433 817v-58h-214v58h214zM307 -11c-161 0 -239 95 -239 247v414h139v-383c0 -146 40 -202 122 -202c90 0 131 64 131 202v383h85v-414c0 -148 -62 -247 -238 -247z" />
    <glyph glyph-name="umacron" unicode="&#x16b;" horiz-adv-x="538" 
d="M383 682v-58h-214v58h214zM477 500v-500h-107l-19 44h-2s-37 -55 -139 -55s-154 53 -154 171v340h133v-312c0 -92 22 -116 68 -116c53 0 87 38 87 38v390h133z" />
    <glyph glyph-name="Uring" unicode="&#x16e;" horiz-adv-x="614" 
d="M380 792c0 44 -27 64 -59 64s-59 -20 -59 -64c0 -45 24 -66 59 -66s59 21 59 66zM426 791c0 -68 -44 -108 -105 -108c-64 0 -105 40 -105 108s45 107 105 107c58 0 105 -39 105 -107zM307 -11c-161 0 -239 95 -239 247v414h139v-383c0 -146 40 -202 122 -202
c90 0 131 64 131 202v383h85v-414c0 -148 -62 -247 -238 -247z" />
    <glyph glyph-name="uring" unicode="&#x16f;" horiz-adv-x="538" 
d="M328 657c0 44 -27 64 -59 64s-59 -20 -59 -64c0 -45 24 -66 59 -66s59 21 59 66zM374 656c0 -68 -44 -108 -105 -108c-64 0 -105 40 -105 108s45 107 105 107c58 0 105 -39 105 -107zM477 500v-500h-107l-19 44h-2s-37 -55 -139 -55s-154 53 -154 171v340h133v-312
c0 -92 22 -116 68 -116c53 0 87 38 87 38v390h133z" />
    <glyph glyph-name="Uhungarumlaut" unicode="&#x170;" horiz-adv-x="614" 
d="M199 720l53 153l92 -26l-94 -150zM354 720l54 153l92 -26l-95 -150zM307 -11c-161 0 -239 95 -239 247v414h139v-383c0 -146 40 -202 122 -202c90 0 131 64 131 202v383h85v-414c0 -148 -62 -247 -238 -247z" />
    <glyph glyph-name="uhungarumlaut" unicode="&#x171;" horiz-adv-x="538" 
d="M157 585l53 153l92 -26l-94 -150zM312 585l54 153l92 -26l-95 -150zM477 500v-500h-107l-19 44h-2s-37 -55 -139 -55s-154 53 -154 171v340h133v-312c0 -92 22 -116 68 -116c53 0 87 38 87 38v390h133z" />
    <glyph glyph-name="Uogonek" unicode="&#x172;" horiz-adv-x="614" 
d="M545 236c0 -126 -45 -216 -165 -240c-24 -16 -62 -52 -62 -119c0 -63 24 -78 76 -78v-49c-87 0 -164 18 -164 117c0 52 36 93 73 122c-159 2 -235 96 -235 247v414h139v-383c0 -146 40 -202 122 -202c90 0 131 64 131 202v383h85v-414z" />
    <glyph glyph-name="uogonek" unicode="&#x173;" horiz-adv-x="538" 
d="M477 500v-500h-41c-23 -13 -69 -49 -69 -123c0 -63 24 -78 76 -78v-49c-87 0 -164 18 -164 117c0 60 48 106 90 134l-18 43h-2s-37 -55 -139 -55s-154 53 -154 171v340h133v-312c0 -92 22 -116 68 -116c53 0 87 38 87 38v390h133z" />
    <glyph glyph-name="Ydieresis" unicode="&#x178;" horiz-adv-x="523" 
d="M148 839c13 11 29 17 46 17s33 -6 46 -17c13 -15 20 -33 20 -52s-7 -38 -20 -52c-13 -12 -29 -18 -46 -18s-33 6 -46 18c-14 14 -20 33 -20 52s6 37 20 52zM334 839c12 11 29 17 46 17s33 -6 46 -17c13 -15 20 -33 20 -52s-7 -38 -20 -52c-13 -12 -29 -18 -46 -18
s-34 6 -46 18c-14 14 -20 33 -20 52s6 37 20 52zM291 355h2l140 295h96l-195 -384v-266h-139v251l-202 399h155z" />
    <glyph glyph-name="Zacute" unicode="&#x179;" horiz-adv-x="567" 
d="M309 865l108 -31l-121 -130l-57 9zM522 650v-60l-313 -518h312v-72h-479v58l313 520h-295v72h462z" />
    <glyph glyph-name="zacute" unicode="&#x17a;" horiz-adv-x="434" 
d="M252 730l108 -31l-121 -130l-57 9zM407 500v-60l-227 -372h218l2 -68h-374v60l229 372h-210l-3 68h365z" />
    <glyph glyph-name="Zdotaccent" unicode="&#x17b;" horiz-adv-x="567" 
d="M230 843c15 14 34 20 53 20s37 -6 51 -19c15 -16 22 -36 22 -57s-7 -42 -22 -58c-14 -12 -32 -19 -51 -19s-38 7 -53 20c-15 15 -23 36 -23 57s8 41 23 56zM522 650v-60l-313 -518h312v-72h-479v58l313 520h-295v72h462z" />
    <glyph glyph-name="zdotaccent" unicode="&#x17c;" horiz-adv-x="434" 
d="M175 708c15 14 34 20 53 20s37 -6 51 -19c15 -16 22 -36 22 -57s-7 -42 -22 -58c-14 -12 -32 -19 -51 -19s-38 7 -53 20c-15 15 -23 36 -23 57s8 41 23 56zM407 500v-60l-227 -372h218l2 -68h-374v60l229 372h-210l-3 68h365z" />
    <glyph glyph-name="Zcaron" unicode="&#x17d;" horiz-adv-x="567" 
d="M249 707l-115 138l42 35l108 -93l108 93l42 -39l-115 -134h-70zM522 650v-60l-313 -518h312v-72h-479v58l313 520h-295v72h462z" />
    <glyph glyph-name="zcaron" unicode="&#x17e;" horiz-adv-x="434" 
d="M193 572l-115 138l42 35l108 -93l108 93l42 -39l-115 -134h-70zM407 500v-60l-227 -372h218l2 -68h-374v60l229 372h-210l-3 68h365z" />
    <glyph glyph-name="longs" unicode="&#x17f;" horiz-adv-x="253" 
d="M192 556v-556h-132v571c0 113 41 189 158 189c57 0 112 -34 112 -34l-17 -57s-43 24 -73 24c-31 0 -48 -23 -48 -137z" />
    <glyph glyph-name="florin" unicode="&#x192;" horiz-adv-x="290" 
d="M87 -36v459h-47v60l47 14v3h1v71c0 113 41 189 158 189c56 0 112 -34 112 -34l-17 -57s-43 24 -74 24s-48 -23 -48 -137v-56h128v-77h-128v-459c0 -171 -83 -226 -168 -226c-65 0 -87 19 -87 19l21 72s24 -11 51 -11c32 0 51 23 51 146z" />
    <glyph glyph-name="uni0237" unicode="&#x237;" horiz-adv-x="278" 
d="M84 -29v529h133v-529c0 -171 -76 -232 -176 -232c-65 0 -93 30 -93 30l22 60s25 -19 53 -19c42 0 61 38 61 161z" />
    <glyph glyph-name="circumflex" unicode="&#x2c6;" horiz-adv-x="357" 
d="M213 753l97 -122l-28 -45l-104 85l-104 -85l-29 45l98 122h70z" />
    <glyph glyph-name="caron" unicode="&#x2c7;" horiz-adv-x="357" 
d="M143 572l-115 138l42 35l108 -93l108 93l42 -39l-115 -134h-70z" />
    <glyph glyph-name="breve" unicode="&#x2d8;" horiz-adv-x="383" 
d="M191 636c81 0 84 55 84 55v4l67 -9s4 -123 -151 -123c-154 0 -149 123 -149 123l66 9v-4s4 -55 83 -55z" />
    <glyph glyph-name="dotaccent" unicode="&#x2d9;" horiz-adv-x="408" 
d="M172 708c15 14 34 20 53 20s37 -6 51 -19c15 -16 22 -36 22 -57s-7 -42 -22 -58c-14 -12 -32 -19 -51 -19s-38 7 -53 20c-15 15 -23 36 -23 57s8 41 23 56z" />
    <glyph glyph-name="ring" unicode="&#x2da;" horiz-adv-x="420" 
d="M208 657c0 44 -27 64 -59 64s-59 -20 -59 -64c0 -45 24 -66 59 -66s59 21 59 66zM254 656c0 -68 -44 -108 -105 -108c-64 0 -105 40 -105 108s45 107 105 107c58 0 105 -39 105 -107z" />
    <glyph glyph-name="ogonek" unicode="&#x2db;" horiz-adv-x="248" 
d="M191 36l17 -29s-82 -34 -82 -130c0 -63 24 -78 76 -78v-49c-87 0 -164 18 -164 117c0 107 153 169 153 169z" />
    <glyph glyph-name="tilde" unicode="&#x2dc;" horiz-adv-x="428" 
d="M360 705l36 -35s-26 -79 -112 -79c-65 0 -99 48 -155 48c-36 0 -58 -45 -58 -45l-36 36s37 90 123 90c73 0 101 -47 152 -47c36 0 50 32 50 32z" />
    <glyph glyph-name="hungarumlaut" unicode="&#x2dd;" horiz-adv-x="422" 
d="M60 585l53 153l92 -26l-94 -150zM215 585l54 153l92 -26l-95 -150z" />
    <glyph glyph-name="uni0400" unicode="&#x400;" 
d="M150 838l106 35l85 -147l-62 -17zM481 72v-72h-404v650h390v-72h-252v-214h222v-70h-222v-222h266z" />
    <glyph glyph-name="afii10023" unicode="&#x401;" 
d="M134 839c13 11 29 17 46 17s33 -6 46 -17c13 -15 20 -33 20 -52s-7 -38 -20 -52c-13 -12 -29 -18 -46 -18s-33 6 -46 18c-14 14 -20 33 -20 52s6 37 20 52zM320 839c12 11 29 17 46 17s33 -6 46 -17c13 -15 20 -33 20 -52s-7 -38 -20 -52c-13 -12 -29 -18 -46 -18
s-34 6 -46 18c-14 14 -20 33 -20 52s6 37 20 52zM481 72v-72h-404v650h390v-72h-252v-214h222v-70h-222v-222h266z" />
    <glyph glyph-name="afii10051" unicode="&#x402;" horiz-adv-x="667" 
d="M461 650v-71h-154v-223h2s46 52 150 52c124 0 167 -68 167 -176v-25c0 -171 -63 -218 -169 -218c-64 0 -88 28 -88 28l19 50s18 -16 42 -16c26 0 54 13 57 110v44c0 103 -21 121 -81 121c-56 0 -93 -33 -99 -39v-287h-139v579h-154v71h447z" />
    <glyph glyph-name="afii10052" unicode="&#x403;" horiz-adv-x="438" 
d="M269 865l108 -31l-121 -130l-57 9zM439 578h-224v-578h-138v650h362v-72z" />
    <glyph glyph-name="afii10053" unicode="&#x404;" horiz-adv-x="586" 
d="M477 354v-70h-288c6 -173 67 -220 169 -220c106 0 166 93 166 93l43 -48s-62 -120 -229 -120c-193 0 -302 122 -302 325s107 346 290 346c104 0 197 -51 197 -51l-14 -73s-92 49 -166 49c-98 0 -147 -62 -153 -231h287z" />
    <glyph glyph-name="afii10054" unicode="&#x405;" horiz-adv-x="492" 
d="M429 614l-16 -68s-65 44 -135 44c-50 0 -84 -29 -84 -81c0 -140 263 -108 263 -324c0 -125 -103 -196 -229 -196c-149 0 -197 79 -197 79l38 58s51 -63 150 -63c65 0 99 38 99 91c0 126 -260 105 -260 312c0 120 88 194 211 194c90 0 160 -46 160 -46z" />
    <glyph glyph-name="afii10055" unicode="&#x406;" horiz-adv-x="293" 
d="M215 650v-650h-138v650h138z" />
    <glyph glyph-name="afii10056" unicode="&#x407;" horiz-adv-x="293" 
d="M7 839c13 11 29 17 46 17s33 -6 46 -17c13 -15 20 -33 20 -52s-7 -38 -20 -52c-13 -12 -29 -18 -46 -18s-33 6 -46 18c-14 14 -20 33 -20 52s6 37 20 52zM193 839c12 11 29 17 46 17s33 -6 46 -17c13 -15 20 -33 20 -52s-7 -38 -20 -52c-13 -12 -29 -18 -46 -18
s-34 6 -46 18c-14 14 -20 33 -20 52s6 37 20 52zM215 650v-650h-138v650h138z" />
    <glyph glyph-name="afii10057" unicode="&#x408;" horiz-adv-x="400" 
d="M34 88c0 0 23 -28 69 -28c47 0 74 29 74 154v436h138v-436c0 -171 -63 -225 -182 -225c-101 0 -129 41 -129 41z" />
    <glyph glyph-name="afii10058" unicode="&#x409;" horiz-adv-x="889" 
d="M598 338h-47v-273h48c78 0 111 39 111 140c0 102 -37 133 -112 133zM413 0v578h-138c-1 -401 -75 -588 -197 -588c-38 0 -54 8 -54 8l5 88s15 -5 30 -5c92 0 137 159 137 569h355v-249h47c160 0 255 -61 255 -192c0 -130 -82 -209 -251 -209h-189z" />
    <glyph glyph-name="afii10059" unicode="&#x40a;" horiz-adv-x="915" 
d="M624 338h-46v-273h47c78 0 111 39 111 140c0 102 -37 133 -112 133zM439 0v296h-224v-296h-138v650h138v-284h224v284h139v-249h46c160 0 255 -61 255 -192c0 -130 -82 -209 -251 -209h-189z" />
    <glyph glyph-name="afii10060" unicode="&#x40b;" horiz-adv-x="695" 
d="M461 650v-71h-154v-223h2s46 52 150 52c124 0 167 -68 167 -176v-232h-139v205c0 103 -21 121 -81 121c-56 0 -93 -33 -99 -39v-287h-139v579h-154v71h447z" />
    <glyph glyph-name="afii10061" unicode="&#x40c;" horiz-adv-x="626" 
d="M334 865l108 -31l-121 -130l-57 9zM77 0v650h138v-301l59 43l191 258h96l-197 -254l243 -396h-175l-174 292l-43 -30v-262h-138z" />
    <glyph glyph-name="uni040D" unicode="&#x40d;" horiz-adv-x="676" 
d="M204 838l106 35l85 -147l-62 -17zM599 650v-650h-138v420l6 72h-1l-251 -470l-8 -22h-130v650h138v-431l-7 -65h2l252 474l9 22h128z" />
    <glyph glyph-name="afii10062" unicode="&#x40e;" horiz-adv-x="596" 
d="M333 759c49 0 59 22 59 39c0 11 -4 20 -4 20v12l104 -9s8 -123 -159 -123c-166 0 -158 123 -158 123l104 9v-12s-4 -9 -4 -20c0 -17 10 -39 58 -39zM361 288h3l118 362h92l-173 -450c-60 -152 -129 -211 -224 -211c-66 0 -99 25 -99 25l18 84s32 -21 81 -21
c47 0 80 12 114 68l-268 505h162z" />
    <glyph glyph-name="afii10145" unicode="&#x40f;" horiz-adv-x="640" 
d="M215 650v-578h210v578h138v-650h-182l-20 -204h-77l-24 204h-183v650h138z" />
    <glyph glyph-name="afii10017" unicode="&#x410;" horiz-adv-x="608" 
d="M280 551h-2l-96 -306h187zM235 650h153l202 -650h-146l-56 182h-226l-59 -182h-84z" />
    <glyph glyph-name="afii10018" unicode="&#x411;" horiz-adv-x="553" 
d="M259 338h-43v-273h44c78 0 114 34 114 140s-40 133 -115 133zM442 650v-72h-226v-177h42c161 0 259 -61 259 -192c0 -130 -86 -209 -255 -209h-185v650h365z" />
    <glyph glyph-name="afii10019" unicode="&#x412;" horiz-adv-x="569" 
d="M215 361h82c29 0 73 24 73 112c0 82 -44 112 -99 112h-56v-224zM304 301h-89v-236h62c70 0 116 39 116 127c0 82 -38 109 -89 109zM77 0v650h198c161 0 230 -83 230 -169c0 -73 -48 -117 -97 -142c72 -23 125 -74 125 -152c0 -110 -83 -187 -253 -187h-203z" />
    <glyph glyph-name="afii10020" unicode="&#x413;" horiz-adv-x="438" 
d="M439 578h-224v-578h-138v650h362v-72z" />
    <glyph glyph-name="afii10021" unicode="&#x414;" horiz-adv-x="646" 
d="M404 578h-156c-3 -267 -28 -399 -76 -506h232v506zM167 650h375v-578h81l-24 -247h-78l-22 175h-356l-40 -175h-69l-11 247h67c55 115 77 259 77 578z" />
    <glyph glyph-name="afii10022" unicode="&#x415;" 
d="M481 72v-72h-404v650h390v-72h-252v-214h222v-70h-222v-222h266z" />
    <glyph glyph-name="afii10024" unicode="&#x416;" horiz-adv-x="895" 
d="M509 650v-246h78l156 246h99l-176 -248l208 -402h-161l-154 332h-50v-332h-138v331h-57l-131 -331h-162l187 380l-158 270h99l133 -246h89v246h138z" />
    <glyph glyph-name="afii10025" unicode="&#x417;" horiz-adv-x="511" 
d="M74 547l-13 68s85 45 180 45c139 0 215 -68 215 -171c0 -81 -52 -128 -104 -154c70 -17 124 -59 124 -152c0 -116 -101 -194 -247 -194c-175 0 -217 104 -217 104l42 52s49 -82 158 -82c64 0 109 31 109 122c0 90 -33 114 -87 114l-96 -8v77l105 -9c32 1 66 33 66 123
c0 79 -28 108 -95 108c-62 0 -140 -43 -140 -43z" />
    <glyph glyph-name="afii10026" unicode="&#x418;" horiz-adv-x="676" 
d="M599 650v-650h-138v420l6 72h-1l-251 -470l-8 -22h-130v650h138v-431l-7 -65h2l252 474l9 22h128z" />
    <glyph glyph-name="afii10027" unicode="&#x419;" horiz-adv-x="676" 
d="M344 759c49 0 59 22 59 39c0 11 -4 20 -4 20v12l104 -9s8 -123 -159 -123c-166 0 -158 123 -158 123l104 9v-12s-4 -9 -4 -20c0 -17 10 -39 58 -39zM599 650v-650h-138v420l6 72h-1l-251 -470l-8 -22h-130v650h138v-431l-7 -65h2l252 474l9 22h128z" />
    <glyph glyph-name="afii10028" unicode="&#x41a;" horiz-adv-x="626" 
d="M77 0v650h138v-301l59 43l191 258h96l-197 -254l243 -396h-175l-174 292l-43 -30v-262h-138z" />
    <glyph glyph-name="afii10029" unicode="&#x41b;" horiz-adv-x="628" 
d="M196 650h355v-650h-138v578h-138c-1 -401 -75 -588 -197 -588c-38 0 -54 8 -54 8l5 88s15 -5 30 -5c92 0 137 159 137 569z" />
    <glyph glyph-name="afii10030" unicode="&#x41c;" horiz-adv-x="856" 
d="M772 650l7 -650h-135l-7 492h-3l-181 -492h-103l-181 492h-3l-3 -492h-86l8 650h167l182 -479h4l179 479h155z" />
    <glyph glyph-name="afii10031" unicode="&#x41d;" horiz-adv-x="655" 
d="M578 650v-650h-138v296h-225v-296h-138v650h138v-284h225v284h138z" />
    <glyph glyph-name="afii10032" unicode="&#x41e;" horiz-adv-x="663" 
d="M474 324c0 183 -43 264 -144 264c-100 0 -142 -81 -142 -264c0 -184 39 -264 142 -264s144 80 144 264zM627 324c0 -204 -105 -335 -297 -335c-191 0 -294 131 -294 335s103 336 294 336c192 0 297 -132 297 -336z" />
    <glyph glyph-name="afii10033" unicode="&#x41f;" horiz-adv-x="640" 
d="M563 650v-650h-138v578h-210v-578h-138v650h486z" />
    <glyph glyph-name="afii10034" unicode="&#x420;" horiz-adv-x="533" 
d="M263 585h-48v-318h48c62 0 98 33 98 157c0 123 -35 161 -98 161zM77 0v650h199c144 0 234 -71 234 -220c0 -166 -126 -227 -231 -227h-64v-203h-138z" />
    <glyph glyph-name="afii10035" unicode="&#x421;" horiz-adv-x="576" 
d="M518 536c0 0 -95 49 -169 49c-109 0 -161 -66 -161 -260s57 -261 168 -261c107 0 166 93 166 93l44 -48s-62 -120 -229 -120c-200 0 -301 130 -301 331c0 205 109 340 296 340c103 0 200 -51 200 -51z" />
    <glyph glyph-name="afii10036" unicode="&#x422;" horiz-adv-x="516" 
d="M502 650v-72h-174v-578h-139v578h-175v72h488z" />
    <glyph glyph-name="afii10037" unicode="&#x423;" horiz-adv-x="596" 
d="M361 288h3l118 362h92l-173 -450c-60 -152 -129 -211 -224 -211c-66 0 -99 25 -99 25l18 84s32 -21 81 -21c47 0 80 12 114 68l-268 505h162z" />
    <glyph glyph-name="afii10038" unicode="&#x424;" horiz-adv-x="768" 
d="M597 330c0 124 -40 192 -144 197v-398c104 5 144 75 144 201zM171 329c0 -125 39 -195 144 -200v398c-105 -5 -144 -73 -144 -198zM453 650v-62c172 -4 291 -92 291 -258s-119 -259 -291 -263v-67h-138v67c-173 4 -290 96 -290 262s116 255 290 259v62h138z" />
    <glyph glyph-name="afii10039" unicode="&#x425;" horiz-adv-x="581" 
d="M8 0l202 316l-193 334h173l120 -233h3l139 233h98l-190 -300l213 -350h-172l-139 248h-3l-147 -248h-104z" />
    <glyph glyph-name="afii10040" unicode="&#x426;" horiz-adv-x="667" 
d="M215 650v-578h210v578h138v-578h81l-28 -247h-75l-23 175h-441v650h138z" />
    <glyph glyph-name="afii10041" unicode="&#x427;" horiz-adv-x="586" 
d="M509 650v-650h-139v266h-1s-45 -41 -148 -41c-126 0 -170 85 -170 194v231h139v-214c0 -105 25 -131 82 -131c50 0 89 20 98 25v320h139z" />
    <glyph glyph-name="afii10042" unicode="&#x428;" horiz-adv-x="870" 
d="M504 650v-578h150v578h139v-650h-716v650h138v-578h151v578h138z" />
    <glyph glyph-name="afii10043" unicode="&#x429;" horiz-adv-x="894" 
d="M793 650v-578h76l-25 -247h-76l-22 175h-669v650h138v-578h151v578h138v-578h150v578h139z" />
    <glyph glyph-name="afii10044" unicode="&#x42a;" horiz-adv-x="644" 
d="M353 338h-47v-273h48c78 0 111 39 111 140c0 102 -37 133 -112 133zM168 0v578h-154v72h292v-249h47c160 0 255 -61 255 -192c0 -130 -82 -209 -251 -209h-189z" />
    <glyph glyph-name="afii10045" unicode="&#x42b;" horiz-adv-x="805" 
d="M728 650v-650h-138v650h138zM262 338h-47v-273h48c78 0 111 39 111 140c0 102 -37 133 -112 133zM77 0v650h138v-249h47c160 0 255 -61 255 -192c0 -130 -82 -209 -251 -209h-189z" />
    <glyph glyph-name="afii10046" unicode="&#x42c;" horiz-adv-x="553" 
d="M262 338h-47v-273h48c78 0 111 39 111 140c0 102 -37 133 -112 133zM77 0v650h138v-249h47c160 0 255 -61 255 -192c0 -130 -82 -209 -251 -209h-189z" />
    <glyph glyph-name="afii10047" unicode="&#x42d;" horiz-adv-x="564" 
d="M11 81l40 60s53 -76 156 -76c97 0 156 51 164 225h-271v71h271c-3 180 -40 225 -151 225c-75 0 -146 -44 -146 -44l-13 70s84 48 175 48c204 0 292 -128 292 -332c0 -203 -113 -339 -290 -339c-168 0 -227 92 -227 92z" />
    <glyph glyph-name="afii10048" unicode="&#x42e;" horiz-adv-x="923" 
d="M734 324c0 179 -43 268 -144 268c-100 0 -146 -89 -146 -268s44 -267 146 -267c103 0 144 88 144 267zM887 324c0 -204 -106 -335 -297 -335c-180 0 -281 116 -292 301h-83v-290h-138v650h138v-290h83c11 183 112 300 292 300c191 0 297 -132 297 -336z" />
    <glyph glyph-name="afii10049" unicode="&#x42f;" horiz-adv-x="578" 
d="M189 449c0 -88 31 -129 82 -129h91v264h-92c-49 0 -81 -43 -81 -135zM501 650v-650h-139v251h-74l-110 -251h-142l135 268c-67 26 -121 83 -121 178c0 138 95 204 215 204h236z" />
    <glyph glyph-name="afii10065" unicode="&#x430;" horiz-adv-x="513" 
d="M302 111v132c-83 -9 -136 -36 -136 -106c0 -55 24 -81 59 -81c55 0 77 55 77 55zM100 407l-13 64s77 40 155 40c117 0 193 -40 193 -175v-227c0 -42 11 -53 21 -53c12 0 34 7 34 7l4 -52s-69 -22 -111 -22c-39 0 -59 18 -66 62h-5s-28 -62 -131 -62
c-92 0 -154 49 -154 131c0 133 168 167 275 176v29c0 93 -25 119 -83 119c-47 0 -119 -37 -119 -37z" />
    <glyph glyph-name="afii10066" unicode="&#x431;" horiz-adv-x="526" 
d="M263 445c-64 0 -89 -62 -89 -176c0 -155 24 -214 89 -214c66 0 90 55 90 198s-24 192 -90 192zM334 617c-172 -13 -234 -98 -233 -249h8c9 40 57 143 175 143c133 0 212 -92 212 -258s-89 -264 -233 -264c-162 0 -232 115 -232 286c0 200 16 431 267 463l140 18l5 -131z
" />
    <glyph glyph-name="afii10067" unicode="&#x432;" horiz-adv-x="499" 
d="M193 277h73s54 5 54 82c0 50 -19 81 -71 81h-56v-163zM257 230h-64v-170h57c61 0 84 39 84 92c0 48 -23 78 -77 78zM253 0h-193v500h191c149 0 202 -59 202 -134c0 -60 -43 -92 -88 -110c50 -14 105 -47 105 -110c0 -88 -53 -146 -217 -146z" />
    <glyph glyph-name="afii10068" unicode="&#x433;" horiz-adv-x="372" 
d="M361 427h-168v-427h-133v500h301v-73z" />
    <glyph glyph-name="afii10069" unicode="&#x434;" horiz-adv-x="531" 
d="M198 429c-1 -133 -6 -251 -41 -358h159v358h-118zM520 71l-15 -219h-63l-23 148h-308l-30 -148h-64l-10 219h66c44 115 51 244 51 429h325v-429h71z" />
    <glyph glyph-name="afii10070" unicode="&#x435;" horiz-adv-x="474" 
d="M251 446c-53 0 -76 -34 -81 -160h153v23c0 102 -19 137 -72 137zM395 122l45 -35s-48 -98 -177 -98c-141 0 -234 73 -234 252c0 177 89 269 222 269c124 0 196 -80 196 -226c0 -40 -8 -63 -8 -63h-269c2 -121 33 -165 109 -165c77 0 116 66 116 66z" />
    <glyph glyph-name="afii10072" unicode="&#x436;" horiz-adv-x="719" 
d="M426 500v-192l70 2l106 190h87l-126 -220l144 -280h-144l-106 240l-31 -1v-239h-133v240l-30 2l-108 -242h-143l144 283l-121 217h91l96 -191l71 -2v193h133z" />
    <glyph glyph-name="afii10073" unicode="&#x437;" horiz-adv-x="437" 
d="M56 407l-12 65s80 39 150 39c138 0 196 -53 196 -135c0 -62 -39 -95 -81 -113c51 -14 98 -47 98 -119c0 -103 -83 -155 -217 -155c-151 0 -182 79 -182 79l37 48s37 -61 126 -61c61 0 98 33 98 96c0 56 -35 75 -77 75l-84 -5v68l90 -4h6c19 3 53 20 53 81
c0 57 -27 79 -83 79c-51 0 -118 -38 -118 -38z" />
    <glyph glyph-name="afii10074" unicode="&#x438;" horiz-adv-x="552" 
d="M376 500h116v-500h-133v349l-195 -349h-104v500h133v-329z" />
    <glyph glyph-name="afii10075" unicode="&#x439;" horiz-adv-x="552" 
d="M287 624c49 0 59 22 59 39c0 11 -4 20 -4 20v12l104 -9s8 -123 -159 -123c-166 0 -158 123 -158 123l104 9v-12s-4 -9 -4 -20c0 -17 10 -39 58 -39zM376 500h116v-500h-133v349l-195 -349h-104v500h133v-329z" />
    <glyph glyph-name="afii10076" unicode="&#x43a;" horiz-adv-x="493" 
d="M60 0v500h133v-209l63 33l111 176h77l-118 -187l156 -313h-151l-106 237l-32 -14v-223h-133z" />
    <glyph glyph-name="afii10077" unicode="&#x43b;" horiz-adv-x="500" 
d="M439 500v-500h-133v427h-90c-6 -249 -57 -438 -181 -438c-8 0 -17 1 -26 3l5 80c4 -1 8 -1 12 -1c87 0 115 169 115 429h298z" />
    <glyph glyph-name="afii10078" unicode="&#x43c;" horiz-adv-x="679" 
d="M610 500l13 -500h-124l-9 328v54h-3l-127 -382h-91l-121 382h-2l-1 -28l-16 -354h-74l27 500h160l97 -358h1l113 358h157z" />
    <glyph glyph-name="afii10079" unicode="&#x43d;" horiz-adv-x="541" 
d="M60 0v500h133v-209h155v209h133v-500h-133v223h-155v-223h-133z" />
    <glyph glyph-name="afii10080" unicode="&#x43e;" horiz-adv-x="525" 
d="M262 444c-66 0 -90 -50 -90 -193c0 -145 24 -196 90 -196s90 51 90 195s-24 194 -90 194zM496 250c0 -166 -90 -261 -234 -261c-150 0 -233 95 -233 261s83 261 233 261c151 0 234 -95 234 -261z" />
    <glyph glyph-name="afii10081" unicode="&#x43f;" horiz-adv-x="535" 
d="M474 500v-500h-133v427h-148v-427h-133v500h414z" />
    <glyph glyph-name="afii10082" unicode="&#x440;" horiz-adv-x="545" 
d="M277 433c-53 0 -82 -39 -84 -43v-292s23 -33 74 -33c73 0 105 46 105 192c0 141 -33 176 -95 176zM60 -254v754h107l18 -45h3s42 56 136 56c119 0 191 -99 191 -251c0 -163 -75 -271 -198 -271c-88 0 -121 38 -121 38h-3v-277z" />
    <glyph glyph-name="afii10083" unicode="&#x441;" horiz-adv-x="446" 
d="M403 408c0 0 -71 36 -118 36c-71 0 -112 -34 -112 -195c0 -160 47 -193 108 -193c79 0 114 69 114 69l47 -30s-37 -106 -175 -106c-153 0 -238 89 -238 258c0 162 90 264 241 264c69 0 146 -39 146 -39z" />
    <glyph glyph-name="afii10084" unicode="&#x442;" horiz-adv-x="442" 
d="M431 427h-144v-427h-132v427h-144l-1 73h421v-73z" />
    <glyph glyph-name="afii10085" unicode="&#x443;" horiz-adv-x="481" 
d="M33 -168c0 0 26 -11 52 -11c64 0 93 50 135 159l-213 520h161l122 -356l103 356h83l-173 -511c-55 -152 -105 -250 -203 -250c-52 0 -78 15 -78 15z" />
    <glyph glyph-name="afii10086" unicode="&#x444;" horiz-adv-x="696" 
d="M165 249c0 -153 42 -193 116 -194v389c-74 -1 -116 -40 -116 -195zM531 250c0 154 -43 194 -117 195v-389c74 1 117 40 117 194zM414 754v-243h7c147 0 246 -93 246 -261s-99 -261 -246 -261l-7 1v-240l-133 -4v243h-7c-147 0 -245 92 -245 260c0 169 98 262 245 262
l7 -1v236z" />
    <glyph glyph-name="afii10087" unicode="&#x445;" horiz-adv-x="473" 
d="M444 500l-139 -227l159 -273h-159l-94 187l-109 -187h-93l154 242l-146 258h159l83 -177l94 177h91z" />
    <glyph glyph-name="afii10088" unicode="&#x446;" horiz-adv-x="557" 
d="M193 500v-427h148v427h133v-427h66l-15 -221h-70l-17 148h-378v500h133z" />
    <glyph glyph-name="afii10089" unicode="&#x447;" horiz-adv-x="495" 
d="M301 259v241h133v-500h-133v206h-1s-36 -26 -122 -26s-141 39 -141 142v178h133v-182c0 -54 17 -77 57 -77c43 0 74 18 74 18z" />
    <glyph glyph-name="afii10090" unicode="&#x448;" horiz-adv-x="755" 
d="M694 500v-500h-634v500h133v-427h118v427h133v-427h117v427h133z" />
    <glyph glyph-name="afii10091" unicode="&#x449;" horiz-adv-x="776" 
d="M760 73l-14 -221h-70l-18 148h-598v500h133v-427h118v427h133v-427h117v427h133v-427h66z" />
    <glyph glyph-name="afii10092" unicode="&#x44a;" horiz-adv-x="576" 
d="M322 269h-41v-209h41c51 0 85 20 85 110c0 84 -41 99 -85 99zM281 500v-172h47c135 0 221 -45 221 -158c0 -116 -72 -170 -221 -170h-180v427h-130v73h263z" />
    <glyph glyph-name="afii10093" unicode="&#x44b;" horiz-adv-x="719" 
d="M234 269h-41v-209h41c51 0 85 20 85 110c0 84 -41 99 -85 99zM193 500v-172h47c135 0 221 -45 221 -158c0 -116 -72 -170 -221 -170h-180v500h133zM659 500v-500h-133v500h133z" />
    <glyph glyph-name="afii10094" unicode="&#x44c;" horiz-adv-x="489" 
d="M234 269h-41v-209h41c51 0 85 20 85 110c0 84 -41 99 -85 99zM193 500v-172h47c135 0 221 -45 221 -158c0 -116 -72 -170 -221 -170h-180v500h133z" />
    <glyph glyph-name="afii10095" unicode="&#x44d;" horiz-adv-x="451" 
d="M10 66l36 47s42 -57 126 -57c79 0 114 37 119 161l-192 -4v76h192c-5 128 -44 156 -114 156c-55 0 -126 -38 -126 -38l-12 65s85 39 154 39c145 0 229 -93 229 -248c0 -189 -108 -274 -234 -274c-137 0 -178 77 -178 77z" />
    <glyph glyph-name="afii10096" unicode="&#x44e;" horiz-adv-x="717" 
d="M464 447c-66 0 -85 -55 -85 -196c0 -134 19 -198 85 -198c67 0 87 63 87 197c0 141 -20 197 -87 197zM461 511c151 0 226 -94 226 -261c0 -168 -75 -261 -226 -261c-126 0 -201 81 -209 234h-59v-223h-133v500h133v-209h60c12 142 83 220 208 220z" />
    <glyph glyph-name="afii10097" unicode="&#x44f;" horiz-adv-x="492" 
d="M169 344c0 -65 41 -90 91 -90h38v186h-39c-56 0 -90 -26 -90 -96zM431 500v-500h-133v195h-53l-80 -195h-135l105 220c-53 24 -97 65 -97 125c0 108 80 155 211 155h182z" />
    <glyph glyph-name="uni0450" unicode="&#x450;" horiz-adv-x="474" 
d="M117 703l106 35l85 -147l-62 -17zM251 446c-53 0 -76 -34 -81 -160h153v23c0 102 -19 137 -72 137zM395 122l45 -35s-48 -98 -177 -98c-141 0 -234 73 -234 252c0 177 89 269 222 269c124 0 196 -80 196 -226c0 -40 -8 -63 -8 -63h-269c2 -121 33 -165 109 -165
c77 0 116 66 116 66z" />
    <glyph glyph-name="afii10071" unicode="&#x451;" horiz-adv-x="474" 
d="M97 704c13 11 29 17 46 17s33 -6 46 -17c13 -15 20 -33 20 -52s-7 -38 -20 -52c-13 -12 -29 -18 -46 -18s-33 6 -46 18c-14 14 -20 33 -20 52s6 37 20 52zM283 704c12 11 29 17 46 17s33 -6 46 -17c13 -15 20 -33 20 -52s-7 -38 -20 -52c-13 -12 -29 -18 -46 -18
s-34 6 -46 18c-14 14 -20 33 -20 52s6 37 20 52zM251 446c-53 0 -76 -34 -81 -160h153v23c0 102 -19 137 -72 137zM395 122l45 -35s-48 -98 -177 -98c-141 0 -234 73 -234 252c0 177 89 269 222 269c124 0 196 -80 196 -226c0 -40 -8 -63 -8 -63h-269
c2 -121 33 -165 109 -165c77 0 116 66 116 66z" />
    <glyph glyph-name="afii10099" unicode="&#x452;" horiz-adv-x="538" 
d="M355 592v-71h-161v-141h5s35 47 123 47c103 0 161 -61 161 -179v-275c0 -155 -85 -234 -172 -234c-29 0 -58 9 -85 27l21 67c13 -7 27 -11 39 -11c37 0 64 38 64 151v247c0 92 -20 124 -72 124c-54 0 -82 -37 -84 -41v-303h-133v521h-48v58l48 10v157l133 8v-162h161z
" />
    <glyph glyph-name="afii10100" unicode="&#x453;" horiz-adv-x="388" 
d="M229 730l108 -31l-121 -130l-57 9zM359 427h-168v-427h-133v500h301v-73z" />
    <glyph glyph-name="afii10101" unicode="&#x454;" horiz-adv-x="447" 
d="M400 121l37 -38s-42 -94 -177 -94c-141 0 -231 93 -231 262c0 155 87 260 230 260c73 0 150 -40 150 -40l-13 -64s-71 37 -118 37c-70 0 -103 -28 -108 -160l187 4v-77h-186c8 -129 55 -155 115 -155c76 0 114 65 114 65z" />
    <glyph glyph-name="afii10102" unicode="&#x455;" horiz-adv-x="417" 
d="M24 64l37 52s44 -61 111 -61c51 0 77 30 77 69c0 102 -204 68 -204 232c0 104 84 155 177 155c71 0 144 -35 144 -35l-18 -67s-65 37 -113 37c-42 0 -65 -22 -65 -55c0 -102 218 -78 218 -239c0 -94 -63 -163 -188 -163c-131 0 -176 75 -176 75z" />
    <glyph glyph-name="afii10103" unicode="&#x456;" horiz-adv-x="253" 
d="M74 708c15 14 34 20 53 20s37 -6 51 -19c15 -16 22 -36 22 -57s-7 -42 -22 -58c-14 -12 -32 -19 -51 -19s-38 7 -53 20c-15 15 -23 36 -23 57s8 41 23 56zM193 500v-500h-133v500h133z" />
    <glyph glyph-name="afii10104" unicode="&#x457;" horiz-adv-x="253" 
d="M-13 704c13 11 29 17 46 17s33 -6 46 -17c13 -15 20 -33 20 -52s-7 -38 -20 -52c-13 -12 -29 -18 -46 -18s-33 6 -46 18c-14 14 -20 33 -20 52s6 37 20 52zM173 704c12 11 29 17 46 17s33 -6 46 -17c13 -15 20 -33 20 -52s-7 -38 -20 -52c-13 -12 -29 -18 -46 -18
s-34 6 -46 18c-14 14 -20 33 -20 52s6 37 20 52zM193 500v-500h-133v500h133z" />
    <glyph glyph-name="afii10105" unicode="&#x458;" horiz-adv-x="280" 
d="M102 708c15 14 34 20 53 20s37 -6 51 -19c15 -16 22 -36 22 -57s-7 -42 -22 -58c-14 -12 -32 -19 -51 -19s-38 7 -53 20c-15 15 -23 36 -23 57s8 41 23 56zM86 -29v529h133v-529c0 -171 -76 -232 -176 -232c-65 0 -93 30 -93 30l22 60s25 -19 53 -19c42 0 61 38 61 161z
" />
    <glyph glyph-name="afii10106" unicode="&#x459;" horiz-adv-x="735" 
d="M480 269h-41v-209h41c51 0 85 20 85 110c0 84 -41 99 -85 99zM439 500v-172h47c135 0 221 -45 221 -158c0 -116 -72 -170 -221 -170h-180v427h-90c-6 -249 -57 -438 -181 -438c-8 0 -17 1 -26 3l5 80c4 -1 8 -1 12 -1c87 0 115 169 115 429h298z" />
    <glyph glyph-name="afii10107" unicode="&#x45a;" horiz-adv-x="776" 
d="M521 269h-40v-209h40c51 0 85 20 85 110c0 84 -41 99 -85 99zM60 0v500h133v-209h154v209h134v-172h46c135 0 221 -45 221 -158c0 -116 -72 -170 -221 -170h-180v223h-154v-223h-133z" />
    <glyph glyph-name="afii10108" unicode="&#x45b;" horiz-adv-x="536" 
d="M355 592v-71h-161v-141h5s35 47 123 47c103 0 161 -61 161 -179v-248h-133v220c0 92 -20 124 -73 124s-83 -41 -83 -41v-303h-133v521h-48v58l48 10v157l133 8v-162h161z" />
    <glyph glyph-name="afii10109" unicode="&#x45c;" horiz-adv-x="493" 
d="M289 730l108 -31l-121 -130l-57 9zM60 0v500h133v-209l63 33l111 176h77l-118 -187l156 -313h-151l-106 237l-32 -14v-223h-133z" />
    <glyph glyph-name="uni045D" unicode="&#x45d;" horiz-adv-x="552" 
d="M145 703l106 35l85 -147l-62 -17zM376 500h116v-500h-133v349l-195 -349h-104v500h133v-329z" />
    <glyph glyph-name="afii10110" unicode="&#x45e;" horiz-adv-x="481" 
d="M261 624c49 0 59 22 59 39c0 11 -4 20 -4 20v12l104 -9s8 -123 -159 -123c-166 0 -158 123 -158 123l104 9v-12s-4 -9 -4 -20c0 -17 10 -39 58 -39zM33 -168c0 0 26 -11 52 -11c64 0 93 50 135 159l-213 520h161l122 -356l103 356h83l-173 -511
c-55 -152 -105 -250 -203 -250c-52 0 -78 15 -78 15z" />
    <glyph glyph-name="afii10193" unicode="&#x45f;" horiz-adv-x="560" 
d="M500 500v-500h-170l-12 -148h-74l-18 148h-166v500h133v-427h174v427h133z" />
    <glyph glyph-name="afii10146" unicode="&#x462;" horiz-adv-x="618" 
d="M334 336h-53v-271h54c78 0 105 39 105 140c0 102 -31 131 -106 131zM453 581v-76h-172v-105h52c161 0 250 -60 250 -191c0 -130 -77 -209 -246 -209h-195v505h-128v76h128v69h139v-69h172z" />
    <glyph glyph-name="afii10194" unicode="&#x463;" horiz-adv-x="557" 
d="M303 269h-40v-209h40c51 0 85 20 85 110c0 84 -41 99 -85 99zM263 604v-104h135v-65h-135v-107h45c135 0 222 -45 222 -158c0 -116 -72 -170 -222 -170h-178v427h-116l-4 73h120v96z" />
    <glyph glyph-name="afii10050" unicode="&#x490;" horiz-adv-x="420" 
d="M345 750h67l8 -176h-205v-574h-138v650h240z" />
    <glyph glyph-name="afii10098" unicode="&#x491;" horiz-adv-x="351" 
d="M273 636h67l7 -209h-154v-427h-133v500h187z" />
    <glyph glyph-name="uni1E9E" unicode="&#x1e9e;" horiz-adv-x="658" 
d="M538 650v-47l-120 -229c7 1 14 2 22 2c101 0 182 -64 182 -183c0 -137 -109 -204 -214 -204c-99 0 -138 40 -138 40l26 66s32 -31 89 -31s94 32 94 129c0 88 -17 120 -64 120c-23 0 -38 -20 -43 -28l-2 -4l-70 58l116 239h-76c-83 0 -123 -46 -123 -191v-387h-138v414
c0 152 78 236 238 236h221z" />
    <glyph glyph-name="uni2002" unicode="&#x2002;" horiz-adv-x="425" 
 />
    <glyph glyph-name="uni2003" unicode="&#x2003;" horiz-adv-x="850" 
 />
    <glyph glyph-name="uni2004" unicode="&#x2004;" horiz-adv-x="283" 
 />
    <glyph glyph-name="uni2005" unicode="&#x2005;" horiz-adv-x="212" 
 />
    <glyph glyph-name="uni2009" unicode="&#x2009;" horiz-adv-x="170" 
 />
    <glyph glyph-name="uni200A" unicode="&#x200a;" horiz-adv-x="34" 
 />
    <glyph glyph-name="uni2011" unicode="&#x2011;" horiz-adv-x="333" 
d="M303 312v-74h-272v74h272z" />
    <glyph glyph-name="endash" unicode="&#x2013;" 
d="M494 312v-74h-463v74h463z" />
    <glyph glyph-name="emdash" unicode="&#x2014;" horiz-adv-x="678" 
d="M648 312v-74h-617v74h617z" />
    <glyph glyph-name="afii00208" unicode="&#x2015;" horiz-adv-x="678" 
d="M648 312v-74h-617v74h617z" />
    <glyph glyph-name="quoteleft" unicode="&#x2018;" horiz-adv-x="181" 
d="M45 450c-4 3 -7 7 -10 11c-12 19 -18 43 -18 69c0 78 50 177 112 228l35 -37c-46 -40 -77 -100 -79 -151h7c17 0 35 -6 48 -17c13 -15 20 -33 20 -52s-7 -37 -20 -51c-13 -12 -31 -18 -48 -18s-34 6 -47 18z" />
    <glyph glyph-name="quoteright" unicode="&#x2019;" horiz-adv-x="180" 
d="M37 739c13 12 31 18 48 18s34 -6 48 -18l3 -4c17 -19 24 -46 24 -76c0 -78 -50 -177 -112 -228l-35 37c45 40 77 99 79 150h-7c-17 0 -35 6 -48 18c-14 14 -20 32 -20 51s6 38 20 52z" />
    <glyph glyph-name="quotesinglbase" unicode="&#x201a;" horiz-adv-x="180" 
d="M37 138c13 12 31 18 48 18s34 -6 48 -18l4 -5c16 -19 23 -45 23 -74c0 -77 -50 -177 -112 -229l-35 37c45 40 77 100 79 151h-7c-17 0 -35 6 -48 17c-14 14 -20 33 -20 52s6 37 20 51z" />
    <glyph glyph-name="quotedblleft" unicode="&#x201c;" horiz-adv-x="368" 
d="M232 450c-4 3 -7 7 -10 11c-12 19 -18 43 -18 69c0 78 50 177 112 228l35 -37c-46 -40 -77 -100 -79 -151h7c17 0 35 -6 48 -17c13 -15 20 -33 20 -52s-7 -37 -20 -51c-13 -12 -31 -18 -48 -18s-34 6 -47 18zM45 450c-4 3 -7 7 -10 11c-12 19 -18 43 -18 69
c0 78 50 177 112 228l35 -37c-46 -40 -77 -100 -79 -151h7c17 0 35 -6 48 -17c13 -15 20 -33 20 -52s-7 -37 -20 -51c-13 -12 -31 -18 -48 -18s-34 6 -47 18z" />
    <glyph glyph-name="quotedblright" unicode="&#x201d;" horiz-adv-x="368" 
d="M224 739c13 12 31 18 48 18s34 -6 48 -18l3 -4c17 -19 24 -46 24 -76c0 -78 -50 -177 -112 -228l-35 37c45 40 77 99 79 150h-7c-17 0 -35 6 -48 18c-14 14 -20 32 -20 51s6 38 20 52zM37 739c13 12 31 18 48 18s34 -6 48 -18l3 -4c17 -19 24 -46 24 -76
c0 -78 -50 -177 -112 -228l-35 37c45 40 77 99 79 150h-7c-17 0 -35 6 -48 18c-14 14 -20 32 -20 51s6 38 20 52z" />
    <glyph glyph-name="quotedblbase" unicode="&#x201e;" horiz-adv-x="368" 
d="M224 138c13 12 31 18 48 18s34 -6 48 -18l4 -5c16 -19 23 -45 23 -74c0 -77 -50 -177 -112 -229l-35 37c45 40 77 100 79 151h-7c-17 0 -35 6 -48 17c-14 14 -20 33 -20 52s6 37 20 51zM37 138c13 12 31 18 48 18s34 -6 48 -18l4 -5c16 -19 23 -45 23 -74
c0 -77 -50 -177 -112 -229l-35 37c45 40 77 100 79 151h-7c-17 0 -35 6 -48 17c-14 14 -20 33 -20 52s6 37 20 51z" />
    <glyph glyph-name="dagger" unicode="&#x2020;" horiz-adv-x="495" 
d="M444 441v-73h-155l17 -618h-115l17 618h-158v73h163l-18 209h108l-19 -209h160z" />
    <glyph glyph-name="daggerdbl" unicode="&#x2021;" horiz-adv-x="495" 
d="M444 461v-73h-162l21 -188l-21 -187h162v-73h-156l15 -190h-111l13 190h-155v73h161l-19 187l19 188h-161v73h155l-13 189h111l-15 -189h156z" />
    <glyph glyph-name="bullet" unicode="&#x2022;" horiz-adv-x="380" 
d="M96 423c24 21 55 31 86 31s62 -10 85 -31c24 -26 37 -59 37 -93s-13 -68 -37 -93c-23 -21 -54 -32 -85 -32s-62 11 -86 32c-24 25 -36 59 -36 93s12 67 36 93z" />
    <glyph glyph-name="ellipsis" unicode="&#x2026;" horiz-adv-x="809" 
d="M603 124c15 14 36 21 56 21s40 -7 55 -21c16 -17 24 -38 24 -60s-8 -43 -24 -59c-15 -14 -35 -21 -55 -21s-41 7 -56 21c-16 16 -24 37 -24 59s8 43 24 60zM348 124c15 14 36 21 56 21s40 -7 55 -21c16 -17 24 -38 24 -60s-8 -43 -24 -59c-15 -14 -35 -21 -55 -21
s-41 7 -56 21c-16 16 -24 37 -24 59s8 43 24 60zM92 124c15 14 36 21 56 21s40 -7 55 -21c16 -17 24 -38 24 -60s-8 -43 -24 -59c-15 -14 -35 -21 -55 -21s-41 7 -56 21c-16 16 -24 37 -24 59s8 43 24 60z" />
    <glyph glyph-name="perthousand" unicode="&#x2030;" horiz-adv-x="1261" 
d="M1117 187c0 100 -21 137 -66 137s-64 -37 -64 -137s19 -143 63 -143c45 0 67 43 67 143zM1226 185c0 -120 -62 -204 -175 -204c-116 0 -174 84 -174 204c0 119 64 201 174 201c107 0 175 -82 175 -201zM722 187c0 100 -21 137 -66 137s-64 -37 -64 -137s19 -143 63 -143
c45 0 67 43 67 143zM831 185c0 -120 -62 -204 -175 -204c-116 0 -174 84 -174 204c0 119 64 201 174 201c107 0 175 -82 175 -201zM276 468c0 100 -21 137 -66 137s-64 -37 -64 -137s19 -143 63 -143c45 0 67 43 67 143zM385 466c0 -120 -62 -204 -175 -204
c-116 0 -174 84 -174 204c0 119 64 201 174 201c107 0 175 -82 175 -201zM595 615l-271 -627l-66 20l270 627z" />
    <glyph glyph-name="guilsinglleft" unicode="&#x2039;" horiz-adv-x="352" 
d="M291 399l-89 -150l89 -151l-35 -39l-177 191l178 186z" />
    <glyph glyph-name="guilsinglright" unicode="&#x203a;" horiz-adv-x="352" 
d="M60 397l36 39l175 -191l-176 -186l-36 36l90 150z" />
    <glyph glyph-name="fraction" unicode="&#x2044;" horiz-adv-x="453" 
d="M459 566l-337 -606l-55 31l338 605z" />
    <glyph glyph-name="uni2070" unicode="&#x2070;" horiz-adv-x="414" 
d="M207 703c-40 0 -53 -46 -53 -215c0 -168 13 -212 53 -212c39 0 53 44 53 212c0 169 -14 215 -53 215zM207 760c133 0 179 -106 179 -272c0 -165 -46 -269 -179 -269c-134 0 -179 104 -179 269c0 166 45 272 179 272z" />
    <glyph glyph-name="uni2074" unicode="&#x2074;" horiz-adv-x="413" 
d="M124 764l117 -14c-24 -123 -83 -247 -133 -329h113v39l34 211h91v-250h42v-52l-42 -12v-127h-125v126h-185l-6 56c42 84 78 242 94 352z" />
    <glyph glyph-name="uni2075" unicode="&#x2075;" horiz-adv-x="414" 
d="M346 750l-6 -119h-181l-8 -75c10 3 22 5 35 5c107 0 184 -54 184 -164c0 -130 -96 -178 -188 -178c-104 0 -144 54 -144 54l29 54s44 -43 103 -43c48 0 78 32 78 116c0 79 -31 103 -70 103c-22 0 -40 -9 -50 -20l-7 -15l-42 6l32 276h235z" />
    <glyph glyph-name="uni2076" unicode="&#x2076;" horiz-adv-x="413" 
d="M210 515c-21 0 -34 -11 -41 -34c-3 -9 -6 -48 -6 -74c0 -109 16 -134 48 -134c31 0 46 34 46 128c0 85 -17 114 -47 114zM347 729l-18 -61s-64 31 -95 31c-48 0 -72 -34 -76 -154c19 12 40 21 68 21c84 0 156 -47 156 -163c0 -115 -69 -184 -171 -184
c-103 0 -173 66 -173 228c0 27 2 68 4 81c19 171 92 232 183 232c52 0 122 -31 122 -31z" />
    <glyph glyph-name="uni2077" unicode="&#x2077;" horiz-adv-x="414" 
d="M380 750v-96c-67 -117 -124 -301 -152 -424h-134c37 127 124 280 190 399h-233v121h329z" />
    <glyph glyph-name="uni2078" unicode="&#x2078;" horiz-adv-x="414" 
d="M162 611c0 -63 27 -87 48 -96c19 9 42 32 42 96c0 76 -20 96 -45 96c-26 0 -45 -21 -45 -96zM254 372c0 56 -24 82 -45 93c-20 -4 -50 -22 -50 -93c0 -82 20 -100 48 -100s47 18 47 100zM376 618c0 -69 -47 -105 -93 -124c46 -12 102 -43 102 -126
c0 -111 -69 -149 -178 -149c-111 0 -179 39 -179 150c0 68 49 105 98 124c-41 17 -88 52 -88 126c0 95 71 141 169 141c97 0 169 -46 169 -142z" />
    <glyph glyph-name="uni2079" unicode="&#x2079;" horiz-adv-x="413" 
d="M203 462c21 0 37 15 44 42c2 15 3 47 3 69c0 110 -13 133 -45 133c-31 0 -48 -32 -48 -126c0 -91 16 -118 46 -118zM55 251l24 53s31 -24 81 -24c41 0 89 30 95 157c-16 -15 -38 -26 -69 -26c-84 0 -154 40 -154 163c0 115 70 186 173 186c104 0 170 -65 170 -228
c0 -23 0 -44 -2 -57c-15 -186 -110 -256 -207 -256c-76 0 -111 32 -111 32z" />
    <glyph glyph-name="uni2080" unicode="&#x2080;" horiz-adv-x="414" 
d="M207 226c-40 0 -53 -46 -53 -215c0 -168 13 -212 53 -212c39 0 53 44 53 212c0 169 -14 215 -53 215zM207 283c133 0 179 -106 179 -272c0 -165 -46 -269 -179 -269c-134 0 -179 104 -179 269c0 166 45 272 179 272z" />
    <glyph glyph-name="uni2081" unicode="&#x2081;" horiz-adv-x="413" 
d="M187 270h97v-520h-120v423l-75 -52l-28 68z" />
    <glyph glyph-name="uni2082" unicode="&#x2082;" horiz-adv-x="414" 
d="M376 -136v-114h-331v94c72 28 196 141 196 268c0 80 -23 103 -73 103c-36 0 -97 -40 -97 -40l-14 57s67 47 145 47c115 0 170 -71 170 -159c0 -107 -99 -198 -183 -256h187z" />
    <glyph glyph-name="uni2083" unicode="&#x2083;" horiz-adv-x="413" 
d="M355 270v-77l-120 -144c72 -2 138 -56 138 -151c0 -112 -91 -159 -182 -159c-108 0 -155 59 -155 59l29 54s44 -48 107 -48c48 0 77 26 77 97c0 69 -15 91 -43 91c-12 0 -23 -7 -30 -14l-9 -12l-37 43l120 146h-178l7 115h276z" />
    <glyph glyph-name="uni2084" unicode="&#x2084;" horiz-adv-x="413" 
d="M124 284l117 -14c-24 -123 -83 -247 -133 -329h113v39l34 211h91v-250h42v-52l-42 -12v-127h-125v126h-185l-6 56c42 84 78 242 94 352z" />
    <glyph glyph-name="uni2085" unicode="&#x2085;" horiz-adv-x="414" 
d="M346 270l-6 -119h-181l-8 -75c10 3 22 5 35 5c107 0 184 -54 184 -164c0 -130 -96 -178 -188 -178c-104 0 -144 54 -144 54l29 54s44 -43 103 -43c48 0 78 32 78 116c0 79 -31 103 -70 103c-22 0 -40 -9 -50 -20l-7 -15l-42 6l32 276h235z" />
    <glyph glyph-name="uni2086" unicode="&#x2086;" horiz-adv-x="413" 
d="M210 40c-21 0 -34 -11 -41 -34c-3 -9 -6 -48 -6 -74c0 -113 16 -139 48 -139c31 0 46 33 46 131c0 89 -17 116 -47 116zM339 253l-13 -54s-61 31 -97 31c-44 0 -68 -31 -71 -160c18 12 40 21 68 21c84 0 156 -49 156 -169c0 -115 -69 -183 -171 -183
c-103 0 -173 71 -173 233c0 23 2 69 4 81c23 171 92 237 180 237c55 0 117 -37 117 -37z" />
    <glyph glyph-name="uni2087" unicode="&#x2087;" horiz-adv-x="414" 
d="M380 270v-96c-67 -117 -124 -301 -152 -424h-134c37 128 124 280 190 399h-233v121h329z" />
    <glyph glyph-name="uni2088" unicode="&#x2088;" horiz-adv-x="414" 
d="M162 131c0 -63 27 -87 48 -96c19 9 42 33 42 97c0 75 -20 95 -45 95c-26 0 -45 -20 -45 -96zM254 -108c0 58 -25 83 -47 94c-20 -5 -48 -24 -48 -94c0 -82 20 -99 48 -99s47 18 47 99zM376 139c0 -69 -47 -105 -93 -124c45 -12 102 -43 102 -126
c0 -112 -69 -150 -178 -150c-111 0 -179 39 -179 150c0 69 49 105 98 124c-41 17 -88 52 -88 127c0 95 71 140 169 140c97 0 169 -46 169 -141z" />
    <glyph glyph-name="uni2089" unicode="&#x2089;" horiz-adv-x="413" 
d="M203 -18c21 0 37 16 44 42c2 15 3 47 3 69c0 110 -13 133 -45 133c-31 0 -48 -32 -48 -126c0 -91 16 -118 46 -118zM55 -229l24 53s31 -24 81 -24c41 0 89 30 95 158c-16 -15 -38 -27 -69 -27c-84 0 -154 40 -154 163c0 115 70 186 173 186c104 0 170 -65 170 -228
c0 -23 0 -44 -2 -57c-15 -186 -110 -256 -207 -256c-76 0 -111 32 -111 32z" />
    <glyph glyph-name="Euro" unicode="&#x20ac;" horiz-adv-x="568" 
d="M456 282v-70h-215c13 -127 56 -155 137 -155c84 0 141 72 141 72l26 -50s-57 -90 -193 -90c-152 0 -231 84 -255 228l-57 6v59h50c-1 13 -1 26 -1 40v27l-49 5v59h54c20 150 96 246 258 246c97 0 166 -44 166 -44l-15 -69s-67 42 -135 42c-87 0 -121 -38 -130 -175h218
v-69h-220v-62h220z" />
    <glyph glyph-name="uni20B4" unicode="&#x20b4;" horiz-adv-x="495" 
d="M58 357v57h217c11 24 19 53 19 87c0 65 -21 86 -73 86c-39 0 -97 -28 -97 -28l-19 67s76 34 148 34c107 0 168 -67 168 -145c0 -44 -16 -76 -39 -104l61 -3v-51h-118c-21 -18 -42 -36 -61 -57h179v-57h-217c-12 -25 -19 -54 -19 -89c0 -65 27 -92 84 -92
c65 0 104 40 104 40l25 -57s-40 -56 -152 -56c-104 0 -189 44 -189 152c0 43 17 75 41 104l-62 5v50h119c21 18 41 36 60 57h-179z" />
    <glyph glyph-name="afii61352" unicode="&#x2116;" horiz-adv-x="1095" 
d="M1004 177v-74h-272v74h272zM869 631c-46 0 -64 -41 -64 -135c0 -96 18 -139 64 -139c47 0 64 42 64 138c0 95 -17 136 -64 136zM1059 495c0 -117 -68 -188 -190 -188c-127 0 -190 71 -190 188c0 116 63 188 190 188c128 0 190 -72 190 -188zM574 650v-650h-108l-309 488
h-2l8 -58v-430h-86v650h143l273 -441h2l-7 45v396h86z" />
    <glyph glyph-name="trademark" unicode="&#x2122;" horiz-adv-x="796" 
d="M360 750v-55l-118 -1v-294h-82v294h-109v56h309zM739 750l8 -350h-77l-7 223l-78 -223h-72l-77 235l-6 -235h-54l22 350h83l82 -278l96 278h80z" />
    <glyph glyph-name="onethird" unicode="&#x2153;" horiz-adv-x="841" 
d="M786 270v-77l-120 -144c72 -2 138 -56 138 -151c0 -112 -91 -159 -182 -159c-108 0 -155 59 -155 59l29 54s44 -48 107 -48c48 0 77 26 77 97c0 69 -15 91 -43 91c-12 0 -23 -7 -30 -14l-9 -12l-37 43l120 146h-178l7 115h276zM612 566l-337 -606l-55 31l338 605z
M187 750h97v-520h-120v423l-75 -52l-28 68z" />
    <glyph glyph-name="twothirds" unicode="&#x2154;" horiz-adv-x="904" 
d="M848 270v-77l-120 -144c72 -2 138 -56 138 -151c0 -112 -91 -159 -182 -159c-108 0 -155 59 -155 59l29 54s44 -48 107 -48c48 0 77 26 77 97c0 69 -15 91 -43 91c-12 0 -23 -7 -30 -14l-9 -12l-37 43l120 146h-178l7 115h276zM675 566l-337 -606l-55 31l338 605z
M373 344v-114h-332v95c72 28 196 140 196 267c0 80 -23 103 -72 103c-37 0 -97 -40 -97 -40l-14 58s66 47 144 47c115 0 171 -71 171 -159c0 -108 -100 -199 -184 -257h188z" />
    <glyph glyph-name="oneeighth" unicode="&#x215b;" horiz-adv-x="888" 
d="M593 131c0 -63 27 -87 48 -96c19 9 42 33 42 97c0 75 -20 95 -45 95c-26 0 -45 -20 -45 -96zM685 -108c0 58 -25 83 -47 94c-20 -5 -48 -24 -48 -94c0 -82 20 -99 48 -99s47 18 47 99zM807 139c0 -69 -47 -105 -93 -124c45 -12 102 -43 102 -126
c0 -112 -69 -150 -178 -150c-111 0 -179 39 -179 150c0 69 49 105 98 124c-41 17 -88 52 -88 127c0 95 71 140 169 140c97 0 169 -46 169 -141zM612 566l-337 -606l-55 31l338 605zM187 750h97v-520h-120v423l-75 -52l-28 68z" />
    <glyph glyph-name="threeeighths" unicode="&#x215c;" horiz-adv-x="951" 
d="M655 131c0 -63 27 -87 48 -96c19 9 42 33 42 97c0 75 -20 95 -45 95c-26 0 -45 -20 -45 -96zM747 -108c0 58 -25 83 -47 94c-20 -5 -48 -24 -48 -94c0 -82 20 -99 48 -99s47 18 47 99zM869 139c0 -69 -47 -105 -93 -124c45 -12 102 -43 102 -126
c0 -112 -69 -150 -178 -150c-111 0 -179 39 -179 150c0 69 49 105 98 124c-41 17 -88 52 -88 127c0 95 71 140 169 140c97 0 169 -46 169 -141zM675 566l-337 -606l-55 31l338 605zM358 750v-77l-120 -144c72 -2 138 -56 138 -151c0 -112 -91 -159 -182 -159
c-108 0 -155 59 -155 59l29 54s44 -48 107 -48c48 0 77 26 77 97c0 69 -15 91 -43 91c-12 0 -23 -8 -30 -15l-9 -11l-37 43l120 146h-178l7 115h276z" />
    <glyph glyph-name="fiveeighths" unicode="&#x215d;" horiz-adv-x="939" 
d="M644 131c0 -63 27 -87 48 -96c19 9 42 33 42 97c0 75 -20 95 -45 95c-26 0 -45 -20 -45 -96zM736 -108c0 58 -25 83 -47 94c-20 -5 -48 -24 -48 -94c0 -82 20 -99 48 -99s47 18 47 99zM858 139c0 -69 -47 -105 -93 -124c45 -12 102 -43 102 -126
c0 -112 -69 -150 -178 -150c-111 0 -179 39 -179 150c0 69 49 105 98 124c-41 17 -88 52 -88 127c0 95 71 140 169 140c97 0 169 -46 169 -141zM664 566l-337 -606l-55 31l338 605zM346 750l-6 -119h-181l-8 -75c10 3 22 5 35 5c107 0 184 -54 184 -164
c0 -130 -96 -178 -188 -178c-104 0 -144 54 -144 54l29 54s44 -43 103 -43c48 0 78 32 78 116c0 79 -31 103 -70 103c-22 0 -40 -9 -50 -20l-7 -15l-42 6l32 276h235z" />
    <glyph glyph-name="seveneighths" unicode="&#x215e;" horiz-adv-x="874" 
d="M579 131c0 -63 27 -87 48 -96c19 9 42 33 42 97c0 75 -20 95 -45 95c-26 0 -45 -20 -45 -96zM671 -108c0 58 -25 83 -47 94c-20 -5 -48 -24 -48 -94c0 -82 20 -99 48 -99s47 18 47 99zM793 139c0 -69 -47 -105 -93 -124c45 -12 102 -43 102 -126
c0 -112 -69 -150 -178 -150c-111 0 -179 39 -179 150c0 69 49 105 98 124c-41 17 -88 52 -88 127c0 95 71 140 169 140c97 0 169 -46 169 -141zM598 566l-337 -606l-55 31l338 605zM380 750v-96c-67 -117 -124 -301 -152 -424h-134c37 127 124 280 190 399h-233v121h329z
" />
    <glyph glyph-name="arrowup" unicode="&#x2191;" horiz-adv-x="652" 
d="M555 280l-42 -42l-158 148l7 -424h-71l6 425l-159 -149l-41 42l229 299z" />
    <glyph glyph-name="arrowdown" unicode="&#x2193;" horiz-adv-x="663" 
d="M300 579h70l-6 -424l159 153l42 -47l-230 -299l-229 299l42 47l158 -152z" />
    <glyph glyph-name="minus" unicode="&#x2212;" 
d="M494 312v-74h-463v74h463z" />
    <glyph glyph-name="uniF6D4" unicode="&#xf6d4;" horiz-adv-x="383" 
d="M191 624c49 0 59 22 59 39c0 11 -4 20 -4 20v12l104 -9s8 -123 -159 -123c-166 0 -158 123 -158 123l104 9v-12s-4 -9 -4 -20c0 -17 10 -39 58 -39z" />
    <glyph glyph-name="uniFB06" unicode="&#xfb06;" horiz-adv-x="749" 
d="M24 64l37 52s44 -61 111 -61c51 0 77 30 77 69c0 102 -204 68 -204 232c0 104 84 155 177 155c6 0 11 0 17 -1c-11 24 -18 53 -18 90c0 73 50 150 160 150h226v-250h110v-73h-110v-251c0 -94 12 -115 48 -115c32 0 55 10 55 10l4 -58s-25 -24 -101 -24
c-92 0 -139 39 -139 153v420l59 127h-148c-76 0 -108 -38 -108 -97c0 -43 12 -73 26 -94c37 -10 63 -22 63 -22l-18 -67s-65 37 -113 37c-42 0 -65 -22 -65 -55c0 -102 218 -78 218 -239c0 -94 -63 -163 -188 -163c-131 0 -176 75 -176 75z" />
    <glyph glyph-name="ct" horiz-adv-x="765" 
d="M403 408c0 0 -3 1 -5 2v-6s-21 7 -45 25c-23 8 -47 15 -68 15c-71 0 -112 -34 -112 -195c0 -160 47 -193 108 -193c79 0 114 69 114 69l47 -30s-37 -106 -175 -106c-153 0 -238 89 -238 258c0 162 90 264 241 264c4 0 8 0 12 -1c-12 25 -20 55 -20 90
c0 73 54 150 164 150h197v-250h111v-73h-111v-251c0 -94 12 -115 48 -115c32 0 55 10 55 10l4 -58s-25 -24 -101 -24c-92 0 -139 39 -139 153v421l60 126h-121c-76 0 -111 -38 -111 -97c0 -41 12 -71 27 -93c40 -12 71 -27 71 -27z" />
    <glyph glyph-name="afii10104_afii10104.sc" horiz-adv-x="527" 
d="M462 500v-500h-132v500h132zM198 500v-500h-132v500h132zM-8 704c13 11 29 17 46 17s33 -6 46 -17c13 -15 20 -33 20 -52s-7 -38 -20 -52c-13 -12 -29 -18 -46 -18s-33 6 -46 18c-13 14 -20 33 -20 52s7 37 20 52zM141 704c13 11 29 17 46 17s33 -6 46 -17
c13 -15 20 -33 20 -52s-7 -38 -20 -52c-13 -12 -29 -18 -46 -18s-33 6 -46 18c-13 14 -20 33 -20 52s7 37 20 52zM293 704c13 11 29 17 46 17s33 -6 46 -17c13 -15 20 -33 20 -52s-7 -38 -20 -52c-13 -12 -29 -18 -46 -18s-33 6 -46 18c-14 14 -20 33 -20 52s6 37 20 52z
M442 704c12 11 29 17 46 17s33 -6 46 -17c13 -15 20 -33 20 -52s-7 -38 -20 -52c-13 -12 -29 -18 -46 -18s-34 6 -46 18c-14 14 -20 33 -20 52s6 37 20 52z" />
    <glyph glyph-name="halfcaron" horiz-adv-x="357" 
d="M189 800l90 -14l-67 -234l-48 4z" />
    <glyph glyph-name="commaaccent" horiz-adv-x="242" 
d="M48 -62c11 11 26 16 42 16c15 0 31 -5 43 -16l4 -5c18 -21 26 -48 26 -78c0 -68 -41 -148 -101 -194l-29 31c42 39 65 84 65 126c0 4 -1 8 -1 12h-7c-16 0 -31 6 -42 16c-13 12 -19 29 -19 46s6 33 19 46z" />
    <glyph glyph-name="a.alt" horiz-adv-x="544" 
d="M268 67c60 0 83 47 83 47v281s-18 40 -77 40c-71 0 -102 -50 -102 -192s35 -176 96 -176zM484 500v-500h-102l-21 44h-2s-21 -55 -123 -55c-119 0 -206 94 -206 250c0 163 83 272 215 272c93 0 117 -41 117 -41h5l19 30h98z" />
    <glyph glyph-name="aring.alt" horiz-adv-x="544" 
d="M346 657c0 44 -27 64 -59 64s-59 -20 -59 -64c0 -45 24 -66 59 -66s59 21 59 66zM392 656c0 -68 -44 -108 -105 -108c-64 0 -105 40 -105 108s45 107 105 107c58 0 105 -39 105 -107zM268 67c60 0 83 47 83 47v281s-18 40 -77 40c-71 0 -102 -50 -102 -192
s35 -176 96 -176zM484 500v-500h-102l-21 44h-2s-21 -55 -123 -55c-119 0 -206 94 -206 250c0 163 83 272 215 272c93 0 117 -41 117 -41h5l19 30h98z" />
    <glyph glyph-name="agrave.alt" horiz-adv-x="544" 
d="M146 703l106 35l85 -147l-62 -17zM268 67c60 0 83 47 83 47v281s-18 40 -77 40c-71 0 -102 -50 -102 -192s35 -176 96 -176zM484 500v-500h-102l-21 44h-2s-21 -55 -123 -55c-119 0 -206 94 -206 250c0 163 83 272 215 272c93 0 117 -41 117 -41h5l19 30h98z" />
    <glyph glyph-name="adieresis.alt" horiz-adv-x="544" 
d="M145 704c13 11 29 17 46 17s33 -6 46 -17c13 -15 20 -33 20 -52s-7 -38 -20 -52c-13 -12 -29 -18 -46 -18s-33 6 -46 18c-14 14 -20 33 -20 52s6 37 20 52zM331 704c12 11 29 17 46 17s33 -6 46 -17c13 -15 20 -33 20 -52s-7 -38 -20 -52c-13 -12 -29 -18 -46 -18
s-34 6 -46 18c-14 14 -20 33 -20 52s6 37 20 52zM268 67c60 0 83 47 83 47v281s-18 40 -77 40c-71 0 -102 -50 -102 -192s35 -176 96 -176zM484 500v-500h-102l-21 44h-2s-21 -55 -123 -55c-119 0 -206 94 -206 250c0 163 83 272 215 272c93 0 117 -41 117 -41h5l19 30h98z
" />
    <glyph glyph-name="aogonek.alt" horiz-adv-x="544" 
d="M268 67c60 0 83 47 83 47v281s-18 40 -77 40c-71 0 -102 -50 -102 -192s35 -176 96 -176zM484 500v-500h-34c-23 -13 -69 -49 -69 -123c0 -63 24 -78 76 -78v-49c-87 0 -164 18 -164 117c0 60 46 105 88 133l-20 44h-2s-21 -55 -123 -55c-119 0 -206 94 -206 250
c0 163 83 272 215 272c93 0 117 -41 117 -41h5l19 30h98z" />
    <glyph glyph-name="abreve.alt" horiz-adv-x="544" 
d="M286 636c81 0 84 55 84 55v4l67 -9s4 -123 -151 -123c-154 0 -149 123 -149 123l66 9v-4s4 -55 83 -55zM268 67c60 0 83 47 83 47v281s-18 40 -77 40c-71 0 -102 -50 -102 -192s35 -176 96 -176zM484 500v-500h-102l-21 44h-2s-21 -55 -123 -55c-119 0 -206 94 -206 250
c0 163 83 272 215 272c93 0 117 -41 117 -41h5l19 30h98z" />
    <glyph glyph-name="aacute.alt" horiz-adv-x="544" 
d="M311 730l108 -31l-121 -130l-57 9zM268 67c60 0 83 47 83 47v281s-18 40 -77 40c-71 0 -102 -50 -102 -192s35 -176 96 -176zM484 500v-500h-102l-21 44h-2s-21 -55 -123 -55c-119 0 -206 94 -206 250c0 163 83 272 215 272c93 0 117 -41 117 -41h5l19 30h98z" />
    <glyph glyph-name="amacron.alt" horiz-adv-x="544" 
d="M396 682v-58h-214v58h214zM268 67c60 0 83 47 83 47v281s-18 40 -77 40c-71 0 -102 -50 -102 -192s35 -176 96 -176zM484 500v-500h-102l-21 44h-2s-21 -55 -123 -55c-119 0 -206 94 -206 250c0 163 83 272 215 272c93 0 117 -41 117 -41h5l19 30h98z" />
    <glyph glyph-name="acircumflex.alt" horiz-adv-x="544" 
d="M321 753l97 -122l-28 -45l-104 85l-104 -85l-29 45l98 122h70zM268 67c60 0 83 47 83 47v281s-18 40 -77 40c-71 0 -102 -50 -102 -192s35 -176 96 -176zM484 500v-500h-102l-21 44h-2s-21 -55 -123 -55c-119 0 -206 94 -206 250c0 163 83 272 215 272
c93 0 117 -41 117 -41h5l19 30h98z" />
    <glyph glyph-name="atilde.alt" horiz-adv-x="544" 
d="M434 705l36 -35s-26 -79 -112 -79c-65 0 -99 48 -155 48c-36 0 -58 -45 -58 -45l-36 36s37 90 123 90c73 0 101 -47 152 -47c36 0 50 32 50 32zM268 67c60 0 83 47 83 47v281s-18 40 -77 40c-71 0 -102 -50 -102 -192s35 -176 96 -176zM484 500v-500h-102l-21 44h-2
s-21 -55 -123 -55c-119 0 -206 94 -206 250c0 163 83 272 215 272c93 0 117 -41 117 -41h5l19 30h98z" />
    <glyph glyph-name="g.alt" horiz-adv-x="544" 
d="M351 98v287c-1 3 -20 52 -79 52c-69 0 -100 -53 -100 -183c0 -145 31 -189 105 -189c52 0 74 33 74 33zM484 500v-526c0 -182 -134 -235 -257 -235c-116 0 -169 66 -169 66l35 57s45 -54 128 -54c84 0 130 32 130 185v30h-5s-31 -34 -112 -34c-129 0 -204 98 -204 261
c0 152 83 261 206 261c102 0 127 -51 127 -51h1l22 40h98z" />
    <glyph glyph-name="gcommaaccent.alt" horiz-adv-x="544" 
d="M292 577c-11 -11 -26 -16 -42 -16c-15 0 -31 5 -43 16l-4 5c-18 21 -26 48 -26 78c0 68 41 148 101 194l29 -31c-42 -39 -65 -84 -65 -126c0 -4 1 -8 1 -12h7c16 0 31 -6 42 -16c13 -12 19 -29 19 -46s-6 -33 -19 -46zM351 98v287c-1 3 -20 52 -79 52
c-69 0 -100 -53 -100 -183c0 -145 31 -189 105 -189c52 0 74 33 74 33zM484 500v-526c0 -182 -134 -235 -257 -235c-116 0 -169 66 -169 66l35 57s45 -54 128 -54c84 0 130 32 130 185v30h-5s-31 -34 -112 -34c-129 0 -204 98 -204 261c0 152 83 261 206 261
c102 0 127 -51 127 -51h1l22 40h98z" />
    <glyph glyph-name="gbreve.alt" horiz-adv-x="544" 
d="M290 636c81 0 84 55 84 55v4l67 -9s4 -123 -151 -123c-154 0 -149 123 -149 123l66 9v-4s4 -55 83 -55zM351 98v287c-1 3 -20 52 -79 52c-69 0 -100 -53 -100 -183c0 -145 31 -189 105 -189c52 0 74 33 74 33zM484 500v-526c0 -182 -134 -235 -257 -235
c-116 0 -169 66 -169 66l35 57s45 -54 128 -54c84 0 130 32 130 185v30h-5s-31 -34 -112 -34c-129 0 -204 98 -204 261c0 152 83 261 206 261c102 0 127 -51 127 -51h1l22 40h98z" />
    <glyph glyph-name="y.alt" horiz-adv-x="534" 
d="M340 -7v44c-5 -9 -34 -48 -125 -48c-102 0 -163 53 -163 171v340h133v-312c0 -96 19 -120 73 -120c56 0 82 37 82 37v395h133v-526c0 -182 -131 -237 -259 -237c-126 0 -173 66 -173 66l36 57s45 -54 128 -54c88 0 135 30 135 187z" />
    <glyph glyph-name="yacute.alt" horiz-adv-x="534" 
d="M295 730l108 -31l-121 -130l-57 9zM340 -7v44c-5 -9 -34 -48 -125 -48c-102 0 -163 53 -163 171v340h133v-312c0 -96 19 -120 73 -120c56 0 82 37 82 37v395h133v-526c0 -182 -131 -237 -259 -237c-126 0 -173 66 -173 66l36 57s45 -54 128 -54c88 0 135 30 135 187z" />
    <glyph glyph-name="ydieresis.alt" horiz-adv-x="534" 
d="M128 704c13 11 29 17 46 17s33 -6 46 -17c13 -15 20 -33 20 -52s-7 -38 -20 -52c-13 -12 -29 -18 -46 -18s-33 6 -46 18c-14 14 -20 33 -20 52s6 37 20 52zM314 704c12 11 29 17 46 17s33 -6 46 -17c13 -15 20 -33 20 -52s-7 -38 -20 -52c-13 -12 -29 -18 -46 -18
s-34 6 -46 18c-14 14 -20 33 -20 52s6 37 20 52zM340 -7v44c-5 -9 -34 -48 -125 -48c-102 0 -163 53 -163 171v340h133v-312c0 -96 19 -120 73 -120c56 0 82 37 82 37v395h133v-526c0 -182 -131 -237 -259 -237c-126 0 -173 66 -173 66l36 57s45 -54 128 -54
c88 0 135 30 135 187z" />
    <glyph glyph-name="afii10065.alt" horiz-adv-x="544" 
d="M268 67c60 0 83 47 83 47v281s-18 40 -77 40c-71 0 -102 -50 -102 -192s35 -176 96 -176zM484 500v-500h-102l-21 44h-2s-21 -55 -123 -55c-119 0 -206 94 -206 250c0 163 83 272 215 272c93 0 117 -41 117 -41h5l19 30h98z" />
    <glyph glyph-name="afii10066.alt" horiz-adv-x="525" 
d="M262 444c-66 0 -90 -50 -90 -193c0 -145 24 -196 90 -196s90 51 90 195s-24 194 -90 194zM496 250c0 -166 -90 -261 -234 -261c-150 0 -233 95 -233 261c0 114 39 194 112 233c-40 23 -70 63 -70 128c0 76 52 149 169 149c56 0 90 -14 139 -14c40 0 52 22 52 22l49 -14
s-11 -127 -114 -127c-63 0 -93 16 -142 16c-44 0 -78 -14 -78 -54c0 -54 56 -78 120 -78c148 -2 230 -97 230 -261z" />
    <glyph glyph-name="afii10069.alt" horiz-adv-x="544" 
d="M351 98v287c-1 3 -20 52 -79 52c-69 0 -100 -53 -100 -183c0 -145 31 -189 105 -189c52 0 74 33 74 33zM484 500v-526c0 -182 -134 -235 -257 -235c-116 0 -169 66 -169 66l35 57s45 -54 128 -54c84 0 130 32 130 185v30h-5s-31 -34 -112 -34c-129 0 -204 98 -204 261
c0 152 83 261 206 261c102 0 127 -51 127 -51h1l22 40h98z" />
    <glyph glyph-name="afii10085.alt" horiz-adv-x="534" 
d="M340 -7v44c-5 -9 -34 -48 -125 -48c-102 0 -163 53 -163 171v340h133v-312c0 -96 19 -120 73 -120c56 0 82 37 82 37v395h133v-526c0 -182 -131 -237 -259 -237c-126 0 -173 66 -173 66l36 57s45 -54 128 -54c88 0 135 30 135 187z" />
    <glyph glyph-name="afii10110.alt" horiz-adv-x="534" 
d="M270 636c81 0 84 55 84 55v4l67 -9s4 -123 -151 -123c-154 0 -149 123 -149 123l66 9v-4s4 -55 83 -55zM340 -7v44c-5 -9 -34 -48 -125 -48c-102 0 -163 53 -163 171v340h133v-312c0 -96 19 -120 73 -120c56 0 82 37 82 37v395h133v-526c0 -182 -131 -237 -259 -237
c-126 0 -173 66 -173 66l36 57s45 -54 128 -54c88 0 135 30 135 187z" />
    <glyph glyph-name="zero.onum" horiz-adv-x="587" 
d="M293 444c-81 0 -106 -59 -106 -196c0 -136 23 -192 106 -192s107 56 107 192c0 137 -24 196 -107 196zM293 511c173 0 249 -107 249 -263s-76 -259 -249 -259s-249 103 -249 259s76 263 249 263z" />
    <glyph glyph-name="one.onum" horiz-adv-x="398" 
d="M195 500h104v-500h-131v414c-46 -17 -109 -38 -117 -38l-7 71c14 0 151 53 151 53z" />
    <glyph glyph-name="two.onum" horiz-adv-x="484" 
d="M449 116v-116h-422v89l51 15c37 23 191 128 191 247c0 66 -29 88 -79 88c-57 0 -129 -54 -129 -54l-15 60s81 65 181 65c126 0 191 -60 191 -146c0 -121 -134 -206 -221 -248h252z" />
    <glyph glyph-name="three.onum" horiz-adv-x="483" 
d="M414 500v-84l-160 -193h6c101 0 185 -66 185 -185c0 -132 -112 -199 -229 -199c-132 0 -191 73 -191 73l36 59s61 -61 138 -61c71 0 104 36 104 129c0 87 -22 120 -72 120c-23 0 -45 -20 -52 -27l-2 -2l-41 46l160 198h-240l7 126h351z" />
    <glyph glyph-name="four.onum" horiz-adv-x="523" 
d="M199 510l127 -10c-39 -155 -148 -330 -213 -429h193v98l36 233h100v-331h64v-56l-64 -14v-151h-136v150h-269l-7 64c51 98 133 301 169 446z" />
    <glyph glyph-name="five.onum" horiz-adv-x="479" 
d="M406 500l-7 -130h-237l-12 -119c16 5 36 9 58 9c136 0 232 -66 232 -199c0 -156 -132 -222 -252 -222c-122 0 -176 72 -176 72l40 56s47 -57 125 -57c73 0 121 36 121 148c0 104 -41 138 -102 138c-36 0 -63 -16 -74 -31l-5 -10l-47 7l38 338h298z" />
    <glyph glyph-name="six.onum" horiz-adv-x="530" 
d="M271 358c-39 0 -65 -25 -81 -47c-2 -18 -3 -61 -3 -89c0 -128 24 -167 86 -167c58 0 78 44 78 155c0 105 -22 148 -80 148zM427 621l-17 -67s-63 36 -115 36c-73 0 -114 -46 -119 -210c29 23 65 41 111 41c118 0 207 -67 207 -213c0 -137 -83 -219 -221 -219
c-140 0 -229 82 -229 277c0 28 3 81 5 95c26 217 116 299 233 299c72 0 145 -39 145 -39z" />
    <glyph glyph-name="seven.onum" horiz-adv-x="451" 
d="M436 500v-105c-83 -148 -163 -384 -198 -545h-144c45 166 157 366 241 517h-299v133h400z" />
    <glyph glyph-name="eight.onum" horiz-adv-x="536" 
d="M192 479c0 -92 44 -118 76 -125c30 6 76 29 76 125c0 91 -25 119 -76 119s-76 -28 -76 -119zM351 178c0 95 -53 118 -87 122c-30 -5 -78 -27 -78 -122s29 -127 82 -127s83 33 83 127zM487 482c0 -86 -61 -129 -120 -151c60 -15 134 -54 134 -157
c0 -135 -91 -185 -233 -185s-232 50 -232 187c0 86 66 131 130 153c-55 19 -117 61 -117 154c0 116 90 177 219 177s219 -62 219 -178z" />
    <glyph glyph-name="nine.onum" horiz-adv-x="530" 
d="M258 136c47 0 74 30 83 69c1 21 2 52 2 72c0 127 -24 167 -81 167c-58 0 -84 -51 -84 -158c0 -105 23 -150 80 -150zM91 -117l29 65s43 -39 107 -39c65 0 120 43 126 208c-24 -24 -59 -44 -111 -44c-117 0 -206 62 -206 208c0 137 88 229 226 229c139 0 223 -83 223 -277
c0 -28 -1 -56 -2 -70c-17 -232 -131 -324 -247 -324c-105 0 -145 44 -145 44z" />
    <glyph glyph-name="AndrijType" horiz-adv-x="1851" 
d="M1228 359c42 0 33 12 60 12c7 0 12 -1 12 -5c0 -7 -15 -12 -22 -14c-15 -25 -27 -76 -33 -102c32 46 81 83 115 83v-4c0 -31 -48 -265 -241 -283c4 43 53 84 89 106l2 -4c-25 -20 -41 -46 -48 -81c100 32 137 149 147 221c-25 -15 -49 -37 -72 -81c-3 -8 -46 -8 -46 -8
c6 50 13 103 41 146c-17 0 -53 2 -69 5c-22 -61 -40 -127 -48 -171c-2 -6 -34 -10 -45 -10c-2 0 -4 1 -4 1c0 23 32 121 55 185c-23 2 -50 10 -73 10s-43 -7 -55 -33h-5c-14 0 -27 7 -28 16c12 28 37 36 67 36c33 0 71 -10 99 -15c22 2 25 12 51 16l-9 -20
c16 -3 40 -6 60 -6zM1560 324c0 -25 -48 -121 -92 -121c-13 0 -23 9 -33 9c40 26 62 67 79 110c-34 -13 -86 -57 -105 -114c-6 -19 -19 -89 -19 -115l-3 -5c-6 0 -19 -2 -29 -2c-9 0 -16 1 -16 5c15 64 31 172 63 258c14 5 27 11 41 11c3 0 7 -1 10 -2
c-26 -43 -35 -84 -38 -94c20 26 71 79 118 79c14 0 24 -5 24 -19zM1659 213c0 -9 -44 -43 -74 -43c-27 0 -30 20 -30 40c0 66 52 137 119 137c14 0 21 -8 21 -19c0 -16 -14 -40 -32 -46c6 -1 12 -1 18 -1c35 0 67 11 81 47c4 -2 10 -2 14 -2h13c6 0 11 0 15 -4
c-18 -42 -87 -54 -145 -54c-22 0 -43 1 -58 4c-5 -8 -8 -26 -8 -43c0 -20 3 -38 10 -38c18 0 46 26 52 26c2 0 4 -2 4 -4zM1645 330c-7 0 -28 -21 -36 -42l15 -2c14 10 26 28 26 38c0 4 -1 6 -5 6zM967 260c4 7 37 10 42 10c2 0 7 0 7 -1c0 -5 -29 -30 -31 -32
c-3 -3 -27 -8 -42 -8c-3 0 -6 0 -6 1c0 2 22 16 30 30zM598 213c17 10 44 84 44 121c0 53 -46 103 -134 133c10 3 26 19 42 20c13 0 128 -41 128 -144c0 -57 -54 -149 -107 -149c-12 0 -21 7 -21 26c0 42 24 86 41 111c3 4 7 6 13 6c8 0 18 -5 27 -5
c-20 -26 -35 -65 -35 -107c0 -4 1 -8 2 -12zM990 451c4 0 7 0 7 -1c0 -4 -16 -1 -39 -20l-3 -3c-9 -9 -19 -18 -51 -18c-4 0 -9 0 -9 1c0 0 39 41 95 41zM100 195c0 119 24 160 120 160c26 0 53 -3 72 -6c12 11 34 33 48 41c5 3 40 10 42 10l-4 -11
c-28 -72 -56 -146 -58 -224c0 -6 -28 -12 -42 -12c-3 0 -6 1 -7 1c2 65 22 125 45 189c-46 -50 -128 -117 -171 -145c-3 -2 -32 -8 -42 -8c-1 0 -2 0 -3 1v4zM819 385c12 0 27 -19 29 -28c-33 0 -82 -11 -94 -20c-28 -20 -28 -97 -37 -129c-3 -10 -48 -6 -49 -8l3 12
c0 2 1 3 1 5c12 42 27 97 61 122c32 21 60 38 86 46zM868 353c1 8 32 9 48 9c-10 -82 -33 -164 -86 -229c-38 -46 -109 -78 -153 -78c4 43 53 83 89 105l3 -3c-25 -20 -43 -46 -50 -81c122 58 138 185 149 277zM541 356c9 0 11 -2 11 -4c0 -14 -38 -65 -38 -147
c-1 -5 -20 -8 -34 -8c-7 0 -12 1 -13 2c0 58 12 77 28 115c-22 0 -68 -62 -88 -106c-3 -8 -46 -9 -46 -9c12 58 27 122 46 154c4 6 20 6 32 6h8c3 0 5 1 6 1c-17 -27 -30 -80 -37 -108c34 48 74 104 125 104zM276 332c-15 4 -60 13 -75 13c-8 0 -16 -2 -20 -8
c-19 -28 -25 -67 -27 -111c45 32 85 68 122 106zM828 323c2 0 3 -1 3 -1c-32 -111 -20 -110 -44 -113c-2 0 -5 0 -8 -1c-1 0 -16 -3 -22 -3c-2 0 -3 0 -3 1c33 112 19 110 44 114c2 0 5 0 8 1c1 0 15 2 22 2z" />
    <glyph glyph-name="ampersand.alt" horiz-adv-x="657" 
d="M379 72c-74 69 -137 170 -171 269c-24 -12 -42 -41 -42 -95c0 -146 59 -193 137 -193c28 0 54 6 76 19zM466 412h77c7 -37 11 -75 11 -112c0 -82 -19 -160 -61 -217c25 -19 50 -30 72 -30c20 0 57 26 57 26l16 -55s-46 -38 -86 -38c-39 0 -79 15 -118 41
c-39 -26 -89 -41 -150 -41c-139 0 -249 75 -249 218c0 120 93 179 156 198c-6 27 -9 52 -9 77c0 118 73 184 185 184c69 0 137 -47 137 -47l-20 -58s-54 38 -92 38c-49 0 -79 -29 -79 -105c0 -135 59 -271 128 -355c25 43 38 101 38 164c0 36 -4 74 -13 112z" />
    <glyph glyph-name="afii10086.hist" horiz-adv-x="380" 
d="M347 277v-77h-126v-450l-133 -4v454h-48v60l48 8v155h-48v60l48 8v80c0 113 41 189 158 189c56 0 112 -34 112 -34l-17 -57s-42 24 -74 24c-30 0 -46 -23 -46 -137v-56h126v-77h-126v-146h126z" />
    <glyph glyph-name="afii10097.hist" horiz-adv-x="564" 
d="M268 64c67 0 91 47 91 47v103h-197c5 -128 41 -150 106 -150zM273 437c-70 0 -104 -37 -110 -153l196 -3v122s-20 34 -86 34zM492 500v-500h-105l-20 46s-33 -57 -135 -57c-126 0 -209 98 -209 250c0 163 86 272 222 272c85 0 120 -47 120 -47l21 36h106z" />
    <glyph glyph-name="dollar.onum" horiz-adv-x="417" 
d="M24 64l37 52s44 -61 111 -61c51 0 77 30 77 69c0 102 -204 68 -204 232c0 84 55 134 126 149l11 126h65l17 -124c55 -9 102 -31 102 -31l-18 -67s-65 37 -113 37c-42 0 -65 -22 -65 -55c0 -102 218 -78 218 -239c0 -80 -46 -142 -136 -158l-10 -113h-65l-16 110
c-101 12 -137 73 -137 73z" />
    <glyph glyph-name="cent.onum" horiz-adv-x="446" 
d="M403 408c0 0 -71 36 -118 36c-71 0 -112 -34 -112 -195c0 -160 47 -193 108 -193c79 0 114 69 114 69l47 -30s-32 -89 -142 -104l-9 -117h-66l-16 120c-116 20 -180 107 -180 253c0 138 66 233 179 258l11 119h65l15 -115c60 -8 117 -37 117 -37z" />
    <glyph glyph-name="sterling.onum" horiz-adv-x="501" 
d="M429 280v-68h-184c-9 -45 -27 -77 -54 -103h288v-109h-439v109h70c18 18 23 39 23 65c0 13 -1 26 -3 42l-90 9v55h85c-1 14 -1 29 -1 45c0 106 51 186 180 186c67 0 135 -38 135 -38l-14 -65s-61 30 -96 30c-52 0 -74 -34 -74 -117c0 -15 -1 -28 -1 -41h175z" />
    <glyph glyph-name="yen.onum" horiz-adv-x="493" 
d="M441 190v-68h-130v-122h-133v123l-126 12v55h126v16l-162 344h147l107 -244h2l104 244h92l-157 -328v-32h130z" />
    <glyph glyph-name="Euro.onum" horiz-adv-x="509" 
d="M444 120l34 -43s-43 -88 -173 -88c-145 0 -223 78 -232 226l-56 12v54h56c12 142 96 230 230 230c90 0 151 -50 151 -50l-18 -57s-56 40 -113 40c-66 0 -105 -33 -110 -163h243v-67h-243c6 -130 44 -158 110 -158c76 0 121 64 121 64z" />
    <glyph glyph-name="uni20B4.onum" horiz-adv-x="447" 
d="M398 275v-61h-182c-11 -9 -26 -30 -26 -72c0 -69 28 -86 72 -86c59 0 105 54 105 54l26 -47s-43 -74 -156 -74c-115 0 -175 47 -175 124c0 49 29 81 61 102l-80 4v61h190c12 11 27 33 27 73c0 73 -19 91 -69 91c-40 0 -99 -35 -99 -35l-19 54s71 48 147 48
c108 0 168 -50 168 -124c0 -50 -31 -85 -64 -109z" />
    <glyph glyph-name="afii61352.onum" horiz-adv-x="1035" 
d="M942 92v-74h-272v74h272zM807 528c-46 0 -64 -41 -64 -135c0 -96 18 -139 64 -139c47 0 64 42 64 138c0 95 -17 136 -64 136zM997 392c0 -117 -68 -188 -190 -188c-127 0 -190 71 -190 188c0 116 63 188 190 188c128 0 190 -72 190 -188zM498 550v-552l-99 -7l-246 391
h-2l3 -33v-349h-76v550h129l216 -352h3l-4 30v322h76z" />
    <glyph glyph-name="a.sc" horiz-adv-x="521" 
d="M238 407h-3l-68 -216h132zM195 500h146l157 -500h-140l-41 132h-169l-44 -132h-80z" />
    <glyph glyph-name="b.sc" horiz-adv-x="485" 
d="M198 282h53c22 0 48 17 48 79c0 61 -22 79 -62 79h-39v-158zM258 226h-60v-166h44c51 0 74 21 74 89c0 59 -24 77 -58 77zM66 0v500h170c138 0 192 -69 192 -133c0 -54 -36 -87 -75 -107c56 -19 97 -58 97 -115c0 -82 -70 -145 -208 -145h-176z" />
    <glyph glyph-name="c.sc" horiz-adv-x="483" 
d="M443 468l-17 -65s-76 38 -133 38c-82 0 -113 -43 -113 -189c0 -148 37 -193 119 -193c80 0 128 66 128 66l41 -44s-50 -92 -194 -92c-160 0 -239 104 -239 257c0 158 86 265 242 265c88 0 166 -43 166 -43z" />
    <glyph glyph-name="d.sc" horiz-adv-x="542" 
d="M251 434h-53v-368h55c82 0 109 43 109 183s-27 185 -111 185zM66 0v500h185c165 0 257 -86 257 -251c0 -162 -86 -249 -256 -249h-186z" />
    <glyph glyph-name="e.sc" horiz-adv-x="444" 
d="M399 67v-67h-333v500h325v-67h-193v-148h167v-65h-167v-153h201z" />
    <glyph glyph-name="f.sc" horiz-adv-x="418" 
d="M370 260v-65h-172v-195h-132v500h329v-67h-197v-173h172z" />
    <glyph glyph-name="g.sc" horiz-adv-x="521" 
d="M470 267v-267h-57l-31 39c-22 -28 -57 -50 -120 -50c-146 0 -227 98 -227 260c0 163 90 262 244 262c88 0 166 -43 166 -43l-17 -65s-76 38 -133 38c-89 0 -115 -52 -115 -193c0 -143 42 -189 105 -189c62 0 71 54 73 68v77h-71v63h183z" />
    <glyph glyph-name="h.sc" horiz-adv-x="550" 
d="M484 500v-500h-132v221h-154v-221h-132v500h132v-213h154v213h132z" />
    <glyph glyph-name="i.sc" horiz-adv-x="264" 
d="M198 500v-500h-132v500h132z" />
    <glyph glyph-name="j.sc" horiz-adv-x="334" 
d="M37 77c0 0 22 -21 54 -21c38 0 52 25 52 117v327h132v-327c0 -135 -48 -184 -155 -184c-85 0 -107 33 -107 33z" />
    <glyph glyph-name="k.sc" horiz-adv-x="528" 
d="M66 0v500h131v-214l41 25l142 189h91l-146 -181l187 -319h-168l-121 224l-26 -16v-208h-131z" />
    <glyph glyph-name="l.sc" horiz-adv-x="406" 
d="M386 67v-67h-320v500h132v-433h188z" />
    <glyph glyph-name="m.sc" horiz-adv-x="713" 
d="M640 500l7 -500h-129l-8 353h-2l-128 -353h-98l-128 353h-4l-3 -353h-81l7 500h160l128 -339h5l126 339h148z" />
    <glyph glyph-name="n.sc" horiz-adv-x="542" 
d="M476 500v-500h-103l-230 348h-3l7 -55v-293h-81v500h136l197 -304h3l-7 41v263h81z" />
    <glyph glyph-name="o.sc" horiz-adv-x="553" 
d="M372 250c0 137 -25 195 -97 195c-71 0 -95 -58 -95 -195c0 -138 21 -194 95 -194s97 56 97 194zM519 250c0 -156 -85 -261 -244 -261c-158 0 -240 105 -240 261s82 261 240 261c159 0 244 -105 244 -261z" />
    <glyph glyph-name="p.sc" horiz-adv-x="459" 
d="M228 440h-30v-233h30c44 0 64 23 64 114c0 95 -23 119 -64 119zM66 0v500h174c120 0 195 -55 195 -173c0 -130 -106 -179 -192 -179h-45v-148h-132z" />
    <glyph glyph-name="q.sc" horiz-adv-x="553" 
d="M372 250c0 133 -25 195 -97 195c-71 0 -95 -62 -95 -195c0 -134 21 -194 95 -194s97 60 97 194zM485 -166c-16 -6 -33 -8 -49 -8c-86 0 -168 74 -203 166c-131 16 -198 116 -198 258c0 156 82 261 240 261c159 0 244 -99 244 -255c0 -131 -60 -230 -174 -258
c22 -55 57 -110 108 -110c9 0 18 1 28 5z" />
    <glyph glyph-name="r.sc" horiz-adv-x="495" 
d="M228 440h-30v-200h30c50 0 69 23 69 98c0 77 -19 102 -69 102zM66 0v500h175c120 0 194 -58 194 -159c0 -62 -37 -106 -82 -133l111 -208h-152l-81 178h-33v-178h-132z" />
    <glyph glyph-name="s.sc" horiz-adv-x="414" 
d="M359 468l-17 -61s-56 39 -104 39c-36 0 -56 -21 -56 -53c0 -99 198 -86 198 -242c0 -101 -84 -162 -178 -162c-132 0 -168 68 -168 68l32 58s40 -58 117 -58c41 0 64 27 64 61c0 84 -195 81 -195 236c0 96 73 157 175 157c77 0 132 -43 132 -43z" />
    <glyph glyph-name="t.sc" horiz-adv-x="450" 
d="M427 500l1 -67h-136v-433h-133v433h-136v67h404z" />
    <glyph glyph-name="u.sc" horiz-adv-x="509" 
d="M255 -11c-134 0 -197 77 -197 201v310h132v-281c0 -119 28 -159 86 -159c65 0 93 48 93 159v281h82v-310c0 -120 -48 -201 -196 -201z" />
    <glyph glyph-name="v.sc" horiz-adv-x="491" 
d="M311 0h-146l-151 500h140l112 -405h2l124 405h83z" />
    <glyph glyph-name="w.sc" horiz-adv-x="727" 
d="M628 500h83l-133 -500h-113l-99 341h-2l-98 -341h-114l-138 500h141l86 -351h2l96 351h107l100 -349h3z" />
    <glyph glyph-name="x.sc" horiz-adv-x="499" 
d="M12 0l160 242l-152 258h167l82 -164h2l101 164h93l-148 -226l170 -274h-165l-100 178h-3l-108 -178h-99z" />
    <glyph glyph-name="y.sc" horiz-adv-x="445" 
d="M251 284h1l99 216h92l-152 -299v-201h-132v187l-158 313h148z" />
    <glyph glyph-name="z.sc" horiz-adv-x="487" 
d="M439 500v-56l-236 -377h235v-67h-394v54l236 379h-219v67h378z" />
    <glyph glyph-name="agrave.sc" horiz-adv-x="521" 
d="M133 703l106 35l85 -147l-62 -17zM238 407h-3l-68 -216h132zM195 500h146l157 -500h-140l-41 132h-169l-44 -132h-80z" />
    <glyph glyph-name="aacute.sc" horiz-adv-x="521" 
d="M284 730l108 -31l-121 -130l-57 9zM238 407h-3l-68 -216h132zM195 500h146l157 -500h-140l-41 132h-169l-44 -132h-80z" />
    <glyph glyph-name="acircumflex.sc" horiz-adv-x="521" 
d="M300 753l97 -122l-28 -45l-104 85l-104 -85l-29 45l98 122h70zM238 407h-3l-68 -216h132zM195 500h146l157 -500h-140l-41 132h-169l-44 -132h-80z" />
    <glyph glyph-name="atilde.sc" horiz-adv-x="521" 
d="M408 705l36 -35s-26 -79 -112 -79c-65 0 -99 48 -155 48c-36 0 -58 -45 -58 -45l-36 36s37 90 123 90c73 0 101 -47 152 -47c36 0 50 32 50 32zM238 407h-3l-68 -216h132zM195 500h146l157 -500h-140l-41 132h-169l-44 -132h-80z" />
    <glyph glyph-name="adieresis.sc" horiz-adv-x="521" 
d="M124 704c13 11 29 17 46 17s33 -6 46 -17c13 -15 20 -33 20 -52s-7 -38 -20 -52c-13 -12 -29 -18 -46 -18s-33 6 -46 18c-14 14 -20 33 -20 52s6 37 20 52zM310 704c12 11 29 17 46 17s33 -6 46 -17c13 -15 20 -33 20 -52s-7 -38 -20 -52c-13 -12 -29 -18 -46 -18
s-34 6 -46 18c-14 14 -20 33 -20 52s6 37 20 52zM238 407h-3l-68 -216h132zM195 500h146l157 -500h-140l-41 132h-169l-44 -132h-80z" />
    <glyph glyph-name="aring.sc" horiz-adv-x="521" 
d="M324 657c0 44 -27 64 -59 64s-59 -20 -59 -64c0 -45 24 -66 59 -66s59 21 59 66zM370 656c0 -68 -44 -108 -105 -108c-64 0 -105 40 -105 108s45 107 105 107c58 0 105 -39 105 -107zM238 407h-3l-68 -216h132zM195 500h146l157 -500h-140l-41 132h-169l-44 -132h-80z
" />
    <glyph glyph-name="ae.sc" horiz-adv-x="689" 
d="M313 433l-124 -236h130v236h-6zM284 500h360v-67h-193v-148h167v-65h-167v-153h201v-67h-333v138h-161l-77 -138h-83z" />
    <glyph glyph-name="ccedilla.sc" horiz-adv-x="483" 
d="M443 468l-17 -65s-76 38 -133 38c-82 0 -113 -43 -113 -189c0 -148 37 -193 119 -193c80 0 128 66 128 66l41 -44s-49 -89 -187 -92l-5 -47c0 -6 89 -15 89 -92c0 -59 -38 -101 -114 -101c-75 0 -96 46 -96 46l26 29s20 -29 55 -29c31 0 50 15 50 57c0 47 -60 46 -60 50
l11 89c-135 15 -202 114 -202 255c0 158 86 265 242 265c88 0 166 -43 166 -43z" />
    <glyph glyph-name="egrave.sc" horiz-adv-x="444" 
d="M112 703l106 35l85 -147l-62 -17zM399 67v-67h-333v500h325v-67h-193v-148h167v-65h-167v-153h201z" />
    <glyph glyph-name="eacute.sc" horiz-adv-x="444" 
d="M262 730l108 -31l-121 -130l-57 9zM399 67v-67h-333v500h325v-67h-193v-148h167v-65h-167v-153h201z" />
    <glyph glyph-name="ecircumflex.sc" horiz-adv-x="444" 
d="M279 753l97 -122l-28 -45l-104 85l-104 -85l-29 45l98 122h70zM399 67v-67h-333v500h325v-67h-193v-148h167v-65h-167v-153h201z" />
    <glyph glyph-name="edieresis.sc" horiz-adv-x="444" 
d="M91 704c13 11 29 17 46 17s33 -6 46 -17c13 -15 20 -33 20 -52s-7 -38 -20 -52c-13 -12 -29 -18 -46 -18s-33 6 -46 18c-14 14 -20 33 -20 52s6 37 20 52zM277 704c12 11 29 17 46 17s33 -6 46 -17c13 -15 20 -33 20 -52s-7 -38 -20 -52c-13 -12 -29 -18 -46 -18
s-34 6 -46 18c-14 14 -20 33 -20 52s6 37 20 52zM399 67v-67h-333v500h325v-67h-193v-148h167v-65h-167v-153h201z" />
    <glyph glyph-name="igrave.sc" horiz-adv-x="264" 
d="M-3 703l106 35l85 -147l-62 -17zM198 500v-500h-132v500h132z" />
    <glyph glyph-name="iacute.sc" horiz-adv-x="264" 
d="M148 730l108 -31l-121 -130l-57 9zM198 500v-500h-132v500h132z" />
    <glyph glyph-name="icircumflex.sc" horiz-adv-x="264" 
d="M166 753l97 -122l-28 -45l-104 85l-104 -85l-29 45l98 122h70zM198 500v-500h-132v500h132z" />
    <glyph glyph-name="idieresis.sc" horiz-adv-x="264" 
d="M-10 704c13 11 29 17 46 17s33 -6 46 -17c13 -15 20 -33 20 -52s-7 -38 -20 -52c-13 -12 -29 -18 -46 -18s-33 6 -46 18c-14 14 -20 33 -20 52s6 37 20 52zM176 704c12 11 29 17 46 17s33 -6 46 -17c13 -15 20 -33 20 -52s-7 -38 -20 -52c-13 -12 -29 -18 -46 -18
s-34 6 -46 18c-14 14 -20 33 -20 52s6 37 20 52zM198 500v-500h-132v500h132z" />
    <glyph glyph-name="eth.sc" horiz-adv-x="552" 
d="M251 434h-53v-155h97v-62h-97v-151h55c82 0 109 43 109 183s-27 185 -111 185zM66 0v217h-41v62h41v221h185c165 0 257 -86 257 -251c0 -162 -86 -249 -256 -249h-186z" />
    <glyph glyph-name="ntilde.sc" horiz-adv-x="542" 
d="M432 705l36 -35s-26 -79 -112 -79c-65 0 -99 48 -155 48c-36 0 -58 -45 -58 -45l-36 36s37 90 123 90c73 0 101 -47 152 -47c36 0 50 32 50 32zM476 500v-500h-103l-230 348h-3l7 -55v-293h-81v500h136l197 -304h3l-7 41v263h81z" />
    <glyph glyph-name="ograve.sc" horiz-adv-x="553" 
d="M142 703l106 35l85 -147l-62 -17zM372 250c0 137 -25 195 -97 195c-71 0 -95 -58 -95 -195c0 -138 21 -194 95 -194s97 56 97 194zM519 250c0 -156 -85 -261 -244 -261c-158 0 -240 105 -240 261s82 261 240 261c159 0 244 -105 244 -261z" />
    <glyph glyph-name="oacute.sc" horiz-adv-x="553" 
d="M293 730l108 -31l-121 -130l-57 9zM372 250c0 137 -25 195 -97 195c-71 0 -95 -58 -95 -195c0 -138 21 -194 95 -194s97 56 97 194zM519 250c0 -156 -85 -261 -244 -261c-158 0 -240 105 -240 261s82 261 240 261c159 0 244 -105 244 -261z" />
    <glyph glyph-name="ocircumflex.sc" horiz-adv-x="553" 
d="M310 753l97 -122l-28 -45l-104 85l-104 -85l-29 45l98 122h70zM372 250c0 137 -25 195 -97 195c-71 0 -95 -58 -95 -195c0 -138 21 -194 95 -194s97 56 97 194zM519 250c0 -156 -85 -261 -244 -261c-158 0 -240 105 -240 261s82 261 240 261c159 0 244 -105 244 -261z
" />
    <glyph glyph-name="otilde.sc" horiz-adv-x="553" 
d="M422 705l36 -35s-26 -79 -112 -79c-65 0 -99 48 -155 48c-36 0 -58 -45 -58 -45l-36 36s37 90 123 90c73 0 101 -47 152 -47c36 0 50 32 50 32zM372 250c0 137 -25 195 -97 195c-71 0 -95 -58 -95 -195c0 -138 21 -194 95 -194s97 56 97 194zM519 250
c0 -156 -85 -261 -244 -261c-158 0 -240 105 -240 261s82 261 240 261c159 0 244 -105 244 -261z" />
    <glyph glyph-name="odieresis.sc" horiz-adv-x="553" 
d="M134 704c13 11 29 17 46 17s33 -6 46 -17c13 -15 20 -33 20 -52s-7 -38 -20 -52c-13 -12 -29 -18 -46 -18s-33 6 -46 18c-14 14 -20 33 -20 52s6 37 20 52zM320 704c12 11 29 17 46 17s33 -6 46 -17c13 -15 20 -33 20 -52s-7 -38 -20 -52c-13 -12 -29 -18 -46 -18
s-34 6 -46 18c-14 14 -20 33 -20 52s6 37 20 52zM372 250c0 137 -25 195 -97 195c-71 0 -95 -58 -95 -195c0 -138 21 -194 95 -194s97 56 97 194zM519 250c0 -156 -85 -261 -244 -261c-158 0 -240 105 -240 261s82 261 240 261c159 0 244 -105 244 -261z" />
    <glyph glyph-name="oslash.sc" horiz-adv-x="553" 
d="M372 250c0 50 -4 89 -11 119l-135 -301c13 -8 29 -12 49 -12c74 0 97 56 97 194zM180 250c0 -66 4 -113 17 -144l141 312c-15 18 -36 27 -63 27c-71 0 -95 -58 -95 -195zM519 250c0 -156 -85 -261 -244 -261c-30 0 -56 4 -80 11l-38 -85l-40 11l39 88
c-80 40 -121 125 -121 236c0 156 82 261 240 261c36 0 69 -6 97 -16l29 63l40 -10l-32 -71c72 -43 110 -124 110 -227z" />
    <glyph glyph-name="ugrave.sc" horiz-adv-x="509" 
d="M163 703l106 35l85 -147l-62 -17zM255 -11c-134 0 -197 77 -197 201v310h132v-281c0 -119 28 -159 86 -159c65 0 93 48 93 159v281h82v-310c0 -120 -48 -201 -196 -201z" />
    <glyph glyph-name="uacute.sc" horiz-adv-x="509" 
d="M284 730l108 -31l-121 -130l-57 9zM255 -11c-134 0 -197 77 -197 201v310h132v-281c0 -119 28 -159 86 -159c65 0 93 48 93 159v281h82v-310c0 -120 -48 -201 -196 -201z" />
    <glyph glyph-name="ucircumflex.sc" horiz-adv-x="509" 
d="M312 753l97 -122l-28 -45l-104 85l-104 -85l-29 45l98 122h70zM255 -11c-134 0 -197 77 -197 201v310h132v-281c0 -119 28 -159 86 -159c65 0 93 48 93 159v281h82v-310c0 -120 -48 -201 -196 -201z" />
    <glyph glyph-name="udieresis.sc" horiz-adv-x="509" 
d="M136 704c13 11 29 17 46 17s33 -6 46 -17c13 -15 20 -33 20 -52s-7 -38 -20 -52c-13 -12 -29 -18 -46 -18s-33 6 -46 18c-14 14 -20 33 -20 52s6 37 20 52zM322 704c12 11 29 17 46 17s33 -6 46 -17c13 -15 20 -33 20 -52s-7 -38 -20 -52c-13 -12 -29 -18 -46 -18
s-34 6 -46 18c-14 14 -20 33 -20 52s6 37 20 52zM255 -11c-134 0 -197 77 -197 201v310h132v-281c0 -119 28 -159 86 -159c65 0 93 48 93 159v281h82v-310c0 -120 -48 -201 -196 -201z" />
    <glyph glyph-name="yacute.sc" horiz-adv-x="445" 
d="M260 730l108 -31l-121 -130l-57 9zM251 284h1l99 216h92l-152 -299v-201h-132v187l-158 313h148z" />
    <glyph glyph-name="thorn.sc" horiz-adv-x="486" 
d="M254 364h-36v-244h35c38 0 66 20 66 122s-24 122 -65 122zM218 500v-72h42c119 0 194 -55 194 -180c0 -138 -106 -190 -191 -190h-45v-58h-133v500h133z" />
    <glyph glyph-name="ydieresis.sc" horiz-adv-x="445" 
d="M108 704c13 11 29 17 46 17s33 -6 46 -17c13 -15 20 -33 20 -52s-7 -38 -20 -52c-13 -12 -29 -18 -46 -18s-33 6 -46 18c-14 14 -20 33 -20 52s6 37 20 52zM294 704c12 11 29 17 46 17s33 -6 46 -17c13 -15 20 -33 20 -52s-7 -38 -20 -52c-13 -12 -29 -18 -46 -18
s-34 6 -46 18c-14 14 -20 33 -20 52s6 37 20 52zM251 284h1l99 216h92l-152 -299v-201h-132v187l-158 313h148z" />
    <glyph glyph-name="amacron.sc" horiz-adv-x="521" 
d="M371 682v-58h-214v58h214zM238 407h-3l-68 -216h132zM195 500h146l157 -500h-140l-41 132h-169l-44 -132h-80z" />
    <glyph glyph-name="abreve.sc" horiz-adv-x="521" 
d="M264 636c81 0 84 55 84 55v4l67 -9s4 -123 -151 -123c-154 0 -149 123 -149 123l66 9v-4s4 -55 83 -55zM238 407h-3l-68 -216h132zM195 500h146l157 -500h-140l-41 132h-169l-44 -132h-80z" />
    <glyph glyph-name="aogonek.sc" horiz-adv-x="521" 
d="M238 407h-3l-68 -216h132zM195 500h146l157 -500h-73c-23 -13 -69 -49 -69 -123c0 -63 24 -78 76 -78v-49c-87 0 -164 18 -164 117c0 60 47 106 89 134l-40 131h-169l-44 -132h-80z" />
    <glyph glyph-name="cacute.sc" horiz-adv-x="483" 
d="M285 730l108 -31l-121 -130l-57 9zM443 468l-17 -65s-76 38 -133 38c-82 0 -113 -43 -113 -189c0 -148 37 -193 119 -193c80 0 128 66 128 66l41 -44s-50 -92 -194 -92c-160 0 -239 104 -239 257c0 158 86 265 242 265c88 0 166 -43 166 -43z" />
    <glyph glyph-name="ccaron.sc" horiz-adv-x="483" 
d="M227 572l-115 138l42 35l108 -93l108 93l42 -39l-115 -134h-70zM443 468l-17 -65s-76 38 -133 38c-82 0 -113 -43 -113 -189c0 -148 37 -193 119 -193c80 0 128 66 128 66l41 -44s-50 -92 -194 -92c-160 0 -239 104 -239 257c0 158 86 265 242 265c88 0 166 -43 166 -43z
" />
    <glyph glyph-name="dcaron.sc" horiz-adv-x="552" 
d="M213 572l-115 138l42 35l108 -93l108 93l42 -39l-115 -134h-70zM251 434h-53v-368h55c82 0 109 43 109 183s-27 185 -111 185zM66 0v500h185c165 0 257 -86 257 -251c0 -162 -86 -249 -256 -249h-186z" />
    <glyph glyph-name="dcroat.sc" horiz-adv-x="552" 
d="M251 434h-53v-155h97v-62h-97v-151h55c82 0 109 43 109 183s-27 185 -111 185zM66 0v217h-41v62h41v221h185c165 0 257 -86 257 -251c0 -162 -86 -249 -256 -249h-186z" />
    <glyph glyph-name="emacron.sc" horiz-adv-x="444" 
d="M351 682v-58h-214v58h214zM399 67v-67h-333v500h325v-67h-193v-148h167v-65h-167v-153h201z" />
    <glyph glyph-name="edotaccent.sc" horiz-adv-x="444" 
d="M182 708c15 14 34 20 53 20s37 -6 51 -19c15 -16 22 -36 22 -57s-7 -42 -22 -58c-14 -12 -32 -19 -51 -19s-38 7 -53 20c-15 15 -23 36 -23 57s8 41 23 56zM399 67v-67h-333v500h325v-67h-193v-148h167v-65h-167v-153h201z" />
    <glyph glyph-name="eogonek.sc" horiz-adv-x="444" 
d="M399 67v-67h-16c-23 -13 -69 -49 -69 -123c0 -63 24 -78 76 -78v-49c-87 0 -164 18 -164 117c0 59 46 104 88 133h-248v500h325v-67h-193v-148h167v-65h-167v-153h201z" />
    <glyph glyph-name="ecaron.sc" horiz-adv-x="444" 
d="M201 572l-115 138l42 35l108 -93l108 93l42 -39l-115 -134h-70zM399 67v-67h-333v500h325v-67h-193v-148h167v-65h-167v-153h201z" />
    <glyph glyph-name="gbreve.sc" horiz-adv-x="521" 
d="M280 636c81 0 84 55 84 55v4l67 -9s4 -123 -151 -123c-154 0 -149 123 -149 123l66 9v-4s4 -55 83 -55zM470 267v-267h-57l-31 39c-22 -28 -57 -50 -120 -50c-146 0 -227 98 -227 260c0 163 90 262 244 262c88 0 166 -43 166 -43l-17 -65s-76 38 -133 38
c-89 0 -115 -52 -115 -193c0 -143 42 -189 105 -189c62 0 71 54 73 68v77h-71v63h183z" />
    <glyph glyph-name="gcommaaccent.sc" horiz-adv-x="521" 
d="M229 -62c11 11 26 16 42 16c15 0 31 -5 43 -16l4 -5c18 -21 26 -48 26 -78c0 -68 -41 -148 -101 -194l-29 31c42 39 65 84 65 126c0 4 -1 8 -1 12h-7c-16 0 -31 6 -42 16c-13 12 -19 29 -19 46s6 33 19 46zM470 267v-267h-57l-31 39c-22 -28 -57 -50 -120 -50
c-146 0 -227 98 -227 260c0 163 90 262 244 262c88 0 166 -43 166 -43l-17 -65s-76 38 -133 38c-89 0 -115 -52 -115 -193c0 -143 42 -189 105 -189c62 0 71 54 73 68v77h-71v63h183z" />
    <glyph glyph-name="imacron.sc" horiz-adv-x="264" 
d="M240 682v-58h-214v58h214zM198 500v-500h-132v500h132z" />
    <glyph glyph-name="iogonek.sc" horiz-adv-x="264" 
d="M198 500v-500h-78c-23 -13 -69 -49 -69 -123c0 -63 24 -78 76 -78v-49c-87 0 -164 18 -164 117c0 66 58 116 103 143v490h132z" />
    <glyph glyph-name="dotlessi.sc" horiz-adv-x="264" 
d="M79 708c15 14 34 20 53 20s37 -6 51 -19c15 -16 22 -36 22 -57s-7 -42 -22 -58c-14 -12 -32 -19 -51 -19s-38 7 -53 20c-15 15 -23 36 -23 57s8 41 23 56zM198 500v-500h-132v500h132z" />
    <glyph glyph-name="kcommaaccent.sc" horiz-adv-x="529" 
d="M224 -62c11 11 26 16 42 16c15 0 31 -5 43 -16l4 -5c18 -21 26 -48 26 -78c0 -68 -41 -148 -101 -194l-29 31c42 39 65 84 65 126c0 4 -1 8 -1 12h-7c-16 0 -31 6 -42 16c-13 12 -19 29 -19 46s6 33 19 46zM66 0v500h131v-214l41 25l142 189h91l-146 -181l187 -319h-168
l-121 224l-26 -16v-208h-131z" />
    <glyph glyph-name="lacute.sc" horiz-adv-x="417" 
d="M164 730l108 -31l-121 -130l-57 9zM386 67v-67h-320v500h132v-433h188z" />
    <glyph glyph-name="lcommaaccent.sc" horiz-adv-x="417" 
d="M185 -62c11 11 26 16 42 16c15 0 31 -5 43 -16l4 -5c18 -21 26 -48 26 -78c0 -68 -41 -148 -101 -194l-29 31c42 39 65 84 65 126c0 4 -1 8 -1 12h-7c-16 0 -31 6 -42 16c-13 12 -19 29 -19 46s6 33 19 46zM386 67v-67h-320v500h132v-433h188z" />
    <glyph glyph-name="lcaron.sc" horiz-adv-x="417" 
d="M99 572l-115 138l42 35l108 -93l108 93l42 -39l-115 -134h-70zM386 67v-67h-320v500h132v-433h188z" />
    <glyph glyph-name="lslash.sc" horiz-adv-x="436" 
d="M416 67v-67h-320v152l-31 -22l-32 39l63 44v287h132v-193l71 50l30 -39l-101 -72v-179h188z" />
    <glyph glyph-name="nacute.sc" horiz-adv-x="542" 
d="M314 730l108 -31l-121 -130l-57 9zM476 500v-500h-103l-230 348h-3l7 -55v-293h-81v500h136l197 -304h3l-7 41v263h81z" />
    <glyph glyph-name="ncommaaccent.sc" horiz-adv-x="542" 
d="M221 -62c11 11 26 16 42 16c15 0 31 -5 43 -16l4 -5c18 -21 26 -48 26 -78c0 -68 -41 -148 -101 -194l-29 31c42 39 65 84 65 126c0 4 -1 8 -1 12h-7c-16 0 -31 6 -42 16c-13 12 -19 29 -19 46s6 33 19 46zM476 500v-500h-103l-230 348h-3l7 -55v-293h-81v500h136
l197 -304h3l-7 41v263h81z" />
    <glyph glyph-name="ncaron.sc" horiz-adv-x="542" 
d="M264 572l-115 138l42 35l108 -93l108 93l42 -39l-115 -134h-70zM476 500v-500h-103l-230 348h-3l7 -55v-293h-81v500h136l197 -304h3l-7 41v263h81z" />
    <glyph glyph-name="omacron.sc" horiz-adv-x="553" 
d="M381 682v-58h-214v58h214zM372 250c0 137 -25 195 -97 195c-71 0 -95 -58 -95 -195c0 -138 21 -194 95 -194s97 56 97 194zM519 250c0 -156 -85 -261 -244 -261c-158 0 -240 105 -240 261s82 261 240 261c159 0 244 -105 244 -261z" />
    <glyph glyph-name="ohungarumlaut.sc" horiz-adv-x="553" 
d="M157 585l53 153l92 -26l-94 -150zM312 585l54 153l92 -26l-95 -150zM372 250c0 137 -25 195 -97 195c-71 0 -95 -58 -95 -195c0 -138 21 -194 95 -194s97 56 97 194zM519 250c0 -156 -85 -261 -244 -261c-158 0 -240 105 -240 261s82 261 240 261
c159 0 244 -105 244 -261z" />
    <glyph glyph-name="oe.sc" horiz-adv-x="759" 
d="M372 250c0 137 -25 195 -97 195c-71 0 -95 -58 -95 -195c0 -138 21 -194 95 -194s97 56 97 194zM713 67v-67h-334v7c-30 -11 -65 -18 -104 -18c-158 0 -240 105 -240 261s82 261 240 261c39 0 74 -7 104 -19v8h326v-67h-194v-105c3 -14 5 -28 6 -43h162v-65h-161
c-2 -17 -4 -33 -7 -48v-105h202z" />
    <glyph glyph-name="racute.sc" horiz-adv-x="495" 
d="M254 730l108 -31l-121 -130l-57 9zM228 440h-30v-200h30c50 0 69 23 69 98c0 77 -19 102 -69 102zM66 0v500h175c120 0 194 -58 194 -159c0 -62 -37 -106 -82 -133l111 -208h-152l-81 178h-33v-178h-132z" />
    <glyph glyph-name="rcommaaccent.sc" horiz-adv-x="495" 
d="M204 -62c11 11 26 16 42 16c15 0 31 -5 43 -16l4 -5c18 -21 26 -48 26 -78c0 -68 -41 -148 -101 -194l-29 31c42 39 65 84 65 126c0 4 -1 8 -1 12h-7c-16 0 -31 6 -42 16c-13 12 -19 29 -19 46s6 33 19 46zM228 440h-30v-200h30c50 0 69 23 69 98c0 77 -19 102 -69 102z
M66 0v500h175c120 0 194 -58 194 -159c0 -62 -37 -106 -82 -133l111 -208h-152l-81 178h-33v-178h-132z" />
    <glyph glyph-name="rcaron.sc" horiz-adv-x="495" 
d="M197 572l-115 138l42 35l108 -93l108 93l42 -39l-115 -134h-70zM228 440h-30v-200h30c50 0 69 23 69 98c0 77 -19 102 -69 102zM66 0v500h175c120 0 194 -58 194 -159c0 -62 -37 -106 -82 -133l111 -208h-152l-81 178h-33v-178h-132z" />
    <glyph glyph-name="sacute.sc" horiz-adv-x="414" 
d="M246 730l108 -31l-121 -130l-57 9zM359 468l-17 -61s-56 39 -104 39c-36 0 -56 -21 -56 -53c0 -99 198 -86 198 -242c0 -101 -84 -162 -178 -162c-132 0 -168 68 -168 68l32 58s40 -58 117 -58c41 0 64 27 64 61c0 84 -195 81 -195 236c0 96 73 157 175 157
c77 0 132 -43 132 -43z" />
    <glyph glyph-name="scedilla.sc" horiz-adv-x="414" 
d="M359 468l-17 -61s-56 39 -104 39c-36 0 -56 -21 -56 -53c0 -99 198 -86 198 -242c0 -97 -77 -156 -166 -161l-5 -48c0 -6 89 -15 89 -92c0 -59 -38 -101 -114 -101c-75 0 -96 46 -96 46l26 29s20 -29 55 -29c31 0 50 15 50 57c0 47 -60 46 -60 50l11 89
c-106 9 -136 66 -136 66l32 58s40 -58 117 -58c41 0 64 27 64 61c0 84 -195 81 -195 236c0 96 73 157 175 157c77 0 132 -43 132 -43z" />
    <glyph glyph-name="scaron.sc" horiz-adv-x="414" 
d="M188 572l-115 138l42 35l108 -93l108 93l42 -39l-115 -134h-70zM359 468l-17 -61s-56 39 -104 39c-36 0 -56 -21 -56 -53c0 -99 198 -86 198 -242c0 -101 -84 -162 -178 -162c-132 0 -168 68 -168 68l32 58s40 -58 117 -58c41 0 64 27 64 61c0 84 -195 81 -195 236
c0 96 73 157 175 157c77 0 132 -43 132 -43z" />
    <glyph glyph-name="tcommaaccent.sc" horiz-adv-x="450" 
d="M184 -62c11 11 26 16 42 16c15 0 31 -5 43 -16l4 -5c18 -21 26 -48 26 -78c0 -68 -41 -148 -101 -194l-29 31c42 39 65 84 65 126c0 4 -1 8 -1 12h-7c-16 0 -31 6 -42 16c-13 12 -19 29 -19 46s6 33 19 46zM427 500l1 -67h-136v-433h-133v433h-136v67h404z" />
    <glyph glyph-name="tcaron.sc" horiz-adv-x="450" 
d="M188 572l-115 138l42 35l108 -93l108 93l42 -39l-115 -134h-70zM427 500l1 -67h-136v-433h-133v433h-136v67h404z" />
    <glyph glyph-name="umacron.sc" horiz-adv-x="509" 
d="M380 682v-58h-214v58h214zM255 -11c-134 0 -197 77 -197 201v310h132v-281c0 -119 28 -159 86 -159c65 0 93 48 93 159v281h82v-310c0 -120 -48 -201 -196 -201z" />
    <glyph glyph-name="uring.sc" horiz-adv-x="509" 
d="M328 657c0 44 -27 64 -59 64s-59 -20 -59 -64c0 -45 24 -66 59 -66s59 21 59 66zM374 656c0 -68 -44 -108 -105 -108c-64 0 -105 40 -105 108s45 107 105 107c58 0 105 -39 105 -107zM255 -11c-134 0 -197 77 -197 201v310h132v-281c0 -119 28 -159 86 -159
c65 0 93 48 93 159v281h82v-310c0 -120 -48 -201 -196 -201z" />
    <glyph glyph-name="uhungarumlaut.sc" horiz-adv-x="509" 
d="M145 585l53 153l92 -26l-94 -150zM300 585l54 153l92 -26l-95 -150zM255 -11c-134 0 -197 77 -197 201v310h132v-281c0 -119 28 -159 86 -159c65 0 93 48 93 159v281h82v-310c0 -120 -48 -201 -196 -201z" />
    <glyph glyph-name="uogonek.sc" horiz-adv-x="509" 
d="M451 190c0 -98 -32 -170 -125 -193c-24 -15 -63 -51 -63 -120c0 -63 24 -78 76 -78v-49c-87 0 -164 18 -164 117c0 52 36 93 73 122c-129 3 -190 79 -190 201v310h132v-281c0 -119 28 -159 86 -159c65 0 93 48 93 159v281h82v-310z" />
    <glyph glyph-name="zacute.sc" horiz-adv-x="487" 
d="M271 730l108 -31l-121 -130l-57 9zM439 500v-56l-236 -377h235v-67h-394v54l236 379h-219v67h378z" />
    <glyph glyph-name="zdotaccent.sc" horiz-adv-x="487" 
d="M198 708c15 14 34 20 53 20s37 -6 51 -19c15 -16 22 -36 22 -57s-7 -42 -22 -58c-14 -12 -32 -19 -51 -19s-38 7 -53 20c-15 15 -23 36 -23 57s8 41 23 56zM439 500v-56l-236 -377h235v-67h-394v54l236 379h-219v67h378z" />
    <glyph glyph-name="zcaron.sc" horiz-adv-x="487" 
d="M218 572l-115 138l42 35l108 -93l108 93l42 -39l-115 -134h-70zM439 500v-56l-236 -377h235v-67h-394v54l236 379h-219v67h378z" />
    <glyph glyph-name="germandbls.sc" horiz-adv-x="554" 
d="M453 500v-44l-91 -165c3 0 6 1 9 1c78 0 148 -49 148 -143c0 -109 -89 -160 -172 -160c-79 0 -111 32 -111 32l20 61s27 -23 64 -23c41 0 63 19 63 90c0 66 -12 83 -39 83c-10 0 -16 -6 -21 -11l-6 -12l-70 51l88 173h-48c-59 0 -86 -30 -86 -148v-285h-132v311
c0 123 63 189 196 189h188z" />
    <glyph glyph-name="uni0450.sc" horiz-adv-x="444" 
d="M112 703l106 35l85 -147l-62 -17zM399 67v-67h-333v500h325v-67h-193v-148h167v-65h-167v-153h201z" />
    <glyph glyph-name="afii10071.sc" horiz-adv-x="444" 
d="M91 704c13 11 29 17 46 17s33 -6 46 -17c13 -15 20 -33 20 -52s-7 -38 -20 -52c-13 -12 -29 -18 -46 -18s-33 6 -46 18c-14 14 -20 33 -20 52s6 37 20 52zM277 704c12 11 29 17 46 17s33 -6 46 -17c13 -15 20 -33 20 -52s-7 -38 -20 -52c-13 -12 -29 -18 -46 -18
s-34 6 -46 18c-14 14 -20 33 -20 52s6 37 20 52zM399 67v-67h-333v500h325v-67h-193v-148h167v-65h-167v-153h201z" />
    <glyph glyph-name="afii10099.sc" horiz-adv-x="570" 
d="M395 500v-65h-115v-150h2s44 31 113 31c102 0 137 -55 137 -139v-11c0 -135 -49 -175 -143 -175c-51 0 -73 21 -73 21l7 51s19 -14 40 -14c19 0 35 9 37 77v26c0 78 -15 89 -55 89c-34 0 -57 -16 -65 -22v-219h-133v435h-117v65h365z" />
    <glyph glyph-name="afii10100.sc" horiz-adv-x="380" 
d="M228 730l108 -31l-121 -130l-57 9zM372 433h-174v-433h-132v500h306v-67z" />
    <glyph glyph-name="afii10101.sc" horiz-adv-x="492" 
d="M398 276v-64h-216c6 -115 45 -153 119 -153c77 0 132 67 132 67l35 -51s-53 -86 -189 -86c-159 0 -244 97 -244 252s94 270 246 270c87 0 164 -56 164 -56l-19 -65s-76 51 -131 51c-70 0 -107 -40 -113 -165h216z" />
    <glyph glyph-name="afii10102.sc" horiz-adv-x="414" 
d="M359 468l-17 -61s-56 39 -104 39c-36 0 -56 -21 -56 -53c0 -99 198 -86 198 -242c0 -101 -84 -162 -178 -162c-132 0 -168 68 -168 68l32 58s40 -58 117 -58c41 0 64 27 64 61c0 84 -195 81 -195 236c0 96 73 157 175 157c77 0 132 -43 132 -43z" />
    <glyph glyph-name="afii10103.sc" horiz-adv-x="264" 
d="M198 500v-500h-132v500h132z" />
    <glyph glyph-name="afii10104.sc" horiz-adv-x="264" 
d="M-8 704c13 11 29 17 46 17s33 -6 46 -17c13 -15 20 -33 20 -52s-7 -38 -20 -52c-13 -12 -29 -18 -46 -18s-33 6 -46 18c-14 14 -20 33 -20 52s6 37 20 52zM178 704c12 11 29 17 46 17s33 -6 46 -17c13 -15 20 -33 20 -52s-7 -38 -20 -52c-13 -12 -29 -18 -46 -18
s-34 6 -46 18c-14 14 -20 33 -20 52s6 37 20 52zM198 500v-500h-132v500h132z" />
    <glyph glyph-name="afii10105.sc" horiz-adv-x="348" 
d="M37 77c0 0 22 -21 54 -21c38 0 52 25 52 117v327h132v-327c0 -135 -48 -184 -155 -184c-85 0 -107 33 -107 33z" />
    <glyph glyph-name="afii10106.sc" horiz-adv-x="745" 
d="M500 255h-26v-195h27c49 0 72 26 72 101c0 74 -25 94 -73 94zM175 500h299v-186h26c133 0 210 -49 210 -150c0 -102 -67 -164 -206 -164h-162v433h-92c-2 -299 -74 -442 -172 -442c-37 0 -51 8 -51 8l8 83s11 -4 29 -4c64 0 111 104 111 422z" />
    <glyph glyph-name="afii10107.sc" horiz-adv-x="755" 
d="M509 255h-25v-195h26c49 0 72 26 72 101c0 74 -25 94 -73 94zM351 0v221h-153v-221h-132v500h132v-213h153v213h133v-186h25c133 0 210 -49 210 -150c0 -102 -67 -164 -206 -164h-162z" />
    <glyph glyph-name="afii10108.sc" horiz-adv-x="584" 
d="M388 500v-65h-115v-150h2s44 31 113 31c102 0 138 -55 138 -139v-177h-133v152c0 78 -15 89 -55 89c-34 0 -57 -16 -65 -22v-219h-133v435h-117v65h365z" />
    <glyph glyph-name="afii10109.sc" horiz-adv-x="529" 
d="M285 730l108 -31l-121 -130l-57 9zM66 0v500h131v-214l41 25l142 189h91l-146 -181l187 -319h-168l-121 224l-26 -16v-208h-131z" />
    <glyph glyph-name="uni045D.sc" horiz-adv-x="569" 
d="M158 703l106 35l85 -147l-62 -17zM503 500v-500h-132v284l6 68h-2l-178 -331l-7 -21h-124v500h132v-294l-7 -61h2l179 334l8 21h123z" />
    <glyph glyph-name="afii10110.sc" horiz-adv-x="506" 
d="M283 636c81 0 84 55 84 55v4l67 -9s4 -123 -151 -123c-154 0 -149 123 -149 123l66 9v-4s4 -55 83 -55zM305 244h2l86 256h88l-138 -338c-50 -121 -104 -173 -187 -173c-56 0 -86 20 -86 20l19 83s30 -19 73 -19c29 0 52 7 75 39l-211 388h155z" />
    <glyph glyph-name="afii10193.sc" horiz-adv-x="538" 
d="M198 500v-433h142v433h132v-500h-145l-19 -155h-73l-22 155h-147v500h132z" />
    <glyph glyph-name="afii10065.sc" horiz-adv-x="521" 
d="M238 407h-3l-68 -216h132zM195 500h146l157 -500h-140l-41 132h-169l-44 -132h-80z" />
    <glyph glyph-name="afii10066.sc" horiz-adv-x="469" 
d="M222 255h-24v-195h24c52 0 75 21 75 100c0 80 -25 95 -75 95zM370 500v-67h-172v-119h23c133 0 213 -49 213 -150c0 -102 -71 -164 -210 -164h-158v500h304z" />
    <glyph glyph-name="afii10067.sc" horiz-adv-x="485" 
d="M198 282h53c22 0 48 17 48 79c0 61 -22 79 -62 79h-39v-158zM258 226h-60v-166h44c51 0 74 21 74 89c0 59 -24 77 -58 77zM66 0v500h170c138 0 192 -69 192 -133c0 -54 -36 -87 -75 -107c56 -19 97 -58 97 -115c0 -82 -70 -145 -208 -145h-176z" />
    <glyph glyph-name="afii10068.sc" horiz-adv-x="380" 
d="M372 433h-174v-433h-132v500h306v-67z" />
    <glyph glyph-name="afii10069.sc" horiz-adv-x="549" 
d="M325 433h-107c-3 -188 -20 -285 -57 -366h164v366zM141 500h316v-433h67l-23 -202h-74l-21 135h-267l-38 -135h-66l-10 202h58c44 91 58 196 58 433z" />
    <glyph glyph-name="afii10070.sc" horiz-adv-x="444" 
d="M399 67v-67h-333v500h325v-67h-193v-148h167v-65h-167v-153h201z" />
    <glyph glyph-name="afii10072.sc" horiz-adv-x="747" 
d="M435 500v-178h57l115 178h95l-135 -180l160 -320h-154l-108 255h-30v-255h-132v254h-36l-93 -254h-155l147 298l-120 202h94l96 -179h67v179h132z" />
    <glyph glyph-name="afii10073.sc" horiz-adv-x="438" 
d="M74 403l-15 62s74 46 153 46c117 0 181 -56 181 -137c0 -61 -41 -96 -83 -116c53 -14 94 -46 94 -116c0 -90 -82 -153 -202 -153c-146 0 -186 83 -186 83l41 49s50 -63 124 -63c45 0 75 20 75 86c0 65 -22 81 -56 81l-79 -8v71l87 -8c22 1 45 22 45 88
c0 59 -20 78 -67 78c-48 0 -112 -43 -112 -43z" />
    <glyph glyph-name="afii10074.sc" horiz-adv-x="569" 
d="M503 500v-500h-132v284l6 68h-2l-178 -331l-7 -21h-124v500h132v-294l-7 -61h2l179 334l8 21h123z" />
    <glyph glyph-name="afii10075.sc" horiz-adv-x="569" 
d="M290 624c49 0 59 22 59 39c0 11 -4 20 -4 20v12l104 -9s8 -123 -159 -123c-166 0 -158 123 -158 123l104 9v-12s-4 -9 -4 -20c0 -17 10 -39 58 -39zM503 500v-500h-132v284l6 68h-2l-178 -331l-7 -21h-124v500h132v-294l-7 -61h2l179 334l8 21h123z" />
    <glyph glyph-name="afii10076.sc" horiz-adv-x="529" 
d="M66 0v500h131v-214l41 25l142 189h91l-146 -181l187 -319h-168l-121 224l-26 -16v-208h-131z" />
    <glyph glyph-name="afii10077.sc" horiz-adv-x="540" 
d="M175 500h299v-500h-132v433h-92c-2 -299 -74 -442 -172 -442c-37 0 -51 8 -51 8l8 83s11 -4 29 -4c64 0 111 104 111 422z" />
    <glyph glyph-name="afii10078.sc" horiz-adv-x="713" 
d="M640 500l7 -500h-129l-8 353h-2l-128 -353h-98l-128 353h-4l-3 -353h-81l7 500h160l128 -339h5l126 339h148z" />
    <glyph glyph-name="afii10079.sc" horiz-adv-x="550" 
d="M484 500v-500h-132v221h-154v-221h-132v500h132v-213h154v213h132z" />
    <glyph glyph-name="afii10080.sc" horiz-adv-x="553" 
d="M372 250c0 137 -25 195 -97 195c-71 0 -95 -58 -95 -195c0 -138 21 -194 95 -194s97 56 97 194zM519 250c0 -156 -85 -261 -244 -261c-158 0 -240 105 -240 261s82 261 240 261c159 0 244 -105 244 -261z" />
    <glyph glyph-name="afii10081.sc" horiz-adv-x="538" 
d="M472 500v-500h-132v433h-142v-433h-132v500h406z" />
    <glyph glyph-name="afii10082.sc" horiz-adv-x="459" 
d="M228 440h-30v-233h30c44 0 64 23 64 114c0 95 -23 119 -64 119zM66 0v500h174c120 0 195 -55 195 -173c0 -130 -106 -179 -192 -179h-45v-148h-132z" />
    <glyph glyph-name="afii10083.sc" horiz-adv-x="483" 
d="M443 468l-17 -65s-76 38 -133 38c-82 0 -113 -43 -113 -189c0 -148 37 -193 119 -193c80 0 128 66 128 66l41 -44s-50 -92 -194 -92c-160 0 -239 104 -239 257c0 158 86 265 242 265c88 0 166 -43 166 -43z" />
    <glyph glyph-name="afii10084.sc" horiz-adv-x="450" 
d="M427 500l1 -67h-136v-433h-133v433h-136v67h404z" />
    <glyph glyph-name="afii10085.sc" horiz-adv-x="506" 
d="M305 244h2l86 256h88l-138 -338c-50 -121 -104 -173 -187 -173c-56 0 -86 20 -86 20l19 83s30 -19 73 -19c29 0 52 7 75 39l-211 388h155z" />
    <glyph glyph-name="afii10086.sc" horiz-adv-x="652" 
d="M490 255c0 88 -25 134 -98 138v-282c73 5 98 54 98 144zM162 254c0 -89 25 -138 98 -143v282c-73 -4 -98 -51 -98 -139zM392 500v-50c137 -4 234 -68 234 -195c0 -128 -97 -197 -234 -201v-54h-132v54c-139 3 -234 73 -234 200s96 192 234 196v50h132z" />
    <glyph glyph-name="afii10087.sc" horiz-adv-x="499" 
d="M12 0l160 242l-152 258h167l82 -164h2l101 164h93l-148 -226l170 -274h-165l-100 178h-3l-108 -178h-99z" />
    <glyph glyph-name="afii10088.sc" horiz-adv-x="564" 
d="M198 500v-433h142v433h132v-433h67l-27 -202h-72l-22 135h-352v500h132z" />
    <glyph glyph-name="afii10089.sc" horiz-adv-x="495" 
d="M430 500v-500h-132v200h-1s-32 -30 -114 -30c-103 0 -138 72 -138 156v174h132v-159c0 -80 17 -96 55 -96c35 0 61 13 66 16v239h132z" />
    <glyph glyph-name="afii10090.sc" horiz-adv-x="722" 
d="M427 500v-433h97v433h132v-500h-590v500h132v-433h97v433h132z" />
    <glyph glyph-name="afii10091.sc" horiz-adv-x="745" 
d="M656 500v-433h64l-24 -202h-72l-21 135h-537v500h132v-433h97v433h132v-433h97v433h132z" />
    <glyph glyph-name="afii10092.sc" horiz-adv-x="543" 
d="M298 255h-26v-195h27c49 0 72 26 72 101c0 74 -25 94 -73 94zM140 0v433h-117v67h249v-186h26c133 0 210 -49 210 -150c0 -102 -67 -164 -206 -164h-162z" />
    <glyph glyph-name="afii10093.sc" horiz-adv-x="680" 
d="M615 500v-500h-132v500h132zM224 255h-26v-195h27c49 0 72 26 72 101c0 74 -25 94 -73 94zM66 0v500h132v-186h26c133 0 210 -49 210 -150c0 -102 -67 -164 -206 -164h-162z" />
    <glyph glyph-name="afii10094.sc" horiz-adv-x="469" 
d="M224 255h-26v-195h27c49 0 72 26 72 101c0 74 -25 94 -73 94zM66 0v500h132v-186h26c133 0 210 -49 210 -150c0 -102 -67 -164 -206 -164h-162z" />
    <glyph glyph-name="afii10095.sc" horiz-adv-x="472" 
d="M73 407l-16 62s77 42 148 42c167 0 232 -102 232 -258s-89 -264 -238 -264c-138 0 -181 71 -181 71l38 55s42 -56 118 -56c69 0 107 38 113 159h-201v65h202c-3 128 -30 160 -102 160c-52 0 -113 -36 -113 -36z" />
    <glyph glyph-name="afii10096.sc" horiz-adv-x="767" 
d="M586 250c0 133 -26 198 -98 198c-71 0 -98 -65 -98 -198c0 -134 25 -197 98 -197c74 0 98 63 98 197zM732 250c0 -156 -85 -261 -244 -261c-147 0 -229 91 -239 230h-51v-219h-132v500h132v-216h51c12 137 93 227 239 227c159 0 244 -105 244 -261z" />
    <glyph glyph-name="afii10097.sc" horiz-adv-x="494" 
d="M182 343c0 -63 26 -91 58 -91h55v187h-56c-30 0 -57 -30 -57 -96zM428 500v-500h-133v188h-45l-83 -188h-137l109 205c-51 22 -90 64 -90 135c0 109 75 160 180 160h199z" />
    <glyph glyph-name="afii10194.sc" horiz-adv-x="525" 
d="M285 254h-31v-194h32c49 0 68 23 68 101c0 74 -21 93 -69 93zM384 451v-71h-130v-68h31c132 0 206 -47 206 -148c0 -102 -65 -164 -203 -164h-166v380h-99v71h99v49h132v-49h130z" />
    <glyph glyph-name="afii10098.sc" horiz-adv-x="367" 
d="M287 578h63l8 -149h-160v-429h-132v500h194z" />
    <glyph glyph-name="ff.sc" horiz-adv-x="837" 
d="M788 260v-65h-172v-195h-132v500h329v-67h-197v-173h172zM370 260v-65h-172v-195h-132v500h329v-67h-197v-173h172z" />
    <glyph glyph-name="fi.sc" horiz-adv-x="682" 
d="M616 500v-500h-132v500h132zM370 260v-65h-172v-195h-132v500h329v-67h-197v-173h172z" />
    <glyph glyph-name="fl.sc" horiz-adv-x="825" 
d="M804 67v-67h-320v500h132v-433h188zM370 260v-65h-172v-195h-132v500h329v-67h-197v-173h172z" />
    <glyph glyph-name="onefifth" horiz-adv-x="839" 
d="M777 270l-6 -119h-181l-8 -75c10 3 22 5 35 5c107 0 184 -54 184 -164c0 -130 -96 -178 -188 -178c-104 0 -144 54 -144 54l29 54s44 -43 103 -43c48 0 78 32 78 116c0 79 -31 103 -70 103c-22 0 -40 -9 -50 -20l-7 -15l-42 6l32 276h235zM612 566l-337 -606l-55 31
l338 605zM187 750h97v-520h-120v423l-75 -52l-28 68z" />
    <glyph glyph-name="twofifths" horiz-adv-x="902" 
d="M839 270l-6 -119h-181l-8 -75c10 3 22 5 35 5c107 0 184 -54 184 -164c0 -130 -96 -178 -188 -178c-104 0 -144 54 -144 54l29 54s44 -43 103 -43c48 0 78 32 78 116c0 79 -31 103 -70 103c-22 0 -40 -9 -50 -20l-7 -15l-42 6l32 276h235zM675 566l-337 -606l-55 31
l338 605zM373 344v-114h-332v95c72 28 196 140 196 267c0 80 -23 103 -72 103c-37 0 -97 -40 -97 -40l-14 58s66 47 144 47c115 0 171 -71 171 -159c0 -108 -100 -199 -184 -257h188z" />
    <glyph glyph-name="threefifths" horiz-adv-x="902" 
d="M839 270l-6 -119h-181l-8 -75c10 3 22 5 35 5c107 0 184 -54 184 -164c0 -130 -96 -178 -188 -178c-104 0 -144 54 -144 54l29 54s44 -43 103 -43c48 0 78 32 78 116c0 79 -31 103 -70 103c-22 0 -40 -9 -50 -20l-7 -15l-42 6l32 276h235zM675 566l-337 -606l-55 31
l338 605zM358 750v-77l-120 -144c72 -2 138 -56 138 -151c0 -112 -91 -159 -182 -159c-108 0 -155 59 -155 59l29 54s44 -48 107 -48c48 0 77 26 77 97c0 69 -15 91 -43 91c-12 0 -23 -8 -30 -15l-9 -11l-37 43l120 146h-178l7 115h276z" />
    <glyph glyph-name="fourfifths" horiz-adv-x="902" 
d="M839 270l-6 -119h-181l-8 -75c10 3 22 5 35 5c107 0 184 -54 184 -164c0 -130 -96 -178 -188 -178c-104 0 -144 54 -144 54l29 54s44 -43 103 -43c48 0 78 32 78 116c0 79 -31 103 -70 103c-22 0 -40 -9 -50 -20l-7 -15l-42 6l32 276h235zM675 566l-337 -606l-55 31
l338 605zM124 764l117 -14c-24 -123 -83 -247 -133 -329h113v39l34 211h91v-250h42v-52l-42 -12v-127h-125v126h-185l-6 56c42 84 78 242 94 352z" />
    <glyph glyph-name="afii10104_afii10104.sc.001" horiz-adv-x="585" 
d="M499 500v-500h-122v500h122zM207 500v-500h-122v500h122zM5 704c13 11 29 17 46 17s33 -6 46 -17c13 -15 20 -33 20 -52s-7 -38 -20 -52c-13 -12 -29 -18 -46 -18s-33 6 -46 18c-13 14 -20 33 -20 52s7 37 20 52zM164 704c13 11 29 17 46 17s33 -6 46 -17
c13 -15 20 -33 20 -52s-7 -38 -20 -52c-13 -12 -29 -18 -46 -18s-33 6 -46 18c-13 14 -20 33 -20 52s7 37 20 52zM325 704c12 11 29 17 46 17s33 -6 46 -17c13 -15 19 -33 19 -52s-6 -38 -19 -52c-13 -12 -29 -18 -46 -18s-34 6 -46 18c-14 14 -20 33 -20 52s6 37 20 52z
M484 704c12 11 28 17 45 17c16 0 33 -6 46 -17c13 -15 20 -33 20 -52s-7 -38 -20 -52c-13 -12 -30 -18 -46 -18c-17 0 -33 6 -45 18c-14 14 -20 33 -20 52s6 37 20 52z" />
    <glyph glyph-name="A.swsh" horiz-adv-x="752" 
d="M443 551h-1l-105 -306h186zM539 665l11 -61l183 -604h-146l-47 182h-224c-72 -218 -148 -279 -233 -302l-38 66c60 19 130 64 197 264l133 374c-182 -11 -268 -96 -268 -198c0 -25 5 -51 15 -77l-74 -20c-14 35 -21 69 -21 102c0 142 130 257 372 259h30
c47 1 85 4 110 15z" />
    <glyph glyph-name="B.swsh" horiz-adv-x="825" 
d="M471 541c0 -65 0 -125 -1 -180h84c28 0 72 24 72 112c0 82 -44 112 -98 112h-57v-44zM468 301c-2 -99 -6 -178 -11 -236h76c71 0 117 39 117 127c0 82 -38 109 -90 109h-92zM531 650c161 0 230 -83 230 -169c0 -73 -48 -117 -97 -142c72 -23 125 -74 125 -152
c0 -110 -83 -187 -253 -187h-214c11 98 11 211 11 542c0 15 0 30 1 44h-1c-144 0 -219 -79 -219 -177c0 -32 8 -65 24 -99l-63 -31c-24 45 -35 91 -35 133c0 133 110 238 293 238h7c6 36 18 61 37 73l106 -14c-5 -22 -8 -40 -10 -59h58z" />
    <glyph glyph-name="C.swsh" horiz-adv-x="591" 
d="M512 323l-54 33c36 23 59 71 59 117c0 58 -37 112 -132 112c-105 0 -177 -69 -177 -312c0 -245 62 -314 173 -314c107 0 156 82 156 82l44 -48s-52 -109 -226 -109c-193 0 -299 132 -299 383c0 256 129 393 316 393c160 0 225 -87 225 -176c0 -62 -32 -126 -85 -161z" />
    <glyph glyph-name="D.swsh" horiz-adv-x="903" 
d="M554 579h-83v-38c0 -212 -6 -370 -13 -470h98c114 0 159 65 159 252c0 188 -45 256 -161 256zM377 723l106 -14c-5 -22 -8 -40 -10 -59h81c200 0 314 -112 314 -327c0 -210 -108 -323 -313 -323h-233c11 98 11 211 11 542c0 15 0 30 1 43c-1 0 -1 1 -1 1
c-144 0 -219 -79 -219 -177c0 -32 8 -65 24 -99l-63 -31c-24 45 -35 91 -35 133c0 133 110 238 293 238h7c6 36 18 61 37 73z" />
    <glyph glyph-name="E.swsh" horiz-adv-x="562" 
d="M406 298v-74l-123 3c-31 -4 -64 -31 -64 -130c0 -106 40 -136 118 -136c101 0 151 74 151 74l37 -50s-50 -96 -215 -96c-136 0 -227 62 -227 199c0 94 52 145 104 170c-65 23 -131 76 -131 182c0 129 85 220 255 220c173 0 249 -86 249 -171c0 -38 -15 -77 -44 -107
l-60 28c17 19 26 43 26 67c0 56 -47 113 -150 113c-91 0 -134 -41 -134 -150c0 -100 37 -142 78 -146z" />
    <glyph glyph-name="F.swsh" horiz-adv-x="727" 
d="M455 0h-139v500c0 35 6 63 18 86c-139 0 -214 -86 -214 -189c0 -29 5 -58 17 -88l-74 -20c-15 37 -22 75 -22 110c0 139 112 251 293 251h377v-72h-256v-240h223v-70h-223v-268z" />
    <glyph glyph-name="G.swsh" horiz-adv-x="645" 
d="M512 323l-54 33c36 23 59 71 59 117c0 58 -37 112 -132 112c-105 0 -177 -69 -177 -312c0 -245 62 -314 173 -314c35 0 64 9 87 21v203h-101v68h218v-477h-60l-57 105v24c-31 -12 -67 -19 -113 -19c-193 0 -299 132 -299 383c0 256 129 393 316 393
c160 0 225 -87 225 -176c0 -62 -32 -126 -85 -161z" />
    <glyph glyph-name="H.swsh" horiz-adv-x="894" 
d="M455 214c0 -171 -64 -225 -196 -225c-54 0 -87 16 -87 16l19 65s19 -10 51 -10c47 0 74 29 74 154v286c0 35 6 63 18 86c-139 0 -214 -86 -214 -189c0 -29 5 -58 17 -88l-74 -20c-15 37 -22 75 -22 110c0 139 112 251 293 251h121v-284h224v176c0 98 11 160 44 181
l106 -14c-12 -53 -12 -85 -12 -168v-541h-138v296h-224v-82z" />
    <glyph glyph-name="I.swsh" horiz-adv-x="532" 
d="M455 650v-436c0 -171 -64 -225 -196 -225c-54 0 -87 16 -87 16l19 65s19 -10 51 -10c47 0 74 29 74 154v286c0 35 6 63 18 86c-139 0 -214 -86 -214 -189c0 -29 5 -58 17 -88l-74 -20c-15 37 -22 75 -22 110c0 139 112 251 293 251h121z" />
    <glyph glyph-name="J.swsh" horiz-adv-x="555" 
d="M349 500c0 35 6 63 18 86h-1c-139 0 -214 -86 -214 -189c0 -28 5 -58 17 -88l-73 -20c-15 38 -23 75 -23 110c0 139 112 251 293 251h121v-508c0 -191 -119 -274 -241 -274c-144 0 -203 81 -203 164c0 48 19 96 53 131l60 -24c-23 -25 -37 -62 -37 -97
c0 -52 32 -101 114 -101c65 0 116 59 116 173v386z" />
    <glyph glyph-name="K.swsh" horiz-adv-x="905" 
d="M455 650v-301l59 44l191 257h95l-208 -268l195 -294c61 -95 114 -133 162 -133c28 0 47 13 47 13l13 -49s-33 -30 -101 -30c-93 0 -178 39 -243 146l-168 257l-42 -30v-262h-139v500c0 35 6 63 18 86c-139 0 -214 -86 -214 -189c0 -29 5 -58 17 -88l-74 -20
c-15 37 -22 75 -22 110c0 139 112 251 293 251h121z" />
    <glyph glyph-name="L.swsh" horiz-adv-x="719" 
d="M706 140l66 -8v-10c0 -102 -43 -165 -130 -165c-93 0 -248 43 -300 43h-5c-25 -7 -55 -11 -87 -11c-3 23 -6 48 -8 71l21 2c34 10 53 47 53 152v286c0 35 6 63 18 86c-139 0 -214 -86 -214 -189c0 -29 5 -58 17 -88l-74 -20c-15 37 -22 75 -22 110c0 139 112 251 293 251
h121v-436c0 -68 -12 -118 -34 -153c73 -11 164 -28 211 -28c48 0 75 36 74 107z" />
    <glyph glyph-name="M.swsh" horiz-adv-x="1156" 
d="M1071 650l8 -650h-135l-8 492h-3l-189 -492h-103l-172 492h-5l-3 -362c-2 -183 -76 -236 -142 -252l-13 72c35 12 67 55 67 180l8 454c-177 -14 -261 -98 -261 -198c0 -25 6 -51 16 -77l-74 -20c-14 35 -21 69 -21 102c0 142 128 257 365 259c66 1 117 4 147 15l7 -41
l164 -453h4l189 479h154z" />
    <glyph glyph-name="N.swsh" horiz-adv-x="950" 
d="M873 650v-650h-108l-302 477l-2 -347c-1 -183 -76 -236 -142 -252l-13 72c35 12 67 55 67 180l8 454c-177 -14 -261 -98 -261 -198c0 -25 6 -51 16 -77l-74 -20c-14 35 -21 69 -21 102c0 142 128 257 365 259c49 0 91 5 121 15l13 -48l253 -408h2l-7 45v396h85z" />
    <glyph glyph-name="O.swsh" horiz-adv-x="683" 
d="M285 352l-54 -33c-11 5 -22 11 -32 18c-10 -18 -17 -43 -17 -78c0 -123 65 -195 154 -195c95 0 157 84 157 269c0 183 -60 252 -154 252c-87 0 -137 -59 -137 -119c0 -66 43 -94 83 -114zM45 263c0 95 54 149 83 166c-3 13 -5 26 -5 41c0 104 82 190 224 190
c180 0 298 -137 298 -333c0 -191 -107 -338 -310 -338c-194 0 -290 130 -290 274z" />
    <glyph glyph-name="P.swsh" horiz-adv-x="754" 
d="M484 585h-48v-44c0 -103 -1 -195 -2 -274h50c62 0 98 33 98 157c0 123 -35 161 -98 161zM342 723l106 -14c-5 -22 -8 -40 -10 -59h59c144 0 234 -71 234 -220c0 -166 -126 -227 -231 -227h-67c-3 -91 -7 -160 -12 -203h-135c12 98 12 211 12 542c0 15 0 30 1 44h-1
c-104 0 -177 -55 -177 -128c0 -28 11 -58 34 -89l-63 -31c-36 44 -51 87 -51 126c0 106 114 186 257 186h7c6 36 18 61 37 73z" />
    <glyph glyph-name="Q.swsh" horiz-adv-x="640" 
d="M567 -56l66 -8v-7c0 -101 -61 -132 -125 -132c-144 0 -200 125 -259 196c-66 9 -132 33 -140 35l8 69c10 4 36 13 63 13c47 0 85 -19 118 -46c95 7 152 91 152 269c0 183 -60 252 -154 252c-87 0 -172 -73 -172 -187c0 -106 63 -148 104 -166l-50 -36
c-50 19 -133 70 -133 208c0 160 122 256 259 256c180 0 298 -137 298 -333c0 -168 -83 -302 -240 -332c49 -62 88 -127 143 -127c26 0 63 16 62 76z" />
    <glyph glyph-name="R.swsh" horiz-adv-x="846" 
d="M484 585h-48v-44c0 -77 0 -148 -1 -212h52c64 0 96 49 96 138c0 87 -34 118 -99 118zM342 723l106 -14c-5 -22 -8 -40 -10 -59h60c145 0 234 -62 234 -177c0 -82 -52 -145 -115 -180l151 -205c62 -84 121 -133 162 -133c29 0 47 13 47 13l14 -49s-33 -30 -101 -30
c-94 0 -173 49 -244 146l-167 227h-45c-2 -121 -7 -210 -13 -262h-135c12 98 12 211 12 542c0 15 0 30 1 44h-1c-104 0 -177 -55 -177 -128c0 -28 11 -58 34 -89l-63 -31c-36 44 -51 87 -51 126c0 106 114 186 257 186h7c6 36 18 61 37 73z" />
    <glyph glyph-name="S.swsh" horiz-adv-x="512" 
d="M436 401l-60 28c18 20 27 44 27 67c0 49 -40 94 -110 94c-55 0 -89 -34 -89 -102c0 -143 281 -163 281 -379c0 -149 -106 -219 -228 -219c-149 0 -213 80 -213 162c0 43 17 87 49 120l60 -25c-23 -22 -34 -51 -34 -80c0 -53 39 -104 118 -104c72 0 108 46 108 111
c0 130 -277 161 -277 368c0 147 88 218 217 218c124 0 193 -78 193 -158c0 -36 -13 -71 -42 -101z" />
    <glyph glyph-name="T.swsh" horiz-adv-x="585" 
d="M396 0h-138v482c0 51 14 89 39 113c-41 11 -81 19 -113 19c-47 0 -78 -18 -78 -77v-5l-65 3v9c0 104 50 134 119 134c92 0 218 -53 299 -53c50 0 83 20 82 84l65 -10v-9c0 -103 -49 -132 -117 -132c-28 0 -60 5 -93 12v-570z" />
    <glyph glyph-name="U.swsh" horiz-adv-x="862" 
d="M555 -11c-161 0 -238 95 -238 247h-1v264c0 35 6 63 18 86c-139 0 -214 -86 -214 -189c0 -29 5 -58 17 -88l-74 -20c-15 37 -22 75 -22 110c0 139 112 251 293 251h121v-394c2 -138 42 -191 122 -191c90 0 131 64 131 202v383h85v-414c0 -148 -62 -247 -238 -247z" />
    <glyph glyph-name="V.swsh" horiz-adv-x="873" 
d="M452 665l7 -42l147 -522h3l168 549h86l-209 -650h-153l-175 583c-133 -16 -207 -97 -207 -194c0 -26 5 -53 16 -80l-73 -20c-14 35 -21 69 -21 102c0 142 125 257 302 259c34 0 82 5 109 15z" />
    <glyph glyph-name="W.swsh" horiz-adv-x="1169" 
d="M1072 650h87l-169 -650h-118l-137 480h-2l-134 -480h-120l-156 583c-131 -17 -204 -98 -204 -194c0 -26 5 -53 16 -80l-73 -20c-14 35 -21 69 -21 102c0 142 125 257 302 259c34 0 83 5 109 15l4 -27l117 -480h2l133 492h111l137 -489h3z" />
    <glyph glyph-name="X.swsh" horiz-adv-x="872" 
d="M445 665l13 -44l113 -194h2l130 223h98l-184 -293l152 -242c62 -102 108 -158 155 -158c23 0 42 13 42 13l13 -49s-32 -30 -100 -30c-94 0 -175 36 -237 149l-125 214h-2l-152 -254h-104l210 326l-160 255c-122 -20 -190 -100 -190 -193c0 -26 5 -52 16 -79l-73 -20
c-14 35 -21 69 -21 102c0 142 125 257 302 259c34 0 76 5 102 15z" />
    <glyph glyph-name="Y.swsh" horiz-adv-x="819" 
d="M445 665l13 -44l129 -266h2l140 295h96l-196 -385v-265h-138v251l-169 332c-131 -17 -203 -98 -203 -194c0 -26 5 -53 16 -80l-73 -20c-14 35 -21 69 -21 102c0 142 125 257 302 259c34 0 76 5 102 15z" />
    <glyph glyph-name="Z.swsh" horiz-adv-x="587" 
d="M515 140l66 -8v-10c0 -102 -45 -165 -148 -165c-89 0 -277 43 -310 43c-23 0 -56 -6 -70 -11l-11 71c126 166 231 344 334 518h-296v72h462v-60c-101 -170 -213 -391 -360 -527c74 -11 190 -30 245 -30s89 36 88 107z" />
    <glyph glyph-name="uni0400.swsh" horiz-adv-x="562" 
d="M150 838l106 35l85 -147l-62 -17zM406 298v-74l-123 3c-31 -4 -64 -31 -64 -130c0 -106 40 -136 118 -136c101 0 151 74 151 74l37 -50s-50 -96 -215 -96c-136 0 -227 62 -227 199c0 94 52 145 104 170c-65 23 -131 76 -131 182c0 129 85 220 255 220
c173 0 249 -86 249 -171c0 -38 -15 -77 -44 -107l-60 28c17 19 26 43 26 67c0 56 -47 113 -150 113c-91 0 -134 -41 -134 -150c0 -100 37 -142 78 -146z" />
    <glyph glyph-name="afii10023.swsh" horiz-adv-x="562" 
d="M134 839c13 11 29 17 46 17s33 -6 46 -17c13 -15 20 -33 20 -52s-7 -38 -20 -52c-13 -12 -29 -18 -46 -18s-33 6 -46 18c-14 14 -20 33 -20 52s6 37 20 52zM320 839c12 11 29 17 46 17s33 -6 46 -17c13 -15 20 -33 20 -52s-7 -38 -20 -52c-13 -12 -29 -18 -46 -18
s-34 6 -46 18c-14 14 -20 33 -20 52s6 37 20 52zM406 298v-74l-123 3c-31 -4 -64 -31 -64 -130c0 -106 40 -136 118 -136c101 0 151 74 151 74l37 -50s-50 -96 -215 -96c-136 0 -227 62 -227 199c0 94 52 145 104 170c-65 23 -131 76 -131 182c0 129 85 220 255 220
c173 0 249 -86 249 -171c0 -38 -15 -77 -44 -107l-60 28c17 19 26 43 26 67c0 56 -47 113 -150 113c-91 0 -134 -41 -134 -150c0 -100 37 -142 78 -146z" />
    <glyph glyph-name="afii10051.swsh" horiz-adv-x="756" 
d="M541 709l65 -10v-9c0 -103 -49 -132 -117 -132c-28 0 -60 5 -93 12v-214h2s46 52 150 52c124 0 167 -68 167 -176v-25c0 -171 -63 -218 -169 -218c-64 0 -88 28 -88 28l19 50s18 -16 42 -16c26 0 54 13 57 110v44c0 103 -21 121 -81 121c-56 0 -93 -33 -99 -39v-287h-138
v482c0 51 14 89 39 113c-41 11 -81 19 -113 19c-47 0 -78 -18 -78 -77v-5l-65 3v9c0 104 50 134 119 134c92 0 218 -53 299 -53c50 0 83 20 82 84z" />
    <glyph glyph-name="afii10052.swsh" horiz-adv-x="677" 
d="M508 865l108 -31l-121 -130l-57 9zM455 214c0 -171 -64 -225 -196 -225c-54 0 -87 16 -87 16l19 65s19 -10 51 -10c47 0 74 29 74 154v286c0 35 6 63 18 86c-139 0 -214 -86 -214 -189c0 -29 5 -58 17 -88l-74 -20c-15 37 -22 75 -22 110c0 139 112 251 293 251h344v-72
h-223v-364z" />
    <glyph glyph-name="afii10053.swsh" horiz-adv-x="606" 
d="M512 323l-54 33c36 23 59 71 59 117c0 58 -37 112 -132 112c-105 0 -177 -69 -177 -312v-21h289v-70h-286c15 -172 74 -223 170 -223c107 0 156 82 156 82l44 -48s-52 -109 -226 -109c-193 0 -299 132 -299 383c0 256 129 393 316 393c160 0 225 -87 225 -176
c0 -62 -32 -126 -85 -161z" />
    <glyph glyph-name="afii10054.swsh" horiz-adv-x="512" 
d="M436 401l-60 28c18 20 27 44 27 67c0 49 -40 94 -110 94c-55 0 -89 -34 -89 -102c0 -143 281 -163 281 -379c0 -149 -106 -219 -228 -219c-149 0 -213 80 -213 162c0 43 17 87 49 120l60 -25c-23 -22 -34 -51 -34 -80c0 -53 39 -104 118 -104c72 0 108 46 108 111
c0 130 -277 161 -277 368c0 147 88 218 217 218c124 0 193 -78 193 -158c0 -36 -13 -71 -42 -101z" />
    <glyph glyph-name="afii10055.swsh" horiz-adv-x="532" 
d="M455 650v-436c0 -171 -64 -225 -196 -225c-54 0 -87 16 -87 16l19 65s19 -10 51 -10c47 0 74 29 74 154v286c0 35 6 63 18 86c-139 0 -214 -86 -214 -189c0 -29 5 -58 17 -88l-74 -20c-15 37 -22 75 -22 110c0 139 112 251 293 251h121z" />
    <glyph glyph-name="afii10056.swsh" horiz-adv-x="532" 
d="M246 839c13 11 29 17 46 17s33 -6 46 -17c13 -15 20 -33 20 -52s-7 -38 -20 -52c-13 -12 -29 -18 -46 -18s-33 6 -46 18c-14 14 -20 33 -20 52s6 37 20 52zM432 839c12 11 29 17 46 17s33 -6 46 -17c13 -15 20 -33 20 -52s-7 -38 -20 -52c-13 -12 -29 -18 -46 -18
s-34 6 -46 18c-14 14 -20 33 -20 52s6 37 20 52zM455 650v-436c0 -171 -64 -225 -196 -225c-54 0 -87 16 -87 16l19 65s19 -10 51 -10c47 0 74 29 74 154v286c0 35 6 63 18 86c-139 0 -214 -86 -214 -189c0 -29 5 -58 17 -88l-74 -20c-15 37 -22 75 -22 110
c0 139 112 251 293 251h121z" />
    <glyph glyph-name="afii10057.swsh" horiz-adv-x="572" 
d="M349 500c0 35 6 63 18 86h-1c-139 0 -214 -86 -214 -189c0 -28 5 -58 17 -88l-73 -20c-15 38 -23 75 -23 110c0 139 112 251 293 251h121v-508c0 -191 -119 -274 -241 -274c-144 0 -203 81 -203 164c0 48 19 96 53 131l60 -24c-23 -25 -37 -62 -37 -97
c0 -52 32 -101 114 -101c65 0 116 59 116 173v386z" />
    <glyph glyph-name="afii10058.swsh" horiz-adv-x="990" 
d="M698 338h-46v-273h47c78 0 112 39 112 140c0 102 -37 133 -113 133zM652 650v-249h46c161 0 256 -61 256 -192c0 -130 -83 -209 -251 -209h-189v578h-112c-2 -546 -147 -697 -270 -697c-38 0 -53 7 -53 7l4 84s15 -5 31 -5c87 0 199 117 207 619
c-131 -1 -202 -84 -202 -186c0 -29 6 -60 18 -91l-74 -20c-16 38 -23 77 -23 113c0 138 108 248 282 248h330z" />
    <glyph glyph-name="afii10059.swsh" horiz-adv-x="1156" 
d="M864 338h-47v-273h48c78 0 111 39 111 140c0 102 -36 133 -112 133zM455 214c0 -171 -64 -225 -196 -225c-54 0 -87 16 -87 16l19 65s19 -10 51 -10c47 0 74 29 74 154v286c0 35 6 63 18 86c-139 0 -214 -86 -214 -189c0 -29 5 -58 17 -88l-74 -20c-15 37 -22 75 -22 110
c0 139 112 251 293 251h121v-284h224v176c0 98 11 160 44 181l106 -14c-12 -53 -12 -85 -12 -168v-140h47c161 0 256 -61 256 -192c0 -130 -83 -209 -252 -209h-189v296h-224v-82z" />
    <glyph glyph-name="afii10060.swsh" horiz-adv-x="784" 
d="M541 709l65 -10v-9c0 -103 -49 -132 -117 -132c-28 0 -60 5 -93 12v-214h2s46 52 150 52c124 0 167 -68 167 -176v-232h-139v205c0 103 -21 121 -81 121c-56 0 -93 -33 -99 -39v-287h-138v482c0 51 14 89 39 113c-41 11 -81 19 -113 19c-47 0 -78 -18 -78 -77v-5l-65 3v9
c0 104 50 134 119 134c92 0 218 -53 299 -53c50 0 83 20 82 84z" />
    <glyph glyph-name="afii10061.swsh" horiz-adv-x="905" 
d="M574 865l108 -31l-121 -130l-57 9zM455 650v-301l59 44l191 257h95l-208 -268l195 -294c61 -95 114 -133 162 -133c28 0 47 13 47 13l13 -49s-33 -30 -101 -30c-93 0 -178 39 -243 146l-168 257l-42 -30v-262h-139v500c0 35 6 63 18 86c-139 0 -214 -86 -214 -189
c0 -29 5 -58 17 -88l-74 -20c-15 37 -22 75 -22 110c0 139 112 251 293 251h121z" />
    <glyph glyph-name="uni040D.swsh" horiz-adv-x="915" 
d="M443 838l106 35l85 -147l-62 -17zM838 650v-650h-138v420l7 72h-2l-251 -470l-8 -22h-130v500c0 35 6 63 18 86c-139 0 -214 -86 -214 -189c0 -29 5 -58 17 -88l-74 -20c-15 37 -22 75 -22 110c0 139 112 251 293 251h121v-431l-8 -65h2l252 474l9 22h128z" />
    <glyph glyph-name="afii10062.swsh" horiz-adv-x="855" 
d="M593 771c81 0 84 55 84 55v4l67 -9s4 -123 -151 -123c-154 0 -149 123 -149 123l66 9v-4s4 -55 83 -55zM445 665l11 -38l165 -336h2l118 359h93l-174 -459c-18 -145 -94 -303 -259 -303c-132 0 -204 101 -204 196c0 41 14 82 42 111l60 -25c-19 -20 -28 -46 -28 -74
c0 -66 51 -138 138 -138c84 0 136 59 164 152l-254 473c-128 -18 -200 -99 -200 -195c0 -26 5 -52 16 -79l-73 -20c-14 35 -21 69 -21 102c0 142 125 257 302 259c34 0 76 5 102 15z" />
    <glyph glyph-name="afii10145.swsh" horiz-adv-x="879" 
d="M708 723l106 -14c-12 -53 -12 -85 -12 -168v-541h-182l-20 -204h-77l-23 204h-250l-8 71c47 0 74 29 74 154v275c0 35 6 63 18 86c-139 0 -214 -86 -214 -189c0 -29 5 -58 17 -88l-74 -20c-15 37 -22 75 -22 110c0 139 112 251 293 251h121v-425c0 -69 -12 -118 -35 -153
h243l1 470c0 98 11 160 44 181z" />
    <glyph glyph-name="afii10017.swsh" horiz-adv-x="752" 
d="M443 551h-1l-105 -306h186zM539 665l11 -61l183 -604h-146l-47 182h-224c-72 -218 -148 -279 -233 -302l-38 66c60 19 130 64 197 264l133 374c-182 -11 -268 -96 -268 -198c0 -25 5 -51 15 -77l-74 -20c-14 35 -21 69 -21 102c0 142 130 257 372 259h30
c47 1 85 4 110 15z" />
    <glyph glyph-name="afii10018.swsh" horiz-adv-x="793" 
d="M498 338h-43v-273h44c78 0 114 34 114 140s-40 133 -115 133zM681 650v-72h-226v-177h42c161 0 259 -61 259 -192c0 -130 -86 -209 -255 -209h-185v500c0 35 6 63 18 86c-139 0 -214 -86 -214 -189c0 -29 5 -58 17 -88l-74 -20c-15 37 -22 75 -22 110
c0 139 112 251 293 251h347z" />
    <glyph glyph-name="afii10019.swsh" horiz-adv-x="825" 
d="M471 541c0 -65 0 -125 -1 -180h84c28 0 72 24 72 112c0 82 -44 112 -98 112h-57v-44zM468 301c-2 -99 -6 -178 -11 -236h76c71 0 117 39 117 127c0 82 -38 109 -90 109h-92zM531 650c161 0 230 -83 230 -169c0 -73 -48 -117 -97 -142c72 -23 125 -74 125 -152
c0 -110 -83 -187 -253 -187h-214c11 98 11 211 11 542c0 15 0 30 1 44h-1c-144 0 -219 -79 -219 -177c0 -32 8 -65 24 -99l-63 -31c-24 45 -35 91 -35 133c0 133 110 238 293 238h7c6 36 18 61 37 73l106 -14c-5 -22 -8 -40 -10 -59h58z" />
    <glyph glyph-name="afii10020.swsh" horiz-adv-x="677" 
d="M455 214c0 -171 -64 -225 -196 -225c-54 0 -87 16 -87 16l19 65s19 -10 51 -10c47 0 74 29 74 154v286c0 35 6 63 18 86c-139 0 -214 -86 -214 -189c0 -29 5 -58 17 -88l-74 -20c-15 37 -22 75 -22 110c0 139 112 251 293 251h344v-72h-223v-364z" />
    <glyph glyph-name="afii10021.swsh" horiz-adv-x="771" 
d="M529 578h-130c-5 -267 -46 -399 -100 -506h230v506zM748 72l-24 -247h-77l-23 175h-355l-41 -175h-69l-11 247h68c56 107 97 236 102 513c-129 -6 -199 -89 -199 -188c0 -29 6 -58 18 -88l-74 -20c-15 37 -22 75 -22 110c0 139 112 251 293 251h333v-578h81z" />
    </font>
</defs>
</svg>
